<svg width="356" height="374" viewBox="0 0 356 374" fill="none" xmlns="http://www.w3.org/2000/svg">
<g clip-path="url(#clip0_75_5425)">
<path d="M112.872 146.424C82.4718 149.948 66.3748 159.392 59.3755 190.845C64.4537 189.429 69.725 188.913 74.976 189.317C74.7486 190.782 73.9119 197.062 73.62 200.917C82.5227 195.858 93.5096 193.974 100.486 195.784C100.981 192.439 101.634 189.124 102.443 185.851C107.663 181.052 124.947 181.708 129.929 184.935C138.649 160.669 137.21 143.603 112.872 146.424ZM329.778 261.324C326.221 258.997 286.312 243.428 286.138 243.357C282.468 241.817 282.98 240.455 277.589 220.356C276.381 215.719 274.929 211.156 273.24 206.688C269.579 206.18 265.716 205.088 256.149 201.929C241.827 205.406 234.237 207.025 219.242 204.022C220.611 230.471 220.872 245.885 222.005 256.17C223.875 273.307 228.125 276.18 243.742 292.107C253.946 302.513 266.955 314.878 268.226 316.028C268.661 316.419 268.92 316.81 269.711 316.52C272.736 315.404 282.207 304.269 283.194 299.804C283.73 297.372 284.189 298.959 264.992 274.758C251.043 257.172 253.184 262.8 252.059 245.586C251.792 241.491 251.791 239.96 251.791 239.96C251.791 239.96 253.903 245.382 258.462 255.274C261.184 261.175 264.578 263.533 269.956 265.198C270.136 265.254 270.363 265.315 322.889 282.427C325.25 284.16 334.23 264.237 329.778 261.324ZM228.467 147.471L223.114 142.396C223.114 142.396 223.558 141.854 223.924 141.316C221.994 141.365 219.762 141.695 219.762 141.695C219.762 141.695 220.823 152.185 220.835 152.355L228.467 147.472L228.467 147.471ZM246.372 143.227C245.933 143.075 245.467 143.029 245.01 143.092C243.7 143.269 240.506 144.239 228.546 147.467L233.173 154.808L246.372 143.225L246.372 143.227Z" fill="#FFCB45"/>
<path d="M93.1551 142.02C95.4185 138.712 92.3929 135.012 92.6437 132.427C92.7057 131.838 92.9716 131.296 93.3902 130.905C93.8089 130.514 94.3507 130.301 94.9116 130.308C95.8392 130.33 96.761 130.436 97.6721 130.624C98.7275 130.724 99.2632 130.255 98.4851 128.436C97.2422 125.538 96.0176 123.157 97.311 120.935C91.1817 124.266 89.2545 128.918 89.1788 132.416C90.3655 134.377 91.5337 135.327 92.1296 136.554C92.9045 138.258 93.2574 140.139 93.1551 142.02ZM44.866 288.924C41.6381 287.702 39.658 288.183 38.2988 289.471C37.3531 290.902 38.0996 293.491 38.1115 293.66C40.2181 291.863 42.4792 290.277 44.866 288.924ZM58.6974 310.274C59.5587 310.998 60.6499 311.348 61.7427 311.252C63.0511 310.391 62.6566 307.096 59.6716 302.449C57.6118 305.152 58.6974 310.274 58.6974 310.274ZM33.0992 302.535C32.8275 305.527 40.5255 314.471 42.9931 317.174C44.4627 318.787 48.7617 323.589 52.9786 327.463C56.7694 330.946 58.7078 332.171 61.0147 331.753C64.8971 329.69 54.084 316.179 47.4084 309.024C40.0599 301.145 33.415 299.02 33.0992 302.535ZM116.279 329.474C112.188 326.377 107.818 323.716 103.233 321.532C99.007 319.773 97.7554 320.384 97.3229 321.097C97.1531 321.514 97.1023 321.974 97.1768 322.423C97.2514 322.872 97.448 323.289 97.7425 323.623C102.29 329.864 109.027 333.989 111.895 335.833C114.763 337.677 122.435 342.27 126.731 342.881C128.609 343.148 130.115 342.898 130.314 342.288C130.512 341.677 130.293 340.841 128.553 339.003C124.616 335.609 120.52 332.428 116.279 329.474ZM99.9477 312.646C99.9477 312.646 101.698 310.051 103.627 307.7C102.48 307.431 100.184 306.997 99.1682 308.44C97.9116 310.223 99.9477 312.646 99.9477 312.646ZM125.299 323.725C125.367 323.038 125.3 322.342 125.101 321.681C124.901 321.02 124.575 320.409 124.142 319.887C123.614 320.612 123.25 321.455 123.077 322.352C122.903 323.25 122.924 324.179 123.138 325.07C123.58 325.066 124.011 324.939 124.39 324.703C124.769 324.467 125.082 324.13 125.299 323.725ZM338.521 266.507C336.166 265.179 333.625 264.264 330.998 263.8C330.659 270.668 328.208 277.214 324.016 282.443C327.331 287.236 327.047 293.64 328.025 299.287C328.33 301.053 329.244 302.853 330.539 302.944C331.674 303.025 332.732 302.107 334.116 298.857C337.636 290.597 339.216 281.007 340.512 271.906C340.771 270.904 340.717 269.838 340.359 268.865C340 267.893 339.356 267.066 338.521 266.507ZM283.278 299.889C281.731 305.366 272.338 316.084 269.236 316.642C269.681 319.084 269.257 321.606 268.044 323.722C266.594 326.039 263.761 327.801 261.649 330.14C261.246 330.55 260.94 331.055 260.756 331.615C260.571 332.175 260.514 332.773 260.587 333.363C260.774 333.84 261.11 334.236 261.538 334.484C261.966 334.733 262.46 334.82 262.939 334.731L269.833 334.244C271.196 334.078 272.509 333.616 273.692 332.888C274.874 332.159 275.899 331.179 276.704 330.01C281.593 324.008 286.017 317.599 289.932 310.842C290.505 310.033 290.78 309.03 290.709 308.018C290.638 307.006 290.224 306.051 289.543 305.33C287.818 303.376 285.604 302.019 283.277 299.883L283.278 299.889ZM87.1048 130.603C87.2548 130.6 87.402 130.562 87.5362 130.492C87.6703 130.422 87.7882 130.322 87.8815 130.199C87.5452 129.486 87.3021 128.729 87.1589 127.948C87.0088 127.196 86.9282 126.432 86.9184 125.665C86.7342 125.608 86.541 125.592 86.3514 125.619C84.5315 126.097 85.1008 130.745 87.1048 130.603ZM150.575 179.473C151.094 178.839 148.568 175.57 145.872 173.333C144.481 172.175 143.083 171.483 142.422 172.381C141.761 173.28 142.587 174.575 143.949 175.772C146.629 178.105 150.047 180.106 150.566 179.468L150.575 179.473ZM180.968 169.659C180.188 168.862 178.89 169.732 177.686 171.085C175.315 173.744 173.37 177.268 173.892 177.824C174.495 178.378 177.627 175.941 179.851 173.229C181.038 171.779 181.744 170.366 180.968 169.653L180.968 169.659ZM163.444 159.898C162.402 159.972 161.557 161.564 161.906 164.352C162.687 170.602 163.21 173.719 164.019 173.747C164.828 173.776 165.225 170.846 165.272 164.114C165.292 161.215 164.646 159.814 163.444 159.898ZM147.343 224.001C146.043 225.259 145.267 226.535 145.974 227.421C146.682 228.307 147.999 227.616 149.367 226.416C152.014 224.091 154.367 220.779 153.839 220.136C153.315 219.58 149.873 221.559 147.344 224.005L147.343 224.001ZM185.492 221.226C182.51 219.353 178.818 218.032 178.39 218.753C177.961 219.475 180.988 222.203 183.995 223.981C185.519 224.881 186.989 225.304 187.565 224.326C188.141 223.348 186.994 222.169 185.493 221.229L185.492 221.226ZM166.757 221.696C165.955 221.752 165.729 224.917 165.491 231.158C165.383 233.979 166.358 235.445 167.405 235.454C168.533 235.462 169.147 233.967 168.876 231.175C168.235 224.577 167.564 221.723 166.757 221.699L166.757 221.696ZM249.696 137.876C249.696 137.876 257.686 132.369 253.326 126.541C257.896 122.811 255.701 112.229 248.301 112.41C248.41 104.818 239.804 99.2911 233.871 103.108C229.16 97.987 219.619 99.769 221.057 107.591C217.743 107.485 214.313 112.499 216.906 117.257C216.314 117.892 215.919 118.702 215.769 119.581C215.62 120.461 215.724 121.369 216.068 122.189C216.412 123.01 216.98 123.704 217.699 124.182C218.418 124.66 219.255 124.9 220.1 124.871C220.586 121.917 221.38 119.032 222.469 116.268C223.605 116.345 224.736 116.086 225.735 115.519C226.734 114.952 227.561 114.1 228.123 113.058C236.736 112.962 236.147 116.151 235.325 118.088C234.802 119.221 234.427 120.424 234.208 121.665C234.023 123.301 235.229 124.601 236.707 123.96C238.043 123.378 239.258 123.255 239.658 124.689C240.241 126.77 237.063 129.644 237.265 132.953C237.489 136.687 239.846 139.842 245.221 142.958C248.092 143.693 252.775 144.98 252.775 144.98C252.662 142.286 251.557 139.738 249.696 137.879L249.696 137.876ZM49.9811 135.349C47.6557 134.896 45.2677 135.005 42.996 135.667C44.207 136.763 45.6137 137.59 47.131 138.098C48.6483 138.606 50.2449 138.785 51.8242 138.623C51.4213 137.416 50.7947 136.304 49.9814 135.353L49.9811 135.349Z" fill="black"/>
<path d="M219.904 127.795C220.079 123.79 220.949 119.858 222.469 116.196C223.605 116.274 224.737 116.014 225.735 115.447C226.734 114.879 227.561 114.027 228.122 112.985C236.735 112.888 236.147 116.078 235.325 118.016C234.802 119.149 234.427 120.352 234.208 121.593C234.022 123.229 235.229 124.531 236.706 123.888C238.042 123.306 239.257 123.183 239.658 124.617C240.241 126.698 237.062 129.572 237.264 132.881C237.488 136.615 239.846 139.772 245.221 142.886C237.072 144.995 228.54 147.386 228.54 147.386L223.189 142.31L229.878 133.232C223.087 135.249 220.015 133.155 219.904 127.795Z" stroke="black" stroke-width="0.76809" stroke-linecap="round" stroke-linejoin="round"/>
<path d="M228.462 147.472L233.088 154.814L246.368 143.225" stroke="black" stroke-width="0.76809" stroke-linecap="round" stroke-linejoin="round"/>
<path d="M245.222 142.967C265.654 148.256 269.197 149.636 272.96 155.921C283.498 173.525 290.259 192.526 287.495 199.803C284.898 206.633 279.211 208.942 267.108 205.416C254.953 201.877 247.478 199.254 237.486 193.19C233.859 190.988 242.997 170.938 246.466 172.02C249.172 172.879 270.907 181.63 270.907 181.63" stroke="black" stroke-width="0.76809" stroke-linecap="round" stroke-linejoin="round"/>
<path d="M253.688 165.886C255.301 169.352 256.915 172.817 259.052 176.841" stroke="black" stroke-width="0.76809" stroke-linecap="round" stroke-linejoin="round"/>
<path d="M245.744 172.071C244.268 170.557 242.352 165.314 243.23 160.405C243.799 157.208 241.77 157.953 240.488 159.234C239.25 160.642 238.299 162.304 237.691 164.119C237.565 164.544 237.359 164.936 237.086 165.272C236.812 165.608 236.475 165.882 236.097 166.076C235.72 166.27 235.308 166.38 234.887 166.401C234.466 166.421 234.045 166.35 233.649 166.194C230.27 165.178 223.831 162.771 218.476 161.212C215.847 160.45 215.099 162.566 216.852 164.475C218.764 166.565 223.865 169.095 226.697 170.427C226.442 170.324 226.17 170.276 225.897 170.286C225.624 170.296 225.357 170.365 225.111 170.487C224.865 170.609 224.645 170.783 224.464 170.997C224.283 171.212 224.146 171.463 224.06 171.736C223.921 172.255 223.928 172.805 224.079 173.322C224.23 173.839 224.518 174.3 224.91 174.65C224.543 174.802 224.216 175.046 223.958 175.361C223.7 175.676 223.517 176.052 223.425 176.458C223.35 176.978 223.388 177.511 223.535 178.015C223.682 178.52 223.936 178.983 224.276 179.371C223.917 179.402 223.575 179.541 223.292 179.773C223.008 180.004 222.794 180.318 222.676 180.677C222.484 181.373 222.479 182.573 224.266 183.801C228.243 186.203 232.403 188.247 236.7 189.913" stroke="black" stroke-width="0.76809" stroke-linecap="round" stroke-linejoin="round"/>
<path d="M125.416 147.27C130.264 145.067 130.419 142.912 129.308 137.339C128.681 134.145 130.919 133.994 132.291 135.082C133.681 136.353 134.828 137.892 135.671 139.617C135.845 140.02 136.093 140.382 136.402 140.682C136.711 140.981 137.074 141.212 137.469 141.359C137.863 141.507 138.282 141.568 138.698 141.54C139.115 141.511 139.521 141.394 139.892 141.194C143.097 139.761 149.221 136.649 154.401 134.461C156.896 133.411 157.937 135.489 156.384 137.47C154.01 139.988 151.307 142.134 148.356 143.843" stroke="black" stroke-width="0.76809" stroke-linecap="round" stroke-linejoin="round"/>
<path d="M161.826 192.904C162.102 192.701 162.432 192.589 162.77 192.582L167.345 192.345" stroke="black" stroke-width="0.76809" stroke-linecap="round" stroke-linejoin="round"/>
<path d="M170.622 193.135C170.879 193.497 171.026 193.934 171.041 194.384C171.069 195.002 170.866 195.604 170.476 196.062C170.087 196.52 169.542 196.796 168.958 196.831L163.378 197.143" stroke="black" stroke-width="0.76809" stroke-linecap="round" stroke-linejoin="round"/>
<path d="M169.03 196.826C169.3 196.807 169.572 196.846 169.828 196.941C170.084 197.035 170.321 197.183 170.523 197.375C170.725 197.567 170.889 197.8 171.003 198.061C171.118 198.321 171.182 198.603 171.19 198.89L171.208 199.144C171.229 199.429 171.194 199.716 171.107 199.987C171.02 200.257 170.882 200.506 170.701 200.718C170.52 200.929 170.301 201.1 170.055 201.219C169.81 201.338 169.544 201.403 169.273 201.411L163.737 201.715" stroke="black" stroke-width="0.76809" stroke-linecap="round" stroke-linejoin="round"/>
<path d="M169.032 201.427C169.302 201.408 169.574 201.447 169.83 201.541C170.087 201.635 170.323 201.782 170.526 201.974C170.727 202.168 170.89 202.402 171.004 202.662C171.119 202.923 171.182 203.205 171.192 203.491L171.21 203.745C171.241 204.328 171.058 204.899 170.698 205.337C170.338 205.776 169.83 206.049 169.281 206.097C169.281 206.097 165.828 206.255 164.626 206.34C164.337 206.389 164.041 206.362 163.763 206.261C163.485 206.161 163.233 205.99 163.032 205.763" stroke="black" stroke-width="0.76809" stroke-linecap="round" stroke-linejoin="round"/>
<path d="M161.872 188.609C162.043 188.374 162.263 188.185 162.514 188.054C162.766 187.924 163.043 187.856 163.324 187.856L167.818 187.624" stroke="black" stroke-width="0.76809" stroke-linecap="round" stroke-linejoin="round"/>
<path d="M180.775 187.477C174.431 187.75 173.574 184.746 170.929 184.932C170.3 184.969 169.696 185.201 169.195 185.6C168.693 186 168.316 186.548 168.111 187.176C167.571 189.064 167.355 191.042 167.474 193.016C167.478 195.147 169.424 195.521 170.337 193.751L171.825 190.834C171.825 190.834 173.915 198.783 178.351 200.004" stroke="black" stroke-width="0.76809" stroke-linecap="round" stroke-linejoin="round"/>
<path d="M165.915 206.335C166.512 207.08 167.254 207.681 168.09 208.094C168.927 208.508 169.836 208.724 170.757 208.729C178.233 208.508 181.189 208.168 182.8 207.026" stroke="black" stroke-width="0.76809" stroke-linecap="round" stroke-linejoin="round"/>
<path d="M223.92 141.312C209.467 141.981 201.193 148.028 202.24 162.866C203.012 168.982 204.273 175.022 206.011 180.92C206.796 183.758 205.425 184.029 203.903 184.137L182.099 185.675C181.746 185.722 181.422 185.904 181.19 186.187C180.957 186.471 180.832 186.836 180.838 187.212C181.011 194.599 181.826 201.957 183.276 209.196C183.383 209.773 183.686 210.29 184.126 210.651C184.567 211.012 185.115 211.192 185.669 211.157C194.227 210.718 218.005 207.617 219.487 207.412" stroke="black" stroke-width="0.76809" stroke-linecap="round" stroke-linejoin="round"/>
<path d="M228.463 147.472L220.831 152.355L219.758 141.695" stroke="black" stroke-width="0.76809" stroke-linecap="round" stroke-linejoin="round"/>
<path d="M211.346 157.201C210.472 159.648 209.387 164.593 211.49 172.953C213.528 181.033 215.76 189.059 218.183 197.023C218.841 199.295 219.223 201.645 219.321 204.016C219.871 216.5 221.38 252.096 222.699 261.039C223.68 267.7 225.326 272.016 232.25 279.954C239.174 287.893 266.68 314.678 268.822 316.487C270.963 318.297 285.765 300.892 283.196 297.578C281.068 294.832 261.499 270.183 255 262.16C253.693 260.519 252.913 258.485 252.772 256.353L251.617 239.993" stroke="black" stroke-width="0.76809" stroke-linecap="round" stroke-linejoin="round"/>
<path d="M239.271 220.758L242.627 221.459C242.918 221.522 243.191 221.654 243.428 221.844C243.665 222.033 243.858 222.277 243.995 222.556L258.669 255.86C259.614 257.983 260.967 259.877 262.643 261.418C264.319 262.96 266.28 264.114 268.398 264.807C268.398 264.807 320.092 281.611 323.061 282.596C326.031 283.581 333.719 263.713 330.197 261.555C326.74 259.434 297.113 247.822 286.058 243.367C285.289 243.052 284.598 242.555 284.037 241.915C283.476 241.275 283.06 240.509 282.821 239.675C280.864 233.024 276.8 215.986 273.336 206.857" stroke="black" stroke-width="0.76809" stroke-linecap="round" stroke-linejoin="round"/>
<path d="M324.009 282.352C327.503 286.197 327.14 295.849 328.239 300.118C329.017 303.131 331.2 304.107 332.915 301.322C336.573 295.394 339.655 280.397 340.575 271.725C340.957 268.047 339.837 265.746 331.088 263.823" stroke="black" stroke-width="0.76809" stroke-linecap="round" stroke-linejoin="round"/>
<path d="M269.241 316.722C270.111 324.5 266.174 325.484 261.955 329.932C259.865 332.137 260.142 335.045 263.184 334.788C272.882 333.968 272.963 335.123 278.866 327.546C283.018 322.243 286.794 316.622 290.165 310.729C291.894 307.553 290.67 305.326 283.294 300.051" stroke="black" stroke-width="0.76809" stroke-linecap="round" stroke-linejoin="round"/>
<path d="M218.293 197.442C227.734 198.82 235.735 199.185 244.691 197.113" stroke="black" stroke-width="0.76809" stroke-linecap="round" stroke-linejoin="round"/>
<path d="M219.328 204.101C235.51 207.39 244.352 204.891 256.235 202.008" stroke="black" stroke-width="0.76809" stroke-linecap="round" stroke-linejoin="round"/>
<path d="M256.637 207.688C258.153 209.842 260.173 211.542 262.497 212.619C264.82 213.696 267.365 214.113 269.878 213.828" stroke="black" stroke-width="0.76809" stroke-linecap="round" stroke-linejoin="round"/>
<path d="M264.877 221.763L273.904 246.946C274.357 248.217 275.076 249.365 276.008 250.303C276.939 251.242 278.059 251.945 279.281 252.361L322.903 267.784" stroke="black" stroke-width="0.76809" stroke-linecap="round" stroke-linejoin="round"/>
<path d="M242.422 232.295C242.44 232.549 242.954 251.688 243.119 260.45C243.161 263.234 244.151 265.918 245.907 268.008L272.736 300.03" stroke="black" stroke-width="0.76809" stroke-linecap="round" stroke-linejoin="round"/>
<path d="M220.095 124.8C219.248 124.83 218.411 124.591 217.692 124.113C216.972 123.635 216.403 122.941 216.059 122.12C215.716 121.299 215.612 120.39 215.762 119.51C215.912 118.631 216.308 117.821 216.9 117.186C214.228 112.431 217.74 107.412 221.051 107.519C219.613 99.6958 229.235 97.9099 233.866 103.037C239.798 99.2093 248.404 104.738 248.295 112.328C255.615 112.161 257.884 122.644 253.32 126.461C257.673 132.202 249.69 137.794 249.69 137.794C251.553 139.655 252.658 142.208 252.769 144.905" stroke="black" stroke-width="0.76809" stroke-linecap="round" stroke-linejoin="round"/>
<path d="M73.4668 213.623C64.0376 215.908 52.9071 212.1 60.9085 185.194C68.5996 159.351 81.4501 150.931 109.511 146.747C136.773 142.683 140.137 158.39 128.303 189.306C134.504 189.293 141.846 189.458 141.846 189.458C142.523 189.44 143.18 189.216 143.737 188.814C144.295 188.412 144.731 187.848 144.993 187.189C145.905 184.799 146.756 183.644 148.687 183.605C151.583 183.551 153.78 188.446 153.78 188.446" stroke="black" stroke-width="0.76809" stroke-linecap="round" stroke-linejoin="round"/>
<path d="M108.553 165.134C108.553 165.134 99.8746 189.359 99.977 202.295C100.028 208.682 100.276 217.951 121.238 217.07C133.125 216.572 157.565 211.345 160.697 210.027C164.137 208.579 163.827 205.29 161.597 204.51C162.217 204.393 162.776 204.045 163.171 203.53C163.567 203.014 163.774 202.364 163.755 201.697C163.737 201.031 163.495 200.391 163.072 199.894C162.65 199.396 162.074 199.072 161.449 198.981C162.106 198.826 162.684 198.416 163.067 197.833C163.451 197.249 163.614 196.533 163.523 195.825C163.433 195.117 163.096 194.468 162.579 194.005C162.062 193.543 161.402 193.299 160.727 193.323C161.059 193.281 161.378 193.169 161.667 192.994C161.956 192.818 162.208 192.583 162.409 192.302C162.61 192.021 162.755 191.7 162.835 191.358C162.916 191.016 162.931 190.659 162.879 190.31C162.828 189.96 162.711 189.624 162.535 189.323C162.36 189.021 162.128 188.759 161.856 188.552C161.583 188.345 161.274 188.197 160.948 188.118C160.621 188.039 160.283 188.03 159.955 188.092C156.74 188.236 155.547 188.403 151.539 188.686" stroke="black" stroke-width="0.76809" stroke-linecap="round" stroke-linejoin="round"/>
<path d="M161.597 204.51L158.811 204.961" stroke="black" stroke-width="0.76809" stroke-linecap="round" stroke-linejoin="round"/>
<path d="M161.448 198.981L158.729 199.258" stroke="black" stroke-width="0.76809" stroke-linecap="round" stroke-linejoin="round"/>
<path d="M160.727 193.322L158.409 193.571" stroke="black" stroke-width="0.76809" stroke-linecap="round" stroke-linejoin="round"/>
<path d="M148.599 148.164L142.703 151.307C142.198 151.564 141.616 151.606 141.079 151.421C140.543 151.237 140.092 150.841 139.822 150.317L139.724 150.068C139.476 149.532 139.432 148.917 139.602 148.351C139.772 147.785 140.143 147.312 140.637 147.031L146.529 143.879C147.035 143.621 147.616 143.58 148.153 143.765C148.69 143.949 149.14 144.345 149.41 144.869L149.507 145.118C149.638 145.382 149.719 145.671 149.744 145.967C149.77 146.264 149.739 146.562 149.655 146.846C149.571 147.129 149.434 147.391 149.253 147.617C149.071 147.844 148.849 148.029 148.599 148.164Z" stroke="black" stroke-width="0.76809" stroke-linecap="round" stroke-linejoin="round"/>
<path d="M149.669 153.031L144.545 155.778C144.039 156.036 143.458 156.076 142.922 155.892C142.385 155.708 141.935 155.313 141.664 154.788L141.567 154.54C141.318 154.004 141.275 153.388 141.445 152.822C141.615 152.256 141.986 151.783 142.481 151.502L147.603 148.753C148.108 148.495 148.69 148.454 149.226 148.639C149.763 148.823 150.213 149.218 150.484 149.743L150.582 149.993C150.812 150.532 150.845 151.141 150.677 151.701C150.508 152.262 150.149 152.735 149.669 153.031Z" stroke="black" stroke-width="0.76809" stroke-linecap="round" stroke-linejoin="round"/>
<path d="M150.891 157.801L146.545 160.153C146.039 160.411 145.458 160.452 144.921 160.267C144.384 160.083 143.934 159.687 143.664 159.163L143.567 158.914C143.318 158.378 143.274 157.763 143.445 157.197C143.615 156.63 143.986 156.157 144.48 155.877L148.825 153.524C149.331 153.263 149.915 153.22 150.453 153.405C150.992 153.589 151.444 153.986 151.714 154.513L151.813 154.763C151.948 155.027 152.031 155.316 152.057 155.614C152.084 155.911 152.053 156.211 151.967 156.495C151.881 156.779 151.741 157.041 151.556 157.265C151.371 157.49 151.145 157.672 150.891 157.801Z" stroke="black" stroke-width="0.76809" stroke-linecap="round" stroke-linejoin="round"/>
<path d="M134.158 169.548C140.144 166.073 145.844 162.079 151.2 157.607" stroke="black" stroke-width="0.76809" stroke-linecap="round" stroke-linejoin="round"/>
<path d="M79.4557 167.186C76.0289 181.403 72.6125 199.539 73.4721 213.623C74.0706 223.465 77.3021 243.348 77.8548 251.745C78.0716 255.053 77.606 256.118 75.5532 257.957C67.2454 265.402 41.5672 286.131 38.9038 288.832C37.3439 290.417 38.2763 293.648 38.2763 293.648" stroke="black" stroke-width="0.76809" stroke-linecap="round" stroke-linejoin="round"/>
<path d="M87.2904 216.568C87.274 221.576 88.807 226.465 91.6557 230.49C95.1473 235.708 107.393 255.091 111.932 262.117C112.457 262.927 112.789 263.857 112.9 264.829C113.011 265.801 112.896 266.785 112.567 267.696C112.567 267.696 102.022 296.845 98.6355 306.597C98.3734 307.637 98.3561 308.731 98.5848 309.784C98.8135 310.838 99.2815 311.818 99.9481 312.64" stroke="black" stroke-width="0.76809" stroke-linecap="round" stroke-linejoin="round"/>
<path d="M123.22 325.074C123.852 325.029 124.45 324.759 124.915 324.308C125.381 323.858 125.687 323.252 125.784 322.591C128.603 313.694 142.688 269.93 144.475 263.243C146.447 255.861 144.457 247.898 139.67 238.53C133.992 227.418 129.843 219.109 128.363 216.415" stroke="black" stroke-width="0.76809" stroke-linecap="round" stroke-linejoin="round"/>
<path d="M105.768 252.417L106.628 260.026C107.118 266.979 106.835 269.806 101.119 275.582C95.4041 281.359 64.1414 310.024 62.7713 310.924C62.1371 311.252 61.4211 311.365 60.7209 311.246C60.0207 311.128 59.3704 310.784 58.8587 310.262" stroke="black" stroke-width="0.76809" stroke-linecap="round" stroke-linejoin="round"/>
<path d="M102.442 185.845C106.342 181.736 123.377 181.13 129.928 184.929" stroke="black" stroke-width="0.76809" stroke-linecap="round" stroke-linejoin="round"/>
<path d="M59.4561 190.838C64.5306 189.402 69.8052 188.885 75.0566 189.311" stroke="black" stroke-width="0.76809" stroke-linecap="round" stroke-linejoin="round"/>
<path d="M38.4895 289.36C41.1043 286.932 47.001 288.132 54.9051 296.481C62.6553 304.711 63.45 310.28 61.8267 311.246" stroke="black" stroke-width="0.76809" stroke-linecap="round" stroke-linejoin="round"/>
<path d="M59.7613 302.529C58.7169 303.71 58.1266 306.733 58.7778 310.268C59.6917 315.23 63.1717 324.783 63.1152 329.56C63.0942 331.606 60.1474 333.268 55.8961 329.984C50.2609 325.624 33.3514 307.801 32.9046 302.123C32.5181 297.208 40.907 291.077 44.9431 288.919" stroke="black" stroke-width="0.76809" stroke-linecap="round" stroke-linejoin="round"/>
<path d="M33.0505 302.924C33.0073 298.679 40.487 300.684 50.6535 312.719C59.6247 323.42 63.7337 330.288 60.9452 331.849" stroke="black" stroke-width="0.76809" stroke-linecap="round" stroke-linejoin="round"/>
<path d="M124.223 319.881C123.608 320.755 123.221 321.785 123.1 322.869C122.978 323.953 123.127 325.055 123.532 326.064C125.627 330.689 129.47 333.154 130.798 337.651C131.513 340.078 131.034 342.076 130.103 342.643C128.334 343.723 123.75 343.755 109.549 334.474C103.896 330.774 98.6911 325.875 96.864 322.5C95.1763 319.391 98.1564 314.57 103.553 307.714" stroke="black" stroke-width="0.76809" stroke-linecap="round" stroke-linejoin="round"/>
<path d="M97.3111 323.228C95.7064 318.739 101.783 319.156 115.688 329.089C126.212 336.605 131.673 340.999 130.097 342.644" stroke="black" stroke-width="0.76809" stroke-linecap="round" stroke-linejoin="round"/>
<path d="M98.754 310.43C98.5745 307.885 100.199 306.91 103.636 307.7C113.216 309.897 126.198 318.122 125.383 323.633" stroke="black" stroke-width="0.76809" stroke-linecap="round" stroke-linejoin="round"/>
<path d="M119.338 306.592C119.338 306.592 130.216 276.937 132.085 270.33C134.987 260.07 132.628 255.209 130.49 250.076C127.777 243.537 111.955 222.498 111.955 222.498" stroke="black" stroke-width="0.76809" stroke-linecap="round" stroke-linejoin="round"/>
<path d="M73.619 200.917C77.8653 198.317 90.4783 193.256 100.485 195.784" stroke="black" stroke-width="0.76809" stroke-linecap="round" stroke-linejoin="round"/>
<path d="M73.3517 207.411C81.7472 203.552 90.911 201.882 100.076 202.542" stroke="black" stroke-width="0.76809" stroke-linecap="round" stroke-linejoin="round"/>
<path d="M110.361 146.625C107.986 146.118 105.819 144.831 104.169 142.948C102.939 141.501 103.365 140.703 103.849 140.754C108.169 141.473 112.489 140.748 112.949 138.493C113.685 134.872 105.549 112.429 95.3642 116.47C88.0749 119.367 82.9492 125.439 91.2055 135.171C95.1605 139.833 92.7266 149.889 88.049 152.094" stroke="black" stroke-width="0.76809" stroke-linecap="round" stroke-linejoin="round"/>
<path d="M93.1867 141.956C95.7769 137.701 91.0475 133.805 93.1075 131.201C94.6591 129.216 97.5282 131.212 98.5286 130.393C99.8103 129.341 95.1303 124.412 97.2169 120.941" stroke="black" stroke-width="0.76809" stroke-linecap="round" stroke-linejoin="round"/>
<path d="M89.0862 132.298C89.1634 125.282 96.7527 119.442 103.934 119.019" stroke="black" stroke-width="0.76809" stroke-linecap="round" stroke-linejoin="round"/>
<path d="M85.5187 126.369C78.5111 125.243 77.7188 130.067 78.4157 135.306C78.7785 137.034 78.5337 138.839 77.7271 140.381C76.8839 141.742 77.1735 142.799 78.4736 142.969C79.6381 143.129 80.8192 142.952 81.8909 142.456C82.9626 141.961 83.8846 141.166 84.5584 140.156C86.1437 137.408 82.7036 130.998 86.1876 130.155" stroke="black" stroke-width="0.76809" stroke-linecap="round" stroke-linejoin="round"/>
<path d="M196.133 285.239C206.227 284.527 213.798 275.295 213.045 264.618C212.292 253.94 203.499 245.862 193.405 246.574C183.311 247.287 175.74 256.519 176.493 267.196C177.246 277.874 186.039 285.952 196.133 285.239Z" stroke="black" stroke-width="0.76809" stroke-linecap="round" stroke-linejoin="round"/>
<path d="M42.4236 167.499C55.1748 166.599 64.7377 154.937 63.7862 141.451C62.8346 127.962 51.7275 117.76 38.978 118.659C26.2268 119.559 16.6639 131.221 17.6154 144.708C18.5669 158.196 29.674 168.398 42.4236 167.499Z" stroke="black" stroke-width="0.76809" stroke-linecap="round" stroke-linejoin="round"/>
<path d="M22.4805 144.023C22.199 138.998 23.7893 134.071 26.9108 130.299C30.0324 126.527 34.4369 124.208 39.1808 123.841M55.4574 131.896C53.732 129.335 51.4248 127.271 48.7509 125.898L55.4574 131.896ZM32.1387 159.961C29.5363 158.487 27.3115 156.361 25.6601 153.772L32.1387 159.961ZM58.7804 141.382C59.0877 144.558 58.6201 147.759 57.4223 150.677C56.0663 153.998 53.8558 156.845 51.0404 158.895C48.2251 160.945 44.9172 162.117 41.4907 162.278L58.7804 141.382Z" stroke="black" stroke-width="0.76809" stroke-linecap="round" stroke-linejoin="round"/>
<path d="M34.9223 131.983C33.4536 132.802 32.1855 133.968 31.216 135.392C30.7387 136.619 31.2856 137.551 33.8679 137.591C36.9608 137.248 40.015 136.604 42.9919 135.669C45.2642 135.011 47.6514 134.902 49.977 135.351C48.2374 132.999 45.7693 131.369 43.0123 130.752C40.2553 130.135 37.3885 130.571 34.9223 131.983ZM52.3695 140.646C43.0281 149.823 33.0657 144.478 29.5268 138.847C28.9165 140.67 28.7149 142.622 28.9375 144.548C29.1601 146.475 29.801 148.324 30.81 149.951C31.819 151.579 33.1688 152.94 34.7536 153.93C36.3385 154.919 38.1155 155.508 39.9454 155.652C41.7754 155.796 43.6088 155.491 45.3021 154.76C46.9954 154.03 48.5026 152.893 49.7058 151.44C50.909 149.986 51.7756 148.256 52.2377 146.383C52.6999 144.511 52.745 142.547 52.3695 140.646Z" stroke="black" stroke-width="0.76809" stroke-linecap="round" stroke-linejoin="round"/>
<path d="M49.9811 135.353C47.6565 134.886 45.2656 134.995 42.996 135.67C44.207 136.767 45.6137 137.594 47.131 138.102C48.6483 138.61 50.2449 138.788 51.8242 138.626C51.2628 137.503 50.6476 136.41 49.9811 135.353Z" stroke="black" stroke-width="0.76809" stroke-linecap="round" stroke-linejoin="round"/>
<path d="M156.742 117.424C178.125 115.916 194.165 96.3575 192.569 73.739C190.973 51.1206 172.346 34.0082 150.964 35.5167C129.581 37.0252 113.542 56.5833 115.137 79.2C116.733 101.82 135.36 118.933 156.742 117.424Z" stroke="black" stroke-width="0.76809" stroke-linecap="round" stroke-linejoin="round"/>
<path d="M201.59 254.007C204.058 255.489 206.01 257.777 207.149 260.524C208.288 263.272 208.553 266.33 207.904 269.236C207.252 272.142 205.722 274.737 203.544 276.628C201.366 278.52 198.659 279.606 195.832 279.722" stroke="black" stroke-width="0.76809" stroke-linecap="round" stroke-linejoin="round"/>
<path d="M188.385 278.202C185.914 276.721 183.961 274.433 182.821 271.685C181.68 268.936 181.416 265.877 182.067 262.97C182.718 260.063 184.249 257.467 186.428 255.576C188.607 253.684 191.316 252.6 194.144 252.487" stroke="black" stroke-width="0.76809" stroke-linecap="round" stroke-linejoin="round"/>
<path d="M189.941 268.292C189.469 270.711 191.283 272.455 193.661 273.057C194.165 273.255 194.701 273.344 195.236 273.316C195.772 273.289 196.296 273.146 196.776 272.897C197.256 272.648 197.682 272.298 198.029 271.867C198.375 271.437 198.634 270.936 198.79 270.395C199.35 268.055 198.036 266.728 195.243 265.788C192.177 264.757 191.389 263.011 191.928 260.995C192.545 258.677 195.039 258.218 197.006 258.761C199.225 259.371 200.62 260.892 200.209 263.052" stroke="black" stroke-width="0.76809" stroke-linecap="round" stroke-linejoin="round"/>
<path d="M197.539 256.083L196.922 258.766" stroke="black" stroke-width="0.76809" stroke-linecap="round" stroke-linejoin="round"/>
<path d="M193.666 273.143L193.131 275.82" stroke="black" stroke-width="0.76809" stroke-linecap="round" stroke-linejoin="round"/>
<path d="M154.95 85.1699L167.919 74.8817L150.887 53.8437L139.754 78.7437L154.95 85.1699Z" stroke="black" stroke-width="0.76809" stroke-linecap="round" stroke-linejoin="round"/>
<path d="M139.755 78.7439L153.016 70.31L167.919 74.8819" stroke="black" stroke-width="0.76809" stroke-linecap="round" stroke-linejoin="round"/>
<path d="M166.706 79.3983L156.744 99.1888L142.568 83.2316" stroke="black" stroke-width="0.76809" stroke-linecap="round" stroke-linejoin="round"/>
<path d="M156.746 99.1881L155.204 87.6235" stroke="black" stroke-width="0.76809" stroke-linecap="round" stroke-linejoin="round"/>
<path d="M154.951 85.1699L150.888 53.8438" stroke="black" stroke-width="0.76809" stroke-linecap="round" stroke-linejoin="round"/>
<path d="M135.914 304.063C145.584 296.758 155.127 289.267 164.537 281.593" stroke="black" stroke-width="0.76809" stroke-linecap="round" stroke-linejoin="round"/>
<path d="M78.9717 303.048C80.5512 308.305 81.6141 311.98 82.1428 313.732C84.7592 322.412 89.7699 327.083 95.5475 327.954" stroke="black" stroke-width="0.76809" stroke-linecap="round" stroke-linejoin="round"/>
<path d="M41.3359 171.581C50.2909 203.755 59.4547 236.592 66.2391 259.726" stroke="black" stroke-width="0.76809" stroke-linecap="round" stroke-linejoin="round"/>
<path d="M114.607 55.721C112.545 54.6481 110.266 54.1349 107.977 54.228C88.7928 53.9461 50.2667 54.915 31.0612 55.5703C17.8046 56.0088 12.0955 64.1477 15.6932 77.5262C18.3089 87.2275 22.0297 101.108 26.4818 117.41" stroke="black" stroke-width="0.76809" stroke-linecap="round" stroke-linejoin="round"/>
<path d="M139.464 133.977C138.08 129.217 136.263 122.869 134.323 115.934" stroke="black" stroke-width="0.76809" stroke-linecap="round" stroke-linejoin="round"/>
<path d="M127.63 112.405C129.2 118.069 130.807 123.722 132.451 129.363" stroke="black" stroke-width="0.76809" stroke-linecap="round" stroke-linejoin="round"/>
<path d="M42.0934 114.861C37.2546 97.6482 33.0169 82.0183 30.3178 72.4016C28.6028 66.3029 30.81 64.5415 34.1069 64.4681C39.8173 64.3398 50.3475 64.022 55.6495 63.8001C58.7014 63.6757 60.0875 66.2138 61.2131 68.4344C63.5474 73.0447 64.9607 73.6009 66.9663 73.4822C70.4969 73.2768 84.9289 72.3426 88.0521 72.0803C90.1347 71.9054 91.4408 71.4109 91.7251 67.0497C91.9108 64.2206 92.1424 62.6755 94.6327 62.5838C97.2038 62.4881 106.291 62.2458 109.584 62.1237C110.336 61.9847 111.112 62.0772 111.819 62.39C112.527 62.7028 113.136 63.2229 113.575 63.8886" stroke="black" stroke-width="0.76809" stroke-linecap="round" stroke-linejoin="round"/>
<path d="M59.6865 178.125C58.61 174.282 57.4439 170.198 56.248 165.927" stroke="black" stroke-width="0.76809" stroke-linecap="round" stroke-linejoin="round"/>
<path d="M96.1059 304.992C94.7217 300.232 93.1618 295.23 91.5703 289.804" stroke="black" stroke-width="0.76809" stroke-linecap="round" stroke-linejoin="round"/>
<path d="M157.673 274.489C152.141 278.458 146.592 282.4 141.026 286.315" stroke="black" stroke-width="0.76809" stroke-linecap="round" stroke-linejoin="round"/>
<path d="M259.255 314.359C254.681 320.307 247.441 321.582 239.698 318.04C220.639 309.322 183.338 288.693 165.8 277.666C158.972 273.373 159.843 266.142 160.904 258.574C161.472 254.521 162.074 250.055 162.786 245.403" stroke="black" stroke-width="0.76809" stroke-linecap="round" stroke-linejoin="round"/>
<path d="M190.296 56.4316C191.878 53.7628 194.424 52.1857 198.968 51.4734C218.477 48.4162 257.871 43.7252 277.537 41.5857C291.125 40.1023 298.637 45.7256 296.949 62.1146C294.959 81.4337 287.75 133.829 283.397 165.75" stroke="black" stroke-width="0.76809" stroke-linecap="round" stroke-linejoin="round"/>
<path d="M175.462 155.556C177.291 142.646 179.639 125.702 181.88 109.515" stroke="black" stroke-width="0.76809" stroke-linecap="round" stroke-linejoin="round"/>
<path d="M188.623 102.309L179.928 164.018" stroke="black" stroke-width="0.76809" stroke-linecap="round" stroke-linejoin="round"/>
<path d="M268.927 146.748C272.448 120.169 278.275 76.7148 280.652 58.3235C281.474 51.9548 278.974 50.529 275.619 50.9231C269.788 51.6109 258.992 52.7573 253.56 53.4168C250.445 53.794 249.345 56.525 248.543 58.7994C246.789 63.7751 245.483 64.5284 243.402 64.6997C239.797 64.9978 224.898 66.18 221.696 66.4059C219.613 66.5529 218.129 66.2326 217.193 61.9486C216.588 59.1823 216.086 57.6418 213.528 57.9499C210.893 58.2653 201.543 59.3324 198.266 59.707C197.348 59.6757 196.448 59.9619 195.702 60.5221C194.957 61.0823 194.406 61.886 194.135 62.811" stroke="black" stroke-width="0.76809" stroke-linecap="round" stroke-linejoin="round"/>
<path d="M203.971 286.731L239.721 304.66C242.721 306.165 246.209 306.418 247.299 301.312" stroke="black" stroke-width="0.76809" stroke-linecap="round" stroke-linejoin="round"/>
<path d="M168.673 242.015C167.585 249.42 166.587 256.299 165.756 262.335C165.319 265.514 165.491 267.337 168.812 269.107C170.331 269.916 172.07 270.752 173.911 271.729" stroke="black" stroke-width="0.76809" stroke-linecap="round" stroke-linejoin="round"/>
<path d="M65.8447 66.7451L79.5698 66.0322" stroke="black" stroke-width="0.76809" stroke-linecap="round" stroke-linejoin="round"/>
<path d="M85.1999 68.1898C85.5051 68.1682 85.8028 68.0833 86.076 67.9399C86.3492 67.7965 86.5926 67.5974 86.7923 67.3539C86.992 67.1104 87.144 66.8274 87.2398 66.5209C87.3355 66.2144 87.3731 65.8905 87.3503 65.5677C87.3275 65.2449 87.2449 64.9295 87.107 64.6395C86.9692 64.3495 86.7789 64.0906 86.547 63.8776C86.3152 63.6646 86.0462 63.5016 85.7556 63.3979C85.4649 63.2943 85.1583 63.252 84.8531 63.2736C84.2368 63.317 83.664 63.6177 83.2607 64.1094C82.8574 64.6012 82.6567 65.2437 82.7027 65.8956C82.7487 66.5475 83.0376 67.1555 83.506 67.5857C83.9743 68.016 84.5836 68.2332 85.1999 68.1898Z" stroke="black" stroke-width="0.76809" stroke-linecap="round" stroke-linejoin="round"/>
<path d="M221.722 59.9234L234.764 58.6622" stroke="black" stroke-width="0.76809" stroke-linecap="round" stroke-linejoin="round"/>
<path d="M241.195 60.7654C242.523 60.6717 243.512 59.3426 243.403 57.7971C243.294 56.2516 242.128 55.0745 240.8 55.1682C239.472 55.2619 238.483 56.591 238.592 58.1365C238.701 59.682 239.867 60.859 241.195 60.7654Z" stroke="black" stroke-width="0.76809" stroke-linecap="round" stroke-linejoin="round"/>
<path d="M95.3344 82.8152L106.466 80.7513L85.5643 107.619L77.8497 97.5971L63.371 118.471" stroke="black" stroke-width="0.76809" stroke-linecap="round" stroke-linejoin="round"/>
<path d="M107.97 92.9152L106.467 80.7515" stroke="black" stroke-width="0.76809" stroke-linecap="round" stroke-linejoin="round"/>
<path d="M196.444 111.556L225.761 81.7945L236.253 93.4955L260.199 69.8202" stroke="black" stroke-width="0.76809" stroke-linecap="round" stroke-linejoin="round"/>
<path d="M252.506 70.3628L260.201 69.8199L260.165 78.4296" stroke="black" stroke-width="0.76809" stroke-linecap="round" stroke-linejoin="round"/>
<path d="M133.126 100.089C136.761 103.683 141.179 106.271 145.981 107.618" stroke="black" stroke-width="0.76809" stroke-linecap="round" stroke-linejoin="round"/>
<path d="M183.345 68.5969C184.765 74.307 184.683 80.307 183.107 85.9462C181.531 91.5854 178.521 96.6486 174.404 100.587C170.959 103.887 166.824 106.28 162.33 107.574" stroke="black" stroke-width="0.76809" stroke-linecap="round" stroke-linejoin="round"/>
<path d="M162.476 45.6978C167.241 47.2135 171.586 49.9521 175.122 53.6682" stroke="black" stroke-width="0.76809" stroke-linecap="round" stroke-linejoin="round"/>
<path d="M124.613 85.6061C122.934 79.7584 122.852 73.5406 124.377 67.6726C125.901 61.8045 128.97 56.5259 133.228 52.4479C136.996 48.8636 141.547 46.3202 146.481 45.0414" stroke="black" stroke-width="0.76809" stroke-linecap="round" stroke-linejoin="round"/>
</g>
<defs>
<clipPath id="clip0_75_5425">
<rect width="331.539" height="350.702" fill="white" transform="translate(0 24) rotate(-4.03547)"/>
</clipPath>
</defs>
</svg>
