<svg width="282" height="260" viewBox="0 0 282 260" fill="none" xmlns="http://www.w3.org/2000/svg">
<path d="M268.372 71.1677C266.779 68.102 262.714 68.4989 264.456 71.5646C269.981 81.4124 273.99 91.9191 276.366 102.782C272.301 103.453 265.036 104.151 260.391 104.644C257.056 84.5116 248.349 71.7973 236.305 59.0282C231.57 53.937 252.085 48.0794 243.748 39.5529C240.087 35.9989 236.103 32.7389 231.838 29.8085C227.774 27.0713 223.725 28.2209 227.059 30.7528C244.24 43.7956 243.272 42.9608 240.116 46.8887C235.903 51.8293 228.353 55.9625 233.147 61.0264C265.989 94.7077 254.883 125.091 259.945 124.53C262.922 124.201 261.539 111.049 260.958 108.243C265.603 107.709 273.001 106.875 277.065 106.382C280.043 121.847 277.065 127.116 280.117 127.458C283.452 127.458 281.608 111.035 280.268 103.85C278.066 92.479 274.058 81.4672 268.372 71.1677Z" fill="#FFCB45"/>
<path d="M194.962 246.636C177.097 253.712 151.43 257.175 131.838 256.217C129.516 255.957 128.935 259.419 134.593 259.816C153.217 260.966 180.223 256.586 193.503 250.742C197.418 249.182 197.135 245.843 194.962 246.636Z" fill="#FFCB45"/>
<path d="M240.368 189.552C231.671 201.998 220.254 212.647 206.843 220.822C193.431 228.998 178.318 234.522 162.461 237.042C158.903 237.508 159.262 241.148 165.351 239.971C185.056 236.472 203.487 228.471 218.946 216.705C222.132 220.044 225.689 223.302 229.247 226.449C231.912 228.79 234.904 229.378 237.658 226.846C261.657 204.346 276.366 176.783 272.629 174.155C271.468 173.361 270.621 174.292 270.308 175.086C262.902 193.814 250.828 210.687 235.053 224.355C233.564 225.724 233.564 226.053 221.654 214.474C230.034 207.698 237.359 199.891 243.42 191.276C254.303 194.876 259.677 179.534 249.375 176.222C240.234 173.279 233.847 183.681 240.368 189.552ZM241.395 182.476C243.569 176.071 254.006 179.739 250.538 186.212C248.29 190.387 239.936 187.951 241.395 182.476Z" fill="#FFCB45"/>
<path d="M222.385 48.421C224.558 50.0223 226.002 47.6272 223.546 45.4922C213.244 36.6921 194.158 28.4394 182.918 25.2095C178.451 23.6082 177.111 26.1401 179.583 27.0845C191.329 31.4777 200.769 34.9539 208.451 39.484C194.234 65.0085 198.654 51.3772 219.764 74.3013C218.503 75.4398 217.638 76.8967 217.277 78.4876C216.917 80.0784 217.079 81.7318 217.741 83.2383C214.838 85.0968 211.781 86.7442 208.599 88.1653C206.559 85.7702 197.999 74.8351 194.515 76.4363C190.302 78.3798 206.202 83.0467 213.869 106.546C213.913 106.758 214.021 106.954 214.182 107.112C214.342 107.27 214.547 107.383 214.774 107.438C215.001 107.493 215.24 107.489 215.464 107.426C215.688 107.362 215.889 107.242 216.042 107.079C217.784 105.711 214.451 96.1306 210.67 91.0804C213.86 89.6511 216.944 88.0279 219.9 86.2219C221.075 87.2968 222.565 88.0337 224.188 88.3424C225.811 88.651 227.497 88.5182 229.039 87.96C237.793 104.383 236.215 113.745 239.461 112.239C243.227 110.364 233.224 87.6042 232.212 86.0987C238.882 80.2274 231.913 70.086 223.203 72.7548C201.11 48.3799 199.876 64.7074 211.741 41.6738C215.504 43.6215 219.067 45.8799 222.385 48.421ZM221.076 78.2976C223.413 72.6453 232.688 76.2995 230.798 81.5002C228.832 87.2346 218.411 84.648 221.076 78.2976Z" fill="#FFCB45"/>
<path d="M254.883 137.394C237.465 145.524 247.635 167.011 265.038 163.671C286.372 157.8 275.637 129.662 254.883 137.394ZM260.974 139.255C263.594 139.255 269.25 149 268.52 149.931C267.791 150.861 262.567 153.27 261.272 153.27C259.976 153.27 254.452 150.601 253.722 150.067C252.993 149.26 258.369 139.255 260.974 139.255ZM261.419 160.332C259.528 160.469 252.486 152.736 253.722 152.599C254.958 152.463 260.11 155.268 261.272 155.131C262.433 154.994 266.929 152.736 268.373 152.599C269.817 152.463 263.295 160.332 261.419 160.332Z" fill="#FFCB45"/>
<path d="M195.973 143.265C197.566 149.794 197.864 153.94 197.462 157.54C204.295 155.665 200.812 140.323 199.784 137.394C194.708 141.39 188.188 143.525 180.923 144.73C199.071 137.394 199.784 131.386 200.514 128.594C201.675 124.488 197.419 110.679 195.439 113.539C189.171 122.517 164.175 118.48 158.577 125.008C155.599 129.114 156.834 142.225 156.834 142.225C155.092 137.681 147.902 119.41 163.073 118.617C173.494 116.345 188.767 117.946 193.695 108.735C188.321 93.8039 187.027 89.0001 180.923 86.7282C173.673 83.991 165.692 84.8669 131.586 90.4645C116.207 92.7364 90.5107 96.2811 86.1784 102.07C79.2706 111.281 92.1335 162.371 104.743 168.899C114.182 173.005 135.367 168.899 157.862 165.3C177.544 162.07 195.675 159.935 195.973 143.265ZM165.066 125.911C169.86 122.435 176.234 125.775 175.653 128.58C167.39 126.035 162.253 132.973 169.28 137.914C161.3 138.722 160.347 129.388 165.066 125.911Z" fill="#FFCB45"/>
<path d="M74.2387 58.0288C73.941 58.9595 73.6581 60.6976 73.3604 62.0251C76.3379 62.6957 78.1542 63.0926 78.8688 62.2989C79.5983 61.7651 80.7595 58.4257 74.2387 58.0288Z" fill="#FFCB45"/>
<path d="M4.14833 139.392C2.781 123.316 4.55069 107.145 9.37389 91.6415C11.3418 92.1929 13.4589 92.0826 15.3464 91.3304C17.2339 90.5781 18.7687 89.233 19.6761 87.5357C24.0233 88.7264 32.3008 93.0101 34.5637 86.3314C37.169 78.5987 41.2334 72.9875 46.6078 65.5286C48.7665 62.6408 40.489 60.5331 30.6483 86.3314C29.621 89.0686 23.6809 84.9627 20.6289 84.0595C20.6444 82.8876 20.3798 81.7268 19.8539 80.6592C19.3279 79.5916 18.5534 78.6431 17.585 77.8808C16.6166 77.1185 15.478 76.561 14.2496 76.2475C13.0211 75.9341 11.7328 75.8724 10.4756 76.0668C3.2253 76.8606 0.902835 86.0713 6.00928 90.0676C1.28905 105.177 -0.672957 120.901 0.203119 136.6C0.515759 141.39 4.29721 141.664 4.14833 139.392ZM7.9149 81.1033C11.5475 76.6964 19.6612 81.5823 16.1924 86.4408C12.411 91.6963 4.02923 86.5777 7.9149 81.1033Z" fill="#FFCB45"/>
<path d="M99.6192 198.092C89.5403 213.147 112.825 229.173 125.449 213.955C137.062 196.751 109.996 182.668 99.6192 198.092ZM112.676 215.693C110.651 215.693 110.219 215.296 110.219 214.228C110.219 208.754 109.296 212.23 115.147 211.163C115.147 215.268 115.46 215.693 112.705 215.693H112.676ZM123.276 206.359C123.276 211.423 102.522 211.423 102.433 206.359C102.001 204.087 110.71 203.156 108.239 204.99C107.525 205.264 103.594 205.798 105.485 206.728C107.659 208.466 128.412 207.399 117.529 204.99C116.948 204.867 116.8 204.183 117.678 204.06C119.926 203.786 123.127 204.621 123.276 206.359ZM119.941 198.147C121.236 198.421 121.236 199.092 121.236 200.419C121.534 203.156 118.482 201.788 115.147 202.157V206.017C113.526 206.36 111.841 206.36 110.219 206.017V202.157C106.736 201.883 103.609 203.526 103.684 200.282C103.684 199.092 103.981 198.435 105.425 198.284C107.614 198.12 118.05 198.092 119.941 198.216V198.147Z" fill="#FFCB45"/>
<path d="M87.7276 204.894C73.0781 196.354 61.8976 183.544 54.3495 169.146C57.5504 167.778 64.5178 164.603 69.0138 163.275C69.7284 164.343 70.6068 165.944 71.3363 167.011C64.3689 173.28 73.0781 184.078 81.4896 179.945C83.5144 181.409 88.3082 187.417 90.7795 186.788C93.2509 186.158 87.8764 183.188 84.2439 177.851C85.4175 176.497 86.0772 174.827 86.1223 173.096C86.1675 171.366 85.5956 169.669 84.494 168.265C83.3928 166.861 81.8226 165.826 80.0224 165.318C78.2222 164.81 76.2908 164.857 74.5222 165.451C70.056 157.486 68.9989 159.005 52.7566 166.108C51.2148 163.038 49.9065 159.874 48.8411 156.637C48.2605 154.502 44.4939 154.502 46.3698 160.51C52.1759 178.918 66.2596 195.328 83.5144 206.126C86.7152 208.22 90.3775 206.496 87.7276 204.894ZM72.8399 171.145C75.8919 164.999 86.2388 170.214 81.2514 175.948C77.7231 179.808 70.7557 175.948 72.7804 171.145H72.8399Z" fill="#FFCB45"/>
<path d="M90.1976 60.6977C84.2425 40.9487 54.3482 49.8857 60.0055 68.0334C65.231 84.5661 94.2619 78.6948 90.1976 60.6977ZM83.2302 61.7652C82.8754 62.6732 82.3735 63.5268 81.7414 64.2971C84.5105 67.7597 80.729 72.8372 75.7863 71.6328C75.4886 72.7003 75.4886 73.7678 73.7467 73.4941C72.0049 73.2204 72.7344 72.3034 73.0321 71.2359C72.3793 71.1344 71.7437 70.955 71.1414 70.7022C70.8437 71.7697 70.8437 72.8372 69.1018 72.5635C67.8066 72.3034 68.0895 70.9622 68.5212 69.8947C67.7696 69.6975 67.0415 69.4316 66.3476 69.1009C66.0616 69.0364 65.8058 68.8889 65.6182 68.6802C65.4305 68.4715 65.3211 68.2127 65.306 67.9423C65.291 67.6719 65.3712 67.4043 65.5347 67.1791C65.6981 66.9539 65.9362 66.7831 66.2136 66.6921C66.7942 66.569 67.3749 66.829 68.5212 67.1027C69.2507 64.5571 70.5608 59.6301 71.1414 57.2214C66.3476 56.8245 68.3872 53.622 72.3027 54.6895C72.5855 53.622 72.7344 52.4176 74.4762 52.5545C76.2181 52.6913 75.4886 54.1557 75.2057 55.0864C75.6375 55.2232 76.2181 55.3601 76.6945 55.497C76.9922 54.4294 77.1411 52.9514 78.8681 53.3619C80.595 53.7725 79.7465 55.2232 79.3147 56.2908C82.0689 57.3583 83.8108 59.3564 83.2302 61.7652Z" fill="#FFCB45"/>
<path d="M77.5728 65.2274C75.8309 64.9673 74.5208 64.6936 72.6301 64.4336C72.1983 65.898 72.0495 67.1708 71.7666 68.033C80.6247 70.9345 79.9548 65.6927 77.5728 65.2274Z" fill="#FFCB45"/>
<path d="M221.654 138.229C221.654 131.386 218.246 132.098 218.172 134.766C217.665 154.392 209.239 168.982 193.935 181.723C191.046 184.118 195.541 185.049 197.863 183.092C205.018 177.305 210.796 170.223 214.837 162.289C218.752 164.287 225.437 167.627 228.906 169.885C224.562 177.316 219.36 184.295 213.391 190.701C211.069 193.37 215.609 193.548 218.319 190.838C226.314 182.818 231.809 173.498 236.454 163.22C238.925 157.622 236.02 154.543 234.71 158.019C233.534 161.02 232.177 163.958 230.646 166.819C226.73 164.287 220.641 161.345 216.428 159.223C217.441 157.54 221.803 145.264 221.654 138.229Z" fill="#FFCB45"/>
<path d="M44.0458 194.342C49.0778 193.822 33.9371 187.102 25.1832 148.179C24.8557 146.728 24.022 146.317 23.1585 146.988C20.4043 149.123 26.3444 165.93 27.2228 168.598C23.4414 169.789 15.3127 172.198 10.9655 173.525C9.24891 168.715 7.84207 163.816 6.75235 158.854C6.17174 155.925 3.13467 157.253 3.99815 161.126C6.32061 173.265 9.2237 181.272 14.4195 189.675C16.3102 192.604 19.1686 191.823 18.052 189.798C15.6977 185.609 13.7546 181.235 12.2459 176.728C16.8908 175.263 24.8706 172.991 28.6222 171.801C30.1259 174.88 39.4009 194.889 44.0458 194.342Z" fill="#FFCB45"/>
<path d="M168.549 219.963C175.517 217.568 173.358 215.063 171.155 215.857C165.221 217.857 159.022 219.114 152.724 219.593C152.158 215.583 150.997 208.124 150.997 204.114C154.332 203.32 165.885 202.65 166.957 199.05C167.388 197.586 164.917 198.243 163.905 198.517C147.528 203.142 144.834 194.602 149.106 219.73C135.707 221.345 129.291 218.361 130.824 221.194C131.658 223.22 150.759 225.916 168.549 219.963Z" fill="#FFCB45"/>
<path d="M187.995 191.687C169.862 196.888 174.939 222.768 195.439 219.429C216.58 213.954 207.29 187.28 187.995 191.687ZM190.748 214.953C190.019 216.144 184.123 215.131 181.607 210.546C179.493 206.714 180.744 200.679 183.096 200.816C183.811 200.816 184.108 201.609 183.811 202.28C181.637 206.55 184.54 212.421 189.617 213.352C190.316 213.42 191.18 214.228 190.748 214.871V214.953ZM193.726 211.217C191.552 212.011 189.259 210.546 189.661 209.219C189.696 209.063 189.767 208.916 189.87 208.788C189.972 208.66 190.104 208.554 190.255 208.477C190.407 208.4 190.574 208.355 190.747 208.343C190.919 208.332 191.093 208.355 191.254 208.411C192.847 208.685 195.468 208.014 194.44 206.673C193.413 205.332 188.649 208.548 186.997 205.482C186.572 204.767 186.456 203.93 186.671 203.139C186.886 202.348 187.417 201.66 188.158 201.212C187.145 199.611 187.726 199.077 188.307 198.804C189.185 198.407 189.9 198.147 190.778 200.282C194.306 199.461 196.629 203.498 192.371 202.937C189.959 202.581 187.25 205.291 191.641 204.305C196.718 203.101 199.77 207.371 196.108 210.177C198.296 212.23 194.813 213.831 193.8 211.162L193.726 211.217ZM193.428 196.409C194.485 194.698 199.964 196.805 202.286 200.816C204.311 204.141 203.881 209.616 201.409 210.013C200.397 210.149 199.816 209.616 200.248 208.644C200.679 207.568 200.865 206.422 200.795 205.277C200.726 204.132 200.402 203.012 199.843 201.987C199.285 200.962 198.504 200.052 197.55 199.314C196.596 198.576 195.487 198.025 194.293 197.695C193.653 197.421 193.1 197.079 193.502 196.354L193.428 196.409Z" fill="#FFCB45"/>
<path d="M62.0887 129.388C63.3988 130.756 64.2623 129.388 64.2623 128.457C64.7922 112.756 70.8524 97.6368 81.5319 85.3735C82.1125 84.566 78.4799 83.1016 74.7134 88.4392C70.6527 94.2482 67.3403 100.472 64.8429 106.984C64.8429 106.984 54.1089 104.452 50.4763 103.507C48.5856 102.974 48.7345 102.974 48.9876 101.646C50.2828 96.3086 55.2255 87.6317 57.2502 84.4428C59.2749 81.254 56.089 81.1034 53.1859 85.6335C49.1216 92.0386 44.2533 101.249 45.7421 104.575C46.7842 106.696 48.5112 106.532 63.7412 110.309C61.3145 117.7 60.5999 127.923 62.0887 129.388Z" fill="#FFCB45"/>
<path d="M77.1406 39.2102C106.678 18.1747 116.489 32.7914 104.564 7.8691C103.253 5.20032 99.472 4.5297 101.08 8.26599C110.31 29.89 106.931 15.6565 77.2597 34.9538C72.7785 37.8826 75.2498 40.5514 77.1406 39.2102Z" fill="#FFCB45"/>
<path d="M31.4209 54.156C42.0209 42.1533 51.5936 31.7519 64.65 24.9499C69.1163 31.0813 80.6095 28.1525 80.4755 20.4061C80.2522 8.80038 61.1216 9.86789 63.057 21.8706C50.196 28.6728 39.1448 38.0232 30.7063 49.2427C27.3566 53.4853 29.9768 55.7572 31.4209 54.156ZM68.1337 17.0804C71.2452 13.5358 77.2747 16.4098 77.0663 20.4061C76.1135 28.9462 62.1638 23.8824 68.1337 17.0804Z" fill="#FFCB45"/>
<path d="M52.6062 230.501C57.0725 233.43 58.2486 230.391 56.8194 229.433C44.5301 221.055 34.0911 210.599 26.0616 198.626C24.7515 196.751 21.5953 197.955 25.481 203.827C32.5275 214.271 41.7451 223.335 52.6062 230.501Z" fill="#FFCB45"/>
<path d="M38.6864 135.656C56.5515 122.859 34.7114 99.9627 18.7966 113.922C4.99575 126.035 23.3819 145.934 38.6864 135.656ZM38.5375 122.449C39.5499 123.393 40.4282 124.187 39.401 125.186C38.9693 125.72 37.808 126.787 36.7957 125.857C35.7833 124.926 34.9049 124.652 35.6344 123.585C36.2151 122.983 37.2274 121.381 38.5375 122.449ZM24.171 119.383C26.9252 117.248 28.8159 113.786 31.2873 115.784C35.6196 119.766 36.0513 120.067 35.2027 120.848C33.312 123.393 32.0019 120.724 30.7364 119.657C28.9946 117.919 27.2527 123.256 25.2131 121.792C24.4687 121.121 23.0097 120.314 24.171 119.383ZM30.7066 125.788C29.9771 126.322 29.3965 126.322 27.9375 124.721C27.5058 124.324 27.3569 123.79 28.9648 122.449C29.6794 121.915 30.126 121.518 31.8679 123.393C32.3145 124.187 32.4485 124.461 30.7066 125.788ZM22.578 125.788C21.6996 126.719 20.6873 125.788 20.1067 125.118C19.526 124.447 19.2432 123.749 20.2555 122.859C22.2803 120.984 22.8609 122.859 23.7392 123.393C24.4687 124.721 23.5904 124.858 22.578 125.788ZM24.171 128.717C23.3075 127.526 24.4687 127.116 25.1833 126.459C27.2229 125.391 28.9648 130.455 30.8406 128.594C31.2873 128.457 33.4608 125.515 34.3243 126.459C34.9049 127.253 36.4979 127.827 35.3516 128.854C30.4536 132.275 31.451 136.025 24.171 128.717Z" fill="#FFCB45"/>
<path d="M161.838 20.1464C151.612 18.3258 141.165 17.7871 130.782 18.5451C124.827 18.942 125.839 22.1445 128.311 22.0077C140.072 21.2139 152.251 22.2814 163.432 23.6089C167.794 24.1427 166.959 21.077 161.838 20.1464Z" fill="#FFCB45"/>
<path d="M190.6 61.4919C196.838 42.5505 166.882 35.2421 161.3 52.2949C155.88 68.8687 182.769 78.969 190.6 61.4919ZM185.671 64.0239C184.658 64.4344 181.904 64.2976 181.026 63.2301C175.324 56.2365 173.494 62.9974 170.874 64.0239C170.293 64.1607 166.08 64.2976 167.092 62.9564C168.849 60.82 171.075 59.048 173.626 57.7557C175.584 57.2677 177.653 57.3152 179.582 57.8925C180.594 58.2894 187.695 63.2301 185.656 64.0239H185.671ZM171.453 50.023C176.291 55.4975 177.869 54.4984 182.336 49.6261C183.315 49.1572 184.425 48.9712 185.522 49.0924C188.38 49.0924 181.742 55.4564 178.273 56.0312C173.539 56.8934 170.828 54.1015 167.389 50.8168C164.411 48.4765 170.56 48.7229 171.453 50.023Z" fill="#FFCB45"/>
<path d="M199.162 11.7426C183.352 4.40691 167.093 0 147.516 0C141.992 0 140.697 3.06568 143.585 3.3394C163.145 3.41107 182.42 7.65565 199.892 15.739C202.944 17.0802 203.956 13.8777 199.162 11.7426Z" fill="#FFCB45"/>
<path d="M146.783 58.9603C148.525 58.9603 149.762 58.4402 148.958 57.2221C146.8 54.0743 125.972 55.6209 112.394 60.4247C110.504 57.359 107.109 51.1729 104.951 47.8882C104.251 46.807 104.653 46.287 105.382 45.8901C111.471 42.5507 121.759 41.0863 127.297 40.8125C130.632 51.3508 148.631 45.7532 143.673 35.0781C140.487 27.7424 127.565 29.6037 126.984 37.35C121.759 38.0206 103.477 40.2788 100.871 45.4932C100.142 46.9576 101.154 48.422 101.884 49.599C116.429 75.3698 104.802 57.9338 146.783 58.9603ZM132.997 34.5443C139.667 31.2186 144.165 40.2788 137.642 42.8244C132.059 45.0826 127.593 37.61 132.997 34.5443Z" fill="#FFCB45"/>
<path d="M105.144 251.713C98.6978 250.125 87.413 248.579 88.4552 245.705C90.3686 241.487 92.5458 237.374 94.9759 233.387C102.658 236.296 110.638 238.488 118.796 239.929C119.66 247.936 131.853 249.934 135.336 243.132C140.413 232.854 123.724 226.189 119.377 236.727C91.0903 231.841 76.8428 218.497 75.1159 221.672C73.3889 224.847 89.1995 230.869 91.656 232.21C81.2347 249.811 81.2347 250.317 102.256 254.354C105.725 255.039 108.628 252.507 105.144 251.713ZM123.277 237.439C126.329 231.841 134.89 236.07 132.121 241.709C129.232 246.772 120.523 242.899 123.277 237.439Z" fill="#FFCB45"/>
<path d="M226.301 119.917C213.319 122.093 210.608 121.464 209.327 123.393C209.179 125.652 214.255 124.187 215.699 124.05C218.468 123.654 223.977 122.983 226.582 122.586C234.249 121.409 233.014 122.75 242.557 132.166C243.852 133.234 245.013 135.506 247.023 135.629C249.479 135.232 247.739 133.097 246.875 132.426C244.27 129.689 240.338 125.583 237.733 122.956C235.009 119.383 230.529 119.206 226.301 119.917Z" fill="white"/>
<path d="M172.896 123.517C163.755 119.917 156.073 131.263 163.323 137.394C164.975 138.804 167.128 139.614 169.381 139.673C171.633 139.732 173.833 139.037 175.57 137.717C176.722 136.844 177.628 135.729 178.211 134.466C180.444 130.195 177.392 125.255 172.896 123.517ZM172.181 136.464C169.71 137.394 165.497 137.258 163.904 133.658C162.013 128.991 166.658 124.187 171.735 126.049C176.812 127.91 177.541 134.329 172.256 136.464H172.181Z" fill="white"/>
<path d="M155.195 80.7475C151.801 65.5696 152.709 66.8151 158.396 62.4629C159.26 61.9291 159.26 60.3279 157.667 60.7384C154.764 61.5322 150.699 64.4747 150.551 67.6773C150.268 72.3442 151.28 75.8889 152.158 81.0075C138.506 83.0057 124.869 85.1133 111.381 87.6726C109.163 74.9446 108.999 73.9865 107.466 72.7411C105.143 70.743 99.6051 69.5796 97.0445 69.0048C93.6948 68.2658 92.5782 68.1973 92.2507 69.2649C91.6998 72.0021 103.178 71.8241 105.65 75.5468C107.138 77.805 107.242 82.2119 108.404 88.3432C94.9156 90.8751 87.7993 92.6133 82.8715 96.7464C71.408 106.327 77.3482 122.367 81.9931 143.566C75.078 145.203 68.0497 146.406 60.9569 147.166C56.8926 147.7 55.0019 145.975 52.0243 143.703C45.2058 138.229 43.1662 136.354 42.4516 136.86C40.2036 138.598 52.1732 147.7 54.4957 148.863C56.6234 149.926 59.0942 150.256 61.4631 149.794C68.595 148.974 75.6687 147.772 82.6482 146.194C91.938 177.015 92.8015 180.615 128.07 174.935C130.199 190.318 130.408 187.252 125.882 192.138C124.482 193.644 125.882 195.341 128.934 192.809C133.4 189.114 132.626 189.209 130.973 174.401C142.139 172.8 153.172 171.199 164.189 169.324C164.338 170.802 164.56 171.855 165.215 175.058C166.51 181.449 166.957 185.87 173.626 191.344C176.812 194 178.852 192.412 176.961 190.674L172.897 186.938C168.252 182.271 167.537 170.268 167.091 168.79C178.703 166.655 191.908 165.327 197.134 158.662C208.448 157.294 206.066 144.388 204.101 137.175C203.897 136.352 203.603 135.549 203.224 134.78C206.127 131.044 206.126 126.103 205.396 119.575C204.831 115.045 204.101 104.233 196.836 104.233C193.218 76.2995 181.457 76.4363 155.195 80.7475ZM175.651 164.643C161.731 167.585 147.545 169.707 133.281 171.486C123.008 172.745 112.096 175.359 101.794 174.223C90.479 172.759 84.6729 140.884 82.4397 131.536C81.2785 121.532 75.7701 109.269 82.8715 100.332C84.0327 105.533 101.883 102.727 110.875 100.866C133.668 96.1853 151.369 92.3258 172.257 91.929C183.72 92.5859 183.869 104.602 187.055 112.458C178.941 116.057 169.191 115.387 160.512 116.988C146.875 119.657 152.233 133.261 154.704 141.404C157.027 149 166.899 146.878 173.137 146.728C178.47 146.361 183.732 145.377 188.798 143.799C191.999 142.732 194.335 142.882 195.332 147.535C198.191 160.469 189.794 161.646 175.651 164.602V164.643ZM198.445 155.843C199.458 150.902 197.566 144.771 196.836 140.104C198.259 139.161 199.617 138.137 200.9 137.038C202.211 142.595 205.398 152.873 198.445 155.802V155.843ZM196.404 107.025C200.186 105.026 202.359 116.755 202.642 119.424C203.431 127.294 206.885 139.447 173.046 143.977C167.82 144.634 159.842 145.701 158.249 141.431C155.495 133.972 150.119 121.299 161.433 119.424C171.602 117.686 187.414 119.027 193.935 110.35C194.381 109.488 195.541 107.381 196.404 106.984V107.025ZM194.916 104.753C192.444 106.491 191.581 109.283 189.258 111.021C186.787 101.29 185.329 90.2182 172.705 89.1233C151.237 89.3834 133.684 92.9828 109.298 97.7866C91.0165 101.386 83.9895 100.729 87.6817 97.116C90.8676 93.9271 101.17 92.449 109.016 90.9846C109.298 92.5859 110.028 96.459 111.621 95.0904C112.633 94.2966 112.35 93.366 111.919 90.4235C125.407 87.8916 139.044 85.7565 152.681 83.7584C153.262 87.2209 153.424 88.1379 154.287 88.4253C156.178 89.0549 155.778 85.3597 155.584 83.3615C182.679 79.502 188.722 78.0102 194.96 104.712L194.916 104.753Z" fill="white"/>
</svg>
