<svg width="201" height="23" viewBox="0 0 201 23" fill="none" xmlns="http://www.w3.org/2000/svg">
<path d="M15.0103 3.47902C16.073 3.4822 17.0913 3.90577 17.8428 4.65724C18.5942 5.4087 19.0178 6.427 19.021 7.48973V15.5103C19.0178 16.573 18.5942 17.5913 17.8428 18.3428C17.0913 19.0942 16.073 19.5178 15.0103 19.521H6.98973C5.927 19.5178 4.9087 19.0942 4.15724 18.3428C3.40577 17.5913 2.9822 16.573 2.97902 15.5103V7.48973C2.9822 6.427 3.40577 5.4087 4.15724 4.65724C4.9087 3.90577 5.927 3.4822 6.98973 3.47902H15.0103ZM15.0103 1.875H6.98973C3.90156 1.875 1.375 4.40156 1.375 7.48973V15.5103C1.375 18.5984 3.90156 21.125 6.98973 21.125H15.0103C18.0984 21.125 20.625 18.5984 20.625 15.5103V7.48973C20.625 4.40156 18.0984 1.875 15.0103 1.875Z" fill="#FFCB45"/>
<path d="M16.2134 7.48975C15.9754 7.48975 15.7428 7.41918 15.545 7.28698C15.3471 7.15478 15.1929 6.96688 15.1019 6.74704C15.0108 6.52719 14.987 6.28529 15.0334 6.0519C15.0798 5.81852 15.1944 5.60414 15.3627 5.43588C15.5309 5.26762 15.7453 5.15304 15.9787 5.10661C16.2121 5.06019 16.454 5.08402 16.6738 5.17508C16.8937 5.26614 17.0816 5.42035 17.2138 5.6182C17.346 5.81605 17.4165 6.04867 17.4165 6.28662C17.4169 6.44471 17.386 6.60132 17.3256 6.74744C17.2653 6.89356 17.1767 7.02633 17.0649 7.13812C16.9531 7.24991 16.8203 7.33851 16.6742 7.39886C16.5281 7.4592 16.3715 7.49009 16.2134 7.48975ZM11 8.29154C11.6346 8.29154 12.2549 8.47972 12.7825 8.83227C13.3102 9.18482 13.7214 9.68592 13.9642 10.2722C14.2071 10.8585 14.2706 11.5036 14.1468 12.126C14.023 12.7483 13.7175 13.32 13.2687 13.7688C12.82 14.2175 12.2483 14.523 11.6259 14.6468C11.0036 14.7706 10.3584 14.7071 9.77217 14.4643C9.1859 14.2214 8.6848 13.8102 8.33225 13.2826C7.9797 12.7549 7.79153 12.1346 7.79153 11.5C7.79244 10.6494 8.13076 9.8338 8.73227 9.23229C9.33378 8.63078 10.1493 8.29245 11 8.29154ZM11 6.68752C10.0482 6.68752 9.11773 6.96977 8.32632 7.49857C7.53491 8.02738 6.91808 8.77899 6.55383 9.65836C6.18959 10.5377 6.09428 11.5054 6.27997 12.4389C6.46566 13.3724 6.92401 14.2299 7.59705 14.903C8.27009 15.576 9.1276 16.0344 10.0611 16.22C10.9947 16.4057 11.9623 16.3104 12.8417 15.9462C13.721 15.5819 14.4726 14.9651 15.0015 14.1737C15.5303 13.3823 15.8125 12.4518 15.8125 11.5C15.8125 10.2237 15.3055 8.99959 14.403 8.09707C13.5004 7.19455 12.2764 6.68752 11 6.68752Z" fill="#FFCB45"/>
<path fill-rule="evenodd" clip-rule="evenodd" d="M66.5 11.5581C66.5 6.24287 62.1902 1.93311 56.875 1.93311C51.5598 1.93311 47.25 6.24287 47.25 11.5581C47.25 16.362 50.7691 20.3439 55.3711 21.0667V14.3412H52.9266V11.5581H55.3711V9.4376C55.3711 7.02576 56.8084 5.69244 59.0067 5.69244C60.0598 5.69244 61.1616 5.88064 61.1616 5.88064V8.24951H59.9473C58.7523 8.24951 58.3785 8.99115 58.3785 9.75342V11.5581H61.0477L60.6214 14.3412H58.3789V21.0675C62.9809 20.3452 66.5 16.3633 66.5 11.5581Z" fill="#FFCB45"/>
<g clip-path="url(#clip0_101_1964)">
<path d="M113.606 6.89332C113.606 4.95973 112.184 3.40426 110.426 3.40426C108.046 3.29297 105.618 3.25 103.137 3.25H102.364C99.8885 3.25 97.4565 3.29297 95.076 3.40469C93.3229 3.40469 91.9007 4.96875 91.9007 6.90234C91.7932 8.4316 91.7477 9.96129 91.7503 11.491C91.746 13.0207 91.7947 14.5518 91.8964 16.0843C91.8964 18.0179 93.3186 19.5863 95.0717 19.5863C97.5725 19.7023 100.138 19.7539 102.746 19.7496C105.358 19.7582 107.917 19.7037 110.42 19.5863C112.178 19.5863 113.6 18.0179 113.6 16.0843C113.703 14.5504 113.75 13.0207 113.746 11.4867C113.756 9.95699 113.709 8.42587 113.606 6.89332ZM100.645 15.7062V7.26285L106.875 11.4824L100.645 15.7062Z" fill="#FFCB45"/>
</g>
<g clip-path="url(#clip1_101_1964)">
<path d="M153.875 2.75H138.871C138.184 2.75 137.625 3.31641 137.625 4.01172V18.9883C137.625 19.6836 138.184 20.25 138.871 20.25H153.875C154.562 20.25 155.125 19.6836 155.125 18.9883V4.01172C155.125 3.31641 154.562 2.75 153.875 2.75ZM142.914 17.75H140.32V9.39844H142.918V17.75H142.914ZM141.617 8.25781C140.785 8.25781 140.113 7.58203 140.113 6.75391C140.113 5.92578 140.785 5.25 141.617 5.25C142.445 5.25 143.121 5.92578 143.121 6.75391C143.121 7.58594 142.449 8.25781 141.617 8.25781ZM152.637 17.75H150.043V13.6875C150.043 12.7188 150.023 11.4727 148.695 11.4727C147.344 11.4727 147.137 12.5273 147.137 13.6172V17.75H144.543V9.39844H147.031V10.5391H147.066C147.414 9.88281 148.262 9.19141 149.523 9.19141C152.148 9.19141 152.637 10.9219 152.637 13.1719V17.75Z" fill="#FFCB45"/>
</g>
<g clip-path="url(#clip2_101_1964)">
<path d="M191.641 9.96429L198.922 1.5H197.197L190.874 8.84942L185.824 1.5H180L187.636 12.6136L180 21.4897H181.726L188.402 13.7285L193.735 21.4897H199.56L191.64 9.96429H191.641ZM189.277 12.7115L188.504 11.6049L182.347 2.79901H184.998L189.966 9.90562L190.74 11.0123L197.198 20.2498H194.547L189.277 12.712V12.7115Z" fill="#FFCB45"/>
</g>
<defs>
<clipPath id="clip0_101_1964">
<rect width="22" height="22" fill="white" transform="translate(91.75 0.5)"/>
</clipPath>
<clipPath id="clip1_101_1964">
<rect width="17.5" height="20" fill="white" transform="translate(137.625 1.5)"/>
</clipPath>
<clipPath id="clip2_101_1964">
<rect width="19.5599" height="20" fill="white" transform="translate(180 1.5)"/>
</clipPath>
</defs>
</svg>
