<svg width="684" height="172" viewBox="0 0 684 172" fill="none" xmlns="http://www.w3.org/2000/svg">
<path d="M76.2308 3.25191C68.4492 7.38525 67.2964 8.45191 71.4754 7.51858C73.2047 7.11858 74.5016 7.25191 74.3575 7.91858C74.2134 8.58524 77.3837 10.8519 81.2744 12.8519C85.3093 14.8519 88.7678 16.8519 89.2001 17.2519C89.6324 17.6519 91.9381 18.9852 94.2437 20.0519C112.545 28.7186 123.785 35.3852 123.785 37.5186C123.929 38.3186 123.785 51.5186 123.785 66.7186C123.785 82.0519 124.217 94.4519 124.794 94.4519C125.514 94.4519 129.261 92.4519 133.152 90.0519L140.357 85.7852V57.7852C140.357 31.5186 140.213 29.5186 137.475 26.9852C134.881 24.4519 108.942 10.1852 93.6673 2.85191C85.5975 -1.01476 84.1565 -1.01476 76.2308 3.25191ZM88.7678 3.25191C88.3355 3.65191 87.0386 3.78524 86.0299 3.38525C84.877 2.98524 85.3093 2.58524 86.8945 2.58524C88.4796 2.45191 89.3442 2.85191 88.7678 3.25191ZM132.575 26.0519C134.449 28.1852 134.304 28.3186 132.143 26.5852C130.702 25.6519 129.549 24.5852 129.549 24.3186C129.549 23.2519 130.702 23.9186 132.575 26.0519ZM124.217 32.0519C124.794 33.3852 125.37 33.2519 126.523 31.7852C128.252 29.5186 128.684 31.6519 126.955 34.1852C125.946 35.3852 125.082 35.2519 123.064 33.1186C121.623 31.6519 121.191 30.4519 122.056 30.4519C122.92 30.4519 123.929 31.2519 124.217 32.0519ZM133.872 83.1186C133.872 83.3852 132.431 84.3186 130.702 85.1186C127.532 86.5852 127.532 86.4519 130.125 84.5852C133.152 82.3186 133.872 82.0519 133.872 83.1186Z" fill="#FFD700"/>
<path d="M43.808 19.6518C19.5986 31.9185 6.34107 39.5185 3.74721 42.7185C0.432831 46.8518 -1.29641 57.6518 1.15335 58.9851C2.73849 59.9185 23.0571 50.0518 44.2403 38.1851C49.1398 35.3851 54.6157 33.1185 56.4891 33.1185C58.2183 33.1185 71.3317 39.3851 85.5979 46.9851L111.537 60.8518L111.969 52.1851C112.257 47.3851 111.825 42.8518 110.96 42.0518C107.646 38.9851 59.3711 14.4518 56.7773 14.4518C55.1921 14.4518 49.428 16.8518 43.808 19.6518Z" fill="#1A1A1A"/>
<path d="M152.606 62.1852C152.606 88.3185 152.318 91.5185 150.156 93.3852C148.715 94.4518 138.34 100.185 127.244 106.185C116.004 112.052 104.187 118.452 100.873 120.319L94.9648 123.785V132.585C94.9648 140.452 95.2531 141.252 97.4146 140.585C104.908 137.919 165.864 104.452 167.737 102.052C169.466 99.7852 169.899 94.1852 169.899 72.7185C169.899 57.3852 169.322 45.2518 168.458 43.7852C167.161 41.3852 155.344 33.1185 153.471 33.1185C153.039 33.1185 152.606 46.1852 152.606 62.1852Z" fill="#1A1A1A"/>
<path d="M52.5987 46.5852C50.4371 47.7851 50.293 48.3185 51.8781 49.2518C53.3192 50.1852 52.7428 50.3185 50.1489 49.7851C47.6991 49.2518 45.8258 49.6518 44.673 50.9852C43.5201 52.1852 42.0791 53.1185 41.3586 53.1185C40.6381 53.1185 35.4504 55.6518 29.9744 58.7185C22.4811 62.7185 20.3195 64.5852 21.7605 65.3851C23.0575 66.3185 22.9134 66.4518 21.04 65.9185C17.8697 64.9852 9.51174 68.7185 10.6646 70.4518C11.0969 71.2518 10.6646 71.3852 9.51174 71.1185C7.20609 70.1852 2.16247 75.1185 3.4594 76.9852C3.89171 77.7851 3.60351 78.4518 2.88299 78.4518C1.87427 78.4518 1.29785 86.4518 1.29785 102.185C1.29785 126.718 2.16247 131.518 7.92661 135.785C9.65585 137.252 10.3764 137.118 12.2497 134.985C14.4113 132.585 14.4113 132.585 12.9702 135.252C11.6733 137.652 12.2497 138.452 17.5815 141.252C20.8959 142.985 23.9221 144.452 24.3544 144.452C24.7867 144.452 27.6688 146.052 30.839 147.918C38.9088 152.718 55.3366 161.118 56.6336 161.118C57.21 161.118 57.21 160.452 56.6336 159.518C56.0571 158.585 56.2012 158.452 57.3541 158.985C58.2187 159.518 58.651 160.452 58.2187 161.118C57.0659 162.852 62.6859 165.252 65.7121 164.318C67.5854 163.785 67.7295 163.918 66.4326 164.852C64.9916 165.785 65.7121 166.718 69.747 168.985C72.629 170.452 75.2229 171.785 75.6552 171.785C75.9434 171.785 76.2316 168.585 76.2316 164.718C76.2316 156.452 74.9347 154.985 61.1008 147.518C56.3453 144.985 47.8432 140.318 42.2232 137.252C35.5945 133.652 30.9832 132.052 29.2539 132.585C27.2365 133.118 27.0924 132.985 28.5334 132.052C29.9744 131.118 29.1098 130.052 24.4985 127.652C21.1841 126.052 18.5903 124.052 18.4462 123.252C18.4462 122.452 18.3021 113.918 18.1579 104.452C18.0138 94.8518 17.2933 85.9185 16.7169 84.4518C15.7082 82.3185 15.7082 82.1852 17.0051 83.7851C18.3021 85.5185 18.5903 85.5185 18.5903 83.5185C18.5903 82.1852 21.04 80.0518 24.7867 78.3185C30.1185 75.6518 30.5508 75.2518 27.957 74.1852C25.5072 73.2518 25.6513 73.1185 28.6775 73.6518C30.6949 74.0518 33.7211 73.6518 35.4504 72.7185C52.0222 64.0518 53.1751 63.2518 51.4458 62.0518C50.1489 61.2518 50.293 61.1185 52.1663 61.6518C54.472 62.3185 71.7644 54.7185 71.9085 52.9852C71.9085 51.5185 64.5592 49.1185 62.9741 49.9185C62.1095 50.4518 61.8213 50.3185 62.2536 49.5185C62.83 48.7185 61.5331 47.5185 59.5156 46.5852C55.3366 44.8518 56.0571 44.8518 52.5987 46.5852ZM7.4943 73.7851C7.06199 74.9852 6.34147 75.6518 6.05326 75.2518C5.62095 74.8518 5.76506 74.0518 6.34147 73.2518C7.6384 71.1185 8.50302 71.5185 7.4943 73.7851ZM36.4591 148.452C38.0442 149.518 38.7647 150.452 37.9001 150.452C37.1796 150.452 35.3063 149.518 33.8652 148.452C32.2801 147.385 31.5596 146.452 32.4242 146.452C33.1447 146.452 35.018 147.385 36.4591 148.452Z" fill="#FFD700"/>
<path d="M38.764 84.1851L30.8383 88.5851L30.406 102.318C30.1178 110.985 30.5501 116.718 31.5588 117.785C33.5763 120.052 72.6283 141.118 74.7899 141.118C75.7986 141.118 76.2309 138.052 75.9427 132.185L75.5104 123.252L61.8205 115.652L48.1307 108.185L47.4102 94.0517L46.6897 79.7851L38.764 84.1851Z" fill="#1A1A1A"/>
<path d="M163.414 119.252C158.37 121.652 156.641 123.252 160.243 122.052C161.829 121.518 162.549 121.652 161.973 122.585C161.396 123.385 160.099 123.652 158.947 123.252C157.217 122.585 143.527 129.118 130.99 136.585C124.938 140.052 113.554 145.918 106.205 149.252C97.9908 153.118 94.8205 157.785 95.1087 165.385C95.3969 168.852 95.8292 171.785 96.1174 171.785C98.279 171.785 106.349 166.052 105.772 164.985C105.196 164.318 106.061 164.185 107.358 164.718C109.087 165.252 109.519 165.118 108.799 164.052C108.222 163.118 108.51 162.718 109.663 163.118C112.257 164.052 129.694 154.318 128.541 152.718C128.108 151.918 128.397 151.785 129.261 152.318C130.126 152.852 132.287 152.585 134.017 151.652C136.611 150.452 136.755 149.918 135.169 148.852C133.584 147.785 133.728 147.785 135.89 148.318C139.348 149.385 162.405 137.118 166.152 132.318C168.89 128.852 170.907 117.118 168.89 117.118C168.169 117.118 165.863 118.052 163.414 119.252ZM155.488 137.652C155.488 137.918 154.479 138.585 153.182 138.985C152.03 139.385 151.453 139.252 151.885 138.452C152.75 137.118 155.488 136.585 155.488 137.652ZM125.226 142.985C125.226 143.252 124.218 143.918 122.921 144.318C121.768 144.718 121.191 144.585 121.624 143.785C122.488 142.452 125.226 141.918 125.226 142.985ZM105.052 152.185C105.052 152.452 103.611 153.785 101.882 155.252L98.5672 157.785L101.305 154.718C103.899 151.918 105.052 151.118 105.052 152.185ZM125.226 153.652C125.226 154.052 124.65 154.718 123.785 155.118C123.065 155.518 122.344 155.252 122.344 154.585C122.344 153.785 123.065 153.118 123.785 153.118C124.65 153.118 125.226 153.385 125.226 153.652Z" fill="#FFD700"/>
<path d="M286.25 129H268.1V115.8C265.2 119.9 261.55 123.4 257.15 126.3C252.85 129.2 247.5 130.65 241.1 130.65C236.4 130.65 231.85 129.75 227.45 127.95C223.05 126.15 219.15 123.5 215.75 120C212.35 116.4 209.6 112.05 207.5 106.95C205.4 101.85 204.35 96 204.35 89.4C204.35 82.8 205.35 76.95 207.35 71.85C209.45 66.75 212.2 62.45 215.6 58.95C219 55.35 222.9 52.65 227.3 50.85C231.8 49.05 236.4 48.15 241.1 48.15C247.6 48.15 253 49.55 257.3 52.35C261.6 55.15 265.2 58.4 268.1 62.1V19.5H286.25V129ZM268.4 89.4C268.4 85.5 267.75 82 266.45 78.9C265.25 75.8 263.6 73.15 261.5 70.95C259.4 68.65 256.95 66.9 254.15 65.7C251.35 64.5 248.45 63.9 245.45 63.9C242.35 63.9 239.4 64.5 236.6 65.7C233.9 66.8 231.5 68.45 229.4 70.65C227.3 72.85 225.65 75.55 224.45 78.75C223.25 81.85 222.65 85.4 222.65 89.4C222.65 93.3 223.25 96.85 224.45 100.05C225.65 103.15 227.3 105.8 229.4 108C231.5 110.2 233.9 111.9 236.6 113.1C239.4 114.3 242.35 114.9 245.45 114.9C248.45 114.9 251.35 114.3 254.15 113.1C256.95 111.9 259.4 110.2 261.5 108C263.6 105.7 265.25 103 266.45 99.9C267.75 96.8 268.4 93.3 268.4 89.4ZM322.688 95.85C323.788 102.35 326.388 107.35 330.488 110.85C334.588 114.25 339.588 115.95 345.488 115.95C349.988 115.95 353.888 115.15 357.188 113.55C360.488 111.95 363.738 109.6 366.938 106.5L377.588 115.95C373.788 120.45 369.238 124.05 363.938 126.75C358.738 129.45 352.488 130.8 345.188 130.8C339.488 130.8 334.138 129.8 329.138 127.8C324.238 125.8 319.938 123 316.238 119.4C312.638 115.8 309.788 111.5 307.688 106.5C305.588 101.4 304.538 95.75 304.538 89.55C304.538 83.85 305.488 78.5 307.388 73.5C309.288 68.5 311.938 64.15 315.338 60.45C318.838 56.65 322.938 53.65 327.638 51.45C332.338 49.25 337.538 48.15 343.238 48.15C349.538 48.15 355.038 49.3 359.738 51.6C364.538 53.9 368.488 57 371.588 60.9C374.788 64.8 377.188 69.35 378.788 74.55C380.388 79.75 381.188 85.2 381.188 90.9C381.188 91.7 381.138 92.5 381.038 93.3C381.038 94.1 380.988 94.95 380.888 95.85H322.688ZM322.538 83.85H363.188C362.888 80.95 362.238 78.25 361.238 75.75C360.238 73.15 358.888 70.95 357.188 69.15C355.488 67.25 353.438 65.75 351.038 64.65C348.738 63.55 346.088 63 343.088 63C337.488 63 332.838 64.95 329.138 68.85C325.538 72.65 323.338 77.65 322.538 83.85ZM367.088 39.75H348.638V22.05H367.088V39.75ZM337.238 39.75H318.788V22.05H337.238V39.75ZM417.566 98.85V129H399.416V49.8H417.566V67.65C420.066 61.65 423.616 56.85 428.216 53.25C432.816 49.65 438.616 48 445.616 48.3V67.5H444.566C440.566 67.5 436.916 68.15 433.616 69.45C430.316 70.75 427.466 72.7 425.066 75.3C422.666 77.9 420.816 81.2 419.516 85.2C418.216 89.1 417.566 93.65 417.566 98.85ZM475.179 95.85C476.279 102.35 478.879 107.35 482.979 110.85C487.079 114.25 492.079 115.95 497.979 115.95C502.479 115.95 506.379 115.15 509.679 113.55C512.979 111.95 516.229 109.6 519.429 106.5L530.079 115.95C526.279 120.45 521.729 124.05 516.429 126.75C511.229 129.45 504.979 130.8 497.679 130.8C491.979 130.8 486.629 129.8 481.629 127.8C476.729 125.8 472.429 123 468.729 119.4C465.129 115.8 462.279 111.5 460.179 106.5C458.079 101.4 457.029 95.75 457.029 89.55C457.029 83.85 457.979 78.5 459.879 73.5C461.779 68.5 464.429 64.15 467.829 60.45C471.329 56.65 475.429 53.65 480.129 51.45C484.829 49.25 490.029 48.15 495.729 48.15C502.029 48.15 507.529 49.3 512.229 51.6C517.029 53.9 520.979 57 524.079 60.9C527.279 64.8 529.679 69.35 531.279 74.55C532.879 79.75 533.679 85.2 533.679 90.9C533.679 91.7 533.629 92.5 533.529 93.3C533.529 94.1 533.479 94.95 533.379 95.85H475.179ZM475.029 83.85H515.679C515.379 80.95 514.729 78.25 513.729 75.75C512.729 73.15 511.379 70.95 509.679 69.15C507.979 67.25 505.929 65.75 503.529 64.65C501.229 63.55 498.579 63 495.579 63C489.979 63 485.329 64.95 481.629 68.85C478.029 72.65 475.829 77.65 475.029 83.85ZM519.579 39.75H501.129V22.05H519.579V39.75ZM489.729 39.75H471.279V22.05H489.729V39.75ZM617.756 62.1C620.956 57.9 624.706 54.55 629.006 52.05C633.406 49.45 638.606 48.15 644.606 48.15C653.306 48.15 660.106 50.8 665.006 56.1C669.906 61.3 672.356 68.75 672.356 78.45V129H654.206V84C654.206 77.7 652.806 72.9 650.006 69.6C647.206 66.3 643.256 64.65 638.156 64.65C633.156 64.65 629.056 66.35 625.856 69.75C622.756 73.05 621.206 77.9 621.206 84.3V129H603.056V83.85C603.056 77.65 601.656 72.9 598.856 69.6C596.056 66.3 592.106 64.65 587.006 64.65C581.906 64.65 577.806 66.4 574.706 69.9C571.606 73.4 570.056 78.25 570.056 84.45V129H551.906V49.8H570.056V61.8C571.356 60 572.756 58.3 574.256 56.7C575.756 55.1 577.456 53.65 579.356 52.35C581.356 51.05 583.556 50.05 585.956 49.35C588.456 48.55 591.206 48.15 594.206 48.15C599.906 48.15 604.706 49.45 608.606 52.05C612.606 54.55 615.656 57.9 617.756 62.1Z" fill="white"/>
</svg>
