<svg width="669" height="209" viewBox="0 0 669 209" fill="none" xmlns="http://www.w3.org/2000/svg">
<path d="M76.2308 28.2519C68.4492 32.3852 67.2964 33.4519 71.4754 32.5186C73.2047 32.1186 74.5016 32.2519 74.3575 32.9186C74.2134 33.5852 77.3837 35.8519 81.2744 37.8519C85.3093 39.8519 88.7678 41.8519 89.2001 42.2519C89.6324 42.6519 91.9381 43.9852 94.2437 45.0519C112.545 53.7186 123.785 60.3852 123.785 62.5186C123.929 63.3186 123.785 76.5186 123.785 91.7186C123.785 107.052 124.217 119.452 124.794 119.452C125.514 119.452 129.261 117.452 133.152 115.052L140.357 110.785V82.7852C140.357 56.5186 140.213 54.5186 137.475 51.9852C134.881 49.4519 108.942 35.1852 93.6673 27.8519C85.5975 23.9852 84.1565 23.9852 76.2308 28.2519ZM88.7678 28.2519C88.3355 28.6519 87.0386 28.7852 86.0299 28.3852C84.877 27.9852 85.3093 27.5852 86.8945 27.5852C88.4796 27.4519 89.3442 27.8519 88.7678 28.2519ZM132.575 51.0519C134.449 53.1852 134.304 53.3186 132.143 51.5852C130.702 50.6519 129.549 49.5852 129.549 49.3186C129.549 48.2519 130.702 48.9186 132.575 51.0519ZM124.217 57.0519C124.794 58.3852 125.37 58.2519 126.523 56.7852C128.252 54.5186 128.684 56.6519 126.955 59.1852C125.946 60.3852 125.082 60.2519 123.064 58.1186C121.623 56.6519 121.191 55.4519 122.056 55.4519C122.92 55.4519 123.929 56.2519 124.217 57.0519ZM133.872 108.119C133.872 108.385 132.431 109.319 130.702 110.119C127.532 111.585 127.532 111.452 130.125 109.585C133.152 107.319 133.872 107.052 133.872 108.119Z" fill="#FFD700"/>
<path d="M43.808 44.6518C19.5986 56.9185 6.34107 64.5185 3.74721 67.7185C0.432831 71.8518 -1.29641 82.6518 1.15335 83.9851C2.73849 84.9185 23.0571 75.0518 44.2403 63.1851C49.1398 60.3851 54.6157 58.1185 56.4891 58.1185C58.2183 58.1185 71.3317 64.3851 85.5979 71.9851L111.537 85.8518L111.969 77.1851C112.257 72.3851 111.825 67.8518 110.96 67.0518C107.646 63.9851 59.3711 39.4518 56.7773 39.4518C55.1921 39.4518 49.428 41.8518 43.808 44.6518Z" fill="#1A1A1A"/>
<path d="M152.606 87.1852C152.606 113.319 152.318 116.519 150.156 118.385C148.715 119.452 138.34 125.185 127.244 131.185C116.004 137.052 104.187 143.452 100.873 145.319L94.9648 148.785V157.585C94.9648 165.452 95.2531 166.252 97.4146 165.585C104.908 162.919 165.864 129.452 167.737 127.052C169.466 124.785 169.899 119.185 169.899 97.7185C169.899 82.3852 169.322 70.2518 168.458 68.7852C167.161 66.3852 155.344 58.1185 153.471 58.1185C153.039 58.1185 152.606 71.1852 152.606 87.1852Z" fill="#1A1A1A"/>
<path d="M52.5987 71.5852C50.4371 72.7851 50.293 73.3185 51.8781 74.2518C53.3192 75.1852 52.7428 75.3185 50.1489 74.7851C47.6991 74.2518 45.8258 74.6518 44.673 75.9852C43.5201 77.1852 42.0791 78.1185 41.3586 78.1185C40.6381 78.1185 35.4504 80.6518 29.9744 83.7185C22.4811 87.7185 20.3195 89.5852 21.7605 90.3851C23.0575 91.3185 22.9134 91.4518 21.04 90.9185C17.8697 89.9852 9.51174 93.7185 10.6646 95.4518C11.0969 96.2518 10.6646 96.3852 9.51174 96.1185C7.20609 95.1852 2.16247 100.118 3.4594 101.985C3.89171 102.785 3.60351 103.452 2.88299 103.452C1.87427 103.452 1.29785 111.452 1.29785 127.185C1.29785 151.718 2.16247 156.518 7.92661 160.785C9.65585 162.252 10.3764 162.118 12.2497 159.985C14.4113 157.585 14.4113 157.585 12.9702 160.252C11.6733 162.652 12.2497 163.452 17.5815 166.252C20.8959 167.985 23.9221 169.452 24.3544 169.452C24.7867 169.452 27.6688 171.052 30.839 172.918C38.9088 177.718 55.3366 186.118 56.6336 186.118C57.21 186.118 57.21 185.452 56.6336 184.518C56.0571 183.585 56.2012 183.452 57.3541 183.985C58.2187 184.518 58.651 185.452 58.2187 186.118C57.0659 187.852 62.6859 190.252 65.7121 189.318C67.5854 188.785 67.7295 188.918 66.4326 189.852C64.9916 190.785 65.7121 191.718 69.747 193.985C72.629 195.452 75.2229 196.785 75.6552 196.785C75.9434 196.785 76.2316 193.585 76.2316 189.718C76.2316 181.452 74.9347 179.985 61.1008 172.518C56.3453 169.985 47.8432 165.318 42.2232 162.252C35.5945 158.652 30.9832 157.052 29.2539 157.585C27.2365 158.118 27.0924 157.985 28.5334 157.052C29.9744 156.118 29.1098 155.052 24.4985 152.652C21.1841 151.052 18.5903 149.052 18.4462 148.252C18.4462 147.452 18.3021 138.918 18.1579 129.452C18.0138 119.852 17.2933 110.918 16.7169 109.452C15.7082 107.318 15.7082 107.185 17.0051 108.785C18.3021 110.518 18.5903 110.518 18.5903 108.518C18.5903 107.185 21.04 105.052 24.7867 103.318C30.1185 100.652 30.5508 100.252 27.957 99.1852C25.5072 98.2518 25.6513 98.1185 28.6775 98.6518C30.6949 99.0518 33.7211 98.6518 35.4504 97.7185C52.0222 89.0518 53.1751 88.2518 51.4458 87.0518C50.1489 86.2518 50.293 86.1185 52.1663 86.6518C54.472 87.3185 71.7644 79.7185 71.9085 77.9852C71.9085 76.5185 64.5592 74.1185 62.9741 74.9185C62.1095 75.4518 61.8213 75.3185 62.2536 74.5185C62.83 73.7185 61.5331 72.5185 59.5156 71.5852C55.3366 69.8518 56.0571 69.8518 52.5987 71.5852ZM7.4943 98.7851C7.06199 99.9852 6.34147 100.652 6.05326 100.252C5.62095 99.8518 5.76506 99.0518 6.34147 98.2518C7.6384 96.1185 8.50302 96.5185 7.4943 98.7851ZM36.4591 173.452C38.0442 174.518 38.7647 175.452 37.9001 175.452C37.1796 175.452 35.3063 174.518 33.8652 173.452C32.2801 172.385 31.5596 171.452 32.4242 171.452C33.1447 171.452 35.018 172.385 36.4591 173.452Z" fill="#FFD700"/>
<path d="M38.764 109.185L30.8383 113.585L30.406 127.318C30.1178 135.985 30.5501 141.718 31.5588 142.785C33.5763 145.052 72.6283 166.118 74.7899 166.118C75.7986 166.118 76.2309 163.052 75.9427 157.185L75.5104 148.252L61.8205 140.652L48.1307 133.185L47.4102 119.052L46.6897 104.785L38.764 109.185Z" fill="#1A1A1A"/>
<path d="M163.414 144.252C158.37 146.652 156.641 148.252 160.243 147.052C161.829 146.518 162.549 146.652 161.973 147.585C161.396 148.385 160.099 148.652 158.947 148.252C157.217 147.585 143.527 154.118 130.99 161.585C124.938 165.052 113.554 170.918 106.205 174.252C97.9908 178.118 94.8205 182.785 95.1087 190.385C95.3969 193.852 95.8292 196.785 96.1174 196.785C98.279 196.785 106.349 191.052 105.772 189.985C105.196 189.318 106.061 189.185 107.358 189.718C109.087 190.252 109.519 190.118 108.799 189.052C108.222 188.118 108.51 187.718 109.663 188.118C112.257 189.052 129.694 179.318 128.541 177.718C128.108 176.918 128.397 176.785 129.261 177.318C130.126 177.852 132.287 177.585 134.017 176.652C136.611 175.452 136.755 174.918 135.169 173.852C133.584 172.785 133.728 172.785 135.89 173.318C139.348 174.385 162.405 162.118 166.152 157.318C168.89 153.852 170.907 142.118 168.89 142.118C168.169 142.118 165.863 143.052 163.414 144.252ZM155.488 162.652C155.488 162.918 154.479 163.585 153.182 163.985C152.03 164.385 151.453 164.252 151.885 163.452C152.75 162.118 155.488 161.585 155.488 162.652ZM125.226 167.985C125.226 168.252 124.218 168.918 122.921 169.318C121.768 169.718 121.191 169.585 121.624 168.785C122.488 167.452 125.226 166.918 125.226 167.985ZM105.052 177.185C105.052 177.452 103.611 178.785 101.882 180.252L98.5672 182.785L101.305 179.718C103.899 176.918 105.052 176.118 105.052 177.185ZM125.226 178.652C125.226 179.052 124.65 179.718 123.785 180.118C123.065 180.518 122.344 180.252 122.344 179.585C122.344 178.785 123.065 178.118 123.785 178.118C124.65 178.118 125.226 178.385 125.226 178.652Z" fill="#FFD700"/>
<path d="M271.25 162H253.1V148.8C250.2 152.9 246.55 156.4 242.15 159.3C237.85 162.2 232.5 163.65 226.1 163.65C221.4 163.65 216.85 162.75 212.45 160.95C208.05 159.15 204.15 156.5 200.75 153C197.35 149.4 194.6 145.05 192.5 139.95C190.4 134.85 189.35 129 189.35 122.4C189.35 115.8 190.35 109.95 192.35 104.85C194.45 99.75 197.2 95.45 200.6 91.95C204 88.35 207.9 85.65 212.3 83.85C216.8 82.05 221.4 81.15 226.1 81.15C232.6 81.15 238 82.55 242.3 85.35C246.6 88.15 250.2 91.4 253.1 95.1V52.5H271.25V162ZM253.4 122.4C253.4 118.5 252.75 115 251.45 111.9C250.25 108.8 248.6 106.15 246.5 103.95C244.4 101.65 241.95 99.9 239.15 98.7C236.35 97.5 233.45 96.9 230.45 96.9C227.35 96.9 224.4 97.5 221.6 98.7C218.9 99.8 216.5 101.45 214.4 103.65C212.3 105.85 210.65 108.55 209.45 111.75C208.25 114.85 207.65 118.4 207.65 122.4C207.65 126.3 208.25 129.85 209.45 133.05C210.65 136.15 212.3 138.8 214.4 141C216.5 143.2 218.9 144.9 221.6 146.1C224.4 147.3 227.35 147.9 230.45 147.9C233.45 147.9 236.35 147.3 239.15 146.1C241.95 144.9 244.4 143.2 246.5 141C248.6 138.7 250.25 136 251.45 132.9C252.75 129.8 253.4 126.3 253.4 122.4ZM307.688 128.85C308.788 135.35 311.388 140.35 315.488 143.85C319.588 147.25 324.588 148.95 330.488 148.95C334.988 148.95 338.888 148.15 342.188 146.55C345.488 144.95 348.738 142.6 351.938 139.5L362.588 148.95C358.788 153.45 354.238 157.05 348.938 159.75C343.738 162.45 337.488 163.8 330.188 163.8C324.488 163.8 319.138 162.8 314.138 160.8C309.238 158.8 304.938 156 301.238 152.4C297.638 148.8 294.788 144.5 292.688 139.5C290.588 134.4 289.538 128.75 289.538 122.55C289.538 116.85 290.488 111.5 292.388 106.5C294.288 101.5 296.938 97.15 300.338 93.45C303.838 89.65 307.938 86.65 312.638 84.45C317.338 82.25 322.538 81.15 328.238 81.15C334.538 81.15 340.038 82.3 344.738 84.6C349.538 86.9 353.488 90 356.588 93.9C359.788 97.8 362.188 102.35 363.788 107.55C365.388 112.75 366.188 118.2 366.188 123.9C366.188 124.7 366.138 125.5 366.038 126.3C366.038 127.1 365.988 127.95 365.888 128.85H307.688ZM307.538 116.85H348.188C347.888 113.95 347.238 111.25 346.238 108.75C345.238 106.15 343.888 103.95 342.188 102.15C340.488 100.25 338.438 98.75 336.038 97.65C333.738 96.55 331.088 96 328.088 96C322.488 96 317.838 97.95 314.138 101.85C310.538 105.65 308.338 110.65 307.538 116.85ZM352.088 72.75H333.638V55.05H352.088V72.75ZM322.238 72.75H303.788V55.05H322.238V72.75ZM402.566 131.85V162H384.416V82.8H402.566V100.65C405.066 94.65 408.616 89.85 413.216 86.25C417.816 82.65 423.616 81 430.616 81.3V100.5H429.566C425.566 100.5 421.916 101.15 418.616 102.45C415.316 103.75 412.466 105.7 410.066 108.3C407.666 110.9 405.816 114.2 404.516 118.2C403.216 122.1 402.566 126.65 402.566 131.85ZM460.179 128.85C461.279 135.35 463.879 140.35 467.979 143.85C472.079 147.25 477.079 148.95 482.979 148.95C487.479 148.95 491.379 148.15 494.679 146.55C497.979 144.95 501.229 142.6 504.429 139.5L515.079 148.95C511.279 153.45 506.729 157.05 501.429 159.75C496.229 162.45 489.979 163.8 482.679 163.8C476.979 163.8 471.629 162.8 466.629 160.8C461.729 158.8 457.429 156 453.729 152.4C450.129 148.8 447.279 144.5 445.179 139.5C443.079 134.4 442.029 128.75 442.029 122.55C442.029 116.85 442.979 111.5 444.879 106.5C446.779 101.5 449.429 97.15 452.829 93.45C456.329 89.65 460.429 86.65 465.129 84.45C469.829 82.25 475.029 81.15 480.729 81.15C487.029 81.15 492.529 82.3 497.229 84.6C502.029 86.9 505.979 90 509.079 93.9C512.279 97.8 514.679 102.35 516.279 107.55C517.879 112.75 518.679 118.2 518.679 123.9C518.679 124.7 518.629 125.5 518.529 126.3C518.529 127.1 518.479 127.95 518.379 128.85H460.179ZM460.029 116.85H500.679C500.379 113.95 499.729 111.25 498.729 108.75C497.729 106.15 496.379 103.95 494.679 102.15C492.979 100.25 490.929 98.75 488.529 97.65C486.229 96.55 483.579 96 480.579 96C474.979 96 470.329 97.95 466.629 101.85C463.029 105.65 460.829 110.65 460.029 116.85ZM504.579 72.75H486.129V55.05H504.579V72.75ZM474.729 72.75H456.279V55.05H474.729V72.75ZM602.756 95.1C605.956 90.9 609.706 87.55 614.006 85.05C618.406 82.45 623.606 81.15 629.606 81.15C638.306 81.15 645.106 83.8 650.006 89.1C654.906 94.3 657.356 101.75 657.356 111.45V162H639.206V117C639.206 110.7 637.806 105.9 635.006 102.6C632.206 99.3 628.256 97.65 623.156 97.65C618.156 97.65 614.056 99.35 610.856 102.75C607.756 106.05 606.206 110.9 606.206 117.3V162H588.056V116.85C588.056 110.65 586.656 105.9 583.856 102.6C581.056 99.3 577.106 97.65 572.006 97.65C566.906 97.65 562.806 99.4 559.706 102.9C556.606 106.4 555.056 111.25 555.056 117.45V162H536.906V82.8H555.056V94.8C556.356 93 557.756 91.3 559.256 89.7C560.756 88.1 562.456 86.65 564.356 85.35C566.356 84.05 568.556 83.05 570.956 82.35C573.456 81.55 576.206 81.15 579.206 81.15C584.906 81.15 589.706 82.45 593.606 85.05C597.606 87.55 600.656 90.9 602.756 95.1Z" fill="black"/>
</svg>
