<svg width="24" height="24" viewBox="0 0 24 24" fill="none" xmlns="http://www.w3.org/2000/svg">
<path fill-rule="evenodd" clip-rule="evenodd" d="M8.03237 6.20803C6.20009 7.47092 5 9.58413 5 11.9761C5 15.8421 8.13401 18.9761 12 18.9761C14.392 18.9761 16.5052 17.776 17.7681 15.9437C17.5148 15.9651 17.2586 15.9761 17 15.9761C12.0294 15.9761 8 11.9466 8 6.97606C8 6.71748 8.01093 6.46132 8.03237 6.20803ZM3 11.9761C3 8.01793 5.55453 4.65902 9.10199 3.45312L10.3706 4.72176C10.1306 5.42784 10 6.18566 10 6.97606C10 10.8421 13.134 13.9761 17 13.9761C17.7904 13.9761 18.5482 13.8455 19.2543 13.6054L20.523 14.8741C19.3171 18.4215 15.9582 20.9761 12 20.9761C7.02944 20.9761 3 16.9466 3 11.9761Z" fill="#4F4B5C"/>
</svg>
