<svg width="312" height="252" viewBox="0 0 312 252" fill="none" xmlns="http://www.w3.org/2000/svg">
<path d="M104.987 235.264C97.6986 228.989 96.8609 227.2 88.0999 194.155C77.5122 154.22 67.9915 111.578 63.0089 70.6748C59.7329 43.7738 60.2789 41.0434 61.9028 36.4822C62.9822 32.8911 64.8299 29.4798 67.3628 26.4022C69.9509 23.3782 71.1068 22.2014 74.0584 21.2236C74.6324 21.0334 79.8444 18.376 97.0091 14.8153C119.565 10.1369 171.265 4.1683 199.021 7.05622C205.833 7.7656 211.38 7.67236 219.424 30.7543C236.289 79.1483 245.218 138.291 249.516 188.854C251.948 217.477 254.833 226.057 238.152 231.223C209.604 240.06 172.05 245.563 150.138 245.657C130.786 245.744 118.022 246.484 104.987 235.264ZM144.313 244.285C144.313 244.72 187.898 244.092 231.526 231.685C242.78 228.487 245.988 227.442 248.81 221.489C252.086 214.559 242.921 100.071 216.713 27.8008C214.866 22.7066 210.079 10.4771 203.793 8.92732C187.275 4.8613 98.9341 10.5691 71.7589 23.8545C71.4692 24.0367 71.2522 24.2835 71.1349 24.5644C71.0176 24.8454 71.0051 25.148 71.099 25.4345C73.3938 45.1435 74.5513 106.653 113.041 233.544C116.001 243.282 121.326 244.285 144.313 244.285Z" fill="black"/>
<path d="M118.895 227.103C111.11 211.026 85.2096 112.947 78.238 44.0166C77.9588 41.2522 77.926 39.8498 77.7887 39.2286C77.4237 37.5616 78.8324 37.3802 82.996 36.5826C124.634 28.5766 202.15 23.941 207.069 24.4564C208.646 24.624 233.541 83.2519 243.075 196.76C244.302 211.361 244.779 211.976 242.818 212.621C231.876 216.221 188.096 225.13 151.154 226.907C122.303 228.295 119.216 227.766 118.895 227.103ZM137.228 226.452C137.228 226.481 182.696 226.269 237.286 213.078C243.578 211.559 243.1 211.889 243.05 211.293C232.458 86.839 213.619 48.7731 207.217 25.7328C206.893 24.566 127.844 29.0818 79.0866 38.3416C77.0586 38.7259 94.0439 149.872 119.868 226.064C120.275 227.272 118.559 226.452 137.228 226.452Z" fill="black"/>
<path d="M181.22 237.006C178.751 237.141 176.272 236.884 173.924 236.25C163.063 232.47 191.365 224.119 204.812 227.682C207.057 228.277 208.088 230.328 204.682 232.203C199.625 234.975 190.63 236.512 184.445 236.965C182.952 237.084 181.22 236.918 181.22 237.006ZM181.169 235.955C188.07 236.011 201.97 233.74 205.349 230.323C208.642 226.997 189.685 227.013 178.584 230.788C170.242 233.631 171.348 235.881 181.169 235.96V235.955Z" fill="black"/>
<path d="M130.462 22.4172C129.814 22.2521 129.563 21.6133 130.905 21.0715C134.549 19.6011 141.223 18.7456 145.4 18.3776C150.494 17.9303 158.529 17.0055 159.08 18.3776C159.996 20.6645 133.638 23.2261 130.462 22.4172Z" fill="black"/>
<path d="M172.699 15.8688C172.699 15.3026 172.908 14.7493 173.301 14.2798C173.692 13.8103 174.248 13.446 174.898 13.2333C175.547 13.0206 176.262 12.9693 176.947 13.086C177.633 13.2026 178.26 13.482 178.748 13.8882C179.237 14.2946 179.564 14.8091 179.687 15.3664C179.812 15.9237 179.728 16.4982 179.446 17.0164C179.163 17.5347 178.695 17.9729 178.102 18.2753C177.51 18.5777 176.819 18.7304 176.118 18.7139C175.198 18.7025 174.321 18.3965 173.68 17.863C173.039 17.3295 172.685 16.6122 172.699 15.8688Z" fill="black"/>
<path d="M208.483 70.0388C208.483 76.2645 206.069 76.8857 192.346 78.4052C185.482 79.1612 180.847 80.1692 179.225 74.7512C177.924 70.1966 177.116 65.559 176.812 60.8912C177.592 56.3678 178.528 55.3976 190.585 53.9776C200.343 52.8298 203.171 53.1133 205.027 55.448C207.394 58.4317 208.726 70.0086 208.483 70.0388ZM193.184 73.3476C195.692 72.9091 195.734 73.083 195.954 72.5299C196.627 70.8427 199.386 60.3255 199.764 58.8387C199.932 58.1923 199.583 58.4267 196.514 58.8778C195.89 58.9685 196.248 59.4548 195.708 61.3978C195.131 63.4805 194.51 65.5558 193.901 67.6247C193.89 67.7061 193.85 67.7832 193.787 67.8472C193.723 67.9113 193.639 67.9598 193.544 67.9871C193.449 68.0144 193.346 68.0196 193.246 68.0018C193.148 67.984 193.056 67.9441 192.984 67.8868C192.497 67.5088 190.203 64.7909 189.884 64.4041C186.646 60.4591 186.889 60.2852 186.256 60.3973C181.722 61.205 182.346 60.3973 183.916 62.3894C192.727 73.6172 192.346 73.495 193.184 73.3476Z" fill="black"/>
<path d="M204.686 80.6513C208.002 81.1376 188.338 83.7584 186.599 83.5594C186.315 83.5266 186.008 83.2129 186.396 83.0113C187.873 82.2477 202.955 80.3968 204.686 80.6513Z" fill="black"/>
<path d="M197.289 84.5987C196.894 84.6642 188.443 86.1107 187.617 85.8587C187.055 85.6936 187.063 85.1266 188.11 84.9187C195.562 83.4344 198.939 84.3252 197.289 84.5987Z" fill="black"/>
<path d="M114.152 64.9217C115.404 64.8337 116.661 65.0548 117.754 65.5561C118.848 66.0575 119.727 66.8153 120.275 67.729C121.999 70.8538 123.591 78.8951 123.534 82.975C123.578 83.872 123.342 84.7635 122.847 85.5672C122.352 86.371 121.615 87.0612 120.702 87.574C117.325 89.1225 105.051 90.5186 101.416 90.7202C98.3913 90.8903 95.7533 90.2049 94.8173 87.9041C93.8889 85.3919 93.1734 82.8316 92.6754 80.2408C90.1326 67.5261 91.014 66.871 114.152 64.9217ZM100.382 78.8762C100.735 80.0434 101.481 81.1088 102.537 81.9543C103.594 82.7999 104.92 83.3926 106.368 83.6665C107.816 83.9406 109.33 83.8852 110.742 83.5067C112.154 83.1284 113.408 82.4414 114.366 81.5222C114.404 81.5016 114.436 81.4735 114.458 81.4405C114.48 81.4076 114.491 81.3707 114.491 81.3332C114.491 81.2958 114.48 81.259 114.458 81.226C114.436 81.193 114.404 81.1649 114.366 81.1442C112.228 79.4306 112.235 79.1761 111.845 79.5705C111.39 80.027 110.8 80.3837 110.13 80.6079C109.46 80.8321 108.731 80.9167 108.009 80.8538C107.288 80.7909 106.598 80.5827 106.003 80.2481C105.407 79.9136 104.925 79.4634 104.601 78.9391C104.278 78.4148 104.122 77.8332 104.149 77.2477C104.177 76.6623 104.386 76.0916 104.757 75.5885C105.129 75.0853 105.651 74.6656 106.276 74.3679C106.901 74.0703 107.608 73.9044 108.333 73.8854C110.291 73.9345 110.629 74.6502 110.814 74.0706C111.732 71.1726 111.807 71.2684 111.071 71.0932C104.399 69.522 98.8842 73.9068 100.382 78.8762Z" fill="black"/>
<path d="M118.776 92.219C119.413 92.219 119.851 92.1585 119.973 92.3916C120.483 93.3643 102.248 95.4257 101.655 95.3223C97.4183 94.589 118.758 92.0879 118.776 92.219Z" fill="black"/>
<path d="M112.861 96.115C111.973 96.6354 103.159 97.7013 103.122 97.6837C99.3966 96.5673 112.359 95.1486 112.861 96.115Z" fill="black"/>
<path d="M156.854 58.8209C163.119 58.7667 164.082 62.7585 165.181 68.4134C167.255 79.0566 166.774 81.3334 159.097 82.6816C137.688 86.4364 137.808 84.7328 136.056 76.9863C132.473 61.1267 133.024 60.8381 156.854 58.8209ZM151.836 80.28C152.347 79.8214 151.583 80.7387 155.424 75.9469C156.898 74.1098 156.92 74.2672 156.397 74.0114C153.656 72.6733 153.731 72.5676 153.449 72.904C150.017 76.9952 151.379 76.4924 148.241 74.9111C147.351 74.4612 146.032 73.6826 145.745 74.0618C144.151 76.1282 144.12 76.0011 144.46 76.2039C148.31 78.5551 151.301 79.9701 151.836 80.28ZM152.187 65.2734C147.603 62.9248 147.217 62.7534 146.847 63.139C145.243 64.8375 145.249 64.9988 142.337 68.5205C141.967 68.969 142.805 69.0243 144.917 70.2579C145.285 70.4733 145.251 70.3235 146.933 68.2647C148.251 66.6481 148.142 66.6858 148.705 66.9491C153.622 69.2423 152.271 69.7565 154.435 66.7161C154.636 66.4339 154.182 66.2953 152.187 65.2684V65.2734ZM158.45 72.056C158.583 71.9615 158.486 72.1266 160.506 69.5864C160.726 69.3092 160.581 69.4188 157.617 68.0228C157.282 67.8653 156.949 68.1273 155.366 70.3689C155.341 70.4168 155.331 70.4687 155.336 70.5205C155.341 70.5721 155.362 70.6221 155.396 70.6662C156.369 71.19 157.391 71.6546 158.45 72.056ZM140.8 70.9069C140.741 70.8786 140.672 70.8682 140.604 70.8777C140.537 70.8871 140.476 70.9159 140.432 70.9586C140.095 71.2925 139.48 72.1278 139.037 72.7087C138.881 72.9191 138.791 73.2126 138.986 73.3033C140.969 74.2193 141.613 74.8872 142.033 74.3744C143.7 72.342 143.842 72.3219 143.426 72.1064C142.571 71.6579 141.421 71.1967 140.8 70.9069ZM148.931 69.74C148.231 70.3431 147.682 71.0494 147.313 71.8204C147.207 72.1178 148.617 72.7023 149.207 72.9959C149.878 73.3222 150.254 73.4923 150.911 72.6179C152.003 71.1802 152.159 71.0757 151.89 70.9422C150.007 69.9934 149.234 69.4842 148.931 69.74Z" fill="black"/>
<path d="M162.706 86.2979C163.121 87.2354 146.18 89.1644 145.921 89.1884C143.504 89.4114 143.773 88.6125 145.111 88.3542C146.233 88.1388 162.312 85.4109 162.706 86.2979Z" fill="black"/>
<path d="M151.525 90.8725C149.653 91.1862 146.504 91.4912 146.031 91.5693C145.558 91.6474 144.825 91.2996 145.295 90.9393C147.035 89.6213 162.748 88.9964 151.525 90.8725Z" fill="black"/>
<path d="M138.181 172.948C136.606 173.722 130.618 174.533 127.863 174.949C122.84 175.705 119.873 176.176 119.708 175.633C119.391 174.591 140.757 171.684 138.181 172.948Z" fill="black"/>
<path d="M129.298 176.293C136.343 176.293 122.019 178.237 121.534 178.233C121.222 178.233 120.799 178.017 120.844 177.855C120.868 177.762 120.914 177.674 120.981 177.595C121.048 177.516 121.134 177.45 121.234 177.399C123.84 176.711 126.557 176.338 129.298 176.293Z" fill="black"/>
<path d="M121.523 146.468C123.184 146.202 130.706 145.382 132.294 145.367C136.35 145.328 138.254 147.257 139.193 150.501C144.653 169.365 142.174 168.519 121.055 171.219C117.275 171.702 113.771 171.13 112.787 168.028C106.479 148.083 110.044 148.303 121.523 146.468ZM131.461 150.969C131.382 150.471 131.382 150.429 130.649 150.408C128.511 150.937 126.549 151.849 124.909 153.078C123.101 154.446 121.617 156.069 120.527 157.866C120.204 158.521 120.259 158.646 120.922 159.074C121.505 159.452 122.137 156.44 125.432 156.209C126.04 156.166 126.189 156.535 126.107 157.018C125.885 158.383 125.203 159.672 124.136 160.745C126.008 161.659 125.396 161.853 127.88 158.882C130.975 155.16 131.633 152.001 131.468 150.969H131.461ZM117.109 165.513C117.109 165.765 117.159 165.891 117.482 165.812C120.283 165.029 122.824 163.735 124.906 162.032C123.332 161.402 123.373 161.316 122.878 161.558C118.885 163.527 120.98 160.963 120.668 159.873C120.612 159.68 120.129 159.576 119.93 159.397C119.73 159.218 119.666 159.246 119.54 159.397C118.034 161.225 117.855 162.222 117.119 165.513H117.109ZM126.332 162.594C126.332 163.231 126.226 163.954 126.867 163.576C129.02 162.304 130.455 160.945 129.41 158.953C129.284 158.715 129.179 158.73 128.989 158.953C126.549 161.84 126.145 161.879 126.302 162.607L126.332 162.594ZM119.963 157.022C120.002 156.755 120.799 155.98 121.31 155.06C117.599 154.734 116.111 158.822 117.353 158.486C117.346 158.486 119.807 157.974 119.963 157.022ZM121.377 160.891C121.377 161.344 121.326 161.418 121.7 161.284C122.669 160.827 123.491 160.192 124.1 159.431C124.71 158.67 125.089 157.804 125.209 156.903C124.196 157.245 123.308 157.79 122.632 158.49C121.956 159.188 121.514 160.014 121.348 160.891H121.377Z" fill="black"/>
<path d="M127.904 153.078C130.113 153.078 129.716 155.437 128.069 155.597C125.376 155.861 125.925 153.078 127.904 153.078ZM128.05 153.697C127.185 153.477 126.527 154.453 127.236 154.856C127.352 154.919 127.484 154.958 127.622 154.972C127.76 154.984 127.9 154.971 128.03 154.932C128.16 154.892 128.277 154.83 128.371 154.746C128.465 154.663 128.533 154.564 128.569 154.455C128.655 154.098 128.541 153.774 128.05 153.697Z" fill="black"/>
<path d="M174.596 138.735C175.76 138.637 176.933 138.806 177.983 139.223C179.033 139.639 179.916 140.285 180.532 141.089C181.746 143.472 182.593 145.966 183.056 148.515C185.636 161.555 185.15 161.689 167.185 164.114C156.602 165.543 155.895 164.328 154.11 157.406C150.107 141.871 153.254 142.223 159.506 140.739C164.448 139.693 169.5 139.023 174.596 138.735ZM161.835 157.992C167.364 157.853 172.802 156.825 177.832 154.968C178.245 154.822 178.334 154.67 178.237 154.345C177.946 153.379 173.219 149.213 172.021 148.267C165.757 143.32 166.249 143.159 164.555 146.014C162.491 149.599 160.937 153.361 159.923 157.228C159.67 158.141 160.678 157.992 161.835 157.992Z" fill="black"/>
<path d="M179.778 165.877C185.504 166.281 165.532 169.268 162.941 169.29C162.27 169.29 162.203 168.726 162.794 168.556C166.156 167.58 176.066 166.338 179.778 165.877Z" fill="black"/>
<path d="M171.911 169.555C173.964 169.736 173.48 169.659 173.802 169.871C172.998 170.422 165.222 171.496 164.091 171.543C163.446 171.571 163.254 170.982 163.844 170.716C166.052 170.167 168.321 169.8 170.621 169.624C171.346 169.54 171.9 169.698 171.911 169.555Z" fill="black"/>
<path d="M163.674 155.024C164.349 152.679 165.359 150.405 166.681 148.246C166.789 148.047 166.914 148.008 167.149 148.187C169.296 149.723 171.23 151.441 172.921 153.31C173.202 153.67 173.165 153.704 172.642 153.822C167.298 155.023 163.421 156.055 163.674 155.024Z" fill="black"/>
<path d="M226.419 149.804C226.475 150.976 226.224 152.143 225.682 153.23C225.294 154.099 224.514 154.82 223.498 155.246C220.002 156.773 206.619 158.449 202.649 158.428C201.791 158.43 200.944 158.27 200.175 157.96C199.407 157.65 198.741 157.199 198.228 156.642C197.195 154.574 196.406 152.434 195.872 150.246C195.849 150.151 195.66 149.541 194.849 144.496C193.269 134.668 196.738 134.748 213.948 132.834C223.518 131.771 224.748 134.903 226.419 149.804ZM207.901 152.933C207.901 152.962 215.059 152.453 217.369 151.593C218.213 151.278 218.105 150.997 218.341 150.521C219.36 148.472 220.239 146.381 221.086 144.271C221.606 142.976 221.615 142.974 220.523 141.929C218.963 140.436 217.321 139.003 215.595 137.631C214.694 136.916 214.86 137.015 205.611 138.196C204.532 138.334 204.766 137.818 201.827 143.256C201.53 143.803 200.168 146.532 200.636 146.983C207.215 153.398 206.421 152.933 207.901 152.933Z" fill="black"/>
<path d="M221.736 159.895C228.6 160.166 204.613 163.533 204.42 162.901C204.304 162.535 204.54 162.391 204.964 162.305C210.48 161.195 216.084 160.39 221.736 159.895Z" fill="black"/>
<path d="M215.604 163.628C217.394 164.076 206.295 165.361 206.259 165.367C205.808 165.444 205.075 165.069 205.448 164.817C205.654 164.638 205.905 164.497 206.184 164.402C208.197 163.917 213.691 163.151 215.604 163.628Z" fill="black"/>
<path d="M212.74 144.432C212.651 143.997 212.166 143.802 211.048 142.137C210.712 141.633 210.522 141.351 210.765 141.165C211.241 141.002 211.734 140.875 212.238 140.787C212.562 140.703 212.781 141.084 213.926 142.572C214.221 142.108 214.583 140.787 214.891 140.489C215.37 140.334 215.874 140.233 216.387 140.191C216.846 140.141 217.058 140.135 216.871 140.569C215.838 142.951 215.247 143.869 215.352 144.394C215.387 144.569 217.38 147.025 217.707 147.46C218.035 147.894 217.395 148.009 216.671 148.161C216.255 148.25 216.147 148.26 215.86 147.951C215.643 147.715 214.561 146.439 214.515 146.367C214.47 146.295 214.405 146.218 214.347 146.241C213.973 146.745 213.7 147.729 213.274 148.45C213.178 148.611 213.105 148.769 212.581 148.873C212.188 148.953 211.781 148.97 211.38 148.929C210.888 148.877 211.188 148.492 211.236 148.393C211.422 147.827 212.673 145.153 212.74 144.432Z" fill="black"/>
<path d="M206.966 140.358C206.81 139.897 207.374 139.903 208.005 139.787C208.635 139.671 208.764 139.709 208.941 140.191C209.814 142.879 210.092 145.67 209.758 148.436C208.808 151.795 203.651 148.52 204.055 147.841C204.75 146.965 205.204 146.581 205.459 146.781C205.864 147.147 206.312 147.479 206.796 147.775C207.813 148.393 207.997 147.46 207.924 146.287C207.757 144.296 207.437 142.316 206.966 140.358Z" fill="black"/>
<path d="M124.146 104.664C130.908 104.58 131.224 108.864 132.707 114.798C132.88 115.493 133.549 119.972 133.643 120.942C133.881 122.682 133.482 124.441 132.497 126C130.546 128.296 122.463 129.331 116.574 129.999C106.827 131.105 104.991 130.833 103.271 122.089C101.36 112.37 100.292 108.473 106.989 106.969C112.584 105.687 118.338 104.914 124.146 104.664ZM118.973 125.564C120.493 125.41 121.907 124.854 122.996 123.984C123.053 123.95 123.1 123.906 123.133 123.855C123.166 123.805 123.185 123.748 123.187 123.691C123.189 123.634 123.175 123.577 123.146 123.525C123.117 123.472 123.074 123.426 123.02 123.389C121.751 122.198 121.874 122.061 121.424 122.299C121.057 122.492 120.48 123.039 120.101 123.193C118.129 123.988 116.996 123.147 116.585 121.406C116.285 120.146 117.82 121.077 121.998 120.053C122.178 120.028 122.35 119.972 122.502 119.888C122.653 119.804 122.78 119.695 122.875 119.569C122.969 119.442 123.029 119.3 123.049 119.153C123.07 119.006 123.05 118.856 122.993 118.716C122.562 116.983 121.52 115.141 119.344 114.81C115.79 114.276 112.724 116.166 113.619 120.926C114.099 123.489 115.262 125.398 118.973 125.564ZM106.034 116.55C106.019 117.254 106.257 117.947 106.721 118.544C107.184 119.141 107.852 119.617 108.644 119.913C109.437 120.049 110.202 120.276 110.917 120.586C111.491 120.915 111.243 119.05 111.753 117.416C111.816 117.232 111.787 117.035 111.672 116.869C111.557 116.702 111.365 116.579 111.139 116.526C110.359 116.457 109.95 115.868 109.554 115.379C108.589 114.19 110.948 111.811 111.533 110.942C112.396 109.66 105.994 112.358 106.034 116.55ZM128.178 114.408C128.428 110.134 121.023 108.56 120.645 109.142C120.578 109.247 120.686 109.58 121.158 109.813C122.825 110.635 125.141 112.238 124.267 113.654C123.175 115.418 122.562 113.452 125.005 118.046C125.28 118.563 125.656 118.136 126.721 117.247C127.206 116.888 127.587 116.448 127.839 115.958C128.091 115.467 128.207 114.938 128.178 114.408Z" fill="black"/>
<path d="M112.597 135.072C110.881 135.072 111.576 134.363 113.405 134.033C115.342 133.684 128.092 131.718 129.769 131.83C129.851 131.849 129.928 131.882 129.994 131.925C130.061 131.968 130.116 132.022 130.156 132.082C130.727 132.903 112.615 135.178 112.597 135.072Z" fill="black"/>
<path d="M114.171 137.304C113.859 137.339 112.897 137.575 112.723 137.062C112.07 135.146 135.493 134.843 114.171 137.304Z" fill="black"/>
<path d="M117.255 118.998C116.282 118.998 116.19 118.879 116.268 118.105C116.58 115.038 119.544 116.041 120.188 116.955C121.413 118.705 120.955 118.585 117.255 118.998Z" fill="black"/>
<path d="M166.812 98.2512C168.066 98.1553 169.328 98.3712 170.426 98.87C171.526 99.3687 172.411 100.126 172.961 101.042C174.356 104.209 175.311 107.491 175.81 110.829C176.345 113.805 177.184 118.356 174.406 120.353C171.384 122.529 154.736 124.196 154.265 124.151C148.541 123.606 146.894 125.083 144.399 106.784C144.59 101.454 147.051 101.046 153.465 99.8225C157.854 99.0081 162.318 98.4826 166.812 98.2512ZM163.52 103.058C163.52 102.709 163.403 102.782 161.648 102.778C160.999 102.778 161.07 103.156 161.18 104.507C161.18 104.597 161.307 104.702 161.104 104.704C160.539 104.774 159.965 104.783 159.397 104.73C158.535 104.552 158.758 104.701 158.731 102.855C158.731 102.668 158.575 102.453 158.361 102.525C157.887 102.617 157.4 102.652 156.914 102.628C155.215 102.795 157.19 104.971 155.149 104.811C154.652 104.772 154.198 104.919 153.716 104.864C153.404 104.83 153.346 104.962 153.248 106.07C153.271 106.19 153.301 106.309 153.34 106.427C153.362 106.688 153.488 106.813 153.848 106.797C155.961 106.693 155.809 106.889 155.758 107.201C155.516 108.771 155.46 110.357 155.591 111.936C155.459 112.687 155.437 113.449 155.525 114.204C155.65 114.639 155.396 114.582 153.616 114.403C153.129 114.355 153.187 114.433 153.182 115.766C153.182 116.618 153.207 116.332 153.897 116.344C156.029 116.38 155.769 116.463 155.78 117.311C155.78 118.222 155.78 118.217 156.929 118.242C158.293 118.274 158.199 118.196 158.19 117.32C158.19 116.564 158.326 116.47 159.213 116.472C160.319 116.472 159.926 116.359 160.032 117.68C160.084 118.336 160.935 118.339 161.737 118.231C162.24 118.163 162.406 117.934 162.416 117.493C162.447 116.076 162.484 117.384 165.848 116.302C167.322 115.828 167.926 114.178 168.107 112.9C168.481 110.254 164.567 110.897 165.682 109.713C167.898 107.364 166.734 105.374 164.746 105.16C163.406 105.01 163.509 105.475 163.52 103.058Z" fill="black"/>
<path d="M154.527 128.671C154.48 128.668 154.435 128.656 154.397 128.634C154.359 128.613 154.328 128.583 154.309 128.549C154.289 128.515 154.282 128.477 154.287 128.439C154.291 128.401 154.309 128.366 154.336 128.336C155.335 127.28 174.732 124.785 172.794 125.863C171.155 126.773 156.179 128.802 154.527 128.671Z" fill="black"/>
<path d="M165.72 129.446C164.859 129.978 157.36 130.934 156.07 131.05C155.923 131.075 155.77 131.052 155.644 130.987C155.519 130.92 155.43 130.817 155.399 130.698C155.368 130.58 155.396 130.456 155.478 130.354C155.559 130.253 155.688 130.182 155.834 130.156C157.404 129.695 164.829 128.559 165.72 129.446Z" fill="black"/>
<path d="M160.941 114.711C157.365 114.434 158.515 115.225 158.541 111.255C158.541 110.606 158.541 110.66 159.312 110.66C160.083 110.66 160.908 110.628 161.704 110.66C163.757 110.739 164.886 111.941 163.895 113.761C163.232 114.978 160.958 114.571 160.941 114.711Z" fill="black"/>
<path d="M162.539 106.642C162.781 106.701 163.001 106.807 163.181 106.952C163.358 107.097 163.488 107.276 163.558 107.472C163.627 107.668 163.635 107.876 163.578 108.075C163.524 108.274 163.407 108.459 163.24 108.612C162.271 109.479 161.106 109.335 159.101 109.315C158.335 109.307 158.494 109.181 158.819 106.543C160.059 106.445 161.31 106.478 162.539 106.642Z" fill="black"/>
<path d="M218.543 109.778C218.699 111.108 218.174 113.924 215.913 114.986C213.386 116.175 208.377 116.876 205.495 117.225C201.249 117.737 194.575 119.094 191.71 117.448C190.011 116.474 189.828 116.015 188.393 110.802C187.875 108.882 187.506 106.938 187.287 104.981C186.195 95.6227 187.331 95.411 196.603 93.7478C201.16 92.9418 205.809 92.5273 210.473 92.5117C211.608 92.5656 212.696 92.8901 213.601 93.4441C217.043 95.2384 218.543 106.814 218.543 109.778ZM192.391 102.385C193.526 111.644 191.455 109.504 198.72 112.395C200.405 113.068 202.162 113.613 203.971 114.025C204.14 114.075 204.322 114.088 204.5 114.063C204.676 114.038 204.843 113.976 204.981 113.883C214.299 107.647 212.985 108.757 212.863 107.435C212.734 106.049 212.645 104.915 212.461 103.683C211.896 99.8701 212.049 99.7126 211.278 99.4644C200.847 96.109 202.432 95.629 200.411 96.6609C198.037 97.822 195.76 99.1079 193.594 100.51C192.757 100.986 192.137 101.48 192.391 102.385Z" fill="black"/>
<path d="M213.746 119.718C219.955 119.97 203.837 122.182 197.867 122.814C197.361 122.867 196.29 122.96 196.333 122.546C196.461 121.337 213.741 119.793 213.746 119.718Z" fill="black"/>
<path d="M197.779 125.101C197.695 125.091 197.615 125.062 197.55 125.017C197.484 124.972 197.437 124.912 197.412 124.846C197.388 124.78 197.388 124.709 197.411 124.643C197.436 124.576 197.483 124.516 197.547 124.471C199.118 123.179 217.789 122.496 200.327 124.933C199.486 125.051 198.632 125.107 197.779 125.101Z" fill="black"/>
<path d="M194.268 103.891C194.268 101.212 193.116 102.505 200.86 98.129C202.108 97.4234 202.25 97.9615 209.038 100.245C210.345 100.686 210.298 101.355 210.651 104.529C210.612 105.466 210.665 106.404 210.807 107.335C211.097 108.208 210.537 108.343 207.885 110.076C203.89 112.681 204.528 112.642 202.434 112.023C194.53 109.686 194.75 109.305 194.79 108.726C194.492 107.124 194.319 105.51 194.268 103.891ZM203.191 106.058C204.042 106.058 203.554 105.957 204.145 104.992C204.876 103.799 206.404 103.043 206.412 102.85C206.457 101.559 206.08 101.704 205.715 101.734C197.299 102.426 198.227 101.525 198.253 103.72C198.253 104.437 200.593 103.989 201.768 105.824C201.963 106.124 202.092 106.066 203.191 106.058ZM197.529 107.066C197.724 107.09 197.347 107.636 197.529 107.918C197.662 108.125 197.954 108.17 198.734 108.513C201.199 109.604 201.865 110 202.11 109.846C202.926 109.342 202.766 109.046 202.437 108.698C202.358 108.614 200.801 107.728 200.451 107.564C199.487 107.119 201.459 106.09 198.423 105.442C197.72 105.302 197.749 105.927 197.529 107.073V107.066ZM205.212 109.566C205.613 109.343 205.47 109.364 205.762 109.135C208.629 106.875 208.746 106.944 208.595 106.57C208.356 105.974 208.145 105.358 207.891 104.76C207.861 104.693 207.815 104.632 207.755 104.58C207.694 104.528 207.621 104.487 207.54 104.459C207.459 104.431 207.372 104.417 207.284 104.417C207.195 104.418 207.109 104.433 207.028 104.462C206.008 105.058 205.038 105.654 205.602 106.57C206.128 107.422 204.434 108.266 204.457 108.679C204.598 109.029 204.86 109.339 205.212 109.572V109.566Z" fill="black"/>
</svg>
