<svg width="23" height="17" viewBox="0 0 23 17" fill="none" xmlns="http://www.w3.org/2000/svg">
<path d="M22.6059 3.89332C22.6059 1.95973 21.1836 0.404258 19.4262 0.404258C17.0457 0.292969 14.618 0.25 12.137 0.25H11.3635C8.88854 0.25 6.45651 0.292969 4.07604 0.404687C2.32292 0.404687 0.900652 1.96875 0.900652 3.90234C0.79323 5.4316 0.747683 6.96129 0.750261 8.49098C0.745964 10.0207 0.794662 11.5518 0.896355 13.0843C0.896355 15.0179 2.31862 16.5863 4.07175 16.5863C6.57253 16.7023 9.13776 16.7539 11.746 16.7496C14.3585 16.7582 16.9165 16.7037 19.4202 16.5863C21.1776 16.5863 22.5999 15.0179 22.5999 13.0843C22.703 11.5504 22.7503 10.0207 22.746 8.48668C22.7557 6.95699 22.709 5.42587 22.6059 3.89332ZM9.64479 12.7062V4.26285L15.8753 8.48238L9.64479 12.7062Z" fill="#FFCB45"/>
</svg>
