<svg width="24" height="25" viewBox="0 0 24 25" fill="none" xmlns="http://www.w3.org/2000/svg">
<path d="M8.27 22.7671H4.23C2.22 22.7671 1.25 21.8371 1.25 19.9171V4.11709C1.25 2.19709 2.23 1.26709 4.23 1.26709H8.27C10.28 1.26709 11.25 2.19709 11.25 4.11709V19.9171C11.25 21.8371 10.27 22.7671 8.27 22.7671ZM4.23 2.76709C2.96 2.76709 2.75 3.10709 2.75 4.11709V19.9171C2.75 20.9271 2.96 21.2671 4.23 21.2671H8.27C9.54 21.2671 9.75 20.9271 9.75 19.9171V4.11709C9.75 3.10709 9.54 2.76709 8.27 2.76709H4.23Z" fill="#111827"/>
<path d="M19.77 13.7671H15.73C13.72 13.7671 12.75 12.8371 12.75 10.9171V4.11709C12.75 2.19709 13.73 1.26709 15.73 1.26709H19.77C21.78 1.26709 22.75 2.19709 22.75 4.11709V10.9171C22.75 12.8371 21.77 13.7671 19.77 13.7671ZM15.73 2.76709C14.46 2.76709 14.25 3.10709 14.25 4.11709V10.9171C14.25 11.9271 14.46 12.2671 15.73 12.2671H19.77C21.04 12.2671 21.25 11.9271 21.25 10.9171V4.11709C21.25 3.10709 21.04 2.76709 19.77 2.76709H15.73Z" fill="#111827"/>
<path d="M19.77 22.7671H15.73C13.72 22.7671 12.75 21.8371 12.75 19.9171V18.1171C12.75 16.1971 13.73 15.2671 15.73 15.2671H19.77C21.78 15.2671 22.75 16.1971 22.75 18.1171V19.9171C22.75 21.8371 21.77 22.7671 19.77 22.7671ZM15.73 16.7671C14.46 16.7671 14.25 17.1071 14.25 18.1171V19.9171C14.25 20.9271 14.46 21.2671 15.73 21.2671H19.77C21.04 21.2671 21.25 20.9271 21.25 19.9171V18.1171C21.25 17.1071 21.04 16.7671 19.77 16.7671H15.73Z" fill="#111827"/>
</svg>
