<svg width="24" height="25" viewBox="0 0 24 25" fill="none" xmlns="http://www.w3.org/2000/svg">
<path d="M13.05 16.5993H11.17C9.84001 16.5993 8.75 15.4793 8.75 14.0993C8.75 13.6893 9.09 13.3493 9.5 13.3493C9.91 13.3493 10.25 13.6893 10.25 14.0993C10.25 14.6493 10.66 15.0993 11.17 15.0993H13.05C13.44 15.0993 13.75 14.7493 13.75 14.3193C13.75 13.7793 13.6 13.6993 13.26 13.5793L10.25 12.5293C9.61 12.3093 8.75 11.8393 8.75 10.3693C8.75 9.11936 9.74001 8.08936 10.95 8.08936H12.83C14.16 8.08936 15.25 9.20936 15.25 10.5893C15.25 10.9993 14.91 11.3393 14.5 11.3393C14.09 11.3393 13.75 10.9993 13.75 10.5893C13.75 10.0394 13.34 9.58935 12.83 9.58935H10.95C10.56 9.58935 10.25 9.93936 10.25 10.3693C10.25 10.9093 10.4 10.9893 10.74 11.1093L13.75 12.1593C14.39 12.3793 15.25 12.8493 15.25 14.3193C15.25 15.5793 14.26 16.5993 13.05 16.5993Z" fill="#111827"/>
<path d="M12 17.5991C11.59 17.5991 11.25 17.2591 11.25 16.8491V7.84912C11.25 7.43912 11.59 7.09912 12 7.09912C12.41 7.09912 12.75 7.43912 12.75 7.84912V16.8491C12.75 17.2591 12.41 17.5991 12 17.5991Z" fill="#111827"/>
<path d="M12 23.0991C6.07 23.0991 1.25 18.2791 1.25 12.3491C1.25 6.41912 6.07 1.59912 12 1.59912C12.41 1.59912 12.75 1.93912 12.75 2.34912C12.75 2.75912 12.41 3.09912 12 3.09912C6.9 3.09912 2.75 7.24912 2.75 12.3491C2.75 17.4491 6.9 21.5991 12 21.5991C17.1 21.5991 21.25 17.4491 21.25 12.3491C21.25 11.9391 21.59 11.5991 22 11.5991C22.41 11.5991 22.75 11.9391 22.75 12.3491C22.75 18.2791 17.93 23.0991 12 23.0991Z" fill="#111827"/>
<path d="M21 8.09912H17C16.59 8.09912 16.25 7.75912 16.25 7.34912V3.34912C16.25 2.93912 16.59 2.59912 17 2.59912C17.41 2.59912 17.75 2.93912 17.75 3.34912V6.59912H21C21.41 6.59912 21.75 6.93912 21.75 7.34912C21.75 7.75912 21.41 8.09912 21 8.09912Z" fill="#111827"/>
<path d="M16.9995 8.09955C16.8095 8.09955 16.6195 8.02955 16.4695 7.87955C16.1795 7.58955 16.1795 7.10955 16.4695 6.81955L21.4695 1.81955C21.7595 1.52955 22.2395 1.52955 22.5295 1.81955C22.8195 2.10955 22.8195 2.58955 22.5295 2.87955L17.5295 7.87955C17.3795 8.02955 17.1895 8.09955 16.9995 8.09955Z" fill="#111827"/>
</svg>
