<svg width="379" height="395" viewBox="0 0 379 395" fill="none" xmlns="http://www.w3.org/2000/svg">
<path d="M309.823 253.208C310.411 255.833 311.511 258.313 313.057 260.499C314.603 262.684 316.563 264.529 318.824 265.927C321.082 267.325 323.595 268.245 326.21 268.634C328.826 269.023 331.491 268.873 334.049 268.193C352.234 263.59 354.258 239.779 339.181 230.903C335.806 228.934 331.94 228.014 328.058 228.252C324.178 228.493 320.448 229.882 317.331 232.251C314.213 234.619 311.842 237.864 310.509 241.587C309.175 245.311 308.937 249.349 309.823 253.208ZM317.598 233.368C319.684 231.711 322.09 230.52 324.658 229.876C327.227 229.229 329.9 229.142 332.503 229.619C335.106 230.096 337.582 231.127 339.768 232.646C341.955 234.163 343.802 236.134 345.192 238.427C357.134 258.217 331.066 278.238 315.469 261.696C313.667 259.752 312.281 257.445 311.406 254.921C310.53 252.4 310.181 249.718 310.382 247.05C310.583 244.382 311.33 241.785 312.575 239.43C313.819 237.074 315.533 235.008 317.606 233.368H317.598Z" fill="black"/>
<path d="M329.33 264.63C331.625 264.567 333.882 263.994 335.937 262.954C337.994 261.912 339.804 260.426 341.239 258.6C342.677 256.773 343.705 254.649 344.253 252.377C344.803 250.105 344.861 247.738 344.42 245.441C343.98 243.143 343.054 240.97 341.708 239.074C340.361 237.178 338.624 235.605 336.62 234.462C334.617 233.32 332.391 232.638 330.102 232.46C327.811 232.282 325.512 232.617 323.36 233.437C320.445 234.672 317.905 236.68 316.008 239.254C308.203 252.241 318.016 265.086 329.33 264.63ZM326.304 260.506C327.142 257.394 327.77 254.739 327.946 254.58C328.17 254.432 328.423 254.335 328.688 254.293C329.714 254.026 335.035 252.281 335.994 252.023C336.388 251.917 336.653 251.891 335.967 252.609C335.974 252.977 326.023 261.585 326.304 260.506ZM327.712 251.17C327.448 252.034 327.218 251.85 327.097 251.745C325.559 250.211 324.372 249 323.085 247.491C322.469 246.767 322.093 246.514 322.453 246.428C324.506 245.926 326.592 245.566 328.692 245.347C328.776 245.334 329.271 245.253 329.102 245.788C329.102 245.997 328.096 249.918 327.712 251.17ZM330.663 245.746C332.325 246.849 333.869 248.132 335.261 249.571C336.121 250.393 335.803 250.408 333.604 251.069C328.737 252.555 328.622 252.4 328.801 251.651C330.153 245.981 330.043 245.391 330.663 245.746ZM332.635 236.174C333.212 237.657 335.857 247.537 335.857 247.613C336.678 251 336.678 248.54 330.929 244.644C330.658 244.46 330.724 244.321 330.88 243.445C330.979 242.905 332.301 236.766 332.414 236.348C332.506 236.021 332.592 236.071 332.635 236.174ZM331.584 235.952C332.069 235.578 331.213 237.417 330.221 241.528C329.544 244.326 329.513 244.118 329.072 244.144C326.676 244.476 324.296 244.93 321.944 245.506C324.943 242.106 328.164 238.913 331.584 235.952ZM321.426 248.031C321.664 247.841 324.161 251.379 326.688 254.034C326.388 256.103 325.978 258.156 325.456 260.179C325.179 261.301 320.837 248.314 321.426 248.031Z" fill="#FFD700"/>
<path d="M203.461 242.42C211.973 246.579 255.344 259.922 262.32 258.112C265.372 257.319 266.695 254.256 268.425 250.789C283.617 220.291 285.978 216.398 279.885 207.373C277.861 204.377 275.705 203.804 270.326 202.057C259.977 198.69 224.186 189.101 213.295 188.779C205.699 188.124 202.047 197.744 197.345 206.679C195.672 209.859 189.275 224.842 190.96 229.646C194.331 239.26 198.078 239.788 203.461 242.42ZM193.044 223.574C193.913 219.191 198.304 207.685 205.904 195.252C209.743 188.975 213.443 191.373 213.477 190.649C224.804 191.957 251.96 198.673 263.533 202.13C281.965 207.633 282.544 205.553 268.856 233.571C262.507 246.571 261.318 251.645 255.561 250.463C230.823 245.385 200.952 235.66 194.849 231.674C192.455 230.353 192.502 226.301 193.042 223.574H193.044Z" fill="#FFD700"/>
<path d="M318.904 208.274C312.014 215.597 292.792 258.225 292.421 266.554C292.295 269.41 294.118 267.14 312.95 276.363C336.369 287.829 341.335 294.468 343.525 290.894C349.44 281.238 368.65 232.478 365.157 227.773C362.536 224.241 350.275 217.748 343.453 213.932C339.996 211.999 329.545 205.981 323.733 206.077C322.809 205.966 321.871 206.111 321.021 206.498C320.171 206.885 319.44 207.498 318.904 208.274ZM325.268 208.812C337.767 212.16 359.175 225.325 362.608 228.287C364.012 229.499 364.25 229.725 358.37 248.792C354.102 261.292 349.13 273.53 343.474 285.444C341.604 289.432 341.754 289.082 341.154 288.773C328.323 282.165 327.68 279.566 303.761 268.948C293.702 264.487 293.958 269.4 296.387 261.415C301.739 245.717 308.514 230.558 316.621 216.137C317.149 215.198 317.804 214.424 319.044 212.245C320.565 209.574 322.351 208.029 325.27 208.812H325.268Z" fill="black"/>
<path d="M215.984 203.587C213.307 203.79 210.788 204.962 208.883 206.889C206.976 208.816 205.808 211.375 205.586 214.101C205.533 227.546 219.797 227.946 223.796 217.179C226.114 210.923 222.833 203.92 215.984 203.587ZM220.32 219.662C215.752 224.935 207.978 223.441 207.551 215.03C207.715 206.734 216.323 202.288 220.918 207.606C222.213 209.372 222.862 211.544 222.753 213.745C222.642 215.946 221.78 218.041 220.316 219.662H220.32Z" fill="black"/>
<path d="M236.704 212.055C250.807 216.463 257.49 218.959 258.876 218.771C259.374 218.702 259.713 218.108 259.286 217.767C255.722 214.959 240.411 210.78 238.346 210.818C236.966 210.843 236.597 210.726 236.348 211.465C236.244 211.747 236.41 211.963 236.704 212.055Z" fill="black"/>
<path d="M252.588 221.517C247.845 219.667 242.992 218.125 238.059 216.897C237.071 216.617 236.016 216.746 235.123 217.257C233.854 218.094 235.694 218.721 237.176 219.01C248.08 221.19 252.487 224.157 253.159 222.46C253.29 222.107 253.154 221.795 252.588 221.517Z" fill="black"/>
<path d="M246.91 226.902C246.294 226.563 235.982 223.111 233.588 222.665C233.403 222.632 233.215 222.667 233.052 222.766C232.892 222.864 232.771 223.017 232.712 223.199C232.654 223.381 232.66 223.577 232.732 223.753C232.804 223.929 232.935 224.073 233.104 224.159C233.615 224.49 245.721 228.394 246.319 228.505C247.31 228.689 247.963 227.467 246.91 226.902Z" fill="black"/>
<path d="M323.945 220.519C324.744 220.193 323.204 223.12 324.414 223.507C324.672 223.591 324.97 222.957 325.073 222.699C326.169 219.933 325.732 219.99 326.855 220.429C329.041 221.283 329.242 221.245 329.564 221.178C329.887 221.111 329.942 220.906 329.729 220.724C329.053 220.144 328.357 219.588 327.631 219.075C326.824 218.506 330.653 217.579 330.384 216.926C330.115 216.274 330.094 216.652 327.448 217.381C326.485 217.646 327.056 217.062 327.292 214.962C327.314 214.788 327.267 214.612 327.162 214.472C327.058 214.332 326.904 214.242 326.733 214.217C326.563 214.194 326.391 214.238 326.253 214.345C326.115 214.449 326.023 214.606 325.998 214.78C325.025 217.763 325.177 217.5 324.346 217.023C322.416 215.899 321.987 216.472 322.324 217.636C322.471 218.148 324.171 218.592 323.539 218.998C322.488 219.672 321.617 219.95 322.046 220.747C322.33 221.268 322.833 220.969 323.945 220.519Z" fill="black"/>
<path d="M341.054 276.118C337.34 275.796 337.732 276.805 339.222 273.675C339.838 272.382 338.947 271.622 338.054 272.934C337.319 274.016 337.217 274.748 336.804 274.237C336.326 273.647 335.511 272.421 334.768 272.875C334.024 273.329 334.928 274.198 335.609 275.518C336.174 276.612 332.495 275.351 332.357 276.589C332.331 276.821 332.69 277.259 333.043 277.38C335.086 278.085 335.449 277.05 335.043 278.347C334.901 278.801 334.54 279.316 334.981 279.778C335.186 279.987 335.392 279.805 335.542 279.631C337.58 277.183 336.398 277.583 338.171 279.581C339.222 280.768 339.682 280.209 339.565 279.824C338.607 276.644 337.636 277.991 341.152 276.644C341.512 276.506 341.255 276.175 341.054 276.118Z" fill="black"/>
<path d="M350.625 237.676C352.031 237.868 352.51 237.412 352.376 238.029C351.947 240 352.323 239.437 353.762 238.148C354.208 238.81 355.199 240.54 355.308 239.465C355.593 236.477 353.37 237.985 357.464 236.462C357.62 236.406 357.845 236.462 357.946 235.972C357.985 235.782 357.139 235.763 356.164 235.696C356.164 235.726 355.109 235.906 355.575 234.878C355.78 234.426 355.883 234.008 355.437 233.796C354.766 233.481 354.604 234.083 354.177 234.742C353.674 235.514 353.754 234.682 352.491 233.679C352.081 233.349 351.51 233.801 351.845 234.669C352.294 235.826 352.783 235.839 351.814 236.123C351.346 236.19 350.892 236.345 350.477 236.577C350.059 236.987 350.206 237.619 350.625 237.676Z" fill="black"/>
<path d="M307.185 257.855C306.92 257.449 306.269 258.014 305.893 258.367C304.662 259.522 304.612 259.941 304.313 259.37C304.126 259.016 303.902 258.273 303.559 258.39C303.422 258.436 303.307 258.529 303.231 258.654C303.155 258.778 303.126 258.926 303.149 259.07C303.073 259.721 303.095 259.606 302.19 259.489C300.925 259.489 300.706 260.575 301.744 261.064C302.783 261.554 303.021 261.309 302.601 261.972C301.533 263.646 301.794 263.199 301.652 263.646C302.034 263.682 302.034 264.01 303.606 262.661C304.134 262.209 303.955 262.757 304.74 264.241C304.828 264.41 305.052 264.5 305.216 264.628C305.661 263.243 304.721 262.075 305.536 262.188C305.893 262.238 306.832 262.537 306.873 262.23C306.934 261.776 306.635 261.521 305.867 261.062C304.805 260.441 308.01 259.108 307.185 257.855Z" fill="black"/>
<path d="M339.69 223.587C340.737 224.076 340.817 223.773 340.38 224.447C339.668 225.355 339.23 225.899 339.569 226.263C339.908 226.627 339.955 226.627 341.593 225.244C342.133 224.788 341.673 225.179 342.484 226.721C342.575 226.893 342.827 227.629 343.269 227.28C343.71 226.93 342.759 224.643 343.601 224.769C343.967 224.819 344.942 225.129 344.987 224.811C345.057 224.325 344.739 224.085 343.946 223.608C342.848 222.946 345.726 222.208 344.868 220.932C344.587 220.513 343.917 221.095 343.531 221.459C342.261 222.651 342.644 222.419 342.341 221.827C342.152 221.457 341.895 220.687 341.567 220.814C341.419 220.856 341.294 220.95 341.212 221.08C341.127 221.212 341.097 221.369 341.121 221.522C341.039 222.191 341.532 222.919 340.006 222.507C339.249 222.298 339.021 222.58 338.994 222.84C338.968 223.099 339.142 223.331 339.69 223.587Z" fill="black"/>
<path fill-rule="evenodd" clip-rule="evenodd" d="M378.683 224.689C379.163 226.825 379.097 229.054 378.49 231.156C377.642 234.044 376.511 236.837 375.113 239.494C374.677 240.17 374.817 240.469 375.168 241.231C375.513 241.978 376.063 243.164 376.48 245.581C376.759 248.355 376.595 251.157 375.995 253.877C375.49 257.218 373.246 260.173 371.785 262.096C371.105 262.991 370.596 263.661 370.51 264.044C370.456 264.284 370.528 264.663 370.631 265.201C371.048 267.364 371.953 272.085 367.04 280.523C366.794 280.941 366.907 281.297 367.135 282.004C367.558 283.325 368.375 285.869 367.974 292.33C367.695 299.938 365.96 307.418 362.865 314.345C362.306 315.62 362.614 317.022 363.037 318.944C363.425 320.71 363.912 322.918 363.912 325.874C363.717 332.089 362.261 338.196 359.633 343.808C359.372 344.486 359.598 345.061 359.947 345.952C360.282 346.808 360.729 347.955 360.972 349.76C361.13 351.317 361.183 352.882 361.132 354.447C361.263 357.853 360.639 359.747 360.081 361.44C359.467 363.304 358.933 364.921 359.58 368.047C360.44 371.391 361.013 374.806 361.292 378.252C361.67 382.918 361.662 387.606 361.265 392.27C361.046 393.77 360.413 395.269 358.952 394.959C357.87 394.729 357.894 394.093 358.03 390.827C358.118 388.667 358.254 385.361 358.147 380.264C357.738 376.145 357.11 372.052 356.262 368.003C355.675 364.997 355.967 363.978 356.658 361.563C357.001 360.368 357.441 358.835 357.919 356.552C357.974 356.28 357.964 353.029 357.96 351.775C357.958 351.566 357.958 351.413 357.958 351.338C357.946 349.281 357.476 348.036 357.061 346.938C356.35 345.055 355.802 343.603 358.007 339.228C359.584 335.535 360.487 331.58 360.676 327.556C361.011 323.679 360.432 321.039 359.976 318.963C359.709 317.741 359.483 316.716 359.512 315.749C359.553 314.402 359.99 313.347 360.678 311.69C361.436 309.868 362.495 307.315 363.665 302.84C364.739 298.73 365.893 288.095 365.002 283.605C364.618 284.011 364.281 284.364 363.988 284.672C362.251 286.497 361.974 286.785 361.941 287.691C361.349 303.459 354.749 309.039 351.237 312.006C349.912 313.126 349.03 313.873 349.073 314.655C349.623 324.573 346.833 328.555 339.769 333.865C338.954 334.47 338.972 335.252 339.009 336.834C339.011 336.955 339.015 337.081 339.017 337.213C339.151 339.307 338.765 341.404 337.898 343.308C337.03 345.212 335.706 346.862 334.049 348.109C331.606 349.756 331.489 350.083 331.232 350.794L331.22 350.829C331.062 351.267 330.937 351.675 330.82 352.056C330.345 353.591 330.009 354.684 328.198 355.56C325.792 356.724 324.238 357.376 323.218 357.805C321.616 358.479 321.339 358.596 321.158 359.262C320.387 361.768 318.685 363.869 316.418 365.12C311.85 368.016 308.976 369.474 302.739 368.202C301.089 367.867 299.676 368.422 298.141 369.029C295.108 370.221 291.59 371.608 284.788 366.719C284.653 366.62 284.523 366.526 284.402 366.436C283.454 365.737 282.873 365.311 281.503 365.543C271.534 367.217 267.215 363.16 263.655 359.816C263.111 359.303 262.583 358.81 262.055 358.354C260.943 357.393 259.512 357.236 257.843 357.054C254.603 356.701 250.466 356.249 246.016 349.62C244.441 347.277 242.579 346.544 240.585 345.762C237.555 344.571 234.221 343.259 231.125 335.999C230.212 333.854 228.711 333.21 225.977 332.038C225.878 331.996 225.779 331.955 225.679 331.911C220.158 329.559 218.481 324.895 217.159 321.223C216.377 319.049 215.72 317.225 214.466 316.427C213.562 315.854 212.591 315.459 211.606 315.057C208.358 313.734 204.944 312.343 203.211 304.332C202.971 303.229 201.934 302.557 200.548 301.66C199.095 300.718 197.26 299.528 195.564 297.337C193.681 294.904 192.41 292.286 191.419 290.242C190.47 288.29 189.779 286.861 189.046 286.612C186.689 285.637 184.808 283.747 183.815 281.362C182.879 279.132 182.61 277.571 182.383 276.255C182.091 274.562 181.869 273.275 180.392 271.49C178.693 269.647 177.199 267.615 175.937 265.437C174.305 262.778 177.697 261.223 180.224 262.621C182.627 264.111 184.776 265.987 186.588 268.18C186.718 267.829 186.802 267.324 186.904 266.716C186.999 266.151 187.108 265.496 187.284 264.782C188.208 261.02 188.674 260.374 188.53 259.932C188.479 259.773 188.348 259.641 188.13 259.401C187.257 258.083 186.015 257.062 184.566 256.472C183.232 256.189 181.988 255.576 180.945 254.683C180.747 254.398 180.609 254.074 180.54 253.733C180.471 253.392 180.472 253.04 180.543 252.697C180.613 252.356 180.753 252.034 180.952 251.751C181.151 251.467 181.406 251.228 181.7 251.05C182.282 250.653 182.605 250.567 182.608 250.471C182.612 250.339 182.014 250.19 180.653 249.196C177.695 247.039 182.271 243.185 188.865 245.292C198.658 248.422 198.816 257.955 198.933 265.09C198.998 269.03 199.052 272.237 200.707 273.237C203.934 275.185 206.13 274.759 208.274 274.342C210.401 273.93 212.47 273.528 215.437 275.472C215.695 275.641 215.942 275.817 216.18 275.987C217.449 276.889 218.537 277.663 220.705 277.033C227.284 275.127 228.284 275.811 230.731 277.485C231.325 277.891 232.002 278.353 232.862 278.851C234.262 279.661 235.094 279.393 236.447 278.956C237.644 278.569 239.247 278.052 242.014 278.029C244.564 278.014 245.878 278.979 248.678 281.031L248.845 281.153C250.128 282.094 250.865 281.803 252.027 281.345C253.01 280.956 254.297 280.45 256.473 280.466C258.635 280.483 260.725 281.264 262.386 282.674C263.581 283.804 264.535 283.745 265.529 283.687C265.755 283.672 265.981 283.659 266.213 283.659C266.66 283.661 266.64 283.511 266.543 282.835C266.42 281.956 266.17 280.188 266.658 276.717C266.757 275.985 267.024 275.288 267.44 274.683C267.855 274.076 268.407 273.583 269.048 273.237C269.832 272.765 269.908 272.687 269.664 271.785C269.185 270.356 268.99 268.843 269.089 267.335C269.187 265.828 269.582 264.355 270.243 263.004C270.906 261.652 271.826 260.449 272.949 259.464C274.069 258.476 275.375 257.727 276.783 257.258C277.381 257.03 277.362 256.771 277.26 255.31C277.204 254.513 277.124 253.36 277.104 251.663C277.026 245.246 279.888 242.097 284.827 238.04C286.582 236.599 286.533 234.546 286.474 231.991C286.402 228.886 286.311 225.038 289.424 220.644C291.912 217.422 295.295 215.037 299.132 213.8C299.309 213.742 299.477 213.694 299.637 213.648C300.586 213.374 301.222 213.187 301.553 211.662L301.563 211.618C302.534 207.12 303.445 202.895 306.205 199.487C308.779 196.304 314.661 191.182 318.449 192.254C319.666 192.595 320.405 194.086 319.27 194.296C317.56 194.151 315.852 194.577 314.4 195.509C306.716 200.071 305.507 205.958 304.62 210.277C304.063 212.98 303.634 215.068 301.822 215.83C301.421 215.997 300.967 216.161 300.473 216.338C297.964 217.236 294.4 218.514 291.417 222.722C289.327 225.672 289.278 229.022 289.233 232.094C289.19 235.017 289.151 237.689 287.358 239.526C286.56 240.346 285.812 241.057 285.125 241.714C282.076 244.618 280.189 246.416 280.189 251.555C280.187 252.954 280.214 254.09 280.235 255.019C280.313 258.346 280.329 259.037 278.742 259.855C278.498 259.98 278.221 260.108 277.919 260.246C275.985 261.135 273.107 262.456 272.285 266.385C271.809 268.655 272.306 270.312 272.7 271.62C273.25 273.455 273.595 274.606 270.774 275.813C269.132 276.52 268.906 278.041 268.721 281.374C268.584 283.787 269.614 284.109 271.212 284.607C272.561 285.028 274.316 285.574 276.112 287.614C276.143 287.649 276.178 287.687 276.213 287.727C276.724 288.302 277.621 289.313 277.262 289.884C277.122 290.024 276.956 290.133 276.771 290.204C276.588 290.273 276.393 290.305 276.198 290.292C276.001 290.282 275.81 290.227 275.636 290.137C275.463 290.045 275.309 289.917 275.186 289.763C272.624 287.492 269.313 286.302 265.921 286.43C265.012 286.637 264.065 286.605 263.172 286.337C262.277 286.072 261.464 285.578 260.807 284.904C260.064 284.101 259.126 283.515 258.089 283.203C257.05 282.891 255.95 282.866 254.899 283.132C254.199 283.249 253.577 283.525 252.959 283.797C251.477 284.452 250.025 285.093 247.615 283.492C246.615 282.827 245.909 282.289 245.35 281.862C244.104 280.91 243.583 280.512 242.16 280.512C240.035 280.512 238.59 281.004 237.336 281.431C235.032 282.218 233.378 282.781 229.356 279.65C228.896 279.163 228.329 278.793 227.703 278.567C227.077 278.343 226.41 278.269 225.751 278.355C224.258 278.673 223.1 278.998 222.144 279.263C218.824 280.19 217.933 280.439 213.948 277.447C211.856 275.874 209.372 276.443 207.68 276.83C207.206 276.937 206.796 277.031 206.471 277.06C202.651 277.401 202.012 276.349 201.805 276.43C201.665 276.487 201.721 277.054 201.134 278.906C200.054 283.011 197.808 286.699 194.681 289.512C194.529 289.679 194.357 289.748 194.217 289.807C193.884 289.943 193.724 290.007 194.396 291.137C197.734 296.753 200.596 298.458 202.684 299.701C204.426 300.737 205.63 301.455 206.122 303.852C207.426 310.201 210.035 311.28 212.862 312.448C214.385 313.078 215.974 313.735 217.453 315.26C218.432 316.27 218.812 317.356 219.376 318.97C219.77 320.099 220.257 321.489 221.103 323.292C223.1 327.571 225.701 328.718 229.442 330.366L229.487 330.385C232.743 331.823 233.513 333.658 234.349 335.65C235.426 338.219 236.611 341.046 243.39 343.605C246.387 344.737 247.662 346.49 248.947 348.258C250.856 350.886 252.792 353.547 260.45 354.259C262.643 354.458 264.308 356.016 266.168 357.755C268.931 360.339 272.119 363.321 278.089 362.837C282.497 362.48 282.501 362.448 282.556 361.942C282.558 361.915 282.563 361.885 282.567 361.856C282.885 357.542 283.998 353.328 285.851 349.436C289.565 342.117 293.039 336.65 299.576 331.501C300.005 331.061 300.532 330.735 301.113 330.551C304.322 327.358 310.083 325.993 312.567 325.408C312.979 325.309 313.302 325.234 313.507 325.173C316.531 324.631 319.611 324.479 322.674 324.719C328.118 325.142 333.324 327.18 337.648 330.578C337.71 330.647 337.783 330.701 337.868 330.739C337.95 330.777 338.04 330.798 338.13 330.798C338.182 330.798 338.231 330.791 338.28 330.779C338.319 330.77 338.358 330.756 338.395 330.739C338.453 330.714 338.506 330.678 338.555 330.638C338.576 330.62 338.596 330.599 338.615 330.578C346.215 325.029 346.18 319.737 346.153 315.854C346.137 313.642 346.125 311.889 347.527 310.803C357.373 303.179 357.987 297.364 358.89 288.809C358.96 288.137 359.032 287.449 359.112 286.741C359.225 285.718 360.261 284.398 361.581 282.714C364.164 279.42 367.839 274.736 367.839 268.159C367.839 266.375 367.654 265.322 367.523 264.575C367.342 263.539 367.264 263.087 367.915 262.092C368.184 261.684 368.514 261.24 368.88 260.75C370.847 258.116 373.829 254.122 373.526 246.776C373.4 244.815 372.819 242.913 371.832 241.227C371.28 240.141 372.165 238.352 373.265 236.124C375.223 232.157 377.872 226.798 374.31 221.54C373.823 220.822 373.405 220.253 373.051 219.774C371.3 217.391 371.202 217.255 372.803 212.599C375.909 203.563 372.431 200.476 369.839 198.176C368.707 197.172 367.745 196.318 367.572 195.185C367.09 193.224 366.205 191.39 364.975 189.803C363.747 188.217 362.204 186.913 360.444 185.979C359.609 185.56 358.882 185.224 358.233 184.923C357.241 184.463 356.426 184.085 355.663 183.623C354.803 183.103 354.591 182.257 354.332 181.206C353.753 178.872 352.922 175.522 344.166 172.452C343.907 172.361 343.638 172.281 343.363 172.199C341.867 171.75 340.229 171.26 339.567 168.924C339.286 167.96 338.796 167.074 338.13 166.332C337.465 165.591 336.642 165.012 335.726 164.641C332.719 163.058 329.333 162.375 325.96 162.67C325.513 162.661 325.277 163.216 324.895 164.115C324.312 165.481 323.392 167.641 320.879 169.828C317.303 173.608 313.09 176.704 308.44 178.969C300.315 182.74 287.188 185.353 259.922 180.331C236.1 175.94 232.388 165.691 231.197 161.785C230.436 159.102 230.36 156.264 230.98 153.543C231.064 153.098 231.033 153.012 227.469 152.244C225.777 151.654 223.946 151.632 222.242 152.181C219.017 153.135 216.18 155.128 214.16 157.862C213.414 158.649 213.055 158.566 212.207 158.37C211.382 158.18 210.095 157.883 207.535 158.176C204.856 158.749 202.322 159.89 200.103 161.523C197.208 163.605 195.026 166.559 193.864 169.97C193.324 171.258 192.71 171.273 191.466 171.303C190.649 171.322 189.561 171.348 188.042 171.747C181.197 173.54 178.914 177.54 177.633 184.483C177.318 186.19 176.785 186.412 175.516 186.942C174.295 187.45 172.395 188.243 169.354 190.908C165.809 194.019 165.294 196.975 164.849 199.529C164.438 201.891 164.086 203.908 161.45 205.385C153.336 209.928 153.297 212.214 153.176 219.416C153.168 219.881 153.16 220.362 153.149 220.868C153.101 223.178 152.119 223.417 150.518 223.804C149.593 224.028 148.461 224.3 147.184 225.053C142.963 227.535 142.118 230.039 141.047 233.213C140.712 234.205 140.356 235.264 139.867 236.406C139.775 236.569 139.75 236.764 139.797 236.946C139.843 237.128 139.958 237.285 140.117 237.381C143.517 240.22 144.367 243.708 142.901 243.953C142.332 244.047 142.305 244.001 142.081 243.606C141.728 242.984 140.885 241.501 136.664 238.354C134.261 237.074 131.531 236.571 128.84 236.914C127.635 236.998 126.765 237.189 126.082 237.339C124.784 237.624 124.16 237.76 123.195 236.741C119.199 232.544 115.675 230.964 107.483 234.439C106.179 234.992 105.48 234.577 104.358 233.91C103.008 233.111 101.047 231.945 96.6886 231.665C95.0415 231.558 93.8551 231.903 92.8609 232.192C91.378 232.625 90.323 232.931 88.8052 231.428C86.4281 229.077 83.6112 229.88 81.427 230.504C81.1684 230.577 80.9187 230.648 80.6796 230.711C79.4036 231.048 79.1246 230.631 78.7331 230.047C78.3355 229.455 77.8216 228.69 76.0275 228.363C75.2123 228.212 74.3901 228.104 73.564 228.041C71.4042 233.667 66.5715 240.653 60.7288 241.827C60.4026 243.012 60.405 244.263 60.736 245.445C61.0669 246.627 61.7132 247.692 62.6031 248.523C67.4061 252.521 67.2644 253.088 67.0209 254.065C66.86 254.712 66.6545 255.536 67.8033 257.649C69.9918 261.671 72.9179 263.274 77.0819 265.556C77.1833 265.611 77.2856 265.667 77.3886 265.724C78.3328 266.243 78.4726 266.596 78.7709 267.356C79.1271 268.262 79.7091 269.743 82.1556 272.762C84.8939 276.148 87.3472 276.765 89.3121 277.261C90.9723 277.677 92.284 278.008 93.1247 279.847C95.3029 282.728 98.0834 285.08 101.265 286.731C103.469 287.806 105.872 288.39 108.315 288.447C109.545 288.61 109.686 289.058 109.941 289.859C110.164 290.562 110.474 291.541 111.688 292.84C114.259 295.906 117.738 298.036 121.601 298.908C123.188 299.277 124.815 299.427 126.44 299.362C126.851 299.371 127.056 299.239 127.056 298.785C127.013 294.671 134.788 279.37 151.513 273.288C153.202 272.647 154.946 272.17 156.722 271.863C157.188 271.829 157.201 271.409 157.232 270.45C157.282 268.871 157.379 265.833 159.622 260.669C161.114 257.233 162.3 255.561 163.074 254.471C163.798 253.452 164.162 252.94 164.077 251.967C163.912 249.935 164.043 247.891 164.465 245.899C166.443 236.36 169.31 233.046 171.263 230.786C172.37 229.506 173.184 228.564 173.377 227.022C173.94 222.507 176.319 214.74 179.499 211.036C180.628 209.72 182.482 211.378 181.228 212.164C179.257 213.397 176.841 222.536 176.139 225.714C175.954 226.543 175.904 227.229 175.859 227.842C175.768 229.095 175.698 230.05 174.552 231.313C171.993 233.853 170.029 236.948 168.803 240.367C167.748 243.141 166.219 249.389 166.847 252.27C166.978 252.86 166.959 253.475 166.793 254.055C166.626 254.637 166.317 255.164 165.894 255.589C165.162 256.534 164.516 257.547 163.964 258.614C159.721 265.646 159.925 271.3 160.064 275.15C160.14 277.24 160.196 278.799 159.51 279.757C153.708 287.852 154.869 298.36 155.353 302.741C155.426 303.405 155.484 303.926 155.5 304.279C155.569 305.807 154.811 307.227 153.867 308.997C152.869 310.866 151.664 313.126 151.008 316.308C150.593 318.323 150.943 320.355 151.353 322.732C151.546 323.855 151.753 325.054 151.899 326.366C152.068 327.887 152.24 329.011 152.372 329.871C152.697 331.996 152.778 332.524 151.971 333.495C149.273 336.629 147.798 340.665 147.826 344.835C148.248 347.9 148.974 350.03 149.534 351.675C150.375 354.144 150.839 355.51 149.329 357.276C149.025 357.63 148.734 357.904 148.468 358.155C147.773 358.81 147.248 359.303 147.099 360.647C146.518 365.993 147.532 368.926 148.253 371.01C148.928 372.962 149.345 374.169 147.955 375.921C147.461 376.544 147.046 376.998 146.692 377.385C145.915 378.239 145.44 378.758 145.096 380.009C144.41 384.322 144.683 388.734 145.896 392.923C146.496 393.871 143.595 394.04 142.663 390.992C140.76 384.769 140.546 378.377 145.225 373.969C145.791 373.435 145.475 372.462 144.982 370.947C144.251 368.704 143.133 365.271 143.932 360.314C144.397 357.393 145.467 356.399 146.225 355.694C146.6 355.347 146.898 355.069 147.011 354.665C146.739 353.278 146.371 351.913 145.911 350.578C144.305 346.925 144.146 342.782 145.465 339.012C146.372 335.286 147.561 333.76 148.362 332.733C149.027 331.879 149.426 331.369 149.177 330.224C148.935 328.969 148.759 327.703 148.651 326.429C148.495 325.012 148.345 323.815 148.215 322.78C147.495 317.043 147.381 316.132 150.162 309.173C150.314 308.794 149.498 308.937 147.367 309.311C147.254 309.33 147.138 309.351 147.017 309.372C140.066 310.577 132.201 306.483 126.722 301.999C126.294 301.647 125.743 301.731 124.963 301.848C123.732 302.034 121.931 302.306 119.146 301.091C118.212 300.683 117.48 300.381 116.874 300.132C114.812 299.283 114.203 299.034 112.067 297.216C109.183 294.761 108.333 293.215 107.818 292.273C107.368 291.455 107.172 291.098 106.102 291.005C102.549 290.685 99.1631 289.323 96.3519 287.087C92.8598 284.327 91.6851 282.711 90.9528 281.705C90.2431 280.728 89.9493 280.324 88.3638 280.006C81.9996 278.728 77.4071 272.141 76.2513 268.707C76.0912 268.233 75.2854 267.808 74.1367 267.199C71.7771 265.952 67.97 263.939 65.3398 259.173C64.412 257.8 63.9817 256.141 64.1223 254.482C64.334 253.881 63.668 253.327 62.6906 252.511C61.3933 251.431 59.5479 249.891 58.4767 247.184C57.7908 245.573 57.6122 243.784 57.9655 242.066C55.3297 241.978 52.7439 241.31 50.3869 240.105C48.0297 238.9 45.9574 237.186 44.3132 235.086C41.0289 233.45 37.9636 231.391 35.1919 228.962C33.8862 227.809 31.1208 224.03 32.9028 222.266C33.9457 221.232 36.1588 221.862 37.3578 222.421C35.4561 220.898 33.8203 219.058 32.5189 216.981C32.0202 216.338 31.7211 215.558 31.6601 214.74C31.599 213.924 31.7786 213.106 32.1761 212.394C32.662 211.861 33.2964 211.495 33.9938 211.34C34.6914 211.187 35.4181 211.254 36.0767 211.534C36.1354 211.555 36.1966 211.58 36.2598 211.606C36.3446 211.639 36.4327 211.673 36.5222 211.704C34.5791 210.379 33.0083 208.563 31.9646 206.431C31.7897 205.948 31.7718 205.421 31.9139 204.925C32.0557 204.431 32.3499 203.996 32.7529 203.684C33.1705 203.374 33.6544 203.173 34.1646 203.094C34.3315 203.069 34.4996 203.056 34.6675 203.056C35.0703 203.757 35.4867 204.481 35.9164 205.23C34.8636 204.904 34.041 204.866 33.7712 205.379C33.4222 206.036 34.3214 207.036 34.9373 207.649C36.5201 209.273 38.1826 210.813 39.9176 212.26C40.7088 213.644 41.585 215.131 42.5528 216.721C40.8644 215.667 39.0872 214.765 37.2407 214.024C35.5943 213.323 32.5723 212.648 33.9806 215.654C36.5961 219.891 41.7675 223.356 45.9515 225.944C46.1931 226.074 46.3746 226.296 46.4559 226.562C46.5372 226.827 46.5115 227.114 46.3847 227.361C46.2578 227.608 46.04 227.792 45.7795 227.876C45.5187 227.957 45.2364 227.932 44.9948 227.802C44.071 227.306 34.925 222.475 34.1674 223.787C33.724 224.427 34.6355 225.674 35.8098 226.907C38.4967 229.723 41.4512 231.232 43.4795 232.267C44.5846 232.83 45.4148 233.255 45.777 233.673C46.6594 234.697 47.6707 235.598 48.7846 236.352C57.7273 242.445 62.6873 238.515 64.4364 237.03C67.8555 234.017 70.4036 230.11 71.8066 225.731C72.1757 224.735 72.4976 223.724 72.7715 222.701C73.611 222.074 74.4418 221.433 75.2638 220.78C75.3995 220.665 75.5278 220.557 75.6492 220.448C75.395 222.122 74.9971 223.777 74.457 225.394C75.7413 225.564 77.015 225.81 78.2714 226.131C79.2232 226.373 79.634 226.838 79.9563 227.202C80.2825 227.57 80.5176 227.836 81.1312 227.664C82.5654 227.101 84.1129 226.907 85.6385 227.095C87.1641 227.281 88.6213 227.848 89.883 228.742C90.7966 229.468 91.5993 230.027 92.7161 229.29C97.0428 228.305 101.575 229.028 105.397 231.32C106.397 231.876 107.367 231.491 108.714 230.958C110.197 230.37 112.137 229.6 115.075 229.708C118.363 229.715 121.517 231.031 123.866 233.376C125.098 234.621 125.864 234.489 127.207 234.257C128.919 233.962 131.57 233.504 137.321 235.525C137.439 235.567 137.508 235.594 137.557 235.573C137.748 235.49 137.62 234.644 138.859 230.834C139.535 228.748 140.671 226.848 142.18 225.279C143.688 223.71 145.529 222.515 147.561 221.783C148.364 221.496 148.943 221.335 149.36 221.22C150.234 220.977 150.39 220.933 150.39 220.349C150.403 211.057 150.708 208.166 160.513 202.575C161.451 202.039 161.687 200.767 162.003 199.062C162.451 196.653 163.058 193.383 166.03 190.119C167.855 188.298 169.897 186.716 172.107 185.41C172.815 185.041 173.347 184.829 173.748 184.668C174.525 184.358 174.81 184.244 174.946 183.566C175.367 179.646 177.042 175.976 179.713 173.123C181.321 171.326 183.42 170.06 185.74 169.489C188.22 168.692 189.59 168.588 190.411 168.525C191.238 168.462 191.511 168.442 191.805 167.801C192.587 165.514 193.905 163.456 195.646 161.806C197.555 159.744 199.877 158.124 202.454 157.056C204.145 156.111 206.026 155.572 207.951 155.481C209.356 155.37 210.768 155.441 212.154 155.69C212.472 155.785 212.963 155.279 213.704 154.518C215.979 152.18 220.604 147.43 229.74 150.204C225.098 143.722 222.396 136.01 221.961 127.998C221.762 124.58 222.047 122.058 222.24 120.366C222.384 119.08 222.476 118.275 222.259 117.921C218.849 111.35 217.112 104.012 217.206 96.5795C218.793 73.8239 229.28 65.356 234.03 61.521C235.238 60.5462 236.073 59.8706 236.299 59.336C243.638 41.9571 271.419 34.4498 289.485 36.5986C334.774 41.988 340.853 77.7462 342.435 87.0584C342.645 88.2884 342.776 89.057 342.908 89.2333C350.208 98.9648 346.689 122.227 337.775 128.023C337.478 128.216 337.213 128.329 336.975 128.431C336.392 128.68 335.962 128.864 335.585 129.982C332.832 138.11 323.15 148.359 321.7 149.693C320.896 150.315 320.14 151.002 319.442 151.746C319.407 151.792 319.506 152.049 319.635 152.049C321.401 152.436 323.006 153.365 324.234 154.713C325.464 156.06 326.256 157.76 326.504 159.582C326.56 159.938 326.566 160.116 326.658 160.206C326.911 160.453 327.798 160.025 332.047 160.754C334.265 161.333 336.379 162.264 338.311 163.513C340.666 165.227 341.183 166.662 341.581 167.765C341.932 168.736 342.191 169.45 343.524 169.872C348.592 171.473 352.614 172.818 355.162 177.078C355.848 178.448 356.414 179.876 356.856 181.346C357.085 181.895 357.861 182.206 358.97 182.652C361.265 183.574 364.991 185.071 368.319 190.429C369.173 191.802 369.356 192.829 369.502 193.652C369.656 194.521 369.769 195.163 370.592 195.746C372.126 196.941 373.46 198.383 374.54 200.014C377.687 204.314 376.502 211.12 374.304 215.989C373.901 216.88 374.538 217.598 375.675 218.881L375.741 218.954C377.188 220.578 378.2 222.551 378.683 224.689ZM75.8428 213.074C75.7327 211.957 75.559 210.842 75.3213 209.737C74.9785 208.806 74.5309 207.593 73.2067 207.325C73.0766 207.297 72.947 207.289 72.8181 207.295C74.1507 209.792 75.1308 211.654 75.8428 213.074ZM150.505 276.003C140.349 279.404 130.012 292.248 128.674 299.555C128.608 299.913 128.571 300.084 128.62 300.222C128.667 300.356 128.793 300.461 129.048 300.676C133.055 303.716 137.673 305.813 142.57 306.817C145.432 307.137 148.327 306.844 151.072 305.959C152.468 305.505 152.407 304.876 152.162 302.344C152.063 301.327 151.935 300.005 151.86 298.262C151.423 288.156 153.491 284.254 155.148 281.13C156.223 279.1 157.125 277.399 157.056 274.539C157.055 274.472 157.061 274.409 157.066 274.351C157.118 273.819 157.121 273.788 150.505 276.003ZM327.744 111.588C328.553 128.931 336.188 130.065 340.871 119.306C348.336 102.156 340.869 82.9145 333.961 91.3152C329.009 97.3422 328.387 104.387 327.9 109.88C327.849 110.468 327.798 111.038 327.744 111.588ZM329.335 126.626C328.956 126.164 328.276 125.339 327.576 123.838C323.234 114.54 325.289 100.308 329.171 93.2967C331.329 89.4081 332.717 88.6393 333.591 88.1552C333.755 88.065 333.899 87.9848 334.029 87.8963C334.059 87.8758 334.09 87.8551 334.121 87.8338C334.484 87.5913 334.92 87.2998 334.677 87.1075C333.838 86.7345 332.914 86.607 332.008 86.7393C329.563 86.8885 327.254 87.9281 325.498 89.6685C319.962 95.0626 316.295 114.595 321.427 124.583C322.821 127.291 326.837 127.544 329.358 127.236C329.793 127.182 329.703 127.073 329.335 126.626ZM305.845 43.2522C281.372 33.5752 253.79 41.1013 242.335 54.1637V54.1658C241.497 54.9745 240.797 55.9209 240.267 56.9654C240.637 56.8777 241.197 56.5519 241.992 56.0901C245.73 53.9172 254.648 48.7324 273.24 51.1759C288.719 53.2138 307.792 63.9559 319.676 81.4603C322.786 86.0429 323.191 87.426 323.571 87.4191C324.051 87.4103 324.495 85.1581 330.401 84.3749C333.275 84.0272 336.184 84.5666 338.754 85.9233C339.325 86.1277 339.251 85.8097 338.995 84.7032C338.876 84.19 338.715 83.507 338.564 82.6278C337.673 78.0557 336.182 73.6264 334.133 69.4587C331.319 62.5017 323.501 50.2301 305.845 43.2522ZM272.351 137.167C272.094 136.537 271.692 135.554 271.329 134.026V134.028C271.267 133.773 271.208 133.52 271.148 133.268C269.188 125.055 267.572 118.288 269.481 106.727C269.52 106.376 269.662 106.044 269.885 105.775C270.111 105.505 270.409 105.309 270.742 105.212C271.076 105.114 271.431 105.12 271.762 105.228C272.092 105.337 272.384 105.542 272.6 105.819C275.381 109.34 276.59 110.886 277.186 110.671C277.966 110.389 277.695 107.086 278.522 101.241C280.304 88.6224 282.002 79.9455 287.878 68.4376C291.169 61.9987 292.285 61.0544 292.123 60.6862C292.084 60.5941 291.963 60.5378 291.778 60.4407C287.024 57.95 281.992 56.0533 276.792 54.7914C274.644 54.1909 264.396 86.6974 263.54 89.8108C263.236 90.9198 261.682 92.127 260.015 88.409C259.522 86.9717 258.904 85.5826 258.167 84.2578C256.868 86.6868 255.973 89.3183 255.519 92.0454L255.359 92.8698C252.035 110.096 250.92 115.88 253.737 132.771C253.866 133.54 253.948 134.163 254.014 134.666C254.223 136.231 254.279 136.643 255.073 136.746C260.625 138.026 266.322 138.534 272.006 138.255C272.793 138.246 272.723 138.075 272.351 137.167ZM224.909 121.997C223.995 125.439 225.186 136.246 229.317 144.304V144.306C239.081 163.354 290.984 165.315 310.871 153.849C324.283 146.118 331.713 132.151 332.655 130.235C332.936 129.661 332.208 129.731 330.924 129.854C327.371 130.194 319.567 130.94 317.172 119.591C316.933 118.444 316.823 118.615 316.26 119.488C315.905 120.04 315.367 120.872 314.503 121.83C291.971 146.773 257.258 143.992 239.875 134.009C231.251 129.055 229.13 126.587 227.321 124.482C226.601 123.641 225.927 122.858 224.909 121.997ZM308.178 158.755C303.723 165.968 295.197 168.527 286.847 168.884C274.893 169.527 262.92 167.98 251.501 164.317C247.798 163.38 244.476 161.286 241.998 158.328C246.092 159.775 250.257 161.006 254.474 162.019C284.967 167.48 301.505 161.206 306.578 159.281C307.432 158.957 307.962 158.756 308.178 158.755ZM294.956 180.087C306.683 177.98 314.026 173.102 317.769 169.497L317.755 169.495C324.193 163.292 324.189 160.81 323.971 159.214C323.696 157.66 322.926 156.242 321.785 155.177C320.641 154.112 319.188 153.458 317.646 153.315C317.418 153.265 316.956 153.596 316.248 154.103C315.355 154.742 314.072 155.662 312.372 156.454C311.815 156.716 311.729 157.072 311.579 157.709C311.479 158.131 311.349 158.677 311.035 159.4C309.186 163.645 300.421 170.5 288.787 171.56C287.769 171.654 286.256 171.597 284.712 171.539C283.415 171.49 282.092 171.441 281.027 171.479C271.75 171.275 262.532 169.94 253.566 167.503C249.304 166.653 245.334 164.689 242.043 161.804C239.805 159.777 239.434 158.595 239.177 157.777C239.009 157.234 238.888 156.851 238.307 156.487C234.496 154.103 233.675 153.441 233.466 153.603C233.406 153.648 233.396 153.759 233.38 153.916C232.482 157.192 232.899 160.698 234.537 163.662C240.68 173.592 253.246 176.333 263.468 178.243C273.831 180.179 285.751 181.74 294.956 180.087ZM189.536 284.821C190.013 285.099 190.413 285.333 190.678 285.601V285.603C190.982 285.911 191.244 286.214 191.483 286.49C192.365 287.511 192.905 288.135 193.872 287.084C195.755 284.664 197.317 282 198.52 279.165C198.98 277.937 199.251 276.644 199.325 275.332C199.366 275.028 199.22 274.802 198.99 274.445C198.526 273.721 197.711 272.453 197.37 268.898C197.227 267.387 197.118 265.918 197.013 264.502C196.311 254.938 195.786 247.778 185.34 246.893C183.456 247.163 182.422 247.217 182.372 247.472C182.31 247.788 183.752 248.412 186.947 250.125C188.314 250.45 189.625 250.981 190.838 251.701C193.513 253.092 195.404 257.311 194.402 257.769C193.634 258.12 193.162 257.269 192.61 256.277C192.195 255.53 191.735 254.703 191.074 254.245C189.978 253.377 188.688 252.797 187.319 252.559C185.95 252.322 184.544 252.433 183.228 252.883C182.619 253.254 183.082 253.423 184.049 253.779C185.331 254.249 187.499 255.047 189.22 257.068C190.902 259.047 190.436 260.853 189.795 263.334C189.025 266.32 188.002 270.283 190.165 276.702C190.357 277.276 190.304 278.209 189.688 277.861C188.344 277.106 187.649 274.817 187.028 272.771L186.97 272.58C186.773 271.932 186.465 271.769 186.108 271.58C185.812 271.425 185.482 271.25 185.153 270.764C183.308 268.122 180.878 265.956 178.06 264.448C176.74 263.975 179.676 267.938 180.702 269.051C183.199 271.783 183.486 273.309 183.9 275.51C184.042 276.265 184.199 277.102 184.465 278.092C185.668 282.559 188.001 283.923 189.536 284.821ZM334.7 342.592C335.404 341.021 335.798 339.322 335.858 337.595V337.598C335.936 334.365 336.242 333.495 335.95 332.978C335.806 332.725 335.517 332.555 334.985 332.233C319.286 322.753 299.327 327.31 287.67 350.687C286.032 354.227 284.977 358.019 284.552 361.908C284.474 362.12 284.476 362.354 284.56 362.563C284.642 362.775 284.798 362.946 284.997 363.045C286.492 364.149 288.081 365.114 289.744 365.928C293.71 367.583 295.271 366.901 297.258 366.03C297.933 365.735 298.658 365.417 299.545 365.164C301.156 364.704 302.628 364.921 304.176 365.147C307.436 365.629 311.025 366.158 316.944 360.492C318.188 359.301 318.35 358.594 318.488 357.985C318.746 356.853 318.927 356.058 325.825 353.131C327.385 352.47 327.588 351.784 327.911 350.687C327.968 350.497 328.028 350.296 328.098 350.08C328.863 347.752 330.294 346.756 331.684 345.789C332.865 344.969 334.014 344.17 334.7 342.592Z" fill="black"/>
<path d="M22.2014 189.871C24.587 195.748 39.005 217.749 43.8192 225.836C45.3739 228.615 47.0878 231.295 48.9517 233.868C51.485 236.689 52.647 237.172 55.0367 236.712C58.8531 235.973 78.9168 222.861 80.514 219.714C82.0394 216.711 80.1466 215.678 66.291 189.057C52.9262 163.373 54.6815 163.991 39.6024 170.052C34.1935 172.603 28.9395 175.481 23.8685 178.673C20.0684 181.077 20.3456 185.299 22.2014 189.871ZM28.0114 179.593C29.8816 178.457 29.8734 178.409 31.5753 179.752C32.0789 180.235 32.72 180.543 33.4061 180.631C34.092 180.72 34.788 180.584 35.3938 180.244C41.6657 176.972 45.4411 176.283 44.3058 172.756C44.2364 172.47 44.2411 172.172 44.3191 171.889C44.3973 171.606 44.5462 171.349 44.7513 171.142C52.0948 167.661 52.2118 168.803 63.1829 189.335C73.0104 207.721 76.3465 213.625 77.2724 216.241C77.7548 217.603 77.9581 218.515 75.2625 220.781C69.5664 225.3 63.446 229.236 56.9911 232.529C53.9897 233.785 52.2898 231.393 50.4626 228.786C45.6464 221.913 42.0701 216.075 39.4751 211.485C22.9159 182.175 21.7724 183.387 28.0114 179.593Z" fill="black"/>
<path d="M56.9922 134.591C56.2778 134.465 56.4913 133.888 56.5467 133.302C59.9033 97.7889 56.9922 90.8717 59.1704 91.1206C62.1903 91.4659 59.3428 135.012 56.9922 134.591Z" fill="black"/>
<path d="M88.3027 188.725C88.5388 188.538 88.6846 188.321 88.8714 188.27C90.1163 187.929 91.3939 187.725 92.6817 187.662C95.6708 187.779 131.099 189.392 130.844 192.392C130.742 193.587 127.338 192.453 123.951 192.135C86.9149 188.649 89.6515 190.739 88.3027 188.725Z" fill="black"/>
<path d="M99.4428 139.637C81.5819 157.345 82.9143 158.142 82.0356 155.158C89.4982 145.743 107.226 128.228 112.36 125.976C112.516 125.909 113.128 126.407 112.904 126.709C112.817 126.825 112.737 126.945 112.664 127.071C112.514 127.094 110.937 128.247 99.4428 139.637Z" fill="black"/>
<path d="M9.75247 127.525C3.89738 117.81 0.528454 113.391 0.119912 111.74C-1.98438 103.256 24.3306 145.427 22.292 148.682C19.5369 145.586 23.222 149.875 9.75247 127.525Z" fill="black"/>
<path d="M39.6139 182.773C41.8167 183.172 46.0931 184.321 48.3349 184.915C49.9527 185.583 50.0492 185.987 48.9755 187.248C47.0272 189.55 46.5263 189.131 47.8525 190.337C64.1223 205.207 64.0545 204.621 60.1231 205.322C53.6378 206.481 55.8118 204.975 66.0007 217.198C67.7868 219.341 65.159 221.106 63.7733 221.203C62.9521 221.259 62.1432 220.016 61.8537 219.667C46.6618 201.334 45.8529 202.656 52.6421 201.84C53.2436 201.767 53.5289 201.317 52.5989 200.296C45.4341 192.437 46.2224 193.161 45.2083 192.345C42.8391 190.414 40.5993 197.607 39.6385 191.927C38.0927 182.743 37.5691 182.4 39.6139 182.773Z" fill="#FFD700"/>
<path d="M166.394 66.2595C163.358 68.8436 155.85 74.3443 158.293 75.5641C158.997 75.9136 159.346 74.9239 160.917 73.6204C167.952 67.7807 167.218 68.2744 167.374 69.3143C167.879 72.6621 167.304 78.7884 168.572 78.5415C168.804 78.4976 169.141 78.3825 169.205 78.2109C170.139 75.6625 168.981 68.5674 169.476 68.3874C169.921 68.2263 176.69 75.0369 177.768 75.3779C178.846 75.719 179.219 74.6456 178.772 73.8149C178.609 73.5137 173.955 69.1281 173.705 68.8917C170.383 65.7783 170.083 66.1277 170.484 65.7134C171.792 64.366 181.143 56.98 180.112 55.6284C179.221 54.4609 173.198 60.424 169.418 63.7069C169.254 59.7189 169.1 49.4162 168.893 48.8618C168.712 48.3763 167.866 48.4077 167.784 49.5522C167.384 54.8061 167.64 63.2989 167.236 63.2926C166.832 63.2863 161.096 58.3986 158.587 57.5491C158.434 57.4862 158.265 57.4778 158.107 57.5251C157.949 57.5724 157.811 57.6728 157.716 57.8098C157.621 57.9469 157.574 58.1128 157.583 58.2804C157.592 58.448 157.656 58.6077 157.766 58.7334C160.022 61.0329 167.328 65.4603 166.394 66.2595Z" fill="black"/>
<path d="M71.3186 16.9672C72.0557 17.6095 71.292 17.6848 68.5759 20.2584C65.2768 23.3823 65.2726 23.5476 65.0099 24.3468C64.7471 25.1461 65.6648 26.163 66.4716 25.1733C67.2784 24.1836 72.07 20.0743 72.3616 19.8651C72.651 20.9698 72.2261 26.0918 72.7003 29.5484C73.0329 31.9734 74.4823 31.1406 74.4823 27.3577C74.4823 19.8881 74.509 21.0012 74.6383 20.2752C75.5293 20.9028 74.3817 19.8881 78.3337 23.8321C80.1115 25.598 82.5073 25.2968 78.6724 21.2397C74.667 16.9881 74.7512 17.6053 75.4143 16.9149C76.8514 15.4293 80.2511 12.0418 82.3944 9.78627C84.2421 7.82785 83.7309 7.106 83.0986 7.43449C78.1284 10.0185 74.511 15.5088 74.4987 14.109C74.3776 -0.0581591 74.1784 0.0171661 73.2874 0.000427427C72.1768 -0.0184036 72.4663 0.554897 72.4663 7.75671C72.5155 7.75671 72.5566 14.3497 72.3636 14.9543C71.9818 14.6949 65.5888 9.10836 64.1517 8.67734C63.2074 8.39906 62.8173 9.33224 63.3716 9.9432C64.006 10.642 64.1989 10.7404 71.3186 16.9672Z" fill="black"/>
<path d="M61.9266 319.915C67.987 314.965 67.5415 312.891 66.8538 313.4C61.2102 317.549 62.1319 316.923 59.9065 318.654C58.8308 319.491 59.9435 303.026 57.7673 303.009C56.4308 303.009 56.8846 304.371 57.291 313.335C57.4594 317.028 57.1186 312.364 57.4963 318.417C57.6051 320.194 52.4481 313.741 46.5088 312.306C46.4275 312.28 46.3421 312.274 46.2582 312.285C46.174 312.297 46.0933 312.326 46.0217 312.372C45.9498 312.419 45.8886 312.479 45.8418 312.552C45.7952 312.624 45.7644 312.705 45.7513 312.791C45.546 313.799 46.1619 313.818 46.7449 314.153C50.0666 316.084 48.0506 314.542 55.9669 320.583C57.1083 321.453 56.7306 321.33 55.4331 322.558C53.296 324.585 47.9972 328.956 49.8244 329.672C50.8714 330.08 51.0397 329.463 57.0242 324.1C58.49 322.788 57.2992 328.864 58.6665 334.491C58.7025 334.639 58.7881 334.769 58.9082 334.861C59.0285 334.951 59.1761 334.997 59.3255 334.989C60.5696 335.062 60.3684 333.714 59.771 324.826C59.771 323.152 59.5206 323.51 62.8895 326.063C65.002 327.661 65.4085 327.879 66.2194 327.946C67.0303 328.013 67.1104 327.038 66.5171 326.439C66.1065 326.021 66.0203 325.893 60.7257 321.539C60.3171 321.198 60.4218 321.146 61.9266 319.915Z" fill="black"/>
</svg>
