<svg width="194" height="55" viewBox="0 0 194 55" fill="none" xmlns="http://www.w3.org/2000/svg">
<path d="M21.4749 1.04104C19.2829 2.36437 18.9581 2.70588 20.1353 2.40706C20.6225 2.279 20.9878 2.32169 20.9472 2.53513C20.9066 2.74857 21.7997 3.47427 22.8957 4.11459C24.0323 4.75491 25.0066 5.39524 25.1284 5.5233C25.2501 5.65136 25.8996 6.07825 26.5491 6.41975C31.7045 9.19448 34.8709 11.3289 34.8709 12.0119C34.9115 12.268 34.8709 16.4942 34.8709 21.3606C34.8709 26.2697 34.9926 30.2397 35.155 30.2397C35.358 30.2397 36.4134 29.5994 37.5095 28.831L39.5391 27.465V18.5005C39.5391 10.0909 39.4985 9.45061 38.7273 8.63953C37.9966 7.82846 30.6897 3.26083 26.3868 0.912977C24.1135 -0.32498 23.7076 -0.32498 21.4749 1.04104ZM25.0066 1.04104C24.8848 1.16911 24.5195 1.21179 24.2353 1.08373C23.9105 0.955666 24.0323 0.8276 24.4789 0.8276C24.9254 0.784912 25.169 0.912977 25.0066 1.04104ZM37.3471 8.34072C37.8748 9.02373 37.8342 9.06642 37.2253 8.51147C36.8194 8.21265 36.4946 7.87115 36.4946 7.78577C36.4946 7.44427 36.8194 7.65771 37.3471 8.34072ZM34.9926 10.2617C35.155 10.6886 35.3174 10.6459 35.6421 10.1763C36.1293 9.45061 36.251 10.1336 35.7639 10.9447C35.4798 11.3289 35.2362 11.2862 34.6679 10.6032C34.262 10.1336 34.1402 9.74943 34.3837 9.74943C34.6273 9.74943 34.9115 10.0056 34.9926 10.2617ZM37.7124 26.6113C37.7124 26.6966 37.3065 26.9954 36.8194 27.2516C35.9263 27.7211 35.9263 27.6785 36.657 27.0808C37.5095 26.3551 37.7124 26.2697 37.7124 26.6113Z" fill="#FFD700"/>
<path d="M12.3407 6.29227C5.5209 10.2196 1.78627 12.6528 1.05558 13.6773C0.121928 15.0007 -0.365197 18.4584 0.324897 18.8853C0.771428 19.1841 6.49515 16.0252 12.4624 12.2259C13.8426 11.3295 15.3852 10.6038 15.9129 10.6038C16.4 10.6038 20.0941 12.6101 24.1128 15.0433L31.4197 19.4829L31.5415 16.7082C31.6227 15.1714 31.5009 13.72 31.2573 13.4639C30.3237 12.4821 16.7248 4.62743 15.9941 4.62743C15.5476 4.62743 13.9238 5.39581 12.3407 6.29227Z" fill="#1A1A1A"/>
<path d="M73.3129 10.5199C72.7446 11.1602 72.6228 12.2701 72.6228 16.4962C72.6228 19.3563 72.5822 21.7042 72.5416 21.7042C72.4604 21.7042 71.3238 21.1065 70.0248 20.4235C64.5852 17.5207 58.212 19.6978 55.4516 25.4607C53.7061 29.0465 53.5843 34.8948 55.1675 38.6941C57.7249 44.7131 64.2605 47.3598 69.7 44.4997C70.8772 43.902 71.8109 43.219 71.8109 43.0056C71.8109 42.2372 72.4198 42.6641 73.1099 43.902C73.6782 44.9265 74.0842 45.1827 75.2208 45.1827C77.9 45.1827 77.9 45.2254 77.9 27.4671C77.9 13.8496 77.8188 11.5017 77.2505 10.6906C76.4792 9.49536 74.2465 9.40998 73.3129 10.5199ZM69.7 25.4607C73.0693 28.022 73.6376 35.0656 70.6743 38.4806C68.8881 40.5723 65.2347 41.0419 62.7179 39.5051C57.8061 36.6023 58.212 26.9975 63.3268 24.6923C64.91 24.0093 68.2792 24.4362 69.7 25.4607Z" fill="#1A1A1A"/>
<path d="M42.987 19.9113C42.987 28.2782 42.9058 29.3027 42.2969 29.9003C41.891 30.2418 38.9682 32.0774 35.8425 33.9984C32.6762 35.8767 29.3475 37.9257 28.4139 38.5233L26.7495 39.6332V42.4507C26.7495 44.9693 26.8307 45.2254 27.4396 45.012C29.5505 44.1582 46.7216 33.4435 47.2494 32.6751C47.7365 31.9494 47.8583 30.1565 47.8583 23.2837C47.8583 18.3745 47.6959 14.4899 47.4523 14.0203C47.087 13.252 43.7583 10.6053 43.2306 10.6053C43.1088 10.6053 42.987 14.7887 42.987 19.9113Z" fill="#1A1A1A"/>
<path d="M14.8176 14.9158C14.2087 15.3 14.1681 15.4708 14.6146 15.7696C15.0206 16.0684 14.8582 16.1111 14.1275 15.9403C13.4374 15.7696 12.9097 15.8976 12.5849 16.3245C12.2602 16.7087 11.8542 17.0075 11.6513 17.0075C11.4483 17.0075 9.98693 17.8186 8.44437 18.8004C6.33349 20.0811 5.72459 20.6787 6.13052 20.9348C6.49587 21.2337 6.45527 21.2763 5.92756 21.1056C5.03449 20.8068 2.68005 22.002 3.00481 22.557C3.12659 22.8131 3.00481 22.8558 2.68005 22.7704C2.03055 22.4716 0.609773 24.0511 0.975117 24.6487C1.0969 24.9048 1.01571 25.1183 0.812742 25.1183C0.528586 25.1183 0.366211 27.6796 0.366211 32.7168C0.366211 40.5714 0.609773 42.1082 2.23352 43.4742C2.72065 43.9438 2.92362 43.9011 3.45134 43.2181C4.06024 42.4497 4.06024 42.4497 3.6543 43.3034C3.28896 44.0718 3.45134 44.328 4.95331 45.2244C5.88696 45.7794 6.73943 46.2489 6.86121 46.2489C6.98299 46.2489 7.79487 46.7612 8.68793 47.3588C10.9612 48.8956 15.5889 51.5849 15.9542 51.5849C16.1166 51.5849 16.1166 51.3715 15.9542 51.0727C15.7918 50.7739 15.8324 50.7312 16.1572 50.9019C16.4007 51.0727 16.5225 51.3715 16.4007 51.5849C16.076 52.1399 17.6592 52.9083 18.5116 52.6095C19.0393 52.4387 19.0799 52.4814 18.7146 52.7802C18.3087 53.079 18.5116 53.3778 19.6482 54.1035C20.4601 54.5731 21.1908 55 21.3126 55C21.3938 55 21.475 53.9755 21.475 52.7375C21.475 50.0909 21.1096 49.6213 17.2126 47.2308C15.873 46.4197 13.478 44.9256 11.8948 43.9438C10.0275 42.7912 8.72852 42.2789 8.2414 42.4497C7.67309 42.6204 7.63249 42.5777 8.03843 42.2789C8.44437 41.9801 8.20081 41.6386 6.90181 40.8702C5.96815 40.358 5.23746 39.7176 5.19687 39.4615C5.19687 39.2054 5.15627 36.4733 5.11568 33.4425C5.07509 30.3689 4.87212 27.5088 4.70974 27.0392C4.42559 26.3562 4.42559 26.3135 4.79093 26.8258C5.15627 27.3808 5.23746 27.3808 5.23746 26.7404C5.23746 26.3135 5.92756 25.6305 6.98299 25.0756C8.48496 24.2218 8.60674 24.0938 7.87606 23.7523C7.18596 23.4534 7.22656 23.4108 8.07902 23.5815C8.64734 23.7096 9.49981 23.5815 9.98693 23.2827C14.6552 20.508 14.98 20.2518 14.4928 19.8676C14.1275 19.6115 14.1681 19.5688 14.6958 19.7396C15.3453 19.953 20.2166 17.5198 20.2572 16.9648C20.2572 16.4953 18.1869 15.7269 17.7403 15.983C17.4968 16.1538 17.4156 16.1111 17.5374 15.8549C17.6997 15.5988 17.3344 15.2146 16.7661 14.9158C15.5889 14.3609 15.7918 14.3609 14.8176 14.9158ZM2.11174 23.6242C1.98996 24.0084 1.78699 24.2218 1.7058 24.0938C1.58402 23.9657 1.62462 23.7096 1.78699 23.4534C2.15234 22.7704 2.3959 22.8985 2.11174 23.6242ZM10.2711 47.5296C10.7176 47.8711 10.9206 48.1699 10.677 48.1699C10.4741 48.1699 9.94634 47.8711 9.5404 47.5296C9.09387 47.1881 8.8909 46.8892 9.13446 46.8892C9.33743 46.8892 9.86515 47.1881 10.2711 47.5296Z" fill="#FFD700"/>
<path d="M89.873 20.1679C87.1532 21.4912 84.1898 24.9916 83.378 27.809C82.3631 31.4375 82.5661 35.5783 83.9463 38.5665C85.8948 42.9633 89.2235 45.2258 94.2571 45.5246C97.8699 45.7381 100.143 45.2258 102.457 43.5183C103.837 42.5365 104.081 42.1523 104.081 40.9143C104.081 39.7617 103.837 39.2922 102.985 38.8226C102.011 38.2249 101.767 38.2676 99.7373 39.3348C96.2868 41.1704 92.7551 40.8289 90.3601 38.4384C89.3047 37.4139 88.0462 35.3648 88.0462 34.7245C88.0462 34.5965 91.4561 34.5111 95.5967 34.5111C104.893 34.5111 105.908 34.2123 105.908 31.2668C105.908 26.9126 102.701 21.9608 98.6006 20.0398C96.0432 18.8018 92.5116 18.8445 89.873 20.1679ZM97.9917 25.3758C99.0878 26.1442 100.224 28.0225 100.224 29.1751C100.224 29.7727 99.4531 29.8154 94.2571 29.73C88.4928 29.6019 88.2492 29.5593 88.371 28.7482C88.574 27.4248 89.7918 25.8454 91.3343 24.9916C92.9987 24.0525 96.3274 24.2232 97.9917 25.3758Z" fill="#1A1A1A"/>
<path d="M119.831 19.7822C119.1 20.1237 118.004 20.8921 117.436 21.4897C116.867 22.0873 116.34 22.5569 116.299 22.4715C115.325 20.2091 114.919 19.7822 113.742 19.6541C112.849 19.5687 112.199 19.7822 111.631 20.3798C110.819 21.2336 110.778 21.7458 110.778 32.2898C110.778 44.6694 110.9 45.1816 113.376 45.1816C115.65 45.1816 115.812 44.584 116.056 36.0464C116.299 27.7222 116.664 26.2708 118.694 24.8621C119.831 24.051 120.846 23.9656 123.241 24.4352C124.661 24.6913 125.067 24.6059 125.757 23.8802C126.894 22.685 126.853 20.6786 125.717 19.8249C124.58 18.9711 121.576 18.9711 119.831 19.7822Z" fill="#1A1A1A"/>
<path d="M167.371 19.7395C166.68 20.081 165.463 20.9348 164.651 21.7031C163.271 22.9411 163.149 22.9838 163.149 22.1727C163.149 20.9348 161.728 19.5687 160.51 19.5687C159.942 19.5687 159.13 19.9529 158.683 20.4225C157.912 21.2336 157.872 21.8312 157.872 32.2898C157.872 44.6694 157.993 45.1816 160.51 45.1816C162.905 45.1816 163.149 44.2852 163.189 36.2171C163.189 28.5333 163.514 26.7404 165.219 25.417C166.721 24.2644 169.603 24.0083 171.186 24.8621C172.972 25.8439 173.297 27.5087 173.297 36.0037C173.297 44.2852 173.541 45.1816 175.895 45.1816C178.168 45.1816 178.331 44.584 178.574 36.0464C178.818 27.5087 179.183 26.1427 181.416 24.9048C182.756 24.1791 184.948 24.0937 186.49 24.6913C188.357 25.417 188.723 27.2526 188.723 35.7049C188.723 42.7911 188.763 43.3887 189.535 44.2425C190.55 45.3951 192.417 45.4805 193.31 44.4133C193.919 43.7302 194 42.4496 194 35.1072C194 25.5878 193.594 23.1119 191.686 21.1909C188.479 17.9893 183.283 18.5015 179.589 22.3862C178.777 23.2399 178.087 23.8376 178.006 23.7522C176.951 22.002 175.449 20.2944 174.515 19.7822C173.054 18.9711 169.075 18.9711 167.371 19.7395Z" fill="#1A1A1A"/>
<path d="M131.525 20.679C130.754 21.7463 130.672 22.3866 130.672 28.7898C130.672 36.9432 131.078 39.4618 132.824 41.8524C134.691 44.371 136.64 45.3101 140.699 45.5236C143.744 45.6943 144.271 45.6089 146.342 44.5417C149.021 43.133 150.726 40.9132 151.335 37.8824C151.578 36.7298 151.781 32.6317 151.781 28.7898C151.781 22.3866 151.7 21.7463 150.929 20.679C149.914 19.313 148.168 19.185 147.072 20.4656C146.382 21.2767 146.26 22.3012 146.098 29.5582C145.976 34.0405 145.733 38.0531 145.53 38.48C144.352 41.084 138.101 41.084 136.924 38.48C136.721 38.0531 136.477 34.0405 136.355 29.5582C136.193 22.3012 136.071 21.2767 135.381 20.4656C134.285 19.185 132.54 19.313 131.525 20.679Z" fill="#1A1A1A"/>
<path d="M10.9172 26.9538L8.68456 28.3625L8.56278 32.7594C8.48159 35.5341 8.60337 37.3697 8.88753 37.7112C9.45584 38.4369 20.4567 45.1816 21.0657 45.1816C21.3498 45.1816 21.4716 44.1998 21.3904 42.3215L21.2686 39.4614L17.4122 37.0282L13.5558 34.6377L13.3528 30.1127L13.1499 25.5451L10.9172 26.9538Z" fill="#1A1A1A"/>
<path d="M46.0316 38.1809C44.6109 38.9492 44.1237 39.4615 45.1386 39.0773C45.5851 38.9066 45.7881 38.9493 45.6257 39.2481C45.4633 39.5042 45.098 39.5896 44.7732 39.4615C44.2861 39.2481 40.4297 41.3398 36.898 43.7303C35.1931 44.8402 31.9862 46.7185 29.9159 47.7857C27.6021 49.0237 26.709 50.5177 26.7902 52.951C26.8714 54.0609 26.9932 55 27.0744 55C27.6833 55 29.9565 53.1644 29.7941 52.8229C29.6318 52.6095 29.8753 52.5668 30.2407 52.7375C30.7278 52.9083 30.8496 52.8656 30.6466 52.5241C30.4842 52.2253 30.5654 52.0972 30.8902 52.2253C31.6209 52.5241 36.5327 49.4079 36.208 48.8956C36.0862 48.6395 36.1674 48.5968 36.4109 48.7675C36.6545 48.9383 37.2634 48.8529 37.7505 48.5541C38.4812 48.1699 38.5218 47.9991 38.0753 47.6576C37.6287 47.3161 37.6693 47.3161 38.2782 47.4869C39.2525 47.8284 45.7475 43.9011 46.8029 42.3643C47.5742 41.2544 48.1425 37.4979 47.5742 37.4979C47.3712 37.4979 46.7217 37.7967 46.0316 38.1809ZM43.799 44.0718C43.799 44.1572 43.5148 44.3706 43.1495 44.4987C42.8247 44.6268 42.6624 44.5841 42.7841 44.328C43.0277 43.9011 43.799 43.7303 43.799 44.0718ZM35.2743 45.7794C35.2743 45.8647 34.9901 46.0782 34.6248 46.2062C34.3 46.3343 34.1377 46.2916 34.2595 46.0355C34.503 45.6086 35.2743 45.4379 35.2743 45.7794ZM29.5912 48.7248C29.5912 48.8102 29.1852 49.2371 28.6981 49.7067L27.7644 50.5177L28.5357 49.5359C29.2664 48.6395 29.5912 48.3833 29.5912 48.7248ZM35.2743 49.1944C35.2743 49.3225 35.1119 49.5359 34.8684 49.664C34.6654 49.792 34.4624 49.7067 34.4624 49.4932C34.4624 49.2371 34.6654 49.0237 34.8684 49.0237C35.1119 49.0237 35.2743 49.109 35.2743 49.1944Z" fill="#FFD700"/>
</svg>
