<svg width="342" height="259" viewBox="0 0 342 259" fill="none" xmlns="http://www.w3.org/2000/svg">
<path fill-rule="evenodd" clip-rule="evenodd" d="M282.346 130.518C290.35 124.695 296.577 117.624 301.034 110.799C328.508 136.639 323.1 167.216 318.523 178.831C314.729 188.455 309.459 196.366 304.176 204.293C298.98 212.089 293.774 219.902 289.953 229.377C282.637 247.517 287.064 259.686 291.358 271.486C296.32 285.122 301.105 298.268 287.373 319.564C279.061 332.455 259.582 342.914 234.429 347.444C239.593 335.37 232.812 320.535 214.157 315.88C206.634 313.879 198.411 314.044 191.035 316.343C183.663 318.642 177.65 322.915 174.138 328.356C169.989 334.59 169.735 341.119 172.225 346.877C166.558 345.85 161.266 344.667 156.062 343.502C135.543 338.914 116.417 334.637 81.2729 341.494C84.2932 331.26 79.3125 319.699 64.8002 314.063C57.7762 311.204 49.6188 310.397 41.8669 311.796C34.115 313.197 27.3046 316.705 22.7202 321.662C12.2837 332.669 16.1116 346.487 27.4821 354.46C-56.7593 368.83 -132.708 329.519 -131.236 263.849C-130.6 235.559 -121.326 218.671 -112.925 203.374C-106.182 191.095 -100.001 179.842 -99.3022 164.539C-98.9149 156.048 -101.396 146.527 -104.039 136.38C-111.223 108.808 -119.61 76.6177 -74.9233 47.9349C-12.7935 8.05663 58.9188 29.9304 113.819 46.6766C120.891 48.833 127.682 50.9045 134.138 52.748C124.552 69.8186 125.07 88.7598 132.196 103.992C153.619 149.798 232.519 166.75 282.346 130.518ZM20.7384 67.778C25.8261 71.7493 42.1297 80.6218 32.1489 73.7311L30.2067 72.3911C22.828 67.301 21.7697 66.5713 21.9465 66.2898C21.9761 66.2428 22.0401 66.2081 22.1151 66.1678C22.1548 66.1464 22.1974 66.1235 22.2396 66.0961C29.0553 61.6336 39.9555 52.8061 39.4083 52.4855C39.04 52.2705 38.6772 52.5465 37.0665 53.771C34.9557 55.3758 30.7024 58.6098 21.4877 64.5024L21.3995 64.5575C20.8269 64.917 20.3319 65.2276 20.3859 64.6674C20.4406 64.0965 20.61 62.9176 20.8234 61.4319C21.5688 56.243 22.8516 47.3111 21.6751 47.4568C21.013 47.5411 20.9869 47.7442 20.5343 51.2645C20.2723 53.3021 19.8675 56.4513 19.114 61.3318C19.0282 61.8854 18.988 62.3786 18.9547 62.7885C18.8465 64.1131 18.8095 64.5686 17.5388 63.3943C17.0976 62.9874 4.11688 53.0874 5.30255 56.7005C5.31981 56.7476 8.89948 59.3298 12.5181 61.9402L12.5198 61.9413C14.5303 63.3918 16.5528 64.8508 17.9825 65.888C18.5145 66.2729 18.4866 66.2904 17.2336 67.0732L17.0483 67.1893C15.7204 68.0208 14.6032 68.7166 13.6601 69.3041L13.6542 69.3078L13.652 69.3091C8.84502 72.3029 8.56621 72.4768 7.92776 73.478C7.16362 74.6761 8.55142 75.863 9.24409 74.8636C9.33456 74.7331 9.4006 74.625 9.46001 74.5278C9.75137 74.0512 9.88078 73.8395 11.9408 72.5593C12.7483 72.0579 13.4462 71.6227 14.0486 71.2468C17.4634 69.1162 17.8198 68.8936 17.8198 69.3718C17.8171 69.9658 17.6337 71.246 17.4057 72.8358C16.7719 77.2575 15.7951 84.0744 17.4106 85.1874C17.4143 85.1818 17.4609 84.7925 17.54 84.1334L17.541 84.125L17.5418 84.1175L17.542 84.1156L17.5423 84.1147C17.9985 80.3094 19.5128 67.6807 20.0704 67.6393C20.308 67.6188 20.5471 67.6685 20.7384 67.778ZM269.442 279.289C268.431 280.056 255.808 285.396 255.759 285.415L255.655 285.454C255.278 285.599 255.066 285.681 255.047 285.784C255.019 285.919 255.318 286.09 256.003 286.484C256.469 286.75 257.115 287.121 257.96 287.654C260.514 289.264 260.529 289.441 260.561 289.829C260.563 289.881 260.568 289.939 260.58 290.005C260.346 289.995 260.117 289.96 259.898 289.896C258.115 289.094 256.821 288.451 255.882 287.982H255.88C254.494 287.292 253.876 286.982 253.585 287.11C253.351 287.213 253.333 287.599 253.299 288.299C253.277 288.771 253.247 289.386 253.141 290.151C252.461 295.107 252.446 296.046 252.441 296.461C252.436 296.744 252.436 296.785 252.229 297.69C250.659 297.417 251.709 288.544 251.869 287.32C251.968 286.585 241.302 291.269 241.055 291.456C240.55 291.841 237.732 291.297 245.019 288.149C247.08 287.256 248.462 286.697 249.357 286.336C250.489 285.878 250.849 285.734 250.831 285.619C250.824 285.565 250.735 285.52 250.605 285.451L250.543 285.419L249.67 284.957C240.289 279.985 239.453 279.542 239.517 279.194C239.524 279.143 239.554 279.092 239.579 279.031C240.047 277.817 244.136 280.116 247.501 282.01C249.86 283.336 251.864 284.462 252.022 284.044C252.103 283.729 252.108 283.667 252.123 283.334C252.148 282.732 252.214 281.249 252.86 275.794C253.208 272.856 253.156 270.651 253.119 269.087C253.07 267.019 253.047 266.076 254.016 266.044C254.223 266.067 254.418 266.134 254.576 266.239C254.733 266.346 254.844 266.485 254.899 266.639C255.421 268.605 254.065 282.28 253.876 284.206V284.207C253.861 284.35 253.853 284.427 253.853 284.431C254.228 284.35 256.126 283.639 258.483 282.754H258.485H258.488C263.681 280.806 271.111 278.02 269.442 279.289ZM-48.0051 115.774C-46.5408 115.162 -43.8853 114.051 -39.6122 111.82C-38.5473 111.124 -39.0896 110.811 -39.3682 110.933C-41.2221 111.731 -43.132 112.452 -45.0894 113.091C-46.9439 113.781 -48.3169 114.322 -49.3307 114.722C-51.127 115.43 -51.7962 115.694 -52.0191 115.552C-52.1514 115.468 -52.1263 115.24 -52.0861 114.878C-52.0753 114.78 -52.0632 114.673 -52.0531 114.556C-52.0161 114.04 -51.6439 108.006 -51.8066 107.556C-51.8418 107.459 -51.797 107.313 -51.7395 107.125C-51.668 106.891 -51.5768 106.593 -51.5946 106.244C-51.5832 106.059 -51.6688 105.878 -51.8327 105.741C-51.9966 105.604 -52.2251 105.522 -52.4684 105.513C-52.7117 105.505 -52.9493 105.57 -53.1295 105.694C-53.3095 105.819 -53.4172 105.993 -53.4285 106.178C-53.5949 106.897 -53.5939 107.209 -53.592 107.826C-53.5898 108.552 -53.5861 109.7 -53.8525 112.431C-53.9171 113.08 -53.8961 113.585 -53.8809 113.955C-53.8454 114.815 -53.8399 114.943 -55.0086 114.451C-65.3246 110.102 -65.0387 112.409 -63.9615 112.784C-55.5728 115.758 -55.5997 115.781 -55.6944 115.754C-55.6382 115.772 -55.4619 115.829 -54.9889 115.988L-54.8937 116.02C-54.3605 116.198 -54.0561 116.299 -54.034 116.429C-54.0049 116.601 -54.4762 116.822 -55.5748 117.338C-56.5549 117.799 -58.0354 118.494 -60.1038 119.597C-61.4718 120.329 -61.4201 121.437 -60.7767 121.752C-60.6451 121.816 -60.6347 121.809 -60.4257 121.661C-60.001 121.361 -58.7549 120.482 -53.998 118.446L-53.9975 118.566C-53.993 119.946 -53.9718 126.497 -52.6669 126.389C-52.3407 126.362 -52.4029 125.985 -52.5463 125.114C-52.5828 124.892 -52.6247 124.637 -52.6669 124.349C-52.658 124.348 -52.6503 124.349 -52.6432 124.35L-52.6333 124.352C-52.6301 124.352 -52.6272 124.352 -52.6242 124.351C-52.5786 124.343 -52.5717 124.208 -52.5089 122.98C-52.4734 122.285 -52.4201 121.24 -52.3316 119.671C-52.324 119.53 -52.3176 119.395 -52.3114 119.264C-52.2471 117.894 -52.2086 117.079 -50.9192 117.563C-47.9962 118.659 -46.0523 119.402 -44.7569 119.897L-44.7525 119.898L-44.7495 119.899C-42.4908 120.763 -42.2096 120.87 -42.1438 120.784C-41.4642 119.907 -45.9224 118.099 -48.1993 117.175L-48.201 117.174L-48.204 117.173C-48.5927 117.015 -48.9176 116.884 -49.1419 116.787C-49.7727 116.514 -49.5656 116.427 -48.0051 115.774ZM69.5898 158.71C75.6265 160.399 80.9879 165.803 84.1333 169.928C93.6876 182.47 105.485 208.101 98.9011 220.242C97.7622 222.351 96.4657 223.03 95.6571 223.456C94.9709 223.814 94.6337 223.992 95.0335 224.697C95.2652 225.089 96.9685 252.398 94.5405 252.447C94.0056 252.458 94.0403 250.397 94.1032 246.676V246.672C94.1828 241.952 94.3073 234.565 93.3745 225.342C93.3667 225.267 93.3637 225.195 93.3607 225.132C93.3531 224.963 93.3477 224.841 93.2644 224.777C93.0378 224.605 92.2377 224.869 89.2664 225.846C87.179 226.534 84.0194 227.575 79.2353 229.064C73.5855 230.826 51.9231 237.046 48.3069 237.925C45.9292 238.502 44.1448 239.005 42.774 239.389C40.3689 240.066 39.2367 240.385 38.4053 240.132C37.6658 239.907 37.1642 239.23 36.2164 237.951C35.9778 237.629 35.711 237.271 35.4051 236.869C15.17 210.361 4.12921 174.715 9.76913 173.057C21.0021 169.757 57.6345 160.382 63.6467 159.182C64.1865 159.075 64.6617 158.948 65.1099 158.828C66.4952 158.458 67.621 158.157 69.5898 158.71ZM94.2753 219.48C94.4688 220.995 94.573 221.811 95.1567 221.372C100.222 217.566 98.2528 206.539 97.2471 201.327C93.3376 181.051 73.4623 155.766 64.8348 161.352C53.4958 168.687 71.2585 215.044 89.4848 221.914C90.2933 222.218 92.6375 222.724 92.9037 222.076C92.9727 221.905 90.3771 206.596 87.0099 204.092C86.3961 203.631 87.8012 203.211 88.4199 203.905C91.0845 206.884 93.2513 213.586 93.9242 217.148C94.0896 218.027 94.1909 218.82 94.2753 219.48ZM5.41594 179.406C5.04939 176.69 4.86354 175.311 3.93521 174.898C2.9783 174.473 1.23308 175.074 -2.31134 176.294C-4.39032 177.009 -7.08827 177.938 -10.609 178.997C-16.5886 180.797 -16.5911 180.811 -16.7432 181.694C-16.7575 181.778 -16.7737 181.871 -16.7962 181.973C-21.3589 202.694 -0.344757 239.978 11.401 245.759C12.5797 246.34 27.1129 243.15 29.1031 242.714L29.2352 242.686C29.8172 242.558 30.3447 242.447 30.8195 242.348L30.8296 242.346L30.834 242.344L30.8427 242.342L30.8491 242.34H30.8503C32.9221 241.905 33.9848 241.682 34.2209 241.217C34.4697 240.728 33.8021 239.969 32.4321 238.411C30.1241 235.786 25.8222 230.892 20.5461 221.196C7.92654 198.006 6.22816 185.423 5.41594 179.406ZM-40.5637 165.531C-42.0378 165.272 -42.1512 164.018 -40.7658 163.322C-17.7477 151.744 6.14313 150.286 27.9362 162.887C29.8352 163.986 23.1205 165.527 19.9407 166.257L19.6242 166.33C13.9379 167.635 7.04604 169.816 0.384384 171.925C-2.74345 172.915 -5.82101 173.889 -8.69865 174.749L-8.78937 174.776C-8.93085 174.818 -9.06889 174.86 -9.20324 174.901C-11.2337 175.516 -12.4874 175.896 -14.2079 174.91C-17.301 172.879 -20.5906 171.028 -24.0482 169.371C-32.3281 165.87 -35.8496 165.77 -38.3598 165.698C-39.1564 165.676 -39.8511 165.656 -40.5637 165.531ZM7.61964 272.08C7.61964 272.076 7.71922 272.07 7.91002 272.059C11.7251 271.838 51.9746 269.494 60.5925 239.729C61.0988 237.977 58.8497 238.635 53.2751 240.269H53.2729H53.2705L53.2695 240.271H53.2682H53.2658C51.6248 240.751 49.695 241.317 47.4639 241.928C36.4538 244.951 29.6969 246.349 25.4699 247.227C21.3891 248.072 19.6661 248.429 18.7501 249.286C18.0806 249.91 17.8422 250.804 17.4296 252.349C17.2004 253.208 16.9171 254.267 16.4764 255.595C13.5682 264.349 9.25616 267.479 6.86241 269.215C5.75833 270.017 5.06221 270.522 5.10042 271.146C5.15662 272.115 5.99916 272.102 7.13454 272.086C7.29106 272.082 7.45326 272.08 7.61964 272.08ZM-107.939 282.655C-107.918 282.557 -107.913 282.535 -108.043 282.518C-100.949 246.833 -81.5123 229.169 -54.099 219.229C-49.2923 217.476 -36.4817 213.599 -32.6806 213.726C-32.4598 213.724 -32.2453 213.782 -32.0757 213.889C-31.9061 213.996 -31.7927 214.146 -31.756 214.313C-31.7195 214.478 -31.7619 214.649 -31.8761 214.793C-31.9899 214.936 -32.1679 215.044 -32.3774 215.097C-65.7116 223.874 -91.1702 234.801 -106.421 279.734C-106.606 280.279 -106.708 280.816 -106.804 281.322C-106.982 282.261 -107.141 283.099 -107.782 283.709C-108.027 283.082 -107.967 282.794 -107.939 282.655ZM-96.1371 222.467C-96.1815 222.52 -96.2446 222.591 -96.3232 222.681C-97.4616 223.986 -101.874 229.043 -100.646 229.703C-100.346 229.864 -100.085 229.491 -99.4871 228.638C-97.6782 226.054 -92.7825 219.062 -74.3884 209.052C-60.4696 201.475 -47.3264 198.615 -39.8506 196.99C-35.6238 196.069 -33.2086 195.544 -33.4892 194.783C-34.1868 192.884 -76.4541 199.621 -96.1371 222.467ZM-20.3315 233.809C-20.1037 233.987 -19.9625 234.218 -19.9317 234.466C-20.5994 235.291 -22.832 235.864 -26.1287 236.71C-28.9043 237.422 -32.4346 238.328 -36.42 239.742C-43.818 242.339 -50.7713 245.612 -57.126 249.492C-66.6572 256.084 -67.4766 257.044 -70.1062 260.125C-71.0057 261.179 -72.1172 262.48 -73.8609 264.34C-74.0108 264.426 -74.1769 264.496 -74.3539 264.544C-77.0235 260.204 -46.9086 234.527 -21.1839 233.491C-20.8602 233.521 -20.5592 233.633 -20.3315 233.809ZM170.332 234.467C170.882 234.471 171.121 234.473 171.246 234.381C171.342 234.312 171.37 234.19 171.419 233.971L171.439 233.886C176.867 210.525 190.02 200.515 196.192 195.816C198.738 193.879 200.097 192.844 199.234 192.151C187.072 182.234 173.408 173.447 158.532 165.972C151.97 162.52 116.06 198.46 116.748 219.529C116.762 219.942 116.839 220.354 116.915 220.767V220.769C117.004 221.237 117.09 221.704 117.085 222.175C117.031 227.348 163.218 233.654 169.923 234.466C170.076 234.466 170.211 234.466 170.332 234.467ZM229.825 232.487C225.503 234.152 212.57 235.791 207.208 235.96C192.251 236.434 189.445 236.198 184.747 235.804C183.951 235.737 183.101 235.666 182.127 235.592C181.018 235.508 180.106 235.444 179.354 235.394C175.984 235.163 175.881 235.156 175.947 234.332C176.977 221.406 186.909 206.489 197.412 198.614C198.477 197.813 199.286 197.132 199.929 196.59L199.932 196.589L199.934 196.587C201.065 195.632 201.694 195.102 202.347 195.085C203.158 195.062 204.009 195.839 205.917 197.579V197.581L205.919 197.582C206.762 198.351 207.812 199.307 209.156 200.468C217.726 207.857 228.74 221.446 230.744 227.656C230.798 227.817 230.904 228.027 231.03 228.271C231.631 229.448 232.632 231.407 229.825 232.487ZM139.118 158.005C139.14 158.555 139.155 158.913 138.994 158.966C138.696 159.066 137.786 158.107 135.183 155.359L134.446 154.583L134 154.112L133.892 153.999C133.522 153.608 133.248 153.322 132.997 153.026C132.304 152.215 131.757 151.334 129.711 148.039L129.208 147.229C126.95 143.595 126.785 140.601 126.679 138.718C126.613 137.484 126.568 136.728 125.982 136.583C125.119 136.367 119.538 148.373 119.923 153.432C119.964 153.972 119.467 153.484 118.416 152.456C116.79 150.861 113.839 147.968 109.52 145.6C101.726 141.332 92.6424 140.335 89.9901 140.708C90.3446 141.147 91.0488 141.71 91.9754 142.451C95.8026 145.512 103.424 151.609 105.875 164.49C106.326 166.579 106.491 168.697 106.368 170.811C106.308 171.187 106.365 171.572 106.419 171.957C106.469 172.306 106.518 172.654 106.483 172.997C105.99 178.045 107.07 184.332 111.505 188.153C113.191 189.668 115.303 190.872 117.689 191.674C119.033 192.237 120.457 192.683 121.932 193.004C122.365 193.146 121.976 193.465 121.88 193.484C121.727 193.514 121.594 193.542 121.476 193.566L121.473 193.568H121.468L121.461 193.57H121.458C120.45 193.782 120.342 193.806 116.326 193.523C111.648 193.103 107.23 191.661 103.607 189.374C103.419 189.332 102.966 189.374 103.168 189.681C108.278 197.389 112.025 198.494 119.067 200.436L119.112 200.447C119.326 200.507 119.476 200.549 119.607 200.526C119.91 200.477 120.122 200.099 120.815 198.848C121.658 197.333 123.211 194.536 126.507 189.494C126.684 189.22 126.376 189.089 125.762 188.832C124.01 188.091 119.78 186.306 117.453 177.119C116.765 172.364 115.192 167.708 112.781 163.29C112.589 162.915 112.675 162.865 113.191 162.85C116.775 162.744 122.415 169.611 123.07 170.41C123.107 170.457 123.13 170.483 123.132 170.485C122.898 167.459 123.09 164.423 123.704 161.429C124.12 159.323 125.972 153.021 126.985 155.026C127.675 158.281 129.253 161.391 131.617 164.155C132.854 165.589 133.791 166.799 134.481 167.692C135.334 168.794 135.81 169.411 136.017 169.363C136.283 169.301 136.113 168.165 135.731 165.586C135.617 164.825 135.487 163.938 135.341 162.916C135.129 161.416 140.005 163.291 143.542 170.774C143.55 170.789 143.557 170.804 143.562 170.819C143.569 170.839 143.577 170.857 143.584 170.875C143.609 170.945 143.631 171.002 143.678 171.023C143.882 171.112 144.57 170.557 148.171 167.655L149.239 166.795C151.265 165.165 149.458 162.439 147.262 159.127C145.162 155.961 142.707 152.26 142.911 148.472C143.074 145.499 139.086 152.659 139.095 157.204C139.095 157.5 139.108 157.77 139.118 158.005ZM51.562 132.636C51.6019 132.604 51.6453 132.568 51.6864 132.526C51.7902 132.537 51.8925 132.555 51.9921 132.58C54.4975 133.57 57.5315 134.263 60.6943 134.985C69.4463 136.983 79.184 139.205 81.4365 148.589C67.5512 147.655 60.3361 141.526 51.6864 133.276C51.2721 132.875 51.3845 132.782 51.562 132.636ZM89.5267 118.891C88.4628 118.872 88.5683 118.949 89.2646 119.458C89.3285 119.505 89.397 119.555 89.47 119.609C90.6598 120.487 91.9983 121.966 93.5562 123.686C97.5774 128.129 103.062 134.186 111.229 135.706C111.914 135.833 111.734 135.367 111.468 134.682C111.376 134.443 111.273 134.177 111.194 133.902C111.145 133.732 111.093 133.51 111.029 133.243C110.22 129.844 107.694 119.21 89.5267 118.891ZM70.9066 123.805C70.9083 123.81 70.908 123.816 70.907 123.824L70.9063 123.829C70.9051 123.839 70.9036 123.851 70.9036 123.869C70.9184 124.011 68.2192 125.091 62.6483 123.846C58.904 123.009 56.734 121.112 54.1157 118.824C52.0178 116.99 49.6321 114.904 45.9184 112.911C45.1419 112.495 46.0145 112.497 46.9586 112.607C57.4176 113.234 62.0592 116.378 67.1075 120.743C69.8035 123.075 70.594 123.589 70.8203 123.736L70.8629 123.764C70.8923 123.784 70.9034 123.794 70.9066 123.805ZM155.133 272.095C153.599 271.253 155.456 273.835 159.005 278.766C164.15 285.917 172.851 298.009 179.916 311.762C180.239 312.392 180.924 312.887 181.318 312.201C182.245 310.59 160.822 275.217 155.133 272.095ZM173.014 276.52C175.479 274.83 190.202 299.899 191.528 305.603C191.028 306.002 190.902 305.764 189.761 303.646C188.24 300.816 184.917 294.636 176.502 282.145C175.291 280.35 174.404 279.171 173.805 278.376L173.803 278.374C172.822 277.071 172.612 276.794 173.014 276.52ZM67.7262 263.249C64.926 264.475 57.8342 294.306 57.4003 306.762C57.3658 307.791 58.4356 308.044 58.6698 307.487C58.7151 307.379 58.8828 306.254 59.1463 304.482L59.147 304.476C59.9026 299.399 61.4454 289.03 63.1586 282.115C64.4374 276.951 65.542 273.01 66.3591 270.094C67.5724 265.765 68.1519 263.697 67.7262 263.249ZM45.3048 301.607C45.3206 300.966 45.3339 300.436 45.2432 300.436C46.7173 275.498 52.7393 268.619 52.1551 272.37C51.9953 273.396 51.7505 274.229 51.3956 275.434C50.5459 278.326 49.0637 283.365 46.6014 298.373C46.3732 299.76 46.281 300.869 46.211 301.71C46.0998 303.046 46.0438 303.72 45.5908 303.801C45.2486 303.861 45.2799 302.603 45.3048 301.607ZM126.714 302.123C153.005 287.166 136.941 255.436 105.17 257.311C97.2175 257.659 89.7071 260.209 84.0583 264.482C78.4098 268.754 75.013 274.452 74.5099 280.499C72.422 301.589 104.558 314.727 126.714 302.123ZM102.936 251.492C102.697 249.28 102.633 247.058 102.744 244.84C102.744 232.557 102.256 229.924 102.059 228.872C101.975 228.417 101.945 228.259 102.034 227.744C102.13 227.175 102.892 227.479 102.963 227.641C104.753 231.745 105.002 250.456 102.936 251.492Z" fill="black"/>
<path d="M295.207 38.4374C265.61 7.15309 211.397 1.57308 169.467 19.4568C106.841 46.1661 106.955 123.694 182.601 147.062C210.702 155.745 249.678 154.119 275.682 138.407C289.789 129.885 299.346 118.29 304.936 109.924C318.696 85.3124 311.678 55.8505 295.207 38.4374ZM309.46 89.5761C309.161 98.4299 300.154 117.564 282.345 130.519C232.517 166.751 153.617 149.799 132.194 103.993C119.731 77.3493 127.481 39.3561 174.166 19.8786C215.824 2.49933 267.259 12.7443 290.812 37.5036C307.379 54.9374 310.155 68.7468 309.46 89.5761Z" fill="black"/>
<path d="M227.185 102.403C225.735 101.994 224.182 101.843 222.644 101.96C221.106 102.077 219.624 102.46 218.311 103.079C215.424 104.279 212.989 106.022 211.241 108.142C199.249 122.413 216.649 134.778 228.496 123.566C237.974 114.596 234.077 104.289 227.185 102.403ZM232.551 112.874C231.789 119.938 225.05 125.564 220.684 126.251C217.909 126.688 224.811 122.533 225.93 113.891C227.291 103.391 218.68 104.928 220.448 103.702C224.14 101.144 233.424 104.769 232.551 112.874Z" fill="black"/>
<path d="M173.081 83.4958C162.388 74.4958 145.927 88.1158 151.081 99.6208C153.347 104.683 161.654 110.173 172.034 101.496C176.858 97.4608 178.209 87.812 173.081 83.4958ZM169.266 83.0814C167.535 83.5374 166.002 84.3431 164.829 85.412C162.549 87.32 160.959 89.646 160.214 92.162C160.098 92.7808 159.576 93.3152 159.507 93.9564C159.347 95.4564 158.706 99.377 160.113 101.389C160.766 102.326 161.18 103.405 162.526 103.961C163.019 104.17 162.896 104.601 162.526 104.595C160.897 104.747 159.245 104.552 157.754 104.033C150.724 100.86 151.01 91.6858 155.336 87.1014C161.747 79.2058 170.718 82.4008 169.266 83.0814Z" fill="black"/>
<path d="M213.208 43.9031C208.84 41.7937 198.852 42.6056 193.471 44.0306C180.557 47.4524 173.855 54.9712 181.545 59.2012C188.119 62.8199 203.753 59.5049 210.539 55.9949C218.377 51.9374 218.501 46.4587 213.208 43.9031ZM182.61 55.7156C181.738 56.7449 182.053 57.3356 181.21 56.6212C179.63 55.2806 180.392 53.2293 182.802 51.0787C190.999 43.7662 207.657 42.7293 212.461 45.2324C213.684 45.8893 214.527 46.8809 214.811 47.9994C215.094 49.118 214.798 50.2766 213.982 51.2324C213.64 51.6206 212.067 50.6249 211.271 50.1224C205.594 46.5937 187.178 50.3268 182.61 55.7231V55.7156Z" fill="black"/>
<path d="M251.988 78.8208C257.386 77.7614 257.771 73.7283 258.17 69.5151C257.603 65.167 257.152 61.0308 252.377 58.5145C242.904 53.5195 238.852 77.1764 251.988 78.8208ZM249.03 59.4351C251.127 58.7358 253.679 60.6501 254.413 62.1276C259.082 71.5439 254.813 77.8214 251.635 77.4651C251.053 77.3995 250.896 77.2308 251.159 76.8351C252.389 74.4267 252.959 71.8518 252.833 69.2695C252.705 66.6871 251.884 64.1519 250.42 61.8201C249.634 60.6351 248.371 60.5076 248.448 59.7126C248.47 59.437 248.82 59.5064 249.03 59.437V59.4351Z" fill="black"/>
<path d="M162.003 42.5472C162.385 39.416 159.538 38.0003 156.412 38.6341C149.673 39.9972 143.015 48.3353 143.693 53.0097C144.864 61.061 158.944 54.9372 162.003 42.5472ZM148.465 52.4416C148.11 53.2885 147.982 54.1812 148.088 55.0666C147.952 55.6553 146.32 55.2278 145.778 54.2191C142.855 48.7591 155.87 37.0816 159.533 40.2372C162.158 42.4966 156.575 39.3785 149.426 50.2553C149.103 50.7353 148.741 51.9372 148.465 52.4416Z" fill="black"/>
<path d="M272.187 99.8715C269.11 103.26 267.92 108.281 272.086 110.242C277.149 112.627 285.584 107.57 286.153 100.991C286.696 94.7471 277.462 94.0665 272.187 99.8715ZM281.852 106.246C280.627 107.541 278.97 108.565 277.055 109.215C275.963 109.383 275.125 109.777 274.652 109.646C273.683 109.387 273.843 108.92 274.435 108.708C276.333 107.769 277.876 106.468 278.909 104.936C283.476 99.1608 279.382 97.3065 281.544 97.2483C284.462 97.1658 285.907 102.588 281.852 106.252V106.246Z" fill="black"/>
<path d="M296.475 64.2561C291.954 63.298 285.523 71.2067 288.483 77.8067C292.023 85.7023 302.334 79.7773 301.748 71.1392C301.518 67.783 300.717 65.1561 296.475 64.2561ZM292.805 80.1148C290.539 79.5073 293.275 78.553 293.995 76.4848C294.086 76.2261 296.791 70.2786 294.037 67.2411C293.135 66.2473 293.068 66.3036 294.037 65.8461C294.547 65.6667 295.102 65.5763 295.664 65.5813C296.226 65.5864 296.781 65.6869 297.284 65.8753C297.789 66.064 298.23 66.3357 298.578 66.6709C298.928 67.0062 299.172 67.3963 299.297 67.813C302.066 76.0498 296.095 80.9998 292.805 80.1148Z" fill="black"/>
<path d="M258.952 28.1248C257.296 27.6842 252.393 25.0235 248.673 26.8123C242.836 29.6248 259.519 40.2654 265.849 36.7629C269.618 34.676 262.558 29.4129 258.952 28.1248ZM264.235 35.9492C263.357 36.3335 262.97 36.4198 261.432 34.7979C258.498 32.3267 254.821 30.4325 250.716 29.2779C249.96 29.1392 248.937 29.351 249.203 28.5598C249.942 26.3304 256.522 28.2635 259.487 29.8723C262.134 31.3048 266.921 34.7698 264.235 35.9342V35.9492Z" fill="black"/>
<path d="M244.517 131.371C242.4 133.246 244.271 137.118 254.848 135.884C257.56 135.565 258.087 135.076 258.686 133.962C261.597 128.549 248.385 127.938 244.517 131.371ZM257.217 132.121C256.852 135.505 255.346 131.082 247.774 132.871C247.298 132.981 246.541 133.39 246.026 133.469C244.37 133.726 245.977 129.359 254.742 130.673C255.46 130.778 257.348 131.573 257.217 132.123V132.121Z" fill="black"/>
<path d="M172.335 124.22C170.185 126.622 177.588 134.279 182.934 133.647C191.276 132.667 177.058 118.946 172.335 124.22ZM180.962 131.72C180.625 131.201 180.243 130.7 179.816 130.22C178.803 128.927 177.519 127.768 176.013 126.791C174.876 125.954 173.816 126.204 173.883 125.212C173.917 124.679 174.046 124.563 174.778 124.548C175.305 124.498 175.838 124.532 176.348 124.646C176.856 124.76 177.329 124.953 177.736 125.212C180.304 126.888 181.029 126.271 183.713 131.105C184.394 132.339 181.598 133.106 180.96 131.727L180.962 131.72Z" fill="black"/>
<path d="M209.761 22.5835C210.69 22.9322 210.22 22.9043 214.109 23.1162C228.949 23.9262 222.562 12.1473 209.727 17.9655C206.31 19.5141 207.045 21.5616 209.761 22.5835ZM220.511 18.6461C221.315 19.1841 220.856 19.7954 220.183 20.2979C218.924 21.2354 219.387 20.2529 216.993 20.086C211.373 19.696 212.413 21.8016 210.974 21.4116C204.528 19.6641 216.688 16.0848 220.511 18.6498V18.6461Z" fill="black"/>
<path d="M216.437 76.0525C212.37 77.4906 212.106 78.43 211.342 80.5C211.248 80.9616 211.322 81.4337 211.554 81.8661C211.785 82.2983 212.17 82.6746 212.661 82.9543C213.252 83.4231 214.176 83.4381 215.357 83.5956C216.634 83.6213 217.901 83.4306 219.067 83.037C220.235 82.6437 221.271 82.0575 222.104 81.3212C223.679 80.3744 224.69 77.995 223.482 76.9131C222.602 76.1918 221.431 75.7152 220.154 75.5592C218.877 75.4032 217.568 75.5768 216.437 76.0525ZM221.983 78.265C221.983 80.3275 219.765 78.2181 216.437 80.0387C214.61 81.0381 214.354 82.0112 213.777 81.7862C212.683 81.3606 212.705 78.8875 216.422 77.4306C219.804 76.1068 222.35 77.0931 221.983 78.265Z" fill="black"/>
<path d="M78.6578 267.63C59.6008 289.063 88.779 315.818 120.028 306.488C128.256 303.908 134.865 299.018 138.483 292.834C142.102 286.648 142.454 279.642 139.469 273.265C137.317 268.72 133.548 264.717 128.584 261.705C123.617 258.692 117.649 256.789 111.344 256.204C105.041 255.619 98.6465 256.378 92.8739 258.396C87.1026 260.413 82.1812 263.61 78.6578 267.63ZM126.713 302.13C104.558 314.734 72.4188 301.585 74.5092 280.513C75.0147 274.463 78.4152 268.763 84.0684 264.49C89.7217 260.217 97.2365 257.665 105.193 257.318C136.728 255.465 153.108 287.108 126.713 302.125V302.13Z" fill="black"/>
<path d="M84.5708 269.899C72.9483 283.024 82.9069 299.925 101.296 302.547C108.188 303.638 115.366 302.665 121.341 299.833C127.314 297.002 131.625 292.527 133.373 287.34C140.176 263.226 100.384 252.051 84.5708 269.899ZM130.173 273.086C132.394 276.46 133.309 280.245 132.808 284.001C132.308 287.755 130.415 291.323 127.346 294.289C124.279 297.255 120.165 299.496 115.487 300.75C110.808 302.005 105.755 302.218 100.921 301.371C96.6493 300.64 92.6969 299.085 89.4399 296.86C86.1832 294.634 83.7307 291.81 82.3178 288.658C81.018 285.861 80.5637 282.876 80.9889 279.925C81.4141 276.975 82.7078 274.137 84.7737 271.618C86.8394 269.1 89.6246 266.97 92.922 265.384C96.2204 263.798 99.945 262.796 103.82 262.455C109.105 262.024 114.439 262.806 119.135 264.703C123.831 266.599 127.671 269.522 130.163 273.094L130.173 273.086Z" fill="black"/>
</svg>
