<svg width="492" height="431" viewBox="0 0 492 431" fill="none" xmlns="http://www.w3.org/2000/svg">
<path d="M181.66 167.309C179.828 166.405 177.766 165.897 175.652 165.828C173.539 165.759 171.438 166.131 169.53 166.911C167.622 167.692 165.966 168.859 164.704 170.31C163.441 171.761 162.611 173.453 162.285 175.24C161.96 177.026 162.147 178.854 162.833 180.565C163.518 182.276 164.681 183.818 166.219 185.058C167.758 186.299 169.627 187.201 171.665 187.685C173.703 188.17 175.848 188.222 177.915 187.839C180.479 187.355 182.812 186.221 184.61 184.585C186.407 182.948 187.586 180.886 187.991 178.668C188.395 176.45 188.007 174.179 186.878 172.152C185.749 170.125 183.93 168.437 181.66 167.309ZM166.161 184.185C164.967 183.116 164.05 181.844 163.469 180.451C162.889 179.059 162.657 177.578 162.79 176.104C162.924 174.63 163.418 173.197 164.242 171.897C165.066 170.597 166.2 169.461 167.571 168.56C168.943 167.66 170.521 167.017 172.202 166.673C173.883 166.329 175.631 166.291 177.33 166.563C179.03 166.834 180.644 167.408 182.066 168.248C183.489 169.087 184.689 170.174 185.589 171.436C193.355 182.296 176.334 193.276 166.161 184.185Z" fill="black"/>
<path fill-rule="evenodd" clip-rule="evenodd" d="M183.565 172.075C182.57 170.797 181.202 169.763 179.596 169.075C177.991 168.387 176.203 168.068 174.41 168.152C172.616 168.235 170.879 168.717 169.37 169.549C167.861 170.382 166.632 171.537 165.804 172.899C164.977 174.262 164.579 175.786 164.651 177.321C164.722 178.855 165.261 180.347 166.213 181.649C167.165 182.951 168.498 184.018 170.08 184.745C171.662 185.472 173.438 185.834 175.233 185.795C177.087 185.771 178.898 185.318 180.475 184.485C182.052 183.652 183.336 182.469 184.19 181.062C185.045 179.655 185.437 178.077 185.327 176.495C185.218 174.913 184.609 173.386 183.565 172.075ZM170.374 175.373C172.317 173.465 174.453 171.707 176.756 170.118C176.762 170.121 176.768 170.126 176.772 170.131C176.776 170.136 176.78 170.142 176.781 170.148C176.783 170.154 176.783 170.16 176.782 170.166C176.781 170.172 176.779 170.179 176.775 170.184C176.719 170.363 176.627 170.631 176.516 170.954C176.303 171.574 176.021 172.398 175.79 173.196C175.381 174.623 175.332 174.622 175.092 174.614C175.074 174.614 175.055 174.613 175.034 174.613C173.586 174.697 172.057 175.042 171.159 175.244C170.636 175.362 170.328 175.432 170.374 175.373ZM171.14 176.382C172 177.217 172.769 177.897 173.774 178.741C174.076 178.928 174.25 178.326 174.814 176.374C174.895 176.095 174.984 175.787 175.082 175.45C175.182 175.185 174.937 175.198 174.825 175.204C174.811 175.205 174.799 175.205 174.79 175.205C173.423 175.331 172.066 175.529 170.727 175.8C170.547 175.836 170.646 175.926 170.884 176.143C170.957 176.21 171.044 176.289 171.14 176.382ZM172.703 183.354C171.424 181.266 170.535 179.02 170.069 176.698C170.203 176.698 170.61 177.119 171.219 177.75C171.813 178.366 172.601 179.181 173.517 180.002C173.402 181.143 173.129 182.269 172.703 183.354ZM174.468 180.203C174.259 180.304 174.171 180.59 173.852 181.632C173.71 182.098 173.521 182.715 173.255 183.534C175.573 182.327 177.703 180.875 179.594 179.211C180.155 178.711 179.823 178.807 178.636 179.15C177.792 179.394 176.515 179.763 174.82 180.132L174.777 180.137C174.644 180.153 174.547 180.165 174.468 180.203ZM176.519 174.995C176.309 174.878 176.202 174.819 176.16 174.735C176.117 174.65 176.142 174.539 176.194 174.314C176.204 174.272 176.214 174.226 176.225 174.176C176.292 173.883 177.154 170.513 177.226 170.286C177.297 170.059 177.348 170.134 177.374 170.191C177.761 171 179.48 176.457 179.48 176.457L179.562 176.702C179.788 177.377 179.819 177.472 179.573 177.256C177.858 175.743 176.96 175.242 176.519 174.995ZM174.897 178.671C174.777 179.081 174.849 179.174 178.032 178.356C178.162 178.322 178.282 178.291 178.391 178.263C179.497 177.981 179.616 177.951 179.114 177.532C178.195 176.751 177.187 176.049 176.106 175.437C175.81 175.292 175.762 175.472 175.441 176.688C175.314 177.171 175.143 177.817 174.897 178.671Z" fill="#FFD700"/>
<path d="M19.1756 329.414C18.4064 330.291 18.9714 331.602 20.4622 330.185C22.9397 327.831 30.8074 319.001 57.238 288.704C57.8508 288.001 57.689 288.389 60.5511 290.267C61.7103 291.027 65.6123 286.046 23.6639 336.241C22.4808 337.656 24.0114 338.162 25.0777 336.869L53.7923 302.127C66.241 287.017 59.5962 292.542 69.708 292.719C74.1246 292.279 75.7559 292.492 78.0664 289.478C78.1221 289.407 77.9788 289.228 77.9231 289.097C76.7851 289.673 76.3872 292.247 68.4533 291.669C67.0437 291.571 65.6595 291.29 64.3497 290.834C62.7263 290.26 61.1878 293.556 89.0959 259.294C90.3639 257.736 89.2498 257.457 88.1675 258.736C81.1063 267.076 67.7424 283.166 62.6494 289.385C62.0552 290.113 61.9464 289.943 59.0259 287.495C58.116 286.731 58.6015 287.938 85.6104 256.335C86.7112 255.046 85.7271 254.761 85.0242 255.484C83.2363 257.326 70.6178 271.451 70.4348 271.646C57.1717 286.334 57.864 286.389 57.1929 285.395C53.214 279.439 58.7845 273.957 61.5512 276.003C62.5883 276.772 61.7501 277.421 61.9146 277.604C62.1798 277.863 62.5618 278.19 62.8695 277.811C65.1322 275.035 59.8588 272.928 56.8401 275.543C55.2517 277.022 54.3252 278.931 54.2244 280.936C54.1233 282.941 54.8544 284.912 56.2884 286.502C57.1399 287.554 57.7871 285.175 19.1756 329.414Z" fill="black"/>
<path d="M30.4871 343.261C31.8999 343.153 33.2291 342.642 34.2607 341.808C35.2923 340.975 35.9664 339.871 36.1743 338.671C36.2486 337.047 35.0045 334.663 34.5191 334.997C34.0337 335.33 34.4395 335.697 34.6942 337.548C35.047 340.084 33.2883 340.667 31.328 341.731C29.8585 342.527 27.5215 339.771 27.8796 342.622C27.9053 344.03 27.5727 345.427 26.9048 346.716C26.2371 348.004 25.2501 349.154 24.0121 350.084C21.0385 352.266 16.2558 350.179 16.3381 343.624C16.3381 342.944 15.4097 342.892 14.8526 343.429C5.46501 352.488 -5.43459 339.778 7.37489 332.316C8.14415 331.876 9.06593 331.674 9.98771 331.744C10.6217 331.744 10.9692 332.132 11.452 332.325C12.2186 332.633 12.948 331.939 12.513 331.443C11.5024 330.263 10.6562 330.025 10.5315 328.09C10.2981 324.008 15.7545 320.152 19.2851 323.08C19.9828 323.552 19.2851 324.657 20.0146 324.7C20.3754 324.7 20.4151 324.473 20.5239 324.228C21.4868 322.03 18.1365 320.252 15.4388 320.744C14.3539 320.976 13.3329 321.388 12.4345 321.958C11.5358 322.525 10.7771 323.241 10.2018 324.06C9.62643 324.879 9.24551 325.788 9.08078 326.734C8.91606 327.68 8.97097 328.644 9.24233 329.571C9.55003 330.517 9.00625 330.086 7.52343 330.687C5.59692 331.513 3.92132 332.713 2.6287 334.187C1.3361 335.661 0.461856 337.374 0.0748921 339.186C-0.760682 345.461 5.55254 349.846 11.1814 347.43C14.1338 346.165 14.3062 345.357 14.7147 346.387C18.4867 355.913 25.7628 352.243 27.9777 347.92C30.4871 342.989 28.3385 343.309 30.4871 343.261Z" fill="black"/>
<path d="M248.892 170.335C242.118 169.326 222.857 166.361 220.122 167.303C218.159 167.832 216.455 168.898 215.271 170.338C214.087 171.777 213.491 173.51 213.573 175.268C213.541 175.695 213.411 176.119 213.414 176.538C213.414 177.119 213.549 177.699 213.578 178.282C213.695 180.55 213.517 182.818 213.843 185.1C215.804 198.985 208.663 199.162 239.03 202.224C243.632 202.678 258.354 204.265 262.582 202.762C269.79 200.219 269.633 195.656 269.633 188.99H269.792C268.554 172.442 269.49 173.413 248.892 170.335ZM263.636 199.831C252.152 199.582 240.707 198.593 229.398 196.871C223.066 195.644 220.157 196.239 219.416 193.383C218.412 185.897 218.042 178.359 218.31 170.827C218.748 167.602 220.602 167.124 248.131 171.342C265.325 173.978 266.535 174.261 267.392 178.6C268.14 182.103 268.429 185.666 268.254 189.223C268.246 193.751 268.904 199.609 263.636 199.838V199.831Z" fill="#FFD700"/>
<path d="M192.157 157.495C186.359 155.54 168.761 157.788 162.575 158.629C161.847 158.695 161.159 158.951 160.608 159.364C160.056 159.776 159.668 160.325 159.496 160.934C158.322 166.884 157.525 172.884 157.108 178.908C156.973 196.44 157 198.157 159.496 197.926C161.732 197.719 163.361 197.699 164.949 197.52C195.327 194.245 194.579 198.13 195.691 195.32C196.866 192.351 197.057 169.196 194.261 159.838C194.158 159.331 193.914 158.853 193.547 158.445C193.181 158.037 192.704 157.711 192.157 157.495ZM194.067 194.412C193.903 195.927 193.72 193.639 172.87 194.968C163.957 195.537 159.554 197.216 159.246 195.682C158.246 190.747 158.806 161.036 162.04 160.153C169.419 158.895 176.919 158.222 184.444 158.142C192.173 158.142 192.717 158.552 193.449 163.812C195.152 173.95 195.356 184.231 194.057 194.412H194.067Z" fill="black"/>
<path d="M59.3057 353.732C56.8415 353.675 58.807 355.773 58.4383 356.263C57.3348 355.417 53.6636 352.115 52.5416 352.956C52.2179 353.201 52.6291 353.605 53.2816 354.025C59.258 357.88 60.457 362.435 61.7064 361.702C63.0724 360.899 60.6586 358.155 59.9291 355.907C59.5683 354.794 65.4518 360.713 64.4624 358.704C63.4924 356.574 61.6631 354.809 59.3057 353.732Z" fill="black"/>
<path d="M250.571 186.065C250.412 190.49 255.412 193.441 259.285 191.59C260.33 191.08 261.213 190.361 261.861 189.494C262.508 188.627 262.9 187.639 263.001 186.614C263.105 185.589 262.914 184.559 262.447 183.611C261.98 182.663 261.251 181.826 260.322 181.173C256.847 178.521 250.781 180.542 250.571 186.065ZM251.924 187.065C250.815 183.157 255.423 179.068 259.654 181.874C260.314 182.36 260.834 182.968 261.176 183.653C261.518 184.338 261.672 185.081 261.625 185.825C261.792 191.563 253.661 193.2 251.924 187.065Z" fill="black"/>
<path d="M228.37 178.227C228.03 179.135 233.776 179.239 243.734 180.056C244.142 180.09 244.362 179.767 243.999 179.489C242.771 178.531 228.829 177.028 228.37 178.227Z" fill="black"/>
<path d="M241.419 182.196C232.186 181.309 231.135 181.205 231.254 181.897C231.363 182.543 233.095 182.457 234.936 182.668C242.833 183.575 243.311 183.949 243.592 183.462C243.828 183.049 242.507 182.3 241.419 182.196Z" fill="black"/>
<path d="M234.124 185.484C233.087 185.436 232.938 186.341 234.042 186.427C240.774 186.965 244.562 187.691 243.169 186.352C242.915 186.107 234.556 185.504 234.124 185.484Z" fill="black"/>
<path d="M188.533 163.632C188.894 163.423 189.519 163.38 189.305 162.848C189.024 162.154 187.634 163.104 187.65 162.106C187.65 161.53 187.759 160.814 187.329 160.746C186.9 160.678 186.725 161.218 186.574 161.689C186.372 162.317 186.523 162.161 184.8 161.462C184.691 162.265 186.391 162.7 185.147 163.049C184.728 163.165 184.32 163.308 183.912 163.442C184.211 163.961 184.779 163.766 185.253 163.795C186.632 163.877 186.11 164.176 186.269 165.04C186.322 165.319 186.104 165.72 186.555 165.815C186.677 165.838 187.006 165.391 187.109 165.135C187.327 164.561 187.504 164.795 188.08 164.979C188.631 165.044 188.793 164.872 188.631 164.45C188.528 164.176 188.053 163.909 188.533 163.632Z" fill="black"/>
<path d="M166.191 189.241C166.875 188.674 166.026 188.384 165.594 188.576C164.658 188.991 164.865 188.123 164.568 187.758C164.433 187.623 164.283 187.5 164.12 187.391C163.568 187.966 163.788 187.486 163.536 189.188C162.868 189.048 161.68 188.672 162.078 189.188C162.624 189.918 163.279 189.803 162.394 190.68C162.343 190.728 161.911 191.041 162.099 191.256C162.555 191.777 163.955 190.199 164.242 191.313C164.358 191.556 164.512 191.785 164.7 191.993C164.859 191.802 165.021 191.7 165.037 191.587C165.151 190.68 166.861 191.523 166.946 190.986C167.108 189.961 164.743 190.44 166.191 189.241Z" fill="black"/>
<path d="M172.808 162C172.564 161.896 172.257 161.669 172.14 161.726C171.498 162.041 171.143 161.898 170.875 161.338C170.78 161.137 170.369 161.13 170.324 161.338C170.207 162.193 169.666 161.81 168.669 161.81C169.364 162.891 170.08 162.857 169.558 163.424C169.381 163.642 169.289 163.901 169.293 164.165C169.452 164.138 169.645 164.165 169.767 164.082C170.069 163.896 170.398 163.608 170.666 164.034C171.22 164.907 171.138 163.771 172.151 164.122C172.997 164.417 173.007 163.651 172.702 163.501C171.732 162.919 172.426 162.637 172.808 162Z" fill="black"/>
<path d="M181.727 188.982C181.589 188.712 181.483 188.247 181.058 188.368C180.544 188.513 180.846 188.93 180.921 189.254C181.146 190.247 180.966 190.066 180.284 190.458C181.156 191.51 180.682 190.855 180.682 191.818C182.085 191.732 181.294 190.836 182.538 192.219C182.713 191.539 182.588 191.281 183.405 191.115C184.858 190.821 183.458 190.227 182.851 189.336C182.803 189.24 182.222 189.945 181.727 188.982Z" fill="black"/>
<path d="M192.094 175.675C192.261 175.394 190.912 175.203 190.599 174.439C190.506 174.213 190.482 174.231 190.103 173.968C189.671 174.439 189.992 175.19 189.109 175.459C189.21 175.822 189.308 176.18 189.395 176.491C189.043 176.856 189.154 177.04 189.523 177.185C190.161 177.436 190.411 177.942 190.71 177.432C191.01 176.922 191.665 177.488 191.896 177.398C192.047 177.302 192.164 177.171 192.232 177.021C191.681 176.611 191.808 176.162 192.094 175.675Z" fill="black"/>
<path fill-rule="evenodd" clip-rule="evenodd" d="M371.852 224.633C372.878 224.825 373.892 225.079 374.884 225.39C375.242 225.456 375.568 225.608 375.828 225.828C376.088 226.048 376.268 226.327 376.351 226.631C376.433 226.935 376.412 227.254 376.292 227.547C376.17 227.842 375.953 228.103 375.666 228.295C374.247 229.08 372.231 229.073 371.335 229.071C370.841 229.069 370.685 229.069 371.157 229.203C371.496 229.259 371.815 229.386 372.085 229.568C372.358 229.752 372.576 229.985 372.722 230.253C372.868 230.523 372.937 230.815 372.923 231.11C372.913 231.407 372.82 231.695 372.653 231.954C372.104 232.475 371.435 232.895 370.687 233.188C369.942 233.48 369.133 233.639 368.313 233.655C367.6 233.73 367.337 233.73 367.332 233.757C367.324 233.809 368.143 233.952 368.716 234.789C369.783 237.604 361.305 237.461 357.888 237.127C354.268 238.057 350.392 237.955 346.843 236.839C346.347 237.102 345.896 237.42 345.495 237.783C344.32 239.146 342.564 240.064 340.609 240.337C340.071 240.509 339.729 240.931 339.299 241.459C338.19 242.827 336.49 244.923 329.293 245.413C328.71 245.453 328.081 245.871 327.28 246.406C326.007 247.256 324.288 248.402 321.601 248.785C320.378 248.957 319.418 248.887 318.582 248.824C317.524 248.744 316.667 248.681 315.741 249.148C314.009 250.019 312.091 250.586 310.099 250.815C308.109 251.044 306.083 250.933 304.144 250.484C303.409 250.314 302.764 250.661 301.894 251.13C300.64 251.804 298.913 252.732 295.767 252.732C293.719 252.949 291.639 252.65 289.788 251.867C288.992 251.387 288.621 251.48 287.735 251.7C286.57 251.99 284.512 252.505 279.411 252.226C276.411 252.062 274.53 251.026 273.469 250.441C272.721 250.03 272.381 249.842 272.342 250.339C272.198 252.158 272.148 253.174 271.848 254.133C271.389 255.61 270.341 256.955 267.471 260.899C266.997 261.554 267.034 261.699 267.169 262.214C267.325 262.802 267.609 263.875 267.394 266.746C267.323 267.712 267.641 268.068 267.983 268.451C268.715 269.27 269.559 270.216 266.936 277.542C266.333 279.225 265.596 280.86 264.861 282.491C264.4 283.516 263.941 284.537 263.514 285.568C263.185 286.217 262.67 286.784 262.012 287.213C260.784 288.143 259.781 288.156 259.004 288.168C258.503 288.174 258.097 288.179 257.787 288.426C257.622 288.556 257.757 288.694 258.028 288.966C258.545 289.483 259.551 290.492 259.869 292.874C259.689 295.412 258.8 297.877 257.272 300.059C256.784 300.871 256.535 301.236 256.601 301.554C256.667 301.862 257.041 302.123 257.803 302.713C258.848 303.545 259.614 304.604 260.02 305.775C260.426 306.947 260.458 308.19 260.11 309.376C259.514 312.168 257.832 314.706 255.336 316.575C254.659 317.172 255.025 317.394 255.739 317.825C256.736 318.428 258.413 319.44 258.824 322.472C258.765 323.901 258.325 325.3 257.54 326.564C256.755 327.825 255.643 328.918 254.291 329.759C252.932 330.608 253.153 330.794 253.606 331.179C253.649 331.213 253.694 331.252 253.739 331.293C254.895 332.086 255.715 333.18 256.073 334.409C256.431 335.638 256.309 336.933 255.726 338.097C254.58 340.158 252.826 341.93 250.641 343.238C250.248 343.54 250.614 343.926 251.129 344.468C251.821 345.196 252.781 346.203 252.513 347.668C251.41 353.681 248.099 355.425 245.883 356.593C244.939 357.089 244.194 357.482 243.903 358.056C238.347 369.017 214.911 385.383 198.582 396.787C189.059 403.437 181.953 408.4 182.222 409.618C183.362 414.787 179.558 428.207 176.147 429.089C175.814 429.175 175.692 429.307 175.54 429.468C175.21 429.819 174.738 430.323 171.68 430.86C163.003 432.387 148.815 411.575 145.496 404.022L145.264 403.494C141.247 394.347 140.471 392.58 143.905 390.641C144.597 390.251 144.905 389.498 145.292 388.552C145.904 387.053 146.712 385.075 149.56 383.299C153.809 380.648 154.094 379.416 154.607 377.196C155.287 374.252 156.369 369.571 167.616 357.548C171.963 352.898 175.292 349.911 182 343.892C182.963 343.027 183.995 342.1 185.11 341.097C185.633 340.628 185.553 340.585 184.91 340.231C184.417 339.961 183.594 339.507 182.458 338.544C180.82 337.156 181.631 335.754 182.708 333.887C182.84 333.658 182.977 333.422 183.113 333.18C183.654 332.213 183.48 332.148 182.566 331.801C181.688 331.467 180.128 330.875 177.863 328.977C175.357 326.877 176.296 324.291 177.792 321.116C178.303 320.029 177.814 319.712 174.605 317.632C174.501 317.564 174.395 317.494 174.285 317.423C171.25 315.45 170.994 313.502 170.847 312.384C170.754 311.674 170.705 311.297 170.022 311.456C168.335 311.846 166.825 311.973 165.535 312.082C163.187 312.282 161.572 312.418 160.966 313.969C160.829 314.325 160.754 314.772 160.668 315.278C160.372 317.026 159.954 319.496 156.457 321.485C155.061 322.277 154.169 322.327 151.111 322.504C150.881 322.517 150.639 322.531 150.382 322.547C149.414 322.604 149.409 322.617 149.547 323.425C150.045 326.305 148.162 329.251 141.265 329.841C140.742 329.886 140.752 330.213 140.769 330.71C140.81 331.953 140.887 334.273 132.74 335.981L132.709 335.987C131.344 336.271 130.427 336.461 130.148 337.217C129.649 338.251 128.836 339.154 127.792 339.827C126.748 340.503 125.512 340.925 124.212 341.054C122.896 341.292 122.447 341.771 121.79 342.472C121.142 343.161 120.291 344.069 118.203 345.173C83.9716 363.274 75.2788 365.81 71.1948 367.001C68.9204 367.663 68.0756 367.91 65.045 370.197C59.1058 374.671 44.7551 382.644 38.6806 382.945C31.0066 383.324 25.8871 375.198 29.9005 366.028C34.9702 354.449 41.4269 350.496 44.8636 348.391C46.0247 347.682 46.8411 347.183 47.1425 346.67C54.265 334.563 65.4081 323.125 70.6974 317.696C71.8654 316.496 72.7482 315.591 73.2389 315.035C75.3705 312.624 77.0653 311.969 78.285 311.497C79.2343 311.132 79.8962 310.875 80.2524 309.989C80.6267 309.043 81.2527 308.186 82.0814 307.48C82.9101 306.777 83.9186 306.249 85.0271 305.936C85.8171 305.716 85.8128 305.695 85.6436 304.938L85.6346 304.897C85.3314 303.488 85.4521 302.035 85.9847 300.676C86.141 300.451 86.429 300.232 86.7399 299.996C87.6015 299.34 88.6413 298.551 87.5577 297.104C86.8914 294.135 87.1988 291.064 88.4464 288.236C89.2867 286.004 91.1151 285.201 92.5205 284.586C93.5821 284.121 94.402 283.763 94.3723 282.972C94.1972 278.435 94.3696 273.763 98.7889 271.178C100.095 270.413 101.069 269.953 101.792 269.61C103.169 268.957 103.637 268.737 103.76 267.669C103.838 266.986 103.881 266.324 103.924 265.675C104.138 262.393 104.326 259.504 108.917 256.36C109.313 256.091 109.657 255.886 109.934 255.725C110.677 255.29 110.928 255.142 110.381 254.718C109.85 254.306 109.426 253.947 109.075 253.652C108.26 252.965 107.841 252.614 107.389 252.663C106.904 252.718 106.38 253.237 105.292 254.319C104.51 255.095 103.437 256.161 101.877 257.551C96.1018 262.697 84.8733 244.807 87.3694 239.298C88.9291 236.127 90.7756 233.067 92.8921 230.142C94.594 228.887 94.5277 227.341 94.4129 224.671C94.1054 217.513 93.4508 202.276 125.548 162.928C132.108 154.916 139.193 147.227 146.769 139.9C170.434 116.938 192.842 116.972 200.87 116.984C202.847 116.987 203.952 116.989 203.989 116.646C204.183 116.109 204.208 115.538 204.062 114.99C203.915 114.442 203.603 113.937 203.156 113.525C199.376 109.896 202.766 96.215 209.87 92.6587C210.6 92.2931 211.108 91.5889 211.844 90.5667C213.265 88.5957 215.537 85.4436 221.897 81.2617C227.194 78.1819 233.345 76.3455 239.733 75.9363C253.611 74.1967 269.562 80.6539 277.631 88.9799C282.565 94.0697 283.223 97.7598 283.613 99.9494C283.753 100.739 283.859 101.334 284.119 101.729C291.265 112.563 286.326 127.517 278.769 133.203C277.161 134.413 276.779 135.469 276.273 136.868C275.564 138.833 274.61 141.473 269.668 146.162C268.028 147.721 266.453 148.501 265.551 148.949C264.503 149.468 264.355 149.543 266.031 149.864C270.251 150.674 271.564 152.91 272.562 154.61C273.241 155.766 273.774 156.674 274.976 156.72C277.352 157.608 279.384 159.057 280.833 160.896C282.281 162.736 283.085 164.891 283.154 167.108C283.122 167.639 283.443 167.812 284.223 168.232C284.825 168.558 285.708 169.033 286.915 169.941C288.265 171.033 289.233 172.425 289.711 173.961C290.188 175.497 290.159 177.117 289.621 178.639C289.332 179.428 289.987 180.153 290.865 181.123C292.146 182.539 293.897 184.477 293.878 187.901C293.873 189.002 293.618 189.73 293.417 190.317C293.098 191.231 292.899 191.802 293.934 192.907C298.441 197.707 296.74 200.649 295.695 202.46C295.183 203.346 294.828 203.962 295.43 204.392C297.088 205.461 298.332 206.929 299.006 208.609C299.677 210.288 299.746 212.101 299.202 213.814C299.027 214.649 299.385 214.672 300.3 214.73C301.061 214.778 302.205 214.851 303.751 215.433C304.942 215.882 305.635 216.225 306.099 216.454C306.826 216.815 306.998 216.901 307.666 216.688C309.314 216.152 311.099 216.016 312.831 216.291C314.561 216.567 316.171 217.245 317.481 218.25C317.675 218.4 317.858 218.563 318.041 218.724C318.773 219.38 319.481 220.012 320.85 219.638C323.691 219.418 326.516 220.171 328.707 221.732C328.842 221.861 329.023 221.949 329.222 221.986C329.421 222.022 329.627 222.004 329.813 221.934C332.124 221.196 333.964 222.106 335.248 222.741C335.943 223.086 336.474 223.349 336.827 223.222C337.763 223.034 338.734 223.006 339.681 223.142C340.63 223.281 341.535 223.578 342.347 224.02C343.076 220.534 345.013 217.314 347.904 214.776C348.177 214.525 348.522 214.342 348.907 214.246C349.291 214.15 349.697 214.144 350.084 214.229C351.249 214.602 351.238 216.486 350.904 218.393C350.145 218.919 349.464 219.393 348.851 219.822C349.737 215.978 349.904 213.898 346.681 218.11C345.609 219.677 344.819 221.355 344.32 223.088C344.124 223.247 343.962 223.387 343.832 223.51C343.288 224.016 342.973 224.392 343.787 225.767C343.546 227.912 343.739 230.096 344.379 232.221C344.692 233.101 345.262 233.898 346.034 234.537C346.808 235.174 347.758 235.635 348.798 235.871C351.657 236.576 354.681 236.633 357.573 236.036C357.841 236.036 358.27 236.054 358.801 236.077C361.146 236.182 365.512 236.37 367.228 235.447C367.361 235.356 367.472 235.277 367.472 235.193C366.459 234.156 361.748 233.9 360.05 233.807C359.886 233.798 359.748 233.791 359.647 233.784C359.453 233.773 359.27 233.693 359.143 233.569C359.016 233.442 358.952 233.278 358.968 233.113C358.981 232.945 359.071 232.791 359.22 232.682C359.366 232.573 359.56 232.519 359.753 232.53C363.374 232.825 367.029 232.575 370.549 231.788C372.648 230.872 370.568 230.294 369.334 230.008C367.841 229.638 366.31 229.389 364.767 229.264C365.127 229.03 365.475 228.806 365.806 228.586C366.032 228.436 366.255 228.289 366.475 228.146C368.162 228.173 370.427 228.116 373.454 227.778H373.443C374.051 227.717 374.982 227.563 375.056 227.116C375.202 226.336 372.472 225.828 370.409 225.572C370.913 225.243 371.393 224.93 371.852 224.633ZM265.172 147.14C269.331 144.527 272.477 140.909 274.206 136.752L274.228 136.75C274.32 136.557 274.116 136.308 273.747 136.412C270.238 137.929 266.389 138.789 262.461 138.936C244.829 140.17 227.611 131.545 220.764 119.204C219.641 117.176 219.212 115.735 218.959 114.89C218.687 113.975 218.621 113.756 218.111 114.242C217.995 114.352 217.862 114.491 217.71 114.649C216.582 115.819 214.458 118.026 211.016 117.476C209.428 117.14 207.877 116.689 206.379 116.129C205.777 116.027 205.833 117.22 205.931 117.694C208.764 131.159 215.016 136.605 225.706 141.894C234.514 146.175 244.319 148.741 254.42 149.408C255.195 149.336 255.922 149.277 256.601 149.221C260.384 148.91 262.829 148.71 265.172 147.14ZM238.114 152.083C227.645 149.717 216.782 147.262 212.424 138.641L212.453 138.623C211.916 137.722 211.653 136.72 211.69 135.709C211.7 135.254 211.779 135.067 211.769 134.884C211.749 134.524 211.384 134.179 209.483 131.853C208.578 131.536 207.581 131.461 206.625 131.638C205.67 131.816 204.799 132.237 204.13 132.846C202.501 135.139 203.848 139.267 205.44 141.393C208.018 145.26 211.788 148.447 216.34 150.608C228.618 157.004 257.145 163.17 260.76 151.302C260.925 150.76 260.705 150.549 260.092 150.621C260.044 150.627 259.962 150.635 259.856 150.646C259.047 150.724 256.784 150.945 256.336 151.472C255.033 153.005 250.579 153.765 248.341 153.611C245.49 153.361 242.656 152.982 239.852 152.477C239.275 152.345 238.695 152.214 238.114 152.083ZM213.902 136.756C214.224 136.932 214.532 137.127 214.822 137.339C222.032 143.277 235.616 148.321 244.797 149.973C247.017 150.373 249.362 150.594 251.147 150.763C254.805 151.107 256.118 151.231 249.216 152.22C239.904 151.591 230.831 149.39 222.52 145.743C215.428 142.456 213.401 137.326 213.902 136.756ZM216.544 93.5251C216.268 93.4117 216.029 93.6068 216.223 93.8858V93.9016C219.125 98.0454 217.093 105.696 214.281 110.005C213.111 111.996 211.327 113.677 209.122 114.865C208.44 115.348 209.796 115.773 210.652 115.999C211.233 116.227 211.876 116.316 212.511 116.255C213.146 116.194 213.75 115.987 214.257 115.655C218.6 112.5 221.393 105.562 221.337 100.443C221.303 97.154 220.812 94.8996 216.544 93.5251ZM247.723 117.573C248.301 117.335 248.892 117.125 249.5 116.945V116.956C249.656 116.915 249.824 116.905 249.985 116.927C250.147 116.949 250.301 117.003 250.434 117.085C250.566 117.167 250.678 117.274 250.755 117.398C250.831 117.522 250.871 117.66 250.877 117.8C250.715 119.277 250.243 120.716 249.487 122.051C247.699 126.381 244.934 129.368 243.139 131.307C241.669 132.895 240.85 133.78 241.754 134.123C244.963 135.323 248.309 136.235 251.739 136.845C252.025 136.901 252.328 136.872 252.59 136.761C252.855 136.65 253.068 136.466 253.192 136.237C262.102 124.192 264.065 113.507 263.843 109.622C263.797 108.896 263.089 109.511 262.232 110.252C260.742 111.546 258.808 113.223 259.211 108.801C260.11 102.775 260.466 96.6988 260.272 90.6266C260.27 90.5739 260.267 90.5234 260.264 90.4748C260.211 89.5277 260.203 89.3573 252.67 89.0208C251.614 89.023 250.572 89.0888 249.51 89.1682C248.755 89.2238 248.842 89.6805 249.068 90.8599C249.237 91.7511 249.487 93.0543 249.51 94.9086C249.664 106.802 246.996 113.326 245.78 116.295C244.822 118.638 244.769 118.767 247.723 117.573ZM250.611 77.6895C243.505 76.6803 230.932 78.0229 223.504 82.4116L223.491 82.423C219.634 84.7024 214.475 89.2113 213.695 91.6336C215.358 91.6116 217.001 91.9361 218.484 92.5796C219.967 93.223 221.244 94.1656 222.204 95.326C222.71 96.0207 223.638 95.4571 225.428 94.37C229.21 92.0738 236.839 87.4417 252.463 87.3878C257.153 87.4021 261.811 88.0623 266.256 89.3428C274.469 91.6562 277.997 95.1234 279.936 97.0279C280.665 97.7451 281.169 98.2406 281.612 98.3697C281.082 96.2992 280.106 94.3314 278.729 92.568C271.983 84.6631 261.896 79.3241 250.611 77.6895ZM214.751 94.9291C211.777 89.9892 203.525 100.132 203.708 107.973L203.695 107.984C203.83 114.056 206.607 114.695 209.063 113.074C214.308 109.585 217.562 99.5922 214.751 94.9291ZM100.566 256.324C102.23 254.925 103.744 253.398 105.089 251.768L105.076 251.779C105.829 250.851 105.821 250.826 105.07 249.958C98.5173 242.548 96.7912 236.721 95.8235 233.458C95.4471 232.187 95.1856 231.303 94.7994 230.865C92.3269 234.084 90.2891 237.529 88.7249 241.139C89.7108 246.186 92.2322 250.924 96.0355 254.875C96.662 255.496 97.383 256.041 98.1788 256.499C98.5369 256.717 98.973 256.816 99.4099 256.785C99.8468 256.753 100.257 256.59 100.566 256.324ZM102.675 199.963C97.6276 208.851 95.5267 218.751 96.6005 228.59L96.5766 228.602C97.8127 241.929 112.824 257.753 114.262 253.237C114.192 250.3 114.93 247.388 116.416 244.739C119.507 240.291 122.017 239.25 123.092 238.803C123.69 238.556 123.843 238.493 123.405 238.128C122.613 237.438 122.108 236.547 121.968 235.587C121.829 234.628 122.062 233.657 122.633 232.823C123.416 231.255 124.098 229.86 124.704 228.62C128.522 220.806 129.352 219.11 133.573 219.232C134.236 219.25 134.23 218.967 134.212 218.15C134.198 217.552 134.179 216.667 134.411 215.408C135.233 210.977 136.941 208.819 138.197 207.23C139.068 206.129 139.723 205.302 139.716 204.181C139.628 199.801 140.567 195.45 142.477 191.385C143.028 189.895 143.884 188.501 145.005 187.269C145.342 186.956 145.581 186.575 145.699 186.162C145.817 185.749 145.81 185.318 145.679 184.907C145.029 181.548 146.177 179.656 147.036 178.24C147.628 177.265 148.082 176.515 147.716 175.667C146.993 173.754 146.861 171.713 147.335 169.743C147.808 167.773 148.87 165.942 150.417 164.427C151.471 163.516 151.441 163.185 151.351 162.185C151.28 161.401 151.173 160.205 151.523 157.995C151.731 156.691 152.335 155.457 153.274 154.416C154.214 153.374 155.457 152.562 156.879 152.059C157.926 151.648 157.941 151.331 157.989 150.363C158.012 149.891 158.043 149.264 158.205 148.396C158.353 146.905 159.01 145.484 160.096 144.311C161.182 143.137 162.648 142.262 164.311 141.796C165.44 141.356 166.345 140.703 167.277 140.03C169.046 138.752 170.911 137.405 174.582 137.319C175.447 137.423 176.326 137.396 177.179 137.24C177.952 136.829 178.642 136.313 179.221 135.713C181.735 133.75 184.298 133.95 186.489 134.121C188.242 134.257 189.758 134.376 190.819 133.352C192.885 131.372 198.05 131.581 200.681 132.602C201.852 133.053 202.047 132.781 202.313 132.411C202.379 132.32 202.448 132.223 202.538 132.13C203.15 131.492 203.932 130.989 204.817 130.661C205.702 130.333 206.666 130.189 207.628 130.243C208.528 130.289 208.485 130.213 207.973 129.306C207.422 128.329 206.326 126.387 205.275 122.593C204.241 118.859 204.175 118.757 203.419 118.712C202.14 118.632 200.866 118.535 199.482 118.43L199.039 118.397C185.771 119.519 174.561 123.13 173.704 124.019C174.466 124.229 175.262 124.338 176.062 124.344C182.612 124.402 190.861 127.634 191.254 128.939C190.055 128.624 188.895 128.209 187.792 127.698C184.19 126.46 171.425 124.484 168.391 126.337C160.836 130.517 153.968 135.54 147.966 141.272C132.435 155.876 112.415 180.768 102.675 199.963ZM147.436 206.064C146.793 205.085 145.84 203.635 145.358 200.727C144.958 197.289 145.591 193.821 147.196 190.65C147.083 189.897 146.755 189.179 146.242 188.559C143.001 193.366 141.405 198.854 141.634 204.399C141.644 205.625 141.128 206.811 140.183 207.733C137.517 211.2 136.113 215.265 136.151 219.414C135.912 220.924 135.117 221.695 134.551 222.244C133.986 222.793 133.65 223.12 134.329 223.739C139.785 229.033 145.994 233.721 152.812 237.697C152.874 237.733 152.936 237.785 152.999 237.839C153.183 237.994 153.375 238.157 153.608 237.964C154.5 237.236 152.191 235.374 151.12 234.51C151.048 234.451 150.981 234.397 150.921 234.349C149.537 233.222 149.579 232.376 149.624 231.478C149.665 230.668 149.708 229.817 148.711 228.679C148.013 227.622 147.632 226.433 147.6 225.22C147.569 224.007 147.89 222.805 148.533 221.723C149.176 220.573 149.038 220.353 148.8 219.969L148.799 219.967C146.433 216.145 144.846 213.04 147.801 208.371C148.365 207.479 148.034 206.975 147.436 206.064ZM186.578 272.123C186.6 271.888 186.623 271.638 186.702 271.427V271.42C190.429 261.69 193.121 259.747 192.713 258.914C192.446 258.37 190.85 258.302 187.344 256.837C172.766 250.733 172.088 249.935 171.222 249.738C171.053 249.699 170.877 249.683 170.59 249.656C169.576 249.676 168.571 249.49 167.658 249.114C166.745 248.737 165.95 248.18 165.338 247.488C164.087 246.415 162.937 246.161 161.739 245.896C160.11 245.535 158.394 245.156 156.221 242.673C154.672 240.901 153.535 240.18 151.41 238.833C149.073 237.35 145.542 235.111 138.955 229.883C131.964 224.331 132.182 222.802 132.313 221.89C132.354 221.602 132.387 221.378 132.183 221.106C131.846 221.147 131.525 221.253 131.243 221.416C130.962 221.58 130.728 221.797 130.559 222.049C129.583 223.462 128.745 224.943 128.053 226.474C125.509 232.269 123.906 234.31 124.303 236.014C124.703 237.731 127.142 239.103 132.708 243.637C148.495 255.687 166.38 265.562 185.72 272.908C186.481 273.171 186.526 272.684 186.578 272.123ZM222.297 267.456C221.97 266.694 217.502 267.234 195.113 259.486V259.47C194.337 259.207 193.642 260.817 192.542 263.366C191.421 265.963 189.88 269.536 187.405 273.09C187.211 273.366 187.171 273.584 187.588 273.732C196.399 276.936 205.451 279.633 214.684 281.803C215.333 281.808 215.446 281.554 215.989 280.338C216.365 279.497 216.948 278.193 218.058 276.19C219.464 273.65 220.825 271.096 221.966 268.456C222.193 267.93 222.381 267.651 222.297 267.456ZM162.636 244.21C163.959 244.533 165.215 244.841 166.266 245.877L166.258 245.866C167.77 247.363 169.534 248.363 174.686 247.59C174.961 247.551 175.216 247.438 175.414 247.27C175.612 247.1 175.743 246.882 175.789 246.646C176.351 244.875 176.672 243.051 176.744 241.217C176.549 237.948 175.78 234.725 174.463 231.654C173.24 228.86 171.22 226.37 168.587 224.413C165.953 222.453 162.79 221.09 159.383 220.441C157.385 219.967 151.693 219.582 151.144 220.874C151.015 221.176 150.875 221.482 150.732 221.791C149.837 223.734 148.884 225.805 150.674 227.958C151.158 228.502 151.506 229.123 151.697 229.788C151.887 230.45 151.915 231.14 151.78 231.813C151.711 232.505 151.919 232.7 153.65 234.31C154.029 234.662 154.479 235.082 155.016 235.59C155.696 236.231 155.678 236.519 155.652 236.966C155.619 237.506 155.573 238.277 156.717 240.18C158.539 243.206 160.663 243.725 162.636 244.21ZM41.9487 352.204C40.2536 352.238 30.2188 363.612 29.7997 373.268C30.9323 380.194 35.967 382.499 40.5375 381.151C40.4096 380.825 40.1937 380.834 39.8799 380.845C39.6403 380.854 39.3438 380.866 38.9857 380.732C33.6831 378.763 31.8448 374.633 32.3992 369.811C33.0969 363.776 36.9708 358.716 40.6587 353.898C41.0932 353.329 41.525 352.767 41.9487 352.204ZM123.907 339.578C125.134 339.276 126.504 338.938 128.19 337.659C128.932 337.094 128.272 337.053 126.607 336.945C122.66 336.686 113.063 336.062 103.134 327.246C94.9957 320.041 92.0184 315.3 89.7406 311.674C88.7042 310.023 87.8124 308.603 86.6452 307.287C86.1731 306.752 83.0589 307.775 82.0562 310.247C81.3713 311.928 80.3317 312.391 79.0362 312.967C77.7783 313.527 76.2793 314.194 74.6289 316.187C74.5758 316.237 59.5461 332.354 56.2728 336.373C54.0769 339.074 52.7761 341.134 51.6015 342.993C50.5739 344.622 49.6428 346.096 48.2937 347.713C48.2364 347.781 48.0786 347.954 47.8385 348.217C45.5284 350.737 35.606 361.56 34.4046 368.353C33.4285 373.884 35.2614 379.024 41.694 379.496C48.9887 379.273 60.631 371.578 64.8328 368.457C67.1058 366.767 68.2782 366.386 70.7759 365.574C74.9501 364.22 82.8263 361.662 105.728 349.782L106.398 349.435C117.851 343.497 119.118 342.842 120.19 341.601C121.408 340.192 122.573 339.907 123.907 339.578ZM154.841 416.234C157.94 420.65 164.953 429.245 170.937 429.788C172.294 429.529 172.936 429.468 172.971 429.309C173.119 428.629 161.946 426.145 148.029 398.187C145.655 393.401 145.401 391.766 144.925 391.716C144.727 391.695 144.491 391.947 144.05 392.362C142.841 393.508 142.814 394.013 143.106 394.751C145.97 402.296 149.912 409.513 154.841 416.234ZM182.396 405.987C182.427 405.966 182.458 405.943 182.49 405.921H182.495C182.644 405.816 183.014 405.56 183.577 405.175C191.672 399.604 239.562 366.647 241.643 358.285C237.378 359.199 232.905 359.122 228.687 358.058C219.28 356.11 211.61 352.54 205.608 349.746C203.064 348.559 200.819 347.516 198.869 346.792C193.563 344.826 190.996 343.377 189.557 342.565C187.779 341.562 187.723 341.531 186.349 342.694C159.831 365.148 157.403 374.098 156.18 378.609C155.637 380.611 155.332 381.739 153.263 382.784C149.965 384.501 147.483 387.157 146.255 390.287C146.73 391.99 152.958 404.106 154.26 406.123C159.311 413.941 162.945 419.452 170.386 425.664C171.743 426.925 173.593 427.721 175.587 427.898C176.874 427.73 180.877 419.928 180.739 409.452C180.713 407.461 180.018 407.089 179.365 406.74C179.164 406.633 178.967 406.526 178.794 406.377C177.648 405.376 173.338 400.972 174.765 400.291C175.358 400.008 175.989 400.784 176.846 401.838C177.191 402.262 177.574 402.734 178.007 403.199C181.306 406.758 181.384 406.703 182.396 405.987ZM254.651 314.772C258.163 311.52 260.158 306.221 255.951 303.559L255.877 303.547C253.736 302.193 254.816 300.34 256.081 298.163C257.527 295.682 259.216 292.781 256.673 289.712C256.023 288.93 255.964 288.594 255.744 288.465C255.187 288.143 253.601 289.127 239.133 287.719C201.31 284.035 162.022 268.109 134.886 247.801C131.166 245.018 128.984 243.185 127.6 242.026C125.231 240.039 125.202 240.015 123.808 240.529C120.839 241.972 118.578 244.283 117.442 247.036C116.426 249.495 116.283 251.194 116.18 252.423C116.051 253.965 115.984 254.764 114.32 255.387C112.192 256.222 110.271 257.399 108.662 258.853C106.211 261.003 106.064 263.255 105.898 265.793C105.852 266.494 105.805 267.218 105.707 267.966C105.492 269.606 105.017 270.234 101.741 271.595C96.5928 273.745 96.5856 277.329 96.5793 280.425C96.574 282.924 96.5697 285.104 93.855 285.947C92.9863 286.201 92.2035 286.632 91.5751 287.204C90.9467 287.778 90.4918 288.472 90.2501 289.229C89.1039 291.921 88.9437 294.849 89.7912 297.621C90.1591 298.63 90.3337 299.027 90.2146 299.345C90.0947 299.662 89.679 299.898 88.8655 300.592C85.8335 303.178 87.9198 306.147 90.6801 310.077C91.2284 310.857 91.803 311.676 92.3696 312.536C96.123 318.235 104.993 327.482 111.312 330.884C120.71 335.94 129.183 335.729 129.88 335.135C130.429 334.658 131.088 334.549 132.105 334.379C133.201 334.198 134.711 333.946 136.947 333.093C138.899 332.347 138.772 331.261 138.649 330.202C138.632 330.063 138.616 329.925 138.605 329.787C138.48 328.324 139.186 328.285 140.751 328.197C141.349 328.163 142.072 328.122 142.923 327.993C147.716 327.264 147.566 325.142 147.444 323.418C147.355 322.166 147.282 321.123 149.128 320.977C149.811 320.923 150.438 320.887 151.017 320.855C153.943 320.687 155.637 320.592 157.274 318.569C158.315 317.283 158.564 315.99 158.788 314.826C159.144 312.98 159.437 311.461 162.73 310.807C164.449 310.467 165.762 310.34 166.866 310.231C170.22 309.903 171.648 309.764 176.667 304.457C181.431 299.417 188.275 299.302 188.026 300.751C187.921 301.363 187.414 301.359 186.721 301.354C186.359 301.35 185.946 301.347 185.514 301.431C180.862 302.341 179.25 304.226 177.527 306.24C176.476 307.469 175.384 308.746 173.537 309.878C173.123 310.132 172.569 310.606 172.569 310.955C172.582 314.207 175.266 315.999 177.443 317.455C179.214 318.639 180.649 319.598 180.036 320.934C179.905 321.218 179.805 321.538 179.655 322.016C179.441 322.699 179.126 323.704 178.473 325.4C178.216 326.071 178.479 327.437 180.489 328.707C183.554 330.644 185.305 330.825 185.717 331.56C186.066 332.182 185.452 333.198 183.858 336.015C183.83 336.065 183.803 336.11 183.776 336.155C183.369 336.833 183.216 337.09 187.285 339.174C196.896 344.084 215.732 352.966 226.544 355.699C237.321 358.423 242.116 356.257 245.517 354.719L245.712 354.631C247.991 353.281 249.566 351.227 250.097 348.9C250.516 348.169 250.595 347.328 250.32 346.548C250.044 345.77 249.434 345.107 248.611 344.697C246.858 343.631 248.15 342.674 249.951 341.34C251.293 340.344 252.919 339.14 253.773 337.525C255.078 335.06 253.71 333.787 252.139 332.329C251.837 332.046 251.526 331.755 251.224 331.449C250.216 330.426 251.221 329.705 252.643 328.689C254.1 327.648 255.988 326.294 256.59 323.985C256.962 323.028 256.911 321.987 256.447 321.061C255.98 320.134 255.134 319.385 254.068 318.957C251.137 317.882 252.139 316.999 253.845 315.496C254.1 315.271 254.373 315.031 254.651 314.772ZM261.463 284.754C263.32 280.944 264.935 277.05 266.296 273.087H266.251C266.493 272.139 266.62 271.173 266.633 270.202C266.641 270.118 266.58 270.028 266.522 269.937C266.493 269.892 266.461 269.846 266.439 269.801C266.012 270.075 265.763 270.37 265.527 270.649C265.302 270.919 265.089 271.171 264.744 271.368C262.317 272.749 260.577 272.65 256.314 272.4C255.97 272.38 255.606 272.357 255.224 272.337C245.01 271.298 234.87 269.778 224.852 267.785C224.481 267.708 224.285 267.66 224.152 267.719C223.852 267.85 223.877 268.522 222.958 270.617C219.079 279.474 216.438 281.425 216.827 282.101C217.016 282.427 217.918 282.457 219.738 282.826C225.616 284.033 259.19 289.563 261.463 284.754ZM282.398 250.829C284.042 250.824 285.679 250.656 287.278 250.33L287.247 250.321C289.57 250.15 288.467 237.47 278.461 231.013C278.339 230.935 278.228 230.827 278.116 230.72C277.676 230.291 277.26 229.89 276.421 231.571C276.318 231.781 276.358 232.301 276.413 233.049C276.58 235.24 276.899 239.402 274.214 243.591C271.723 247.479 271.806 247.542 272.867 248.223C275.525 250.121 278.944 251.055 282.398 250.829ZM340.129 238.815C341.461 238.533 343.15 238.177 344.448 236.59L344.373 236.574C344.721 236.05 344.432 235.644 343.93 234.945C343.389 234.188 342.601 233.09 342.108 231.131C341.66 229.375 341.588 227.563 341.904 225.787C341.28 225.617 340.734 225.42 340.235 225.238C338.909 224.757 337.93 224.401 336.797 225.045C336.142 225.417 335.67 225.093 335.039 224.658C334.816 224.506 334.577 224.34 334.301 224.186C332.153 223 331.163 223.274 330.296 223.514C329.466 223.746 328.747 223.945 327.232 222.825C324.858 221.067 322.728 221.199 320.969 221.308C319.492 221.401 318.274 221.475 317.394 220.398C317.022 220.053 316.603 219.747 316.144 219.491C315.096 218.6 313.749 218.012 312.29 217.812C310.831 217.615 309.335 217.812 308.017 218.382C307.648 218.563 307.221 218.638 306.796 218.597C306.375 218.556 305.977 218.402 305.664 218.155C301.072 215.058 297.292 216.545 295.181 217.375C294.348 217.704 293.775 217.928 293.515 217.729C293.019 217.334 293.886 216.288 294.751 215.914C295.194 215.724 295.568 215.572 295.881 215.444C297.22 214.897 297.457 214.8 297.457 214.1C297.449 213.576 297.47 213.074 297.491 212.588C297.594 210.151 297.679 208.112 294.051 205.631C292.966 204.887 292.82 204.606 293.295 203.444C293.515 202.904 293.74 202.41 293.95 201.949C294.698 200.306 295.258 199.077 294.751 197.627C293.852 195.797 292.727 194.056 291.39 192.433C291.005 191.768 291.249 190.795 291.517 189.734C291.777 188.699 292.061 187.58 291.798 186.584C290.963 183.492 289.668 182.336 288.721 181.489C287.939 180.792 287.395 180.305 287.536 179.119C287.597 178.602 287.687 178.134 287.774 177.689C288.093 176.06 288.347 174.744 286.827 172.458C285.666 170.709 284.26 170.087 283.14 169.592C281.979 169.076 281.124 168.699 281.177 167.335C281.257 165.005 280.318 162.734 278.543 160.966C276.079 158.478 274.461 158.186 273.368 157.989C272.453 157.823 271.907 157.725 271.543 156.457C271.026 155.076 270.143 153.816 268.965 152.774C267.418 151.726 265.53 151.118 263.559 151.036C262.713 150.934 262.67 151.036 262.405 151.717C260.033 157.757 254.07 159.641 246.709 159.415C232.218 158.979 214.382 154.098 205.594 144.375C202.226 140.648 201.989 137.806 201.845 136.082C201.763 135.096 201.711 134.476 201.121 134.266C199.36 133.624 197.466 133.289 195.551 133.28C193.146 133.294 192.272 134.014 191.531 134.626C190.942 135.112 190.436 135.529 189.315 135.471C187.555 135.276 185.775 135.252 184.009 135.4C181.421 135.599 180.394 136.579 179.512 137.42C178.813 138.087 178.205 138.667 176.985 138.705C175.066 138.526 173.124 138.745 171.325 139.342C169.717 139.907 168.941 140.624 168.223 141.288C167.464 141.989 166.77 142.632 165.224 142.971C164.14 143.155 163.135 143.585 162.314 144.216C161.492 144.848 160.886 145.657 160.558 146.559C159.954 148.027 159.863 149.202 159.789 150.166C159.675 151.644 159.6 152.625 157.767 153.402C152.98 155.432 153.257 158.649 153.483 161.271C153.618 162.837 153.735 164.192 152.743 164.955C151.35 166.084 150.306 167.49 149.704 169.048C149.103 170.606 148.962 172.267 149.295 173.882C149.365 174.225 149.48 174.573 149.595 174.924C149.949 175.993 150.31 177.087 149.433 178.133C146.507 181.617 147.671 185.477 148.82 189.144C148.859 189.267 148.899 189.38 148.939 189.489C149.198 190.201 149.393 190.737 148.422 192.841C147.434 194.985 147.045 197.297 147.288 199.592C147.531 201.887 148.398 204.102 149.82 206.059C150.605 207.14 150.096 208.214 149.475 209.524C148.505 211.571 147.26 214.197 150.239 218.336C150.609 218.851 150.849 218.801 151.689 218.629C152.403 218.484 153.55 218.248 155.579 218.194C159.76 218.559 159.77 218.584 159.799 218.647C159.815 218.686 159.838 218.736 160.688 218.874C164.446 219.752 167.886 221.423 170.693 223.732C178.081 229.856 179.492 242.754 176.985 247.114C176.943 247.188 176.92 247.272 176.915 247.354C176.911 247.438 176.925 247.522 176.959 247.601C176.993 247.681 177.044 247.751 177.111 247.814C177.177 247.876 177.257 247.926 177.346 247.96C178.881 248.957 180.71 249.574 182.629 249.74C184.548 249.908 186.483 249.617 188.222 248.903C190.768 247.991 192.398 248.402 193.983 248.801C195.681 249.23 197.328 249.642 199.997 248.404C202.904 247.052 203.612 246.794 204.79 246.794C206.974 247.07 209.205 246.812 211.223 246.048C212.188 245.49 212.891 244.995 213.487 244.576C214.887 243.591 215.699 243.02 217.931 243.02C223.097 243.033 224.861 241.344 226.444 239.829C227.815 238.515 229.048 237.334 232.234 237.502C236.215 237.712 237.359 236.408 238.442 235.174C239.286 234.215 240.093 233.294 242.173 233.163C245.095 232.968 247.845 231.902 249.943 230.151C250.02 229.91 249.892 229.688 249.688 229.332C249.184 228.456 248.224 226.78 248.683 222.086C248.749 221.416 248.532 221.382 247.956 221.289C247.41 221.203 246.534 221.063 245.266 220.271C242.684 218.658 241.304 218.978 240.037 219.273C238.995 219.514 238.028 219.74 236.529 218.854C236.101 218.602 235.705 218.316 235.317 218.035C234.032 217.107 232.832 216.241 230.815 216.824C229.798 217.146 228.688 217.189 227.641 216.946C226.595 216.701 225.663 216.182 224.979 215.463C224.239 214.951 223.403 214.549 222.507 214.274C221.893 214.01 221.588 214.091 220.904 214.273C220.467 214.389 219.875 214.546 218.95 214.68C216.859 214.983 216.186 214.341 215.591 213.773C215.438 213.627 215.29 213.486 215.125 213.367C212.926 211.789 211.664 212.095 210.441 212.392C210.147 212.463 209.856 212.534 209.554 212.578C208.389 212.744 207.903 212.56 207.087 212.25C206.634 212.078 206.08 211.867 205.252 211.657C203.073 211.106 202.402 211.239 201.427 211.432C200.961 211.524 200.426 211.63 199.625 211.682C199.482 211.702 199.334 211.676 199.212 211.609C199.089 211.542 199 211.438 198.961 211.319C198.922 211.199 198.936 211.071 199 210.959C199.064 210.847 199.175 210.76 199.31 210.713C200.058 210.294 200.901 210.013 201.784 209.89C202.666 209.768 203.57 209.806 204.435 210.001C205.545 210.154 205.807 209.535 206.279 208.42C206.425 208.075 206.591 207.684 206.809 207.252C207.228 206.418 206.652 205.737 205.986 205.057C205.158 204.205 205.649 203.584 206.564 202.429C206.786 202.149 207.033 201.837 207.291 201.482C209.172 198.898 207.082 196.803 205.961 195.681C205.794 195.514 205.648 195.368 205.541 195.245C204.844 194.449 205.362 193.562 206.038 192.405C207.134 190.531 208.644 187.949 206.053 183.905C204.682 181.766 205.355 180.514 206.172 178.995C206.655 178.097 207.188 177.106 207.379 175.783C207.965 171.726 205.622 169.772 203.849 168.294C202.749 167.377 201.869 166.643 202.045 165.704C202.156 165.106 202.276 164.543 202.39 164.005C202.892 161.642 203.288 159.775 202.437 157.734C200.684 153.532 198.903 152.831 198.004 152.477C197.599 152.317 197.373 152.228 197.41 151.921C197.485 151.327 199.087 151.315 199.686 151.746C201.636 153.002 203.078 154.746 203.811 156.736C205.063 159.562 204.874 160.558 204.229 163.971C204.149 164.393 204.062 164.851 203.97 165.355C203.817 166.225 204.196 166.474 204.896 166.933C205.797 167.524 207.23 168.464 208.745 171.53C210.251 174.578 209.15 176.911 208.225 178.873C207.495 180.418 206.875 181.733 207.724 182.984C208.893 184.714 209.562 186.658 209.674 188.654C209.406 190.44 208.682 192.154 207.551 193.674C207.215 194.231 207.548 194.537 207.973 194.928C207.994 194.947 208.015 194.967 208.037 194.987C209.31 196.136 210.04 197.648 210.085 199.231C210.13 200.814 209.487 202.355 208.281 203.555C207.902 204.003 208.065 204.295 208.295 204.706C208.62 205.286 209.078 206.105 208.331 207.937C208.076 208.562 207.814 209.022 207.613 209.375C207.22 210.066 207.059 210.348 207.634 210.659C208.447 211.099 209.282 210.973 210.24 210.828C211.505 210.638 212.984 210.415 214.907 211.419C215.676 211.821 216.161 212.189 216.543 212.48C217.157 212.946 217.509 213.214 218.356 213.106C219.682 212.874 221.033 212.76 222.388 212.766C223.871 213.139 225.255 213.755 226.462 214.581C227.72 215.803 228.971 215.606 230.346 215.389C231.698 215.175 233.171 214.942 234.889 216.025C237.653 217.765 238.449 218.234 239.664 217.915C240.785 217.62 241.975 217.574 243.123 217.781C244.27 217.989 245.337 218.445 246.221 219.103C247.635 220.158 250.922 220.407 251.741 218.949C251.771 218.897 256.015 211.852 256.341 211.498C263.049 204.231 272.644 210.287 269.219 211.834C268.928 211.965 268.628 212.014 268.376 212.055C267.912 212.132 267.607 212.182 267.8 212.678C268.304 213.97 268.036 214.708 266.315 214.916C265.742 214.988 265.355 214.939 264.981 214.892C264.307 214.807 263.673 214.727 262.071 215.37C261.182 215.726 261.158 215.973 261.071 216.851C261.02 217.382 260.946 218.139 260.646 219.287C260.609 219.545 260.609 219.808 260.646 220.067C261.784 220.031 261.914 219.954 262.148 219.815C262.434 219.643 262.877 219.377 265.583 218.985C267.501 218.708 269.4 220.462 267.543 221.503C266.365 222.165 265.397 222.616 264.569 223.002C262.829 223.812 261.715 224.329 260.596 225.916C260.012 226.846 259.179 227.645 258.166 228.246C257.15 228.847 255.983 229.232 254.76 229.373C253.696 229.309 252.521 230.146 251.089 231.169C249.139 232.559 246.707 234.292 243.412 234.567C242.644 234.562 241.89 234.739 241.232 235.079C240.575 235.417 240.039 235.905 239.685 236.488C238.76 237.486 237.533 238.25 236.138 238.697C234.743 239.144 233.232 239.257 231.767 239.023C230.957 239.023 230.161 239.209 229.462 239.559C228.762 239.91 228.185 240.414 227.788 241.017C224.571 244.347 221.918 244.476 219.516 244.594C217.694 244.684 216.016 244.766 214.347 246.234C211.737 248.533 209.185 248.515 205.451 248.434C204.483 248.413 203.465 248.865 202.287 249.386C200.023 250.389 197.17 251.652 192.959 250.323C191.391 249.826 190.44 250.116 187.878 250.897C187.506 251.01 187.1 251.133 186.654 251.266C185.095 251.575 183.479 251.613 181.902 251.38C180.324 251.146 178.818 250.645 177.471 249.906C177.101 249.647 176.672 249.459 176.211 249.352C175.75 249.246 175.268 249.225 174.797 249.289C171.152 249.397 208.252 263.691 233.635 267.594C234.022 267.653 234.591 267.746 235.305 267.862C241.978 268.937 261.328 272.06 263.593 269.953C264.49 268.885 265.081 267.649 265.317 266.349C265.554 265.049 265.431 263.72 264.957 262.468C264.426 261.318 265.394 260.121 266.641 258.588C268.455 256.351 270.853 253.396 270.015 248.821C270.007 248.776 269.999 248.733 269.991 248.69C269.742 247.359 269.668 246.95 271.485 244.206C273.981 240.758 274.909 236.646 274.095 232.652C273.912 231.836 274.381 231.022 274.997 229.953C276.053 228.119 277.538 225.542 276.856 220.951C276.718 220.028 276.596 219.364 276.504 218.863C276.259 217.561 276.225 217.377 276.713 216.626C278.84 212.897 279.161 208.601 277.607 204.671C277.246 203.963 277.143 203.178 277.31 202.419C278.44 199.28 278.769 195.97 278.275 192.712C277.862 191.66 279.952 191.26 280.132 194.662C280.321 198.171 279.819 199.953 279.461 201.224C279.124 202.42 278.915 203.164 279.53 204.469C281.772 209.209 279.655 214.608 278.737 216.942C278.498 217.552 278.342 217.953 278.366 218.078C279.4 221.419 279.294 224.943 278.058 228.234C277.97 228.461 277.899 228.595 277.912 228.722C277.947 229.078 278.644 229.386 281.469 231.539C287.416 236.073 290.751 245.791 289.34 249.661C288.854 250.987 298.136 252.466 301.908 249.123C302.733 248.39 303.377 248.565 304.42 248.849C305.483 249.137 306.964 249.538 309.473 249.207C312.377 248.824 313.797 248.157 314.85 247.662C315.709 247.259 316.325 246.968 317.303 247.041C318.471 247.22 319.659 247.279 320.842 247.216C323.967 246.649 325.325 245.664 326.397 244.889C327.293 244.238 327.985 243.734 329.346 243.75C332.328 243.784 337.103 242.571 338.026 239.894C338.262 239.209 339.087 239.035 340.129 238.815ZM263.219 210.941C263.577 210.913 263.943 210.884 264.309 210.847C264.317 210.914 264.296 210.966 264.315 210.999C264.376 211.102 264.832 211.032 267.742 210.727C269.376 210.543 261.487 206.624 257.455 212.315C256.45 213.731 255.604 215.105 254.856 216.322C253.548 218.443 252.534 220.09 251.479 220.666C249.32 221.847 250.293 226.882 250.972 228.509C251.216 229.098 251.683 229.212 252.391 228.933C253.386 228.543 254.129 228.438 254.802 228.343C255.678 228.218 256.436 228.112 257.487 227.413C258.72 226.592 259.346 225.812 259.943 225.07C260.739 224.075 261.482 223.149 263.561 222.294C264.617 221.924 265.601 221.419 266.479 220.797C266.535 220.761 266.442 220.443 266.381 220.443C265.307 220.273 263.158 221.092 261.567 221.698C260.901 221.949 260.333 222.167 259.98 222.258C259.269 222.444 258.535 223.081 257.872 223.655C257.055 224.365 256.352 224.975 255.938 224.526C255.673 224.236 255.946 224.007 256.198 223.798L256.269 223.737C258.259 221.741 259.479 219.266 259.766 216.656C259.731 216.245 259.819 215.835 260.018 215.459C260.216 215.084 260.519 214.757 260.903 214.508C261.917 213.892 263.132 213.561 264.376 213.562C264.431 213.567 266.248 213.632 266.248 213.449C266.262 212.449 261.789 211.333 259.797 212.92C259.524 213.141 259.41 213.24 259.275 213.273C259.11 213.313 258.914 213.258 258.368 213.208C258.983 211.277 260.991 211.118 263.219 210.941Z" fill="black"/>
<path d="M381.753 216.376C379.649 213.913 377.376 211.559 374.944 209.327C367.941 203.596 369.063 203.657 355.948 212.999C342.295 222.722 341.094 222.779 341.263 224.464C341.454 226.258 349.669 236.213 351.585 237.292C352.8 237.973 353.561 237.973 355.587 237.145C357.184 236.301 358.731 235.387 360.216 234.407C364.636 231.527 377.535 224.128 380.172 221.872C382.22 220.109 383.286 218.231 381.753 216.376ZM365.805 228.594C363.346 230.216 360.073 232.246 355.863 234.511C354.272 235.367 352.8 236.154 351.447 234.983C348.622 232.198 346.107 229.195 343.932 226.013C342.937 224.441 343.258 224.051 343.831 223.518C344.935 222.479 348.075 220.386 357.603 213.741C368.24 206.32 368.553 205.802 371.851 208.848C371.92 208.984 371.943 209.133 371.925 209.279C371.904 209.426 371.84 209.566 371.739 209.685C370.339 211.101 372.341 212.123 375.026 214.879C375.286 215.15 375.639 215.345 376.034 215.437C376.432 215.528 376.851 215.512 377.235 215.389C378.482 215.09 378.469 215.117 379.251 216.006C381.782 218.871 381.705 218.098 365.805 228.585V228.594Z" fill="black"/>
<path d="M373.187 189.467C373.612 189.547 373.628 189.24 373.739 188.957C380.331 171.96 382.917 169.157 381.647 168.848C379.875 168.42 371.789 189.206 373.187 189.467Z" fill="black"/>
<path d="M380.995 237.015C380.449 237.448 381.716 238.044 386.547 246.633C392.441 257.114 391.897 256.958 392.786 255.966C391.194 251.172 382.098 236.141 380.995 237.015Z" fill="black"/>
<path d="M416.48 226.07C411.572 224.861 390.266 220.121 394.11 222.77C394.771 222.702 398.553 223.14 415.403 226.914C416.941 227.261 418 227.696 418.32 227.259C418.74 226.71 417.222 226.252 416.48 226.07Z" fill="black"/>
<path d="M343.832 208.567C343.744 208.433 343.713 208.302 343.617 208.249C343.004 207.852 342.344 207.51 341.646 207.231C339.988 206.707 319.98 200.62 319.452 202.037C319.242 202.606 321.38 202.743 323.319 203.251C344.606 208.823 342.641 209.245 343.832 208.567Z" fill="black"/>
<path d="M348.553 183.607C354.513 195.281 353.593 195.401 354.755 194.183C352.707 188.37 346.797 176.794 344.428 174.761C344.357 174.7 343.898 174.814 343.964 174.988C344.221 175.816 343.311 173.337 348.553 183.607Z" fill="black"/>
<path d="M400.918 195.322C406.314 191.938 409.165 190.537 409.754 189.852C412.802 186.314 388.87 200.82 389.279 202.728C391.488 201.83 388.512 203.109 400.918 195.322Z" fill="black"/>
<path d="M372.122 215.219C370.814 214.979 368.191 214.686 366.816 214.539C365.771 214.539 365.636 214.702 365.944 215.483C366.509 216.921 366.88 216.83 365.883 217.136C353.575 220.915 353.736 220.633 355.76 221.72C359.079 223.502 358.23 222.4 349.869 226.102C348.399 226.753 349.471 228.079 350.222 228.397C350.657 228.581 351.386 228.17 351.625 228.057C364.143 222.525 364.27 223.233 360.681 221.55C360.365 221.402 360.315 221.139 361.05 220.842C362.925 219.948 364.883 219.189 366.904 218.574C368.649 218.136 368.286 221.91 370.087 219.452C372.968 215.501 373.331 215.442 372.122 215.219Z" fill="#FFD700"/>
<path d="M415.735 0.00412109C453.137 0.298969 491.645 28.2301 491.998 68.0459C492.08 77.1764 490.021 86.2285 485.939 94.6659C481.857 103.104 475.838 110.755 468.236 117.168C460.633 123.58 451.604 128.623 441.68 131.998C431.757 135.373 421.144 137.011 410.467 136.816C344.239 135.831 309.888 71.2303 347.74 27.772C363.338 9.85884 385.413 -0.234025 415.735 0.00412109ZM460.933 120.27C472.334 112.465 480.926 102.065 485.722 90.2686C490.515 78.4722 491.319 65.7581 488.035 53.5893C479.016 16.7651 431.579 -8.91162 384.174 6.10974C350.109 16.9035 331.215 47.1095 334.018 72.2532C340.703 132.232 416.984 151.51 460.933 120.27Z" fill="black"/>
<path d="M415.016 88.8525C424.905 87.5982 429.502 99.814 421.295 109.288C414.345 117.312 403.828 114.665 402.493 107.296C400.801 97.9655 408.027 89.7416 415.016 88.8525ZM420.852 92.0595C419.937 91.2294 418.73 90.6785 417.414 90.4907C416.099 90.3031 414.749 90.4893 413.568 91.0207C418.481 92.3997 419.091 96.8315 418.441 101.257C417.765 105.116 416.08 108.795 413.51 112.021C418.16 112.914 428.63 99.2152 420.847 92.0595H420.852Z" fill="black"/>
<path d="M376.186 78.932C376.345 81.8616 375.451 84.7625 373.626 87.2451C371.798 89.7275 369.127 91.6728 365.971 92.8193C359.62 94.5272 354.174 90.2315 353.769 84.0691C352.617 66.7412 376.342 62.4319 376.186 78.932ZM364.379 70.3587C353.05 73.9876 352.551 91.5492 363.496 91.5492C363.663 91.5245 363.825 91.4746 363.971 91.4018C363.907 91.2671 363.822 91.1403 363.719 91.0253C358.09 86.3372 361.647 73.466 369.395 70.8396C369.501 70.7903 369.602 70.7334 369.698 70.6695C368.889 70.2943 367.997 70.072 367.079 70.0176C366.162 69.9632 365.241 70.0779 364.379 70.3542V70.3587Z" fill="black"/>
<path d="M387.903 49.5752C377.362 49.9335 372.826 42.6962 383.794 36.5293C397.368 28.8996 414.254 32.1769 410.161 40.0289C407.129 45.8465 395.185 49.7589 387.903 49.5752ZM379.232 43.905C381.11 48.6498 378.211 43.0228 389.874 39.4302C404.893 34.801 407.289 41.0178 407.936 40.1945C410.838 36.552 407.153 32.6464 395.511 34.1932C389.301 35.0142 379.746 39.1693 379.232 43.9005V43.905Z" fill="black"/>
<path d="M446.011 57.9708C446.155 67.6123 438.12 70.4746 434.414 62.1871C431.154 54.893 434.313 44.1673 440.781 47.0773C444.629 48.801 445.966 54.2262 446.011 57.9708ZM437.788 48.5606C439.29 49.9659 440.338 51.6805 440.831 53.5367C442.049 57.3187 441.804 61.3363 440.136 64.9904C439.754 65.7842 441.425 65.1356 441.643 64.9065C446.762 59.4745 442.985 46.762 437.788 48.5606Z" fill="black"/>
<path d="M363.81 31.5292C363.203 42.0915 349.929 50.15 347.995 43.187C346.51 37.8412 354.446 27.39 361.258 28.1589C362.778 28.3312 363.982 30.7603 363.81 31.5292ZM350.595 43.8606C350.794 44.0112 351.054 44.0922 351.319 44.0874C351.871 43.9695 351.16 43.6724 351.396 42.9534C352.152 39.7226 353.889 36.7192 356.436 34.2463C357.866 32.6966 359.648 31.4112 361.677 30.4677C361.582 30.2691 361.441 30.0887 361.264 29.9375C361.086 29.7862 360.874 29.6671 360.643 29.587C360.409 29.5072 360.16 29.468 359.908 29.4721C359.659 29.4759 359.409 29.5231 359.181 29.6104C357.049 30.5569 355.168 31.8687 353.653 33.4638C352.141 35.059 351.027 36.9034 350.382 38.8822C349.852 40.2862 349.152 43.0282 350.595 43.8606Z" fill="black"/>
<path d="M469.983 87.9655C469.142 96.7429 458.16 101.016 455.625 95.2687C455.227 93.9373 455.155 92.5504 455.412 91.1941C455.67 89.8378 456.251 88.5414 457.118 87.3851C457.985 86.2289 459.123 85.2377 460.458 84.4734C461.795 83.7091 463.299 83.1876 464.88 82.9418C466.922 82.6152 469.97 84.3752 469.983 87.9655ZM461.378 94.8151C460.733 95.3118 460.203 95.5477 459.606 96.0103C464.492 97.4279 471.975 86.294 465.537 84.7698C465.734 86.6006 465.463 88.4459 464.744 90.1787C464.025 91.9117 462.877 93.491 461.378 94.8083V94.8151Z" fill="black"/>
<path d="M471.149 65.1463C470.544 63.0313 470.621 60.8152 471.377 58.7356C472.131 56.656 473.534 54.7912 475.433 53.341C478.412 51.3542 482.065 53.493 482.943 57.1468C485.699 68.537 473.293 74.1686 471.149 65.1463ZM479.98 55.3256C479.664 54.8713 479.16 54.5354 478.569 54.3848C477.974 54.2342 477.338 54.2802 476.783 54.5136C476.192 54.7858 476.205 54.8198 476.563 55.3732C477.842 57.7683 478.104 60.4689 477.309 63.012C475.9 67.403 473.847 67.4824 475.507 67.8362C480.354 68.8704 483.118 58.7163 479.98 55.3256Z" fill="black"/>
<path d="M450.216 20.1261C455.025 23.8434 453.983 27.2092 450.322 27.3657C443.038 27.6764 432.515 18.958 437.741 16.5493C441.208 14.9504 447.277 17.8557 450.216 20.1261ZM439.871 17.6992C438.937 17.9079 438.279 17.9124 438.279 18.645C438.279 19.5885 438.9 18.5475 442.041 20.0603C449.911 23.8548 449.065 26.3133 450.795 25.6125C454.078 24.2721 445.606 17.7673 439.868 17.6947L439.871 17.6992Z" fill="black"/>
<path d="M374.922 109.288C384.7 111.946 385.798 120.794 380.66 119.775C378.527 119.247 376.601 118.233 375.092 116.842C373.58 115.45 372.54 113.734 372.084 111.876C372.031 111.539 372.065 111.196 372.185 110.872C372.307 110.548 372.511 110.251 372.781 110.003C373.055 109.755 373.386 109.563 373.758 109.439C374.129 109.315 374.527 109.263 374.922 109.288ZM374.27 111.039C374.179 111.077 374.102 111.135 374.049 111.208C373.996 111.28 373.964 111.364 373.962 111.45C373.959 111.536 373.983 111.621 374.033 111.696C374.084 111.771 374.155 111.833 374.243 111.876C376.832 113.286 378.885 115.313 380.145 117.707C380.19 117.803 380.254 117.89 380.339 117.965C380.421 118.039 380.522 118.099 380.633 118.14C380.742 118.182 380.861 118.204 380.983 118.206C381.103 118.208 381.222 118.19 381.336 118.152C381.448 118.115 381.551 118.059 381.636 117.987C381.723 117.916 381.792 117.831 381.843 117.736C381.89 117.642 381.917 117.54 381.92 117.437C381.922 117.334 381.901 117.231 381.856 117.135C380.389 112.814 375.583 110.472 374.275 111.039H374.27Z" fill="black"/>
<path d="M434.227 117.035C435.492 116.076 437.033 115.42 438.691 115.137C440.349 114.853 442.065 114.951 443.665 115.42C446.912 116.185 447.394 118.734 445.874 119.972C440.933 123.996 430.152 120.866 434.227 117.035ZM440.858 116.598C434.988 116.638 434.696 119.478 435.818 118.906C437.065 118.426 438.415 118.174 439.781 118.167C441.147 118.161 442.5 118.399 443.752 118.868C445.089 119.38 446.278 116.979 440.861 116.598H440.858Z" fill="black"/>
<path d="M402.27 11.2292C401.658 9.69142 403.597 8.28069 405.337 7.77945C415.815 4.69489 420.539 11.5331 409.968 13.4496C407.21 13.9418 403.186 13.5199 402.27 11.2292ZM413.833 9.64152C409.202 6.96521 403.514 10.0339 404.098 10.6621C404.682 11.2904 405.536 12.0752 406.13 11.3789C406.804 10.857 407.623 10.4953 408.512 10.3297C409.401 10.1642 410.324 10.2006 411.189 10.4353C411.531 10.5397 411.838 10.7188 412.178 10.8323C412.764 11.0296 413.915 10.3038 413.833 9.64379V9.64152Z" fill="black"/>
<path d="M408.855 71.5632C408.199 71.5067 407.579 71.2915 407.064 70.9429C406.547 70.5945 406.16 70.127 405.942 69.5961C405.727 69.0649 405.695 68.4922 405.847 67.9456C406 67.3988 406.332 66.9007 406.804 66.5099C407.587 65.6392 408.627 64.9613 409.815 64.5458C411.364 63.2417 415.492 63.185 416.513 65.453C417.786 68.2722 413.446 71.4158 408.855 71.5632ZM413.807 66.8706C414.911 67.2992 415.205 66.0722 414.237 65.6277C410.566 63.9402 406.39 68.6011 407.977 69.5083C408.436 69.7714 408.82 67.1382 413.807 66.8706Z" fill="black"/>
<path d="M159.19 55.4315C161.492 47.4049 161.354 49.9632 155.728 51.6529C155.023 51.8661 154.577 51.1834 155.264 50.8092C161.479 47.4071 161.458 48.9948 158.214 45.756C157.386 44.9304 155.694 43.3224 156.845 42.8438C157.24 42.6782 157.447 42.9413 157.641 43.1364C162.19 47.5886 161.169 47.6589 162.291 43.8304C163.352 40.2333 163.837 37.5184 164.819 38.1603C165.66 38.7182 162.925 45.5314 163.137 46.704C163.277 47.4956 170.692 43.1114 171.625 44.9758C171.665 45.0506 171.397 45.257 171.241 45.3772C170.347 46.0576 173.363 44.1978 164.238 48.0263C162.272 48.8519 163.901 48.6455 167.087 53.2995C167.156 53.4102 167.176 53.5388 167.142 53.6611C167.108 53.7833 167.024 53.8908 166.903 53.9634C166.783 54.0358 166.636 54.0684 166.491 54.0546C166.344 54.041 166.209 53.9822 166.11 53.8892C165.076 53.0433 162.832 49.9542 162.338 50.1538C161.598 50.4667 161.002 57.9377 159.19 55.4315Z" fill="black"/>
<path d="M42.6476 181.358C42.5203 181.682 39.5998 189.124 39.6608 189.43C42.6927 188.539 48.1491 186.84 48.303 188.133C48.303 188.316 48.0696 188.661 47.3374 188.752C44.8816 189.188 42.4903 189.856 40.2072 190.743C39.5653 190.952 39.5467 191.142 39.9419 191.687C42.7192 195.645 42.9288 195.819 42.8306 196.409C42.4885 198.464 39.804 193.51 38.5546 192.415C37.4511 193.755 36.414 198.552 35.1062 198.162C33.7985 197.772 37.7748 191.902 36.5386 192.075C34.8038 192.317 32.1592 194.021 31.6684 192.859C31.496 192.458 31.3448 192.519 36.1169 190.721C37.3795 190.244 37.2734 190.682 33.9762 186.536C33.069 185.402 33.268 185.309 33.5385 185.025C33.9152 184.633 34.4988 185.107 34.8144 185.479C39.0029 190.344 37.2018 190.532 41.1383 181.759C41.3584 181.263 41.7298 180.56 42.2418 180.791C42.4381 180.877 42.5097 181.149 42.6476 181.358Z" fill="black"/>
<path d="M465.196 317.949C463.645 318.158 461.321 320.095 460.687 319.31C460.228 318.752 460.981 318.487 464.265 316.775C465.531 316.115 465.801 316.303 465.326 315.557C461.629 309.814 461.65 310.419 461.843 309.22C463.499 309.744 465.326 313.37 466.448 314.273C466.918 313.645 466.218 315.008 468.658 308.687C468.87 308.133 469.175 307.605 469.425 307.058C469.451 306.954 469.525 306.863 469.629 306.806C469.732 306.747 469.86 306.727 469.982 306.75C470.897 306.92 470.403 307.582 469.578 309.873C467.722 315.064 467.398 315.316 469.027 314.763C473.205 313.352 473.271 313.175 474.406 313.116C475.157 313.075 474.955 313.724 474.672 313.937C474.499 314.069 471.518 315.194 468.708 316.298C467.472 316.784 467.992 316.648 470.006 319.641C470.342 320.14 470.563 320.692 470.894 321.209C471.136 321.587 471.109 321.909 470.629 322.086C469.807 322.395 469.491 320.952 467.096 318.172C465.438 320.642 466.088 321.474 464.549 323.762C464.483 323.862 463.992 324.094 463.915 323.622C463.634 321.919 465.35 319.136 465.196 317.949Z" fill="black"/>
<path d="M392.43 294.196C363.164 270.232 313.679 287.633 313.464 322.774C313.361 328.072 314.507 333.334 316.828 338.247C319.152 343.159 322.605 347.623 326.985 351.372C331.364 355.121 336.582 358.078 342.325 360.07C348.068 362.061 354.219 363.045 360.416 362.964C402.316 362.83 422.75 319.025 392.43 294.196ZM320.775 342.104C317.658 337.41 315.727 332.209 315.106 326.838C314.488 321.465 315.191 316.042 317.175 310.919C319.16 305.793 322.377 301.082 326.621 297.086C330.868 293.092 336.046 289.901 341.821 287.723C347.598 285.546 353.845 284.428 360.158 284.441C366.469 284.455 372.711 285.6 378.472 287.805C384.236 290.009 389.393 293.221 393.616 297.235C397.836 301.25 401.025 305.977 402.977 311.109C419.617 355.636 347.837 382.031 320.778 342.104H320.775Z" fill="black"/>
<path d="M335.295 366.521C317.257 394.802 320.971 393.951 317.326 392.051C315.734 391.221 315.915 390.774 316.774 389.531C323.743 379.431 333.796 363.335 333.865 362.981C333.918 362.707 333.366 362.301 333.069 362.623C331.268 364.537 315.474 390.481 314.615 389.649C310.798 385.952 313.782 381.307 316.668 382.094C317.36 382.282 317.305 381.829 317.464 381.57C317.939 380.846 314.737 380.422 313.22 381.951C312.098 383.173 311.487 384.682 311.487 386.235C311.487 387.791 312.098 389.3 313.22 390.522C314.167 391.554 314.015 391.264 307.368 401.948C304.53 406.514 301.75 410.78 301.508 411.248C301.052 412.128 302.039 412.663 302.734 411.824C303.429 410.984 306.774 404.808 314.851 392.672C315.307 391.992 315.177 392.956 318.196 393.933C319.196 394.257 318.535 394.584 317.644 396.201C305.405 418.258 305.562 416.698 306.394 417.31C307.673 418.249 310.716 409.669 319.891 395.36C320.764 393.999 323.005 395.632 326.92 395.026C330.634 394.45 332.846 391.704 332.167 391.343C331.616 391.05 331.342 391.413 331.029 391.701C329.098 393.484 327.114 394.423 321.745 393.566C321.236 393.486 321.045 393.362 321.154 393.094C321.44 392.389 336.87 366.331 336.274 366.068C336.016 365.957 335.693 365.907 335.295 366.521Z" fill="black"/>
<path d="M315.239 414.099C315.111 414.004 315.045 413.956 314.835 414.221C314.758 414.339 314.774 414.514 315.024 414.886C316.334 416.859 316.438 417.993 315.61 419.136C315.05 419.907 313.721 420.59 311.485 419.887C310.793 419.66 310.315 419.971 310.583 420.611C311.811 423.532 310.217 429.109 305.543 428.46C303.543 428.184 302.044 426.666 301.318 423.802C300.933 422.275 300.49 422.895 300.121 423.226C299.262 424.312 298.142 425.231 296.84 425.922C293.49 427.698 288.983 425.203 288.85 421.073C288.956 419.785 289.389 418.531 290.116 417.399C290.842 416.265 291.848 415.283 293.063 414.514C294.408 413.688 295.299 414.362 296.068 414.392C296.172 414.405 296.278 414.392 296.373 414.355C296.469 414.319 296.551 414.26 296.609 414.185C296.668 414.11 296.699 414.024 296.699 413.933C296.702 413.845 296.676 413.757 296.62 413.679C296.283 413.087 293.763 412.092 294.41 409.37C295.187 406.113 298.124 404.977 299.999 405.621C301.495 406.138 300.97 406.877 301.312 407.104C301.654 407.331 301.864 407.213 301.864 407.009C302.527 404.514 298.429 403.661 296.166 405.036C294.784 405.821 293.768 406.998 293.299 408.361C292.829 409.722 292.938 411.182 293.604 412.482C294.171 413.419 292.373 412.55 289.739 415.693C283.991 422.55 290.609 429.349 296.482 427.397C297.829 426.914 298.991 426.122 299.843 425.108C301.095 424.085 300.657 429.919 306.631 429.644C310.933 429.454 312.241 426.131 312.119 421.84C312.119 421.486 311.899 421.091 312.257 421.08C313.215 421.289 314.228 421.187 315.103 420.792C315.976 420.397 316.647 419.74 316.984 418.946C317.223 418.077 317.188 417.172 316.881 416.319C316.575 415.467 316.008 414.7 315.239 414.099Z" fill="black"/>
<path d="M354.969 290.754C347.486 291.739 340.449 294.431 334.605 298.548C309.201 320.124 324.825 349.967 351.441 354.594C356.82 355.587 362.388 355.564 367.757 354.532C373.126 353.498 378.169 351.477 382.53 348.608C386.893 345.739 390.474 342.092 393.021 337.921C395.567 333.75 397.024 329.155 397.281 324.456C397.541 319.754 396.602 315.061 394.525 310.704C392.448 306.347 389.286 302.428 385.259 299.221C381.232 296.012 376.437 293.594 371.206 292.131C365.975 290.671 360.433 290.201 354.969 290.754ZM359.972 353.983C352.648 354.042 345.475 352.21 339.393 348.724C333.308 345.238 328.599 340.262 325.88 334.449C323.161 328.633 322.559 322.253 324.156 316.141C325.75 310.031 329.469 304.474 334.822 300.201C353.552 284.588 388.559 290.714 395.397 317.264C400 335.14 382.246 354.108 359.972 353.983Z" fill="black"/>
<path d="M374.704 298.056C363.834 301.982 353.534 306.969 344.003 312.918C343.096 313.528 342.693 313.905 344.003 316.223C346.799 321.163 350.04 325.907 353.698 330.416C353.924 330.738 354.25 330.997 354.643 331.165C355.032 331.333 355.473 331.398 355.908 331.36C360.417 331.31 364.898 331.398 369.394 331.133C375.036 330.8 377.182 331.303 377.272 329.908C378.078 317.717 377.084 297.348 374.704 298.056ZM373.755 299.482C373.033 300.741 369.51 305.592 366.765 310.085C363.624 315.225 363.831 315.676 362.821 315.393C355.658 313.379 344.273 314.088 344.913 313.608C354.078 308.26 363.722 303.535 373.755 299.482ZM354.775 329.661C351.08 325.381 347.862 320.816 345.167 316.021C344.106 314.322 344.411 314.567 345.295 314.581C356.056 315.647 356.271 315.386 362.412 316.366C363.208 316.493 362.86 316.54 359.889 321.582C353.725 332.076 355.518 329.45 354.775 329.661ZM368.961 330.189C354.505 330.416 355.735 330.722 356.566 329.35C358.903 325.495 358.539 325.871 363.744 317.584C364.372 316.581 363.744 316.533 374.723 328.132C376.497 330.008 376.654 329.765 368.991 330.174L368.961 330.189ZM375.593 327.4C372.725 323.496 369.325 319.895 365.465 316.676C364.585 315.894 364.155 316.88 369.213 308.797C375.102 299.387 374.415 300.478 374.702 300.256C375.256 300.814 376.192 324.524 376.139 324.524C376.158 327.89 376.354 328.47 375.601 327.4H375.593Z" fill="black"/>
<path d="M373.862 332.789C362.652 333.524 353.209 333.807 352.939 333.735C352.143 333.508 352.541 334.207 348.196 327.359C340.307 314.928 340.585 313.885 340.585 321.317C340.508 321.317 340.872 326.511 340.88 326.581C343.405 350.103 343.843 347.255 347.079 346.166C354.268 343.9 361.162 340.999 367.645 337.507C368.345 337.13 374.069 333.925 374.624 333.408C375.048 333.018 374.154 332.771 373.862 332.789ZM345.097 344.696C344.71 343.941 341.649 319.725 341.819 319.294C342.678 320.077 347.18 329.335 351.368 334.037C351.721 334.433 351.886 333.835 345.769 343.814C345.241 344.708 345.275 344.569 345.103 344.696H345.097ZM346.291 344.891C352.718 335.03 352.448 334.839 353.204 334.912C353.352 334.912 361.586 334.883 362.647 334.812C366.732 334.54 368.202 334.157 371.483 334.152C371.939 333.925 371.825 333.944 371.953 334.03C371.892 334.046 345.052 346.79 346.296 344.891H346.291Z" fill="black"/>
</svg>
