<svg width="24" height="25" viewBox="0 0 24 25" fill="none" xmlns="http://www.w3.org/2000/svg">
<path d="M15 23.0991H9C3.57 23.0991 1.25 20.7791 1.25 15.3491V9.34912C1.25 3.91912 3.57 1.59912 9 1.59912H15C20.43 1.59912 22.75 3.91912 22.75 9.34912V15.3491C22.75 20.7791 20.43 23.0991 15 23.0991ZM9 3.09912C4.39 3.09912 2.75 4.73912 2.75 9.34912V15.3491C2.75 19.9591 4.39 21.5991 9 21.5991H15C19.61 21.5991 21.25 19.9591 21.25 15.3491V9.34912C21.25 4.73912 19.61 3.09912 15 3.09912H9Z" fill="#111827"/>
<path d="M15.5801 19.5992C15.1701 19.5992 14.8301 19.2592 14.8301 18.8492V14.9492C14.8301 14.5392 15.1701 14.1992 15.5801 14.1992C15.9901 14.1992 16.3301 14.5392 16.3301 14.9492V18.8492C16.3301 19.2592 15.9901 19.5992 15.5801 19.5992Z" fill="#111827"/>
<path d="M15.5801 8.54912C15.1701 8.54912 14.8301 8.20912 14.8301 7.79912V5.84912C14.8301 5.43912 15.1701 5.09912 15.5801 5.09912C15.9901 5.09912 16.3301 5.43912 16.3301 5.84912V7.79912C16.3301 8.20912 15.9901 8.54912 15.5801 8.54912Z" fill="#111827"/>
<path d="M15.5805 13.7493C13.7305 13.7493 12.2305 12.2493 12.2305 10.3993C12.2305 8.54932 13.7305 7.04932 15.5805 7.04932C17.4305 7.04932 18.9305 8.54932 18.9305 10.3993C18.9305 12.2493 17.4205 13.7493 15.5805 13.7493ZM15.5805 8.54932C14.5605 8.54932 13.7305 9.37932 13.7305 10.3993C13.7305 11.4193 14.5605 12.2493 15.5805 12.2493C16.6005 12.2493 17.4305 11.4193 17.4305 10.3993C17.4305 9.37932 16.5905 8.54932 15.5805 8.54932Z" fill="#111827"/>
<path d="M8.41992 19.5989C8.00992 19.5989 7.66992 19.2589 7.66992 18.8489V16.8989C7.66992 16.4889 8.00992 16.1489 8.41992 16.1489C8.82992 16.1489 9.16992 16.4889 9.16992 16.8989V18.8489C9.16992 19.2589 8.83992 19.5989 8.41992 19.5989Z" fill="#111827"/>
<path d="M8.41992 10.4991C8.00992 10.4991 7.66992 10.1591 7.66992 9.74912V5.84912C7.66992 5.43912 8.00992 5.09912 8.41992 5.09912C8.82992 5.09912 9.16992 5.43912 9.16992 5.84912V9.74912C9.16992 10.1591 8.83992 10.4991 8.41992 10.4991Z" fill="#111827"/>
<path d="M8.42031 17.6492C6.57031 17.6492 5.07031 16.1492 5.07031 14.2992C5.07031 12.4492 6.57031 10.9492 8.42031 10.9492C10.2703 10.9492 11.7703 12.4492 11.7703 14.2992C11.7703 16.1492 10.2703 17.6492 8.42031 17.6492ZM8.42031 12.4492C7.40031 12.4492 6.57031 13.2792 6.57031 14.2992C6.57031 15.3192 7.40031 16.1492 8.42031 16.1492C9.44031 16.1492 10.2703 15.3192 10.2703 14.2992C10.2703 13.2792 9.45031 12.4492 8.42031 12.4492Z" fill="#111827"/>
</svg>
