<svg width="24" height="25" viewBox="0 0 24 25" fill="none" xmlns="http://www.w3.org/2000/svg">
<path d="M15 23.0991H9C3.57 23.0991 1.25 20.7791 1.25 15.3491V9.34912C1.25 3.91912 3.57 1.59912 9 1.59912H15C20.43 1.59912 22.75 3.91912 22.75 9.34912V15.3491C22.75 20.7791 20.43 23.0991 15 23.0991ZM9 3.09912C4.39 3.09912 2.75 4.73912 2.75 9.34912V15.3491C2.75 19.9591 4.39 21.5991 9 21.5991H15C19.61 21.5991 21.25 19.9591 21.25 15.3491V9.34912C21.25 4.73912 19.61 3.09912 15 3.09912H9Z" fill="black"/>
<path d="M7.33011 15.5891C7.17011 15.5891 7.01011 15.5391 6.87011 15.4291C6.54011 15.1791 6.48011 14.7091 6.73011 14.3791L9.11011 11.2891C9.40011 10.9191 9.81011 10.6791 10.2801 10.6191C10.7401 10.5591 11.2101 10.6891 11.5801 10.9791L13.4101 12.4191C13.4801 12.4791 13.5501 12.4791 13.6001 12.4691C13.6401 12.4691 13.7101 12.4491 13.7701 12.3691L16.0801 9.38913C16.3301 9.05913 16.8101 8.99913 17.1301 9.25913C17.4601 9.50913 17.5201 9.97913 17.2601 10.3091L14.9501 13.2891C14.6601 13.6591 14.2501 13.8991 13.7801 13.9491C13.3101 14.0091 12.8501 13.8791 12.4801 13.5891L10.6501 12.1491C10.5801 12.0891 10.5001 12.0891 10.4601 12.0991C10.4201 12.0991 10.3501 12.1191 10.2901 12.1991L7.91011 15.2891C7.78011 15.4891 7.56011 15.5891 7.33011 15.5891Z" fill="black"/>
</svg>
