<svg width="24" height="25" viewBox="0 0 24 25" fill="none" xmlns="http://www.w3.org/2000/svg">
<path d="M12 13.0991C8.83 13.0991 6.25 10.5191 6.25 7.34912C6.25 4.17912 8.83 1.59912 12 1.59912C15.17 1.59912 17.75 4.17912 17.75 7.34912C17.75 10.5191 15.17 13.0991 12 13.0991ZM12 3.09912C9.66 3.09912 7.75 5.00912 7.75 7.34912C7.75 9.68912 9.66 11.5991 12 11.5991C14.34 11.5991 16.25 9.68912 16.25 7.34912C16.25 5.00912 14.34 3.09912 12 3.09912Z" fill="#111827"/>
<path d="M20.5901 23.0991C20.1801 23.0991 19.8401 22.7591 19.8401 22.3491C19.8401 18.8991 16.3202 16.0991 12.0002 16.0991C7.68015 16.0991 4.16016 18.8991 4.16016 22.3491C4.16016 22.7591 3.82016 23.0991 3.41016 23.0991C3.00016 23.0991 2.66016 22.7591 2.66016 22.3491C2.66016 18.0791 6.85015 14.5991 12.0002 14.5991C17.1502 14.5991 21.3401 18.0791 21.3401 22.3491C21.3401 22.7591 21.0001 23.0991 20.5901 23.0991Z" fill="#111827"/>
</svg>
