<svg width="341" height="321" viewBox="0 0 341 321" fill="none" xmlns="http://www.w3.org/2000/svg">
<path fill-rule="evenodd" clip-rule="evenodd" d="M-39.1564 76.5775C-36.7027 82.3481 -33.6361 88.0422 -30.6392 91.7052C-27.3995 96.1792 -23.6264 100.311 -19.3878 104.025C26.1435 143.714 98.2213 125.148 117.799 74.9654C126.018 53.8888 124.611 26.326 107.132 4.60497C115.721 1.81368 124.046 -1.27309 132.346 -4.35096C158.838 -14.1745 185.083 -23.9064 218.839 -23.6417C242.843 -23.5239 266.009 -15.5731 284.143 -1.22826C321.353 27.4103 314.369 59.5512 308.386 87.0808C306.185 97.2092 304.12 106.714 304.441 115.189C305.023 130.468 310.169 141.703 315.784 153.962C322.78 169.233 330.503 186.094 331.031 214.341C331.672 248.57 316.795 269.994 297.038 285.56C265.244 310.607 218.768 313.377 178.235 299.065C132.567 282.941 113.089 288.164 91.8155 293.871C79.0675 297.288 65.6768 300.88 45.6196 300.154C15.6741 299.065 -8.61984 286.529 -17.5231 269.971C-28.9576 248.708 -24.9756 235.586 -20.8424 221.97C-17.2664 210.187 -13.5789 198.035 -19.6723 179.92C-22.8543 170.46 -27.1885 162.661 -31.5148 154.878C-35.9147 146.965 -40.3026 139.07 -43.4608 129.463C-46.5493 120.068 -50.0934 98.2443 -39.1564 76.5775ZM205.313 21.8458C197.005 28.7283 210.577 19.8675 214.815 15.9017C214.974 15.7924 215.173 15.7431 215.371 15.7638C215.824 15.8044 217.038 27.8784 217.448 31.9565L217.449 31.959L217.449 31.9628C217.531 32.7827 217.581 33.2776 217.585 33.284C218.929 32.1745 218.118 25.3825 217.591 20.9672L217.59 20.9657L217.59 20.9647L217.59 20.9637L217.59 20.9623C217.4 19.3704 217.247 18.0879 217.245 17.4935C217.245 17.0149 217.545 17.2394 220.418 19.3894C220.911 19.759 221.481 20.1855 222.139 20.6752C223.841 21.9437 223.954 22.1616 224.196 22.6301C224.248 22.7297 224.305 22.8415 224.385 22.9766C224.962 23.9748 226.117 22.7842 225.482 21.5917C224.951 20.5953 224.718 20.4214 220.716 17.4341L220.715 17.4328L220.713 17.4314L220.71 17.429C219.923 16.8422 218.992 16.1467 217.884 15.3155L217.777 15.2352C216.688 14.4178 216.658 14.3958 217.106 14.0141C218.311 12.9641 220.023 11.4842 221.719 10.0184L221.722 10.0155L221.725 10.0135L221.725 10.0129C224.718 7.42639 227.657 4.88593 227.665 4.83384C228.66 1.22744 217.842 11.1119 217.476 11.5185C216.414 12.6893 216.384 12.237 216.296 10.9188C216.269 10.5084 216.236 10.014 216.165 9.45846C215.538 4.58736 215.201 1.44397 214.983 -0.590103C214.606 -4.10975 214.584 -4.30777 214.033 -4.38817C213.053 -4.5292 214.12 4.37755 214.741 9.55847C214.919 11.045 215.06 12.2249 215.106 12.7962C215.15 13.3682 214.707 13.0278 214.225 12.6587L214.189 12.6311C206.514 6.74831 202.973 3.51888 201.216 1.91605C199.874 0.692558 199.572 0.416861 199.264 0.63212C198.806 0.951561 207.95 9.68715 213.558 14.221C213.593 14.2493 213.629 14.2731 213.662 14.2953C213.724 14.3368 213.777 14.3724 213.801 14.4203C213.943 14.6989 213.105 15.3926 207.382 20.1323L207.375 20.1383C206.748 20.6574 206.062 21.2249 205.313 21.8458ZM8.92001 238.136C8.87027 238.116 -1.63297 232.787 -2.47275 232.019C-2.63593 231.87 -2.41501 231.604 -2.25583 231.682C-1.10162 232.143 2.64157 233.771 5.77783 235.134H5.77979L5.80368 235.145L5.80768 235.146C8.32104 236.239 10.4364 237.159 10.5001 237.165C10.5001 237.161 10.4941 237.087 10.4822 236.947C10.325 235.048 9.19464 221.367 9.62845 219.401C9.67422 219.247 9.76776 219.109 9.89911 219.004C10.0305 218.899 10.1916 218.83 10.3647 218.808C11.1727 218.835 11.1528 219.777 11.113 221.844C11.0832 223.403 11.0394 225.605 11.3279 228.536C11.8513 233.838 11.915 235.381 11.9409 236.019V236.036C11.9548 236.39 11.9588 236.461 12.0264 236.769C12.1577 237.197 13.8373 236.067 15.8094 234.738C18.6053 232.856 21.9923 230.574 22.3864 231.785C22.3943 231.809 22.4023 231.83 22.4102 231.85C22.4222 231.885 22.4341 231.918 22.4401 231.948C22.4879 232.284 21.8252 232.705 14.6333 237.275L13.2582 238.15L13.2105 238.179C13.099 238.246 13.0234 238.292 13.0174 238.345C13.0015 238.461 13.312 238.611 14.293 239.089H14.295C15.0413 239.452 16.1776 240.003 17.8571 240.873C23.9226 244.015 21.5784 244.559 21.1585 244.174C20.868 243.909 14.7428 240.88 14.699 240.88C12.2234 239.662 12.11 239.66 12.1518 240.045C12.2871 241.259 13.1607 250.118 11.8533 250.391C11.6821 249.487 11.6801 249.447 11.6782 249.164C11.6722 248.75 11.6602 247.815 11.0931 242.864C11.0055 242.102 10.9816 241.49 10.9637 241.02C10.9379 240.319 10.922 239.933 10.727 239.829C10.4842 239.702 9.96677 240.011 8.80856 240.702C8.02451 241.169 6.94794 241.811 5.46738 242.61C5.2843 242.673 5.09326 242.71 4.89822 242.719C4.90817 242.653 4.91415 242.597 4.91812 242.543C4.94797 242.163 4.9639 241.976 7.08722 240.372C7.79169 239.84 8.32898 239.47 8.71704 239.203C9.28815 238.809 9.53494 238.639 9.51303 238.504C9.49713 238.401 9.32001 238.319 9.0076 238.176L8.92001 238.136ZM286.35 199.42C286.482 199.641 286.657 199.839 286.867 200.003C290.428 202.233 292.64 203.342 293.859 203.952C295.156 204.602 295.328 204.687 294.801 204.961C294.609 205.061 294.325 205.201 293.984 205.366C292.084 206.293 288.413 208.083 288.973 208.954C289.027 209.04 289.253 208.936 291.047 208.114C292.125 207.62 293.769 206.865 296.282 205.738C297.358 205.255 297.39 206.065 297.445 207.431C297.45 207.564 297.455 207.702 297.462 207.843C297.546 209.6 297.592 210.698 297.621 211.384C297.663 212.392 297.668 212.51 297.702 212.517C297.707 212.517 297.712 212.517 297.717 212.515C297.723 212.513 297.73 212.513 297.737 212.513C297.701 212.815 297.664 213.08 297.633 213.308C297.517 214.154 297.467 214.519 297.737 214.55C298.824 214.659 298.841 208.107 298.845 206.736L298.845 206.62C302.81 208.655 303.846 209.533 304.199 209.833C304.372 209.978 304.38 209.985 304.489 209.922C305.024 209.606 305.068 208.499 303.93 207.771C302.207 206.669 300.975 205.976 300.159 205.515C299.243 204.999 298.85 204.778 298.875 204.605C298.893 204.477 299.146 204.375 299.59 204.197L299.669 204.166C300.054 204.012 300.203 203.954 300.254 203.934C300.18 203.959 300.264 203.89 307.141 200.966C308.037 200.585 308.276 198.291 299.687 202.631C298.713 203.123 298.718 202.994 298.747 202.137C298.76 201.767 298.778 201.262 298.724 200.614C298.497 197.87 298.504 196.727 298.508 196.002C298.511 195.396 298.513 195.084 298.375 194.371C298.373 194.278 298.35 194.186 298.308 194.102C298.266 194.017 298.206 193.941 298.131 193.877C298.056 193.813 297.969 193.764 297.873 193.734C297.777 193.701 297.676 193.686 297.574 193.692C297.472 193.695 297.372 193.719 297.28 193.759C297.188 193.799 297.106 193.855 297.038 193.924C296.97 193.993 296.918 194.075 296.885 194.162C296.852 194.251 296.838 194.343 296.845 194.436C296.83 194.786 296.907 195.086 296.967 195.318C297.015 195.503 297.053 195.647 297.024 195.745C296.891 196.195 297.195 202.217 297.235 202.731C297.244 202.847 297.255 202.954 297.264 203.05C297.299 203.413 297.321 203.642 297.211 203.725C297.026 203.869 296.466 203.604 294.965 202.894H294.962L294.961 202.892C294.117 202.495 292.977 201.956 291.438 201.269C289.808 200.625 288.214 199.906 286.662 199.115C286.455 199.006 286.262 199.293 286.35 199.42ZM300.275 203.927C300.272 203.927 300.262 203.93 300.254 203.934C300.274 203.927 300.278 203.925 300.275 203.927ZM187.091 78.7644C191.155 72.5827 193.543 65.6055 194.056 58.4128C194.08 58.0146 194.862 58.1375 195.42 58.2253L195.422 58.2255C195.54 58.244 195.648 58.2611 195.737 58.2713C215.256 60.7819 234.189 66.2024 251.78 74.3158C255.051 75.872 255.038 75.9474 254.918 76.6632C254.909 76.712 254.901 76.7637 254.893 76.8193L254.886 76.8659C253.055 90.257 242.056 108.628 233.107 119.263L233.087 119.286C232.46 120.034 232.357 120.156 219.534 114.066C204.679 107.276 191.076 98.4151 179.214 87.8031C178.655 87.2822 178.709 87.0644 179.159 86.6978C182.199 84.4069 184.869 81.7361 187.091 78.7644ZM291.795 130.259C284.656 128.384 271.761 124.27 267.582 122.818L267.116 122.656L266.616 122.481L266.586 122.471L266.572 122.466L266.561 122.462C263.139 121.269 262.132 120.918 261.799 121.328C261.682 121.475 261.409 121.934 262.619 122.479C266.275 124.114 278.869 128.138 286.384 130.305C288.768 130.993 292.983 131.686 292.859 130.949C292.807 130.642 292.455 130.432 291.795 130.259ZM269.079 107.376C269.795 107.067 292.779 118.226 293.565 118.703C294.825 119.469 294.724 119.852 294.361 120.195C293.791 120.737 292.134 119.842 290.896 119.173C290.624 119.027 290.372 118.891 290.157 118.783C286.77 117.097 283.897 115.671 281.464 114.464C268.671 108.118 268.057 107.814 269.079 107.376ZM298.429 109.625C299.548 108.358 280.197 97.1829 274.044 94.8524C273.932 94.811 273.809 94.8045 273.693 94.8335C273.577 94.8626 273.475 94.9257 273.402 95.013C273.329 95.1005 273.29 95.2072 273.291 95.317C273.291 95.4267 273.331 95.5332 273.405 95.6201C274.135 96.071 276.553 97.3941 279.62 99.073C286.071 102.604 295.397 107.708 297.96 109.587C298.119 109.703 298.29 109.781 298.429 109.625ZM285.564 74.9836C285.25 75.0829 284.776 75.0801 284.126 75.0763C281.807 75.0627 277.246 75.036 269.7 79.5882C269.445 79.8055 269.12 79.9424 268.774 79.9783C268.427 80.0142 268.077 79.9474 267.775 79.7879C261.276 76.1399 254.536 72.8626 247.593 69.9742C246.542 69.5277 246.2 68.8979 246.896 68.5476C249.531 66.9998 252.436 65.8717 255.485 65.2116C257.962 64.6695 260.5 64.3929 263.047 64.3876C269.271 64.7662 275.288 66.5771 280.537 69.6511C282.383 70.8418 284.157 72.1219 285.852 73.4862C285.983 73.5848 286.082 73.7129 286.141 73.8579C286.199 74.0028 286.215 74.1592 286.185 74.3113C286.156 74.4634 286.083 74.6057 285.974 74.7239C285.865 74.8418 285.723 74.9315 285.564 74.9836ZM236.066 118.77C234.745 120.33 234.48 120.642 235.245 120.958C236.383 121.428 242.753 123.774 243.686 124.094C243.89 124.164 244.084 124.232 244.27 124.297C246.574 125.103 247.544 125.443 249.479 123.776C257.827 116.594 269.505 96.0576 269.13 84.3363C269.089 83.0132 268.969 82.6883 268.551 82.4687C265.17 80.6918 258.225 77.3522 258.173 77.334C256.937 76.7748 256.758 77.6164 256.226 80.122C255.398 84.0254 253.714 91.9673 245.835 104.944C240.935 113.02 237.696 116.845 236.066 118.77ZM161.991 59.9772C170.602 57.654 177.336 56.9243 191.421 57.8427L191.48 57.8464C192.216 57.8916 192.535 57.911 192.217 59.8011C190.028 72.5787 183.66 81.2181 178.573 84.8481C178.412 84.9634 178.27 85.0656 178.144 85.1561C177.224 85.8186 177.182 85.8489 176.89 85.6413C171.738 81.9732 162.323 69.8108 160.14 62.9901C160.019 62.6821 159.971 62.3537 160.001 62.0274C160.03 61.7011 160.137 61.3843 160.312 61.0987C160.488 60.8132 160.728 60.5652 161.018 60.3716C161.307 60.1781 161.639 60.0436 161.991 59.9772ZM223.372 118.214C221.136 117.125 220.602 116.865 220.168 117.449C219.934 117.765 220.009 118.411 220.238 119.571C221.346 125.714 224.782 131.308 229.947 135.378C234.815 138.918 240.423 141.518 246.429 143.017C247.979 143.366 248.767 143.135 249.081 142.591C249.481 141.908 249.194 141.652 248.57 141.099C248.292 140.852 247.947 140.545 247.567 140.115C244.926 137.138 243.732 133.552 243.587 127.773C243.561 126.747 243.489 126.375 242.506 126.03C231.506 122.177 226.137 119.561 223.372 118.214ZM259.336 191.253C258.21 189.105 256.959 187.014 255.586 184.991C251.532 179.553 246.036 175.139 239.609 172.159C236.893 171.108 234.051 170.349 231.141 169.901C227.571 169.34 223.922 169.34 220.352 169.901C218.508 170.064 221.201 172.789 223.824 175.44C224.996 176.627 226.155 177.798 226.887 178.72C227.008 178.874 235.724 189.378 236.976 190.467C237.901 191.265 238.315 191.193 239.274 191.027C239.759 190.944 240.383 190.835 241.282 190.804C251.142 189.659 254.732 191.291 256.718 192.194C257.342 192.478 257.807 192.69 258.259 192.721C258.456 192.735 258.653 192.701 258.83 192.623C259.008 192.543 259.159 192.423 259.269 192.274C259.378 192.124 259.442 191.951 259.454 191.772C259.466 191.592 259.425 191.412 259.336 191.253ZM236.128 209.072C236.034 208.972 235.904 208.905 235.762 208.882C235.619 208.858 235.472 208.882 235.346 208.945C235.219 209.009 235.12 209.11 235.066 209.232C235.012 209.355 235.005 209.49 235.048 209.617C235.555 210.326 238.034 213.55 241.357 217.869L241.359 217.873L241.364 217.879L241.371 217.888L241.378 217.897L241.382 217.902C249.437 228.375 262.419 245.252 264.315 248.436C264.428 248.617 264.571 248.777 264.798 248.67C266.635 247.801 241.483 214.118 236.128 209.072ZM280.388 261.762C281.23 261.694 280.985 260.91 280.69 260.105C278.7 254.736 281.785 248.151 284.706 250.518C288.012 253.197 290.66 259.42 289.411 262.021C289.086 262.696 288.949 263.978 289.793 264.219C290.891 264.533 291.221 263.836 291.681 262.862C293.128 259.792 296.069 259.359 297.816 260.703C299.684 262.442 300.797 264.742 300.949 267.172C300.949 268.187 300.239 268.753 299.54 269.31C299.364 269.45 299.189 269.59 299.026 269.737C298.803 269.936 299.11 270.281 299.518 270.152C300.519 269.956 301.409 269.437 302.025 268.691C302.64 267.945 302.94 267.022 302.869 266.09C302.905 264.942 302.645 263.802 302.109 262.762C300.716 259.395 299.002 258.251 296.845 257.796C295.195 257.447 294.34 257.809 292.735 258.487L292.731 258.489C292.555 258.564 292.369 258.642 292.173 258.723C291.961 258.812 291.959 258.807 291.796 258.202C291.752 258.039 291.696 257.834 291.621 257.574C289.444 249.901 282.929 243.717 279.063 250.883C276.255 256.081 278.668 261.896 280.384 261.762H280.388ZM275.096 279.917C277.128 282.3 277.634 282.892 277.886 282.748C280.075 281.52 226.091 220.263 224.62 220.323C222.683 220.401 224.903 222.897 237.24 236.764C244.748 245.202 256.002 257.85 272.346 276.728H272.358C273.487 278.033 274.379 279.077 275.086 279.906L275.092 279.912L275.096 279.917ZM241.581 275.616C242.484 278.373 245.76 280.374 248.379 281.939C249.227 282.445 249.942 282.787 250.483 283.044C251.773 283.661 252.076 283.805 250.852 284.582C250.534 284.783 250.149 285.003 249.733 285.239H249.732C246.672 286.976 241.939 289.66 249.78 293.635C258.971 298.294 263.397 296.065 261.425 295.406C245.691 290.152 246.477 289.651 251.147 286.669H251.148C251.608 286.375 252.106 286.057 252.629 285.709C252.939 285.542 253.197 285.306 253.379 285.023C253.561 284.74 253.661 284.418 253.669 284.09C253.677 283.761 253.593 283.436 253.425 283.146C253.257 282.856 253.01 282.611 252.709 282.431C252.647 282.382 252.396 282.242 252.015 282.028C250.113 280.962 244.975 278.086 244.007 275.801C243.557 274.739 243.919 274.102 245.185 274.06C252.331 273.822 258.916 277.024 259.951 278.714C260.07 278.87 260.225 279 260.404 279.099C261.298 279.599 261.666 278.222 260.577 277.004C256.096 271.996 239.475 269.209 241.577 275.616H241.581ZM248.51 265.542C253.943 268.724 225.89 244.499 221.466 240.751C219.017 238.675 217.919 237.871 217.101 237.274L217.1 237.272C216.523 236.851 216.086 236.531 215.412 235.938C214.899 235.486 214.435 235.072 214.013 234.695C211.017 232.021 210.168 231.264 209.442 232.87C210.813 234.789 243.75 262.758 248.506 265.542H248.51ZM236.33 194.618L236.33 194.616C236.504 194.097 236.598 193.817 235.929 193.008C233.092 189.559 228.021 183.933 227.969 183.889C226.929 182.786 226.316 183.611 224.496 186.062C221.668 189.871 215.923 197.609 201.124 208.136C191.904 214.695 186.557 217.423 183.864 218.795C181.678 219.911 181.241 220.133 181.901 220.792C182.876 221.764 190.082 228.3 190.973 229.032C191.49 229.5 192.142 229.827 192.853 229.972C193.565 230.117 194.306 230.075 194.993 229.852C206.833 227.191 232.003 207.586 236.28 194.757H236.283C236.299 194.708 236.315 194.663 236.33 194.618ZM165.77 222.759C165.322 229.749 172.759 241.552 179.312 246.223L179.389 246.278C184.797 250.133 184.888 250.198 185.837 249.49C186.471 249.02 186.344 248.699 186.107 248.096C186.01 247.85 185.895 247.557 185.805 247.189C184.593 243.171 184.74 238.911 186.225 234.969C186.436 234.272 186.697 233.636 186.939 233.052C187.586 231.486 188.086 230.275 187.065 229.161C185.738 227.714 184.941 227.004 184.073 226.231C183.548 225.765 182.998 225.275 182.289 224.585C181.757 224.066 181.245 223.529 180.733 222.991C180.241 222.474 179.748 221.957 179.238 221.456C178.778 221.008 178.298 220.576 177.817 220.146L177.817 220.144C177.324 219.701 176.831 219.26 176.361 218.799C174.62 217.093 173.195 215.452 172.015 214.092C170.107 211.896 168.835 210.432 167.893 210.604C166.725 210.816 165.67 217.296 165.951 218.009C165.738 219.585 165.676 221.175 165.766 222.759H165.77ZM168.633 206.947C179.354 218.83 179.684 218.831 180.762 218.272C195.508 210.604 216.383 195.777 224.982 182.303C225.579 181.373 225.599 181.301 222.66 178.034C207.81 161.918 190.114 148.177 170.303 137.378C169.348 136.761 169.255 136.916 168.124 138.795C167.655 139.576 167.006 140.654 166.042 142.097C161.976 147.475 156.928 152.177 151.117 155.998C147.355 158.356 143.207 160.156 138.827 161.329C138.373 161.51 138.692 162.093 138.841 162.367C138.867 162.416 138.889 162.454 138.899 162.479C146.304 178.58 156.327 193.57 168.629 206.947H168.633ZM137.458 159.103C137.633 159.399 137.741 159.365 138.64 159.08C138.907 158.995 139.241 158.889 139.669 158.762C146.477 156.744 157.39 150.754 166.08 138.095C167.398 136.176 167.513 135.937 166.711 135.554C152.184 128.748 144.666 126.733 134.362 125.648C133.956 125.573 133.536 125.579 133.132 125.665C132.73 125.751 132.352 125.915 132.023 126.147C131.695 126.378 131.426 126.671 131.233 127.006C131.042 127.341 130.931 127.709 130.909 128.087C129.906 136.144 133.785 152.932 137.458 159.103ZM96.4064 284.986C92.4105 278.893 85.736 267.301 83.6704 263.466L83.4177 262.994L83.0336 262.279C81.4495 259.319 80.9719 258.427 80.4048 258.544C80.1938 258.584 79.6227 258.761 80.1282 259.97C81.6486 263.613 88.1598 274.915 92.2194 281.487C93.507 283.571 96.1994 286.854 96.681 286.206C96.8641 285.956 96.7765 285.549 96.4064 284.986ZM96.9337 252.589C97.7297 252.821 106.621 276.454 106.836 277.273C107.202 278.685 106.836 278.906 106.281 278.937C105.403 278.982 104.832 277.16 104.414 275.83C104.331 275.561 104.253 275.311 104.179 275.102C101.742 268.138 99.9884 263.29 98.7745 259.928C96.1278 252.605 96.0283 252.331 96.9337 252.589ZM117.679 273.448C119.55 273.232 113.445 252.031 110.577 246.223C110.533 246.111 110.448 246.015 110.334 245.951C110.221 245.889 110.088 245.866 109.958 245.882C109.827 245.899 109.708 245.957 109.618 246.046C109.528 246.134 109.477 246.249 109.469 246.369C109.678 247.185 110.476 249.732 111.491 252.972C113.658 259.894 116.814 269.982 117.347 273.116C117.381 273.31 117.453 273.476 117.679 273.448ZM135.01 238.501C134.674 238.363 134.294 238.04 133.781 237.602C131.968 236.061 128.471 233.088 119.236 231.685C118.374 231.555 117.777 231.264 117.604 230.582C115.485 223.538 112.882 216.621 109.813 209.874C109.357 208.845 109.59 208.136 110.398 208.339C113.636 208.878 116.75 209.914 119.606 211.408C121.934 212.619 124.103 214.069 126.067 215.731C130.547 220.084 133.743 225.402 135.355 231.188C135.866 233.299 136.226 235.439 136.435 237.593C136.449 237.753 136.417 237.913 136.342 238.058C136.268 238.203 136.153 238.328 136.007 238.419C135.864 238.511 135.697 238.568 135.522 238.58C135.347 238.595 135.17 238.568 135.01 238.501ZM56.4969 176.872C52.71 177.698 48.8295 178.108 44.937 178.096C44.7002 178.112 44.4933 178.052 44.3062 177.998C43.9122 177.883 43.6097 177.796 43.3291 178.509C44.3181 194.498 47.8026 210.277 53.6771 225.369C58.662 238.187 58.8392 238.158 59.86 237.989C59.8899 237.983 59.9197 237.98 59.9496 237.974C75.1472 235.646 97.9745 228.988 109.887 219.913C109.96 219.859 110.028 219.81 110.092 219.764C110.746 219.303 110.87 219.216 109.6 215.92C102.458 198.217 92.1856 181.7 79.1929 167.024C79.1332 166.959 79.0655 166.875 78.9899 166.784C78.6377 166.358 78.1442 165.759 77.7999 166.042C71.609 170.974 64.3515 174.663 56.4969 176.872ZM60.3217 240.92C59.9854 240.179 60.4332 240.114 62.664 239.78C65.4221 239.37 70.9085 238.551 81.0177 235.551C97.2501 230.732 104.778 225.741 108.478 223.287C110.85 221.714 111.648 221.185 112.157 222.416C112.181 222.467 114.915 229.554 116.087 233.154C116.227 233.584 116.068 233.923 115.067 234.969C106.151 244.236 80.956 252.371 69.0359 252.393C66.2241 252.393 65.7444 251.491 64.6082 249.358C64.5226 249.198 64.433 249.031 64.3395 248.857C63.8639 247.986 60.8232 242.022 60.3217 240.92ZM76.2477 163.888C66.1405 154 60.3973 150.145 51.9896 146.309C51.6672 146.13 51.307 146.017 50.9329 145.977C50.5608 145.936 50.1807 145.97 49.8225 146.075C49.4643 146.181 49.1339 146.357 48.8573 146.589C48.5807 146.821 48.3598 147.104 48.2146 147.422C44.6067 154.138 42.2744 169.585 43.2913 175.736C43.3411 176.037 43.4425 176.037 44.3181 176.05C44.5728 176.054 44.8932 176.057 45.2972 176.07C51.7886 176.275 63.1495 174.253 74.8547 165.873C76.6317 164.601 76.8069 164.432 76.2477 163.888ZM51.4961 228.384C52.2941 228.213 52.507 228.779 53.3866 231.117C54.4651 233.979 56.5407 239.492 61.9038 249.548C62.3873 250.456 62.1465 250.79 61.3645 251.592C56.9427 256.121 55.0482 259.644 54.7259 263.656C54.6801 264.234 54.7 264.693 54.7179 265.063C54.7577 265.898 54.7756 266.283 53.9438 266.548C53.2791 266.758 52.4831 266.424 51.5717 265.139C48.1529 260.063 45.8922 254.409 44.9251 248.516C44.1669 242.024 45.9221 235.493 49.8862 230.055C50.6384 229.017 51.0762 228.475 51.4961 228.384Z" fill="black"/>
<path d="M-45.8188 38.8097C-45.4725 36.1514 -44.9511 33.5142 -44.2606 30.9126C-42.189 20.8844 -37.7135 11.3976 -31.1545 3.13042C-4.69145 -30.4253 44.7859 -37.6 83.7322 -17.6786C94.4583 -12.0762 103.656 -4.33558 110.641 4.96484C117.626 14.2653 122.217 24.8852 124.07 36.0309C126.555 52.0374 124.555 66.7044 120.396 76.2949C114.364 90.196 103.73 103.006 95.9389 108.8C88.743 114.439 80.5621 118.94 71.7365 122.116C46.0018 131.654 10.4206 129.832 -13.3102 112.637C-26.1974 103.3 -34.9295 90.5953 -40.0378 81.435C-51.0286 57.8944 -45.8148 38.8369 -45.8188 38.8097ZM-44.1711 59.1704C-44.0755 66.2961 -37.1324 83.7672 -30.6391 91.7042C-27.3993 96.1782 -23.6263 100.31 -19.3876 104.024C26.1436 143.713 98.2214 125.147 117.799 74.9645C129.182 45.7648 122.101 4.14682 79.4437 -17.1776C41.4964 -36.1498 -5.57301 -25.0729 -27.1486 2.13762C-34.6469 11.1903 -39.8667 21.638 -42.4358 32.7385C-44.5691 41.4066 -45.1541 50.332 -44.1711 59.1704Z" fill="black"/>
<path d="M30.9919 73.2196C38.9082 70.6223 46.9836 78.3488 48.687 86.7904C50.1994 94.2827 46.9398 101.633 37.742 101.129C35.5789 101.129 29.0557 97.9744 25.7125 89.8123C25.203 88.1106 24.8428 86.3742 24.6378 84.6196C24.6359 83.0358 24.803 81.4555 25.1334 79.9006C25.5732 78.9514 26.7811 74.599 30.9919 73.2196ZM26.0906 84.6958C26.7015 91.4839 31.6625 97.2193 34.9779 98.4898C35.6008 98.8322 36.2555 99.1237 36.9341 99.3611C39.4614 99.8094 33.1531 95.2882 32.1402 85.8193C30.9064 74.3159 38.7589 75.9893 37.147 74.6571C33.6764 71.7785 25.3005 75.9294 26.0906 84.6886V84.6958Z" fill="black"/>
<path d="M80.4381 52.5041C85.5902 47.3096 95.4467 48.0065 100.414 59.5826C101.305 61.6644 101.132 61.4339 101.435 65.2726C101.015 70.4417 101.259 68.2529 100.543 70.1731C98.3421 76.0682 92 78.3406 88.3245 76.8033C85.8449 75.7615 85.2141 76.0446 81.4251 72.2259C81.1565 71.9536 81.0988 71.4999 80.8281 71.2331C77.3854 67.9897 75.5626 57.4173 80.4381 52.5041ZM83.9146 52.0467C85.4986 52.5482 86.9036 53.4319 87.9802 54.604C90.0617 56.6924 91.5124 59.2397 92.1851 61.9947C92.2885 62.6735 92.7701 63.2652 92.8318 63.9622C92.9791 65.6138 93.5601 69.8991 92.2766 72.1025C91.6796 73.1261 91.2995 74.3022 90.0776 74.9212C89.6299 75.148 89.7373 75.6236 90.0776 75.6145C91.5642 75.7826 93.0726 75.5735 94.4377 75.0101C101.506 71.1986 99.2734 61.1399 98.5292 60.0236C97.5342 58.2086 98.1312 58.3393 96.6466 56.4644C90.7841 47.7978 82.5932 51.3008 83.9146 52.0467Z" fill="black"/>
<path d="M43.7649 9.13014C47.317 7.07012 58.6899 6.40764 68.807 12.35C77.0775 17.2123 76.9561 23.0585 72.6836 25.879C70.4468 27.3527 64.3116 28.3419 57.8202 26.7084C51.3289 25.0749 48.9647 24.073 46.1907 22.3524C39.2058 18.0037 38.8894 11.9561 43.7649 9.13014ZM71.7204 22.0711C72.5164 23.2 72.2239 23.848 72.9821 23.0693C76.6596 19.2905 66.0787 9.74724 52.883 9.37517C48.0553 9.23904 43.0684 9.2826 42.2744 13.8165C42.0574 14.979 42.3321 16.1731 43.0385 17.1597C43.3529 17.5862 44.7877 16.4918 45.524 15.9437C50.7259 12.0723 67.5394 16.1651 71.7204 22.0711Z" fill="black"/>
<path d="M8.33056 47.4003C3.39934 46.2514 3.0471 41.8209 2.68094 37.2036C3.21625 32.2722 4.33462 24.3171 10.7902 24.6347C15.9642 24.8816 19.1382 39.7555 11.4011 46.3584C10.5136 46.9754 9.44496 47.338 8.33056 47.4003ZM11.031 26.1557C9.08277 25.4696 6.78432 27.506 6.11567 29.125C1.84911 39.4415 5.74953 46.3203 8.63901 45.9283C9.17233 45.8557 9.31361 45.6742 9.05889 45.2386C7.15446 41.9716 6.57337 34.5029 9.73946 28.7874C10.4598 27.4879 11.6061 27.3536 11.5424 26.486C11.5424 26.1557 11.2379 26.2301 11.031 26.1557Z" fill="black"/>
<path d="M90.5496 7.64466C90.456 6.80868 90.5655 5.96416 90.87 5.17082C91.3078 4.40326 92.0261 3.80068 92.9017 3.46872C93.7773 3.13693 94.7524 3.09682 95.6579 3.35582C101.767 4.83323 107.902 13.9373 107.279 19.1046C106.217 27.9218 93.3375 21.2154 90.5496 7.64466ZM102.915 18.4857C103.24 19.4135 103.357 20.3907 103.264 21.3606C103.385 22.0068 104.876 21.5421 105.367 20.4295C106.076 18.8305 105.494 14.3892 102.603 10.6939C100.267 7.70637 96.6927 4.45026 94.5097 4.68803C92.2868 4.68803 91.7237 6.03476 93.1346 6.58652C96.8539 8.03852 100.259 12.7575 102.04 16.0663C102.334 16.6126 102.673 17.923 102.915 18.4857Z" fill="black"/>
<path d="M1.95536 -8.18075C2.32152 -8.29691 7.8179 -11.6619 11.3521 -9.61823C13.0019 -8.66354 12.1262 -6.69245 12.0466 -6.38208C11.0676 -2.5488 0.162359 4.27923 -4.35096 1.28811C-7.77376 -0.978827 -1.32814 -6.74508 1.95536 -8.18075ZM-2.85846 0.391496C-2.06246 0.807131 -1.71022 0.908772 -0.305283 -0.862669C2.37127 -3.57246 5.73039 -5.6481 9.48154 -6.91025C10.18 -7.06271 11.1074 -6.83039 10.8745 -7.67799C10.5641 -8.79966 9.95316 -8.68532 8.65767 -8.71254C6.06072 -8.48857 3.57722 -7.63643 1.46384 -6.24414C-0.950027 -4.68324 -5.31213 -0.889894 -2.85846 0.391496Z" fill="black"/>
<path d="M8.36017 102.67C9.60392 102.617 10.8477 102.794 12.0158 103.189C13.1839 103.584 14.2526 104.191 15.158 104.971C15.4903 105.444 15.6814 105.986 15.7172 106.546C15.751 107.107 15.6276 107.666 15.357 108.169C13.8028 110.258 9.22185 110.405 5.72343 109.913C3.23991 109.565 2.77025 109.031 2.21703 107.821C1.17626 105.543 2.04192 102.67 8.36017 102.67ZM3.5543 105.781C3.88663 109.489 5.27369 104.606 12.1869 106.597C12.6068 106.717 13.3133 107.165 13.7789 107.253C14.4217 107.372 14.6824 105.957 12.7302 104.855C10.5651 103.96 8.14125 103.726 5.81892 104.189C5.16023 104.307 3.43291 105.178 3.5543 105.781Z" fill="black"/>
<path d="M78.5212 95.9677C79.4704 95.8062 80.1689 95.8679 81.1082 97.1184C83.0723 99.752 76.3063 108.141 71.4368 107.449C67.9861 106.959 68.7841 103.373 71.2199 100.385C73.2974 97.839 76.6446 95.5648 78.5212 95.9677ZM74.2646 103.71C75.1879 102.29 76.364 101.02 77.7431 99.9516C78.7819 99.0441 79.747 99.3073 79.6893 98.2219C79.6595 97.6393 79.5421 97.5141 78.8694 97.4959C78.3879 97.4457 77.9003 97.4841 77.4347 97.6088C76.969 97.7335 76.5372 97.9419 76.1611 98.2219C73.8407 100.102 73.1761 99.3835 70.6965 104.68C70.0677 106.017 72.6388 106.858 73.2178 105.348C73.5283 104.781 73.8805 104.234 74.2725 103.71H74.2646Z" fill="black"/>
<path d="M40.8137 44.3489C42.153 44.7702 43.3351 45.5247 44.2266 46.5269C44.8594 47.3261 45.2893 48.2428 45.4883 49.2113C45.8385 50.2804 45.0743 51.1334 44.2943 51.8957C43.759 52.413 42.9231 52.4257 41.8306 52.6017C40.6645 52.6282 39.5063 52.4183 38.4397 51.9866C37.3711 51.555 36.4238 50.9127 35.6616 50.1061C34.2189 49.0643 33.2955 46.4616 34.4 45.2782C35.2039 44.4949 36.2706 43.9781 37.4327 43.8097C38.5929 43.6415 39.7829 43.8311 40.8137 44.3489ZM35.7671 46.772C35.7671 49.0389 37.7909 46.732 40.8137 48.7158C42.4913 49.8175 42.7182 50.8793 43.2435 50.6325C43.3968 50.5593 43.5261 50.4495 43.6177 50.3145C43.7072 50.1796 43.755 50.0248 43.757 49.8665C43.8047 48.9988 43.544 48.1401 43.0127 47.4181C42.4834 46.6961 41.7112 46.1494 40.8137 45.859C37.7551 44.407 35.4129 45.496 35.7472 46.7665L35.7671 46.772Z" fill="black"/>
<path d="M198.187 161.944C201.184 165.142 203.129 169.048 203.797 173.21C204.465 177.371 203.828 181.622 201.962 185.468C200.095 189.316 197.073 192.603 193.246 194.95C189.419 197.298 184.941 198.61 180.331 198.738C177.143 198.837 173.964 198.362 170.978 197.338C166.536 195.804 162.677 193.127 159.87 189.632C157.064 186.136 155.43 181.972 155.168 177.647C153.794 156.606 183.008 145.761 198.187 161.944ZM156.68 180.442C157.312 183.533 158.687 186.459 160.704 189.009C162.722 191.559 165.334 193.67 168.351 195.191C172.031 196.988 176.154 197.895 180.327 197.828C204.713 195.877 210.458 169.924 192.615 158.715C175.766 148.128 152.996 161.697 156.68 180.442Z" fill="black"/>
<path fill-rule="evenodd" clip-rule="evenodd" d="M198.999 180.438C198.251 183.455 196.648 186.239 194.351 188.513C192.053 190.787 189.14 192.473 185.905 193.399C167.364 198.889 152.149 178.277 165.082 164.688C177.923 151.195 203.461 161.406 198.999 180.438ZM176.576 171.565L176.575 171.563C174.973 169.55 170.931 164.468 170.795 164.239C170.397 163.562 187.254 170.109 186.411 170.394C186.331 170.421 185.428 170.577 184.472 170.742H184.471C183.652 170.884 182.794 171.031 182.383 171.111C179.494 171.681 178.315 172.138 177.777 172.349C177.394 172.498 177.335 172.521 177.215 172.369C177.183 172.327 176.945 172.029 176.579 171.568L176.576 171.565ZM179.051 174.901C180.041 176.231 181.358 178.002 182.089 179.068C182.203 179.235 182.295 179.387 182.374 179.518C182.819 180.249 182.827 180.26 183.792 178.088C185.225 174.853 186.054 173.087 186.503 172.131C186.91 171.263 187.007 171.06 186.959 171.026C186.944 171.015 186.915 171.02 186.878 171.029C186.853 171.033 186.824 171.04 186.793 171.042C177.602 172.935 177.612 172.95 177.903 173.345L177.929 173.381C178.147 173.685 178.559 174.238 179.051 174.901ZM179.613 177.266C180.454 178.369 180.943 178.997 181.249 179.389C181.514 179.729 181.641 179.892 181.74 180.035C182.008 180.424 181.391 180.449 179.666 180.516C178.173 180.574 175.848 180.667 172.548 181.055C172.534 181.055 172.507 181.057 172.474 181.061C172.276 181.077 171.823 181.115 171.931 180.856C172.242 180.269 173.34 178.549 176.584 173.888L176.604 173.859C176.693 173.735 176.751 173.652 176.822 173.643C176.961 173.623 177.147 173.884 177.7 174.661C178.103 175.227 178.699 176.064 179.613 177.266ZM170.375 164.88C170.385 165.617 170.652 168.882 170.724 169.712C170.969 172.567 171.129 174.699 171.245 176.26C171.537 180.166 171.561 180.482 171.989 179.543C173.042 177.287 174.436 175.175 176.13 173.271L176.158 173.238C176.253 173.131 176.32 173.055 176.343 172.968C176.398 172.757 176.188 172.488 175.465 171.565C175.274 171.32 175.046 171.027 174.777 170.679C172.897 168.238 171.793 166.68 171.162 165.788C170.541 164.911 170.375 164.677 170.375 164.88ZM186.882 177.647C187.105 177.122 187.361 176.507 187.611 175.908C188.014 174.941 188.4 174.013 188.602 173.577C188.907 172.766 188.909 182.473 188.91 186.099V186.101C188.91 186.753 188.91 187.21 188.912 187.371C188.912 187.718 188.65 187.33 188.023 186.402C187.429 185.522 186.507 184.155 185.171 182.471C185.15 182.446 185.13 182.422 185.112 182.398C185.042 182.315 184.992 182.253 184.967 182.186C184.903 182.006 185.011 181.776 185.402 180.946C185.706 180.298 186.182 179.286 186.882 177.647ZM185.272 183.892C184.307 182.629 184.19 182.525 183.593 182.484C183.051 182.511 180.422 182.647 178.092 182.767C176.093 182.87 174.315 182.963 174.262 182.965C173.396 183.144 188.737 188.355 188.309 187.727C188.125 187.459 188.04 187.359 187.854 187.141C187.549 186.787 186.977 186.121 185.272 183.892Z" fill="black"/>
<path d="M90.9158 191.592C92.6033 193.938 93.7077 196.594 94.1555 199.369C94.6012 202.146 94.3803 204.979 93.5028 207.669C92.6272 210.359 91.1187 212.843 89.083 214.947C87.0472 217.051 84.5338 218.726 81.716 219.853C78.8981 220.98 75.8435 221.534 72.7689 221.474C69.6924 221.414 66.6676 220.744 63.9035 219.51C61.1394 218.276 58.7056 216.506 56.7674 214.326C54.8311 212.146 53.4381 209.605 52.6878 206.885C46.9726 186.773 76.4266 173.162 90.9158 191.592ZM85.6224 216.766C88.3387 214.842 90.476 212.321 91.8312 209.439C93.1863 206.556 93.7177 203.407 93.3714 200.285C93.0272 197.165 91.8192 194.176 89.8611 191.597C87.9029 189.02 85.2582 186.938 82.1757 185.548C79.0932 184.157 75.6724 183.504 72.2376 183.647C68.8029 183.793 65.4637 184.731 62.5364 186.375C59.6071 188.02 57.1853 190.316 55.4958 193.047C53.8063 195.781 52.9068 198.859 52.8789 201.995C52.8351 205.476 53.8699 208.899 55.8639 211.869C57.8599 214.836 60.7354 217.23 64.1562 218.775C67.579 220.318 71.4098 220.947 75.2067 220.592C79.0056 220.236 82.6155 218.909 85.6224 216.764V216.766Z" fill="black"/>
<path fill-rule="evenodd" clip-rule="evenodd" d="M57.3617 207.294C56.5736 205.268 56.2532 203.118 56.4184 200.974C56.689 197.088 58.5477 193.436 61.6302 190.743C64.7107 188.048 68.7882 186.507 73.0568 186.425C77.4288 186.36 81.6675 187.81 84.9132 190.481C88.1609 193.155 90.1748 196.85 90.5489 200.825C90.7379 202.967 90.4394 205.121 89.6733 207.154C88.9051 209.185 87.6873 211.051 86.0933 212.634C84.4993 214.216 82.565 215.481 80.4098 216.351C78.2567 217.22 75.9284 217.674 73.5722 217.683C71.216 217.694 68.8837 217.26 66.7186 216.411C64.5555 215.559 62.6073 214.311 60.9974 212.742C59.3875 211.174 58.1497 209.319 57.3617 207.294ZM77.7074 212.679C76.4955 212.369 73.8866 211.697 68.2589 209.869C68.237 209.862 68.2151 209.857 68.1952 209.853C68.1634 209.846 68.1355 209.838 68.1176 209.824C68.032 209.753 68.1375 209.488 68.7405 207.958C68.8917 207.577 69.0728 207.116 69.2897 206.561C69.3076 206.515 69.3235 206.472 69.3375 206.435V206.434C69.4111 206.241 69.4449 206.149 69.5106 206.123C69.5683 206.101 69.6499 206.13 69.8051 206.185C69.8648 206.205 69.9365 206.23 70.02 206.257C71.8528 206.842 73.1264 207.274 74.016 207.577C75.5204 208.089 75.9323 208.229 76.1095 208.1C76.1771 208.051 76.209 207.964 76.2547 207.846C76.2667 207.815 76.2786 207.784 76.2925 207.749C76.9831 205.811 77.799 203.911 78.7323 202.059C78.8397 201.856 78.8417 201.856 79.4487 202.087C79.6238 202.154 79.8467 202.237 80.1372 202.343C80.7262 202.553 81.1899 202.716 81.5541 202.845C82.5988 203.214 82.8277 203.294 82.8416 203.399C82.8456 203.428 82.8317 203.459 82.8157 203.499C82.8058 203.522 82.7959 203.549 82.7859 203.58C81.566 206.762 80.173 209.886 78.6069 212.938C78.4696 212.877 78.2089 212.81 77.7074 212.679ZM66.2888 201.571C67.0828 201.852 67.2918 201.927 67.3773 201.863C67.4072 201.84 67.4211 201.798 67.441 201.742C67.449 201.718 67.4569 201.693 67.4689 201.664C68.2589 199.796 68.7902 198.504 69.1564 197.613C69.825 195.99 69.9464 195.698 70.0738 195.694C70.1016 195.694 70.1315 195.707 70.1653 195.723C70.1852 195.732 70.2051 195.741 70.227 195.75C70.8996 196.003 71.413 196.197 71.827 196.353L71.8329 196.355C72.5493 196.625 72.9692 196.785 73.3891 196.937C73.9821 197.153 74.5771 197.36 76.0079 197.858L76.4915 198.025L76.5234 198.036C76.5771 198.055 76.6169 198.07 76.6567 198.065C76.7821 198.05 76.8776 197.821 77.2855 196.841C77.4487 196.447 77.6636 195.934 77.9502 195.264C78.0139 195.117 78.0716 195.001 78.1173 194.908C78.3004 194.538 78.3104 194.516 77.8029 194.34C71.8827 192.271 70.7106 191.926 68.832 191.373C68.5693 191.295 68.2927 191.213 67.9863 191.122H67.9843C67.7753 191.091 67.7674 191.09 66.6908 193.008C65.3814 195.366 64.2471 197.8 63.2939 200.295C63.2879 200.315 63.2799 200.333 63.2739 200.35C63.258 200.397 63.2441 200.431 63.252 200.462C63.27 200.546 63.4391 200.602 64.0739 200.812C64.3286 200.896 64.657 201.005 65.0809 201.15C65.5883 201.324 65.9823 201.462 66.2888 201.571ZM82.7262 200.106C82.1531 199.907 81.3173 199.615 80.0855 199.215C80.0695 199.21 80.0536 199.206 80.0397 199.203C79.9959 199.19 79.9621 199.179 79.9402 199.159C79.8606 199.079 79.9661 198.841 80.4775 197.707L80.6725 197.271C81.367 195.723 81.4208 195.66 81.6198 195.687C82.776 196.054 83.9003 196.498 84.9829 197.017L85.0067 197.028C85.0764 197.061 85.1242 197.083 85.15 197.117C85.2097 197.199 85.15 197.351 84.951 197.852C84.7739 198.304 84.4834 199.043 84.0655 200.27C83.9719 200.54 83.952 200.533 82.7262 200.106ZM64.6013 208.559C65.1605 207.466 65.65 206.345 66.0679 205.199C66.0739 205.185 66.0818 205.172 66.0878 205.159C66.1734 205 66.1754 204.996 64.1774 204.292L63.6879 204.118C62.1138 203.553 62.0958 203.548 62.0123 203.775C61.5924 204.898 61.1665 206.17 61.0173 206.679C61.0053 206.717 60.9894 206.751 60.9775 206.784C60.8402 207.107 60.8402 207.107 64.6013 208.559ZM72.1334 199.729C72.2449 199.664 72.4817 199.772 73.3752 200.065C75.1702 200.653 75.5702 200.733 75.598 200.874C75.606 200.912 75.5861 200.956 75.5582 201.016C75.5582 201.018 75.5522 201.028 75.5443 201.05C75.403 201.384 74.2747 204.058 74.1154 204.268C74.0677 204.243 74.0458 204.228 74.0239 204.217C73.9443 204.172 73.8468 204.15 72.3623 203.649C71.9961 203.526 71.7036 203.432 71.4728 203.357C70.6011 203.074 70.5792 203.067 70.6807 202.883C70.7961 202.673 70.8718 202.499 71.0947 201.994C71.2757 201.582 71.5524 200.95 72.026 199.9C72.0658 199.814 72.0877 199.756 72.1334 199.729Z" fill="black"/>
<path d="M217.509 67.5203C220.869 67.5488 224.164 68.3619 227.081 69.8822C229.999 71.4022 232.44 73.5788 234.173 76.204C235.905 78.8292 236.872 81.8156 236.98 84.8784C237.087 87.9411 236.333 90.9777 234.788 93.699C233.244 96.4202 230.96 98.7351 228.156 100.423C225.352 102.11 222.12 103.114 218.77 103.339C215.419 103.564 212.061 103.002 209.016 101.707C205.971 100.412 203.341 98.4272 201.376 95.9414C199.181 93.267 197.856 90.0824 197.554 86.7528C197.252 83.423 197.985 80.0832 199.67 77.1162C201.354 74.1491 203.921 71.6752 207.076 69.978C210.231 68.2808 213.847 67.429 217.509 67.5203ZM206.642 99.4788C209.063 101.018 211.849 102.012 214.772 102.378C217.696 102.745 220.673 102.474 223.459 101.588C238.432 96.8908 240.625 77.9622 226.852 70.7149C222.674 68.4685 217.704 67.7866 212.987 68.8128C208.269 69.8388 204.171 72.4929 201.555 76.2172C198.938 79.9414 198.006 84.4459 198.955 88.7838C199.903 93.1216 202.659 96.9553 206.642 99.4788Z" fill="black"/>
<path fill-rule="evenodd" clip-rule="evenodd" d="M223.878 72.1814C221.763 71.338 219.47 70.9305 217.162 70.9877C213.04 71.1084 209.133 72.696 206.277 75.4105C203.422 78.1252 201.844 81.7514 201.883 85.5131C201.881 88.4378 202.882 91.2899 204.746 93.6699C206.61 96.05 209.243 97.8388 212.277 98.7862C214.449 99.4983 216.767 99.7649 219.066 99.5669C221.364 99.3687 223.586 98.7109 225.574 97.6403C227.562 96.5698 229.267 95.1125 230.567 93.3725C231.867 91.6324 232.73 89.6524 233.096 87.5734C233.461 85.4943 233.319 83.3673 232.681 81.3439C232.042 79.3206 230.922 77.4504 229.401 75.8666C227.879 74.283 225.994 73.0247 223.878 72.1814ZM209.62 81.2116C208.741 81.8365 208.032 82.6384 207.548 83.5548C206.571 85.6366 209.158 88.6475 211.558 88.083C211.805 88.0231 212.05 88.2048 211.851 88.5006C211.539 88.9649 211.341 89.4853 211.271 90.026C211.201 90.5667 211.26 91.1148 211.444 91.6326C211.629 92.1504 211.934 92.6256 212.339 93.0256C212.744 93.4255 213.24 93.7405 213.791 93.9493C215.819 94.717 217.675 94.7116 220.545 92.4337C220.858 92.1853 220.891 92.2227 221.141 92.5103C221.241 92.6263 221.378 92.7831 221.582 92.9781C222.88 94.2177 223.105 94.4684 223.245 94.4339C223.28 94.4253 223.31 94.3994 223.349 94.3667C224.668 93.3064 224.932 93.1597 224.91 93.0723C224.904 93.0489 224.877 93.0296 224.845 92.998C223.296 91.458 222.776 91.0037 222.86 90.6808C222.906 90.5028 223.136 90.3647 223.478 90.1069C223.547 90.0539 223.592 90.0131 223.644 90.0033C223.787 89.9768 223.982 90.1835 224.853 91.0144C225.199 91.3438 225.44 91.584 225.612 91.7557C226.032 92.1746 226.041 92.1838 226.163 92.0835C227.175 91.2398 227.643 91.0081 227.652 90.7623C227.663 90.4699 227.022 90.1579 225.872 88.7711C225.787 88.6702 225.729 88.6054 225.723 88.5366C225.705 88.344 226.097 88.1204 227.464 86.9906C228.741 85.938 228.738 85.9322 228.68 85.8021C228.679 85.7996 228.677 85.797 228.676 85.7943C228.212 85.2449 227.718 84.7173 227.196 84.2136C227.13 84.1419 227.098 84.0822 227.049 84.064C226.909 84.0125 226.622 84.2926 224.985 85.5731C224.843 85.6807 224.768 85.768 224.681 85.7798C224.422 85.815 224.052 85.1728 221.433 82.3732C219.736 80.5606 218.702 79.6164 218.124 79.088C217.428 78.4524 217.391 78.4187 217.652 78.1985C217.96 77.939 218.215 77.7302 218.435 77.55C218.693 77.3384 218.904 77.1658 219.098 76.9952C219.308 76.8122 219.445 76.716 219.466 76.6019C219.51 76.3697 219.081 76.0626 217.837 74.7972C217.804 74.7616 217.781 74.7326 217.751 74.7219C217.639 74.6816 217.416 74.8989 216.087 75.9989C215.895 76.1579 215.728 76.2975 215.582 76.4193C214.706 77.1509 214.6 77.2387 214.406 77.0877C214.255 76.9703 213.556 76.275 213.05 75.7719C212.798 75.521 212.594 75.3181 212.529 75.2582C212.389 75.1275 212.372 75.141 211.784 75.6049C211.564 75.7782 211.265 76.0143 210.85 76.3293C210.813 76.3583 210.784 76.3775 210.774 76.4028C210.733 76.506 210.999 76.7131 212.279 78.1443C212.762 78.6797 212.716 78.8319 212.517 79.0134C212.201 79.2986 212.036 79.4775 211.855 79.4922C211.529 79.5187 211.151 79.0126 209.743 77.6342C209.655 77.55 209.603 77.4921 209.539 77.478C209.371 77.4409 209.122 77.707 207.93 78.5998C207.762 78.727 207.786 78.7526 208.421 79.4374C208.438 79.456 208.456 79.475 208.474 79.4946C209.506 80.6087 209.824 80.8495 209.784 81.0198C209.77 81.0806 209.709 81.1323 209.62 81.2116ZM221.665 88.2101C220.583 89.2295 219.334 90.091 217.964 90.764C217.501 90.9732 216.976 91.0377 216.468 90.9471C215.962 90.8563 215.502 90.6157 215.16 90.2623C214.818 89.9091 214.613 89.4628 214.578 88.9925C214.542 88.5224 214.678 88.0549 214.963 87.6621C215.839 86.5134 216.93 85.515 218.187 84.7127C218.609 84.3951 218.637 84.4094 219.066 84.7579C219.85 85.3812 220.555 86.0825 221.168 86.8488C221.234 86.933 221.294 87.0103 221.35 87.0815C221.971 87.8723 221.996 87.9037 221.665 88.2101ZM214.79 84.6508C213.849 85.248 213.059 85.6182 212.095 85.2643C210.203 83.992 211.083 82.6237 212.848 81.188C213.105 80.9789 213.308 80.7931 213.478 80.6382C214.027 80.1375 214.218 79.9625 214.706 80.3785C215.452 81.0176 216.129 81.7202 216.728 82.4767C217.001 82.8197 216.963 82.9594 216.69 83.2134C216.108 83.7466 215.472 84.228 214.79 84.6508Z" fill="black"/>
</svg>
